<svg width="23" height="24" viewBox="0 0 23 24" fill="none" xmlns="http://www.w3.org/2000/svg">
<g clip-path="url(#clip0_76_2900)">
<path d="M5.037 0H17.963C20.7449 0 23 2.35312 23 5.256V18.744C23 21.6469 20.7449 24 17.963 24H5.037C2.25508 24 0 21.6469 0 18.744V5.256C0 2.35312 2.25508 0 5.037 0Z" fill="url(#paint0_linear_76_2900)"/>
<path d="M7.37094 17.4198L7.37309 17.4205L6.58669 18.8418C6.29964 19.3606 5.66391 19.5383 5.16671 19.2388C4.66961 18.9393 4.49917 18.2759 4.78622 17.7571L5.36554 16.7101L5.42115 16.6096C5.52043 16.4607 5.76543 16.2037 6.25553 16.252C6.25553 16.252 7.40885 16.3826 7.49232 17.0081C7.49232 17.0081 7.50364 17.2139 7.37094 17.4198ZM18.5244 13.7898H16.0722C15.9052 13.7781 15.8323 13.7158 15.8036 13.6796L15.8018 13.6763L13.1768 8.93203L13.1734 8.93438L13.016 8.69888C12.758 8.28713 12.3483 9.34013 12.3483 9.34013C11.8591 10.5135 12.4177 11.8475 12.6124 12.2507L16.2585 18.8404C16.5454 19.3591 17.1812 19.5369 17.6784 19.2373C18.1755 18.9378 18.346 18.2744 18.0588 17.7556L17.1472 16.1078C17.1295 16.0679 17.0988 15.9595 17.2857 15.9591H18.5244C19.0985 15.9591 19.5639 15.4734 19.5639 14.8744C19.5639 14.2753 19.0985 13.7898 18.5244 13.7898ZM13.7614 15.2642C13.7614 15.2642 13.8923 15.959 13.3859 15.959H4.32074C3.74664 15.959 3.28125 15.4733 3.28125 14.8743C3.28125 14.2752 3.74664 13.7896 4.32074 13.7896H6.65129C7.02755 13.7669 7.11668 13.5402 7.11668 13.5402L7.11884 13.5413L10.1609 8.04309L10.16 8.04291C10.2155 7.93669 10.1693 7.83628 10.1613 7.82044L9.15658 6.00459C8.86953 5.48588 9.03988 4.82241 9.53707 4.52297C10.0343 4.22344 10.67 4.40109 10.9571 4.91991L11.423 5.76206L11.8881 4.92141C12.1752 4.40269 12.8109 4.22484 13.3081 4.52447C13.8053 4.824 13.9756 5.48728 13.6886 6.00609L9.45531 13.657C9.4368 13.7036 9.43114 13.7768 9.56887 13.7896H12.0992L12.0998 13.8154C12.0998 13.8154 13.5623 13.8391 13.7614 15.2642Z" fill="white"/>
</g>
<defs>
<linearGradient id="paint0_linear_76_2900" x1="1150" y1="0" x2="1150" y2="2400" gradientUnits="userSpaceOnUse">
<stop stop-color="#17C9FB"/>
<stop offset="1" stop-color="#1A74E8"/>
</linearGradient>
<clipPath id="clip0_76_2900">
<rect width="23" height="24" fill="white"/>
</clipPath>
</defs>
</svg>
