<svg width="14" height="14" viewBox="0 0 14 14" fill="none" xmlns="http://www.w3.org/2000/svg">
<g clip-path="url(#clip0_76_3392)">
<path d="M5.43085 0C5.81177 0.7875 6.34494 2.38117 4.62119 4.18483C3.56535 5.2815 2.82569 6.43008 3.25035 7.72275C3.46327 8.36617 3.94277 9.18517 4.93444 9.34733C5.29027 9.40567 5.71785 9.34733 5.94944 9.26567C7.38094 8.76692 7.17327 7.27358 6.85652 6.321C6.81569 6.19675 6.7451 5.89342 6.71885 5.782C6.50127 4.8475 7.17152 4.23267 7.37744 3.563C7.39377 3.50875 7.40835 3.45683 7.41827 3.40433C7.44277 3.28183 7.45735 3.15758 7.46377 3.03217C7.46377 1.96642 6.88744 1.498 6.42835 0.932167C5.93835 0.329 5.43085 0 5.43085 0ZM9.09185 3.5105C9.09185 3.5105 8.67827 3.7065 8.38077 4.02558C8.12119 4.30675 7.87735 4.53833 7.62594 5.11C7.6096 5.19167 7.5956 5.27683 7.58219 5.3655C7.44685 6.32275 8.25185 7.1995 8.0016 8.39242C7.93627 8.7045 7.79452 8.80775 7.54602 9.34733C7.24852 9.9925 7.3226 10.857 7.75602 11.4059C8.14802 11.9012 8.85152 12.1246 9.53635 11.9601C10.7649 11.6655 11.3243 10.6283 11.2257 9.45992C11.1493 8.53825 10.7503 7.854 9.61919 6.56658C9.05919 5.929 8.68177 5.16075 8.70802 4.57917C8.78794 3.87508 9.09185 3.5105 9.09185 3.5105ZM2.85427 8.86317C2.84144 8.87133 2.8286 8.89875 2.81985 8.9565C2.81958 8.9606 2.81838 8.96459 2.81635 8.96817V8.974C2.74985 9.289 2.7201 10.0368 2.88402 10.7053C3.08994 11.5471 3.7106 12.9815 5.45769 13.6973C6.92652 14.3004 8.79319 14.0128 10.0369 12.7482C10.3454 12.4314 10.2743 12.4623 9.7516 12.6309V12.6297C9.10294 12.8374 7.69944 12.9482 6.97027 12.0464C6.08185 10.9468 6.71944 10.0847 6.17869 10.2089C4.06935 10.6954 3.10627 9.35375 2.94294 8.98275C2.94177 8.98158 2.89277 8.8375 2.85427 8.86317Z" fill="#084C3B"/>
</g>
<defs>
<clipPath id="clip0_76_3392">
<rect width="14" height="14" fill="white"/>
</clipPath>
</defs>
</svg>
