<svg width="80" height="54" viewBox="0 0 80 54" fill="none" xmlns="http://www.w3.org/2000/svg">
<g clip-path="url(#clip0_4_64)">
<path d="M39.5727 24.9699C39.5727 27.3064 37.3638 30.1882 37.3638 34.3922C37.3638 40.4284 39.2572 42.3366 39.2572 45.1015C39.2572 47.516 38.1527 49.5021 34.7605 49.5021C31.1317 49.5021 29.7511 47.9833 29.7511 45.6078C29.7511 42.1808 31.9995 40.9346 31.9995 36.6898C31.9995 29.1757 29.6328 28.28 29.6328 25.2814C29.6328 24.7863 29.676 24.3301 29.7737 23.9147C30.0066 20.9105 31.9995 19.5735 31.9995 15.5772C31.9995 8.0612 29.6328 7.16551 29.6328 4.1669C29.6328 1.55772 30.8556 0 34.6422 0C38.4288 0 39.5727 1.363 39.5727 3.85535C39.5727 6.19193 37.3638 9.07371 37.3638 13.2796C37.3638 18.5331 38.7989 20.6583 39.1708 22.9448C39.4544 23.5012 39.5727 24.178 39.5727 24.9699Z" fill="#084C3B"/>
<path d="M54.5987 18.0697C53.7328 18.0697 52.7054 19.3938 51.6029 19.3938C50.6957 19.3938 49.749 18.576 49.749 16.4341C49.749 10.0085 56.1765 10.8263 56.1765 8.41184C56.1765 7.51615 55.6637 7.28249 54.9556 7.28249C54.2475 7.28249 53.4962 7.47721 52.9045 7.47721C50.2317 7.47721 52.8463 1.67471 49.8579 1.32793C49.8392 1.32607 49.8185 1.32422 49.7978 1.32422C48.4755 1.33905 47.7749 2.30521 47.4612 3.23242C45.0552 9.69696 40.3613 7.20461 40.3613 9.30753C40.3613 11.4104 43.1224 9.89167 43.1224 11.8388C43.1224 13.9028 40.4797 18.0697 40.4797 21.4967C40.4797 23.8815 41.894 25.799 45.8177 26.3571C45.8891 26.3664 45.9605 26.3553 46.0244 26.3238C47.1983 25.7415 48.6295 25.4095 50.2993 25.4095C51.1727 25.4095 52.0274 25.4707 52.8331 25.5968C52.9083 25.6079 52.9834 25.5968 53.051 25.5634C54.7509 24.677 55.8985 23.0933 55.8985 20.486C55.8985 19.5124 55.4646 18.0716 54.5969 18.0716L54.5987 18.0697Z" fill="#084C3B"/>
<path d="M76.2932 18.498C75.4254 18.498 74.9126 19.4326 73.9265 20.4062C73.4138 20.9124 71.0866 22.4702 69.0355 22.4702C68.0888 22.4702 66.6688 21.9639 66.6688 20.7567C66.6688 17.5633 76.9243 21.4187 76.9243 10.3199C76.9243 4.32273 74.0449 0.973633 68.3255 0.973633C60.0422 0.973633 56.8867 5.68573 56.8867 13.2796C56.8867 20.0798 59.3848 25.0571 64.2552 26.6853C65.9983 25.5578 68.3105 24.9514 71.2838 24.9514C72.3563 24.9514 73.3274 25.0701 74.2008 25.3C75.8781 24.0149 77.0426 22.0622 77.0426 19.3547C77.0426 18.8485 76.7665 18.498 76.2932 18.498ZM66.1955 15.6941C66.1955 14.409 67.5366 13.1628 69.9821 13.1628C71.0471 13.1628 72.3093 13.669 72.3093 14.9152C72.3093 16.5119 69.8638 16.9403 67.7338 16.9403C66.7477 16.9403 66.1955 16.3561 66.1955 15.6941Z" fill="#084C3B"/>
<path d="M30.169 31.9426C30.7476 39.5922 26.1908 53.3316 19.2092 53.3316C16.3298 53.3316 16.0932 50.2941 15.7776 47.4512C15.6987 46.6334 15.0282 43.9464 14.3182 43.9464C12.2671 43.9464 11.8332 51.5013 7.13937 51.5013C1.73554 51.5031 0 40.4823 0 30.435C0 26.5018 1.65665 21.9844 6.15327 21.9844C8.75657 21.9844 10.7682 23.9315 10.7682 26.6186C10.7682 30.8634 6.42938 31.5643 6.42938 36.6659C6.42938 39.9371 7.57325 40.6381 8.51991 40.6381C13.4899 40.6381 9.82156 32.1485 15.9748 32.1485C19.6037 32.1485 20.432 33.823 20.432 36.1986C20.432 38.2236 19.8403 40.5602 19.8403 42.0789C19.8403 43.0915 20.0376 43.6756 20.9053 43.6756C22.9959 43.6756 23.6664 40.5991 23.6664 38.7688C23.6664 35.887 23.1067 32.9941 23.1067 30.4239C23.1067 28.321 23.9726 26.4758 26.2171 26.3516C28.2682 26.2366 29.7953 27.0062 30.169 31.9426Z" fill="#FED06E"/>
<path d="M58.4837 30.8841C58.4837 31.8187 57.8921 32.5197 57.1032 32.5197C55.2887 32.5197 56.1171 29.6379 51.9755 29.6379C51.0288 29.6379 50.0032 30.261 50.0032 31.3125C50.0032 35.0121 59.0359 34.1553 59.0359 42.4112C59.0359 49.9272 54.1843 52.6143 49.3721 52.6143C43.6528 52.6143 40.3789 49.5767 40.3789 45.6824C40.3789 44.3584 41.0889 42.6838 42.3511 42.6838C43.6133 42.6838 43.2583 44.9425 46.6111 44.9425C47.8338 44.9425 48.7805 44.1637 48.7805 42.8785C48.7805 38.5948 42.3117 40.7756 42.3117 32.9091C42.3117 29.0927 45.1911 25.8994 50.3582 25.8994C54.6576 25.8994 58.4837 27.3792 58.4837 30.8841Z" fill="#FED06E"/>
<path d="M79.8813 34.9078C79.8813 46.0066 69.6259 42.1512 69.6259 45.3446C69.6259 46.5518 71.0459 47.058 71.9925 47.058C74.0436 47.058 76.3708 45.5003 76.8836 44.9941C77.8697 44.0205 78.3824 43.0859 79.2502 43.0859C79.7235 43.0859 79.9997 43.4363 79.9997 43.9426C79.9997 49.4725 75.148 51.848 70.967 51.848C63.6304 51.848 59.8438 46.2402 59.8438 37.8675C59.8438 30.2736 62.9993 25.5615 71.2825 25.5615C77.0019 25.5615 79.8813 28.9106 79.8813 34.9078ZM75.2664 39.5031C75.2664 38.2569 74.0042 37.7507 72.9392 37.7507C70.4936 37.7507 69.1525 38.9968 69.1525 40.282C69.1525 40.944 69.7048 41.5281 70.6909 41.5281C72.8208 41.5281 75.2664 41.0998 75.2664 39.5031Z" fill="#FED06E"/>
<path d="M26.5581 16.3561C24.9803 14.7984 22.732 14.9152 22.732 13.8638C22.732 13.046 24.507 13.0849 25.7298 11.8777C27.0314 10.5925 27.7414 8.6454 27.7414 6.69825C27.7414 3.97224 26.4003 0.973633 22.6926 0.973633C18.9848 0.973633 16.8154 3.1155 14.646 3.1155C11.7666 3.1155 11.096 2.02509 9.43938 2.02509C8.2955 2.02509 7.42773 2.8429 7.42773 3.89436C7.42773 4.82899 7.90106 5.68573 8.09828 5.99728C8.68994 7.00979 8.68994 9.11271 8.68994 12.8902C8.68994 16.9384 8.57912 19.555 8.43074 21.2425C8.41571 21.4168 8.51902 21.58 8.68431 21.6412C10.4292 22.2773 11.6295 23.911 11.6295 25.9862C11.6295 26.7057 11.5055 27.3213 11.2989 27.8758C11.173 28.2133 11.5393 28.5249 11.8605 28.358C12.9762 27.7812 13.4984 26.9486 14.7643 26.9486C16.776 26.9486 18.551 29.2073 21.3909 29.2073C21.7177 29.2073 22.0333 29.1832 22.3376 29.1387C22.5029 29.1146 22.6381 28.994 22.6719 28.8327C23.0194 27.2082 24.1802 25.8526 25.9514 25.5485C25.9664 25.5467 25.9815 25.5429 25.9984 25.5411C26.0378 25.5337 26.0772 25.5263 26.1167 25.5225C26.22 25.504 26.3289 25.4929 26.4398 25.4855C26.451 25.4855 26.4604 25.4855 26.4717 25.4836C26.5318 25.4817 26.5938 25.4799 26.6576 25.4799C26.7835 25.4799 26.9093 25.4836 27.0295 25.4892C27.2305 25.4947 27.2324 25.491 27.3319 25.4521C27.4784 25.3946 27.4916 25.3556 27.5348 25.2944C27.5348 25.2907 27.5404 25.287 27.5423 25.2833C27.5517 25.2666 27.5611 25.2499 27.5686 25.2333C28.3068 23.8888 28.6881 22.4127 28.6881 21.185C28.6881 19.5494 28.0175 17.797 26.5581 16.3561ZM16.3421 22.4702C14.7643 22.4702 14.1332 21.0682 14.1332 19.7441C14.1332 17.9528 14.9615 16.0835 16.3026 16.0835C17.9987 16.0835 18.8665 18.498 18.8665 19.5105C18.8665 21.5355 17.5254 22.4702 16.3421 22.4702ZM16.1054 13.1238C14.5277 13.1238 13.8966 11.4493 13.8966 10.1642C13.8966 7.86654 15.1982 6.81508 16.6182 6.81508C18.2748 6.81508 19.1032 8.13914 19.1032 9.54109C19.1032 11.3714 17.9987 13.1238 16.1054 13.1238Z" fill="#084C3B"/>
</g>
<defs>
<clipPath id="clip0_4_64">
<rect width="80" height="53.3333" fill="white"/>
</clipPath>
</defs>
</svg>
