<svg width="119" height="119" viewBox="0 0 119 119" fill="none" xmlns="http://www.w3.org/2000/svg">
<g clip-path="url(#clip0_76_2770)">
<path d="M118.842 97.2102H1.07155C1.00715 97.2102 0.956543 97.1594 0.956543 97.0948C0.956543 97.0302 1.00715 96.9795 1.07155 96.9795H118.842C118.906 96.9795 118.957 97.0302 118.957 97.0948C118.957 97.1594 118.906 97.2102 118.842 97.2102Z" fill="black"/>
<path d="M23.2848 13.9539L21.4272 15.9482L31.647 25.523L33.5046 23.5287L23.2848 13.9539Z" fill="#75D4D7"/>
<path d="M6.27166 47.8094L6.06006 50.5303L18.893 51.5342L19.1046 48.8133L6.27166 47.8094Z" fill="#75D4D7"/>
<path d="M11.7355 28.6131L10.4233 31.0039L23.5779 38.2659L24.89 35.875L11.7355 28.6131Z" fill="#75D4D7"/>
<path d="M29.2587 94.9755C29.4611 95.6768 29.6797 96.3781 29.9166 97.0863H84.0057C92.1092 82.2735 95.1524 64.1802 93.1788 47.6901C91.0443 29.8483 82.7475 16.2073 70.7059 13.5751C66.2574 12.6039 61.9813 13.2406 58.0319 14.8901C58.0273 14.8924 58.0227 14.8947 58.0181 14.897C57.8754 14.957 57.7305 15.0169 57.5856 15.0815C57.3648 15.1761 57.1463 15.2776 56.9278 15.3791C54.4298 16.558 52.0744 18.1313 49.903 19.94C47.0921 22.2815 44.5895 25.0152 42.4894 27.7974C33.5486 39.6366 28.7849 54.5441 27.3151 69.2116C26.4341 77.9826 26.9079 86.8689 29.2587 94.9755Z" fill="#0ECC6D"/>
<path d="M84.0724 97.1994H29.8338L29.8085 97.1209C29.5762 96.4312 29.3554 95.7183 29.1507 95.0055C26.9149 87.291 26.2593 78.6077 27.2024 69.1977C28.3272 57.9675 31.8787 41.6552 42.3998 27.7258C44.677 24.7084 47.1773 22.0577 49.8317 19.8476C52.125 17.9375 54.4988 16.3965 56.8818 15.2707C57.1141 15.1622 57.3281 15.063 57.542 14.9708C57.6616 14.9177 57.7812 14.867 57.8985 14.8185L57.9744 14.7862C62.2712 12.9914 66.5587 12.5462 70.7313 13.4574C82.4301 16.0158 91.0742 29.1262 93.2939 47.6717C95.3319 64.7084 91.9851 82.7372 84.1069 97.1371L84.0747 97.1971L84.0724 97.1994ZM29.9994 96.9687H83.9367C91.7666 82.6195 95.095 64.6669 93.0639 47.7016C90.858 29.2553 82.2806 16.2211 70.6807 13.6858C66.5541 12.7838 62.3126 13.2244 58.0756 14.9961L57.9859 15.0354C57.8686 15.0838 57.7513 15.1346 57.6317 15.1876C57.4178 15.2799 57.2061 15.3768 56.9945 15.476C54.6115 16.6018 52.2561 18.1313 49.9766 20.0299C47.336 22.2284 44.8472 24.8652 42.5815 27.8689C32.0926 41.7567 28.5526 58.0229 27.4301 69.2254C26.4893 78.6054 27.1426 87.2611 29.3692 94.9455C29.567 95.6283 29.7786 96.3089 29.9994 96.9733V96.9687Z" fill="black"/>
<path d="M76.7472 95.6045C77.2211 93.6505 77.8191 91.7265 78.5667 89.8602C79.3441 87.9178 80.3976 86.1045 81.1429 84.1482C82.5138 80.5448 82.8749 76.6599 82.684 72.8327C82.3275 65.642 80.0043 58.0383 82.5368 51.0206C84.4874 45.6177 88.5035 41.2853 90.7163 35.9932C91.8503 39.6058 92.683 43.5346 93.1798 47.6894C95.1534 64.1794 92.1102 82.2727 84.0066 97.0856H76.4137C76.5172 96.5919 76.6276 96.0982 76.7472 95.6045Z" fill="white"/>
<path d="M84.0731 97.1988H76.2709L76.3008 97.0603C76.4135 96.5228 76.5216 96.0384 76.6343 95.577C77.1243 93.5561 77.7384 91.6183 78.4584 89.8189C78.8264 88.8961 79.2657 87.9895 79.689 87.1128C80.1582 86.1416 80.6435 85.1358 81.0346 84.1092C82.2629 80.8795 82.7804 77.0892 82.5688 72.8398C82.4676 70.7889 82.2008 68.6619 81.9409 66.6064C81.2876 61.402 80.6113 56.0222 82.4285 50.9838C83.4705 48.0955 85.1266 45.4725 86.7253 42.9372C88.1284 40.7156 89.5775 38.4179 90.608 35.9518L90.7299 35.6611L90.8242 35.961C91.9674 39.5991 92.7978 43.5416 93.2923 47.678C95.3303 64.7147 91.9835 82.7435 84.1053 97.1434L84.0731 97.2034V97.1988ZM76.5561 96.9681H83.9374C91.7673 82.6189 95.0957 64.6663 93.0646 47.7011C92.5862 43.6916 91.7903 39.8667 90.6977 36.3255C89.6695 38.6994 88.2733 40.9117 86.9208 43.0549C85.3267 45.581 83.6775 48.1924 82.6447 51.0577C80.846 56.043 81.5176 61.3974 82.1686 66.5741C82.4285 68.6342 82.6953 70.7658 82.7965 72.8259C83.0081 77.1053 82.4883 80.9302 81.2462 84.1899C80.8529 85.2257 80.3652 86.2362 79.8937 87.212C79.4727 88.0863 79.0357 88.9884 78.67 89.9042C77.9546 91.6944 77.3451 93.6207 76.8574 95.6324C76.7562 96.0499 76.6573 96.4905 76.5538 96.9704L76.5561 96.9681Z" fill="black"/>
<path d="M52.9258 97.0833H35.6398C35.5041 94.1004 35.7709 91.1198 36.7347 88.16C37.7399 85.071 38.9843 82.1827 39.4444 78.9369C39.8423 76.1386 39.7963 73.3402 39.5065 70.5327C39.1683 67.2476 38.3886 63.9671 38.4001 60.6567C38.4116 57.7938 39.0786 55.0439 40.0516 52.3678C41.0729 49.5557 42.338 46.8404 43.3547 44.0259C44.4933 40.8747 45.1718 37.6565 45.1488 34.293C45.1281 31.4716 44.6911 28.6825 43.9343 25.9741C45.7078 23.831 47.709 21.764 49.9033 19.9369C52.0747 18.1282 54.4324 16.5549 56.9281 15.3761C57.1467 15.2745 57.3652 15.173 57.586 15.0785C57.7309 15.0139 57.8758 14.9539 58.0184 14.8939C58.023 14.8916 58.0276 14.8893 58.0322 14.887C61.2272 13.5536 64.6361 12.8823 68.1761 13.1868C68.3049 14.7093 68.2497 16.2481 67.9323 17.7937C67.0927 21.8909 64.8109 25.3536 62.9063 29.0055C61.2019 32.2744 59.8034 35.7463 59.509 39.4582C59.1892 43.5023 59.9529 47.694 60.7258 51.6481C61.4917 55.5699 62.5452 59.4801 62.4164 63.5104C62.2945 67.3768 60.5647 70.5973 58.4233 73.7094C56.3784 76.6807 54.6003 79.5897 53.7171 83.1332C52.8016 86.8012 52.6728 90.6146 52.8039 94.3772C52.8338 95.2769 52.8775 96.179 52.9258 97.0833Z" fill="white"/>
<path d="M53.0454 97.1986H35.5271L35.5225 97.0879C35.373 93.7913 35.7318 90.8592 36.622 88.1254C36.8773 87.3411 37.1511 86.5567 37.4179 85.8C38.223 83.5023 38.9866 81.3315 39.3271 78.9207C39.6882 76.3785 39.7089 73.6402 39.3892 70.5466C39.2695 69.3769 39.0878 68.1889 38.9153 67.0377C38.6002 64.9522 38.2736 62.7975 38.2828 60.659C38.292 58.066 38.8187 55.4199 39.9412 52.3309C40.4473 50.9376 41.0223 49.5465 41.5766 48.2015C42.1425 46.8289 42.729 45.4101 43.242 43.9891C44.4657 40.5979 45.0499 37.4281 45.0292 34.2953C45.0108 31.6054 44.6037 28.8163 43.8193 26.0065L43.8032 25.9488L43.8423 25.9026C45.7308 23.6211 47.7435 21.584 49.8274 19.8515C52.1207 17.9414 54.4945 16.4004 56.8775 15.2746C57.1099 15.1661 57.3238 15.0669 57.5377 14.9747C57.6573 14.9216 57.7769 14.8709 57.8942 14.8224L57.9701 14.7901C61.3928 13.3598 64.8224 12.7831 68.183 13.0761L68.2796 13.0853L68.2888 13.1822C68.4268 14.8201 68.3463 16.3381 68.0427 17.8214C67.3779 21.0696 65.7862 23.9648 64.2451 26.7654C63.8333 27.5152 63.4055 28.2903 63.0053 29.0632C60.9443 33.0126 59.8701 36.3185 59.6217 39.4721C59.3134 43.38 60.0219 47.4518 60.8362 51.6296C60.9834 52.3863 61.1467 53.1568 61.3031 53.902C61.9587 57.0233 62.6349 60.253 62.5314 63.5173C62.4003 67.6098 60.429 71.001 58.5176 73.7786C56.3071 76.9898 54.6648 79.8158 53.8298 83.1655C53.0408 86.3237 52.7602 89.7818 52.9189 94.3772C52.9465 95.1593 52.9833 95.9921 53.0408 97.081L53.0477 97.2032L53.0454 97.1986ZM35.748 96.9679H52.8039C52.751 95.9367 52.7142 95.1362 52.6889 94.3819C52.5302 89.7634 52.8131 86.2868 53.6067 83.1055C54.4508 79.7212 56.1047 76.8768 58.329 73.6448C60.222 70.8949 62.1749 67.5406 62.3037 63.5058C62.4072 60.2668 61.7333 57.0533 61.08 53.9435C60.9236 53.1984 60.7626 52.4278 60.6131 51.6689C59.7942 47.4748 59.0834 43.3846 59.394 39.449C59.7229 35.2665 61.4986 31.4554 62.8028 28.9524C63.2054 28.1796 63.6332 27.4022 64.0449 26.6501C65.5769 23.8633 67.1594 20.9842 67.8173 17.7707C68.1117 16.3381 68.1922 14.8732 68.068 13.2929C64.7764 13.0253 61.4158 13.5974 58.0759 14.9931L57.9862 15.0323C57.8689 15.0808 57.7516 15.1315 57.632 15.1846C57.4181 15.2769 57.2065 15.3738 56.9949 15.473C54.6119 16.5988 52.2564 18.1283 49.977 20.0269C47.9183 21.7409 45.9286 23.7503 44.0609 26.0018C44.8406 28.8117 45.2432 31.6008 45.2639 34.293C45.2869 37.4535 44.698 40.6486 43.4628 44.0675C42.9476 45.4932 42.361 46.9143 41.7929 48.2892C41.2385 49.6318 40.6635 51.0206 40.1597 52.4094C39.0464 55.473 38.5243 58.0937 38.5151 60.6613C38.5059 62.7814 38.8325 64.9291 39.1453 67.0054C39.3202 68.1589 39.4996 69.3516 39.6215 70.5258C39.9435 73.6402 39.9228 76.3969 39.5594 78.9576C39.2143 81.3915 38.4484 83.5738 37.6387 85.8808C37.3742 86.6375 37.1005 87.4172 36.8451 88.1992C35.9734 90.8776 35.6145 93.7474 35.7503 96.9702L35.748 96.9679Z" fill="black"/>
<path d="M29.2623 94.9753C29.4693 95.6858 29.6878 96.3894 29.9247 97.0861H84.0092C88.0645 89.6762 90.85 81.4427 92.375 72.9993C92.398 72.7248 92.4164 72.4734 92.4348 72.2473L62.7163 74.4319L61.6306 77.6409L57.4811 76.8911L57.8767 73.5738L28.7171 59.8359C28.0961 62.948 27.6337 66.0854 27.3209 69.209C26.4399 77.98 26.9138 86.8664 29.2646 94.9729L29.2623 94.9753Z" fill="white"/>
<path d="M84.0747 97.1996H29.8407L29.8131 97.1211C29.5923 96.4706 29.3761 95.7785 29.1507 95.0057C26.9149 87.2913 26.2593 78.6079 27.2024 69.1979C27.5175 66.0444 27.9891 62.8862 28.6009 59.8133L28.6285 59.668L57.9974 73.5027L57.6064 76.7947L61.5512 77.5075L62.63 74.3193L62.7059 74.3147L92.5578 72.1208L92.5233 72.5545C92.5118 72.6976 92.5003 72.8475 92.4865 73.0067C90.9086 81.7431 88.0886 89.8589 84.1069 97.1396L84.0747 97.1996ZM30.0063 96.9689H83.939C87.8931 89.7251 90.6924 81.6531 92.2611 72.9767C92.2726 72.8291 92.2841 72.6791 92.2956 72.5361L92.3094 72.37L62.8002 74.5385L61.7053 77.7682L57.3534 76.9816L57.7513 73.6388L28.7987 60.0002C28.2007 63.02 27.7429 66.1205 27.4324 69.2187C26.4916 78.5987 27.1449 87.2544 29.3715 94.9388C29.5877 95.677 29.7947 96.3414 30.004 96.9666L30.0063 96.9689Z" fill="black"/>
<path d="M57.4744 77.0017C57.4583 77.0017 57.4422 76.9994 57.4284 76.9925L28.0756 63.9121C28.0181 63.8868 27.9905 63.8176 28.0181 63.7599C28.0434 63.7022 28.1124 63.6768 28.1699 63.7022L57.5227 76.7826C57.5802 76.8079 57.6078 76.8771 57.5802 76.9348C57.5618 76.9787 57.5181 77.004 57.4744 77.004V77.0017Z" fill="black"/>
<path d="M61.6732 77.7739C61.6111 77.7739 61.5605 77.7255 61.5582 77.6632C61.5559 77.5986 61.6042 77.5455 61.6663 77.5432L91.67 76.0853C91.739 76.0806 91.7873 76.1314 91.7896 76.1937C91.7919 76.2583 91.7436 76.3113 91.6815 76.3136L61.6778 77.7716H61.6732V77.7739Z" fill="black"/>
<path d="M73.0336 95.4372C76.0054 96.4823 78.9704 97.5688 81.963 98.5631C84.7255 99.4836 87.4949 100.335 90.3196 101.02C93.9838 101.906 100.084 103.368 102.6 99.4905C105.234 95.4303 101.174 89.4184 99.3869 85.7942C97.1189 81.1965 94.4346 76.751 92.3667 72.0518C91.9412 75.2653 91.2787 78.3659 90.4116 81.3234C92.2655 84.9545 94.2138 88.5371 95.978 92.2121C96.4013 93.0957 97.6181 94.3806 97.4525 95.4488C97.1879 97.1651 94.6646 96.0024 93.5996 95.7971C91.3822 95.368 89.1948 94.7382 87.0372 94.083C86.4414 93.9031 85.8434 93.7162 85.2522 93.5317C81.5995 92.3667 77.9997 91.054 74.3861 89.7783C70.8576 88.5372 69.5511 94.2145 73.0313 95.4349L73.0336 95.4372Z" fill="black"/>
<path d="M6.49632 84.3733C7.4348 89.1279 13.9259 90.0922 17.834 90.6597C21.6707 91.2226 25.5419 91.4902 29.4178 91.677C31.879 91.7993 34.3425 91.8939 36.7945 92C40.6588 92.173 41.5927 86.1519 37.6824 85.9743C34.4322 85.8289 31.1843 85.7205 27.9364 85.5221C26.5241 85.4368 25.1233 85.3376 23.7133 85.2107C21.3671 84.9961 18.9933 84.7608 16.677 84.3087C15.5568 84.0872 14.4872 83.7942 13.4153 83.4113C11.9294 82.883 13.7879 81.741 14.3998 81.162C15.7983 79.8401 17.2313 78.5552 18.6782 77.2887C21.5166 74.8064 24.4148 72.391 27.228 69.8811C27.3062 68.9121 27.4143 67.934 27.5385 66.9582C27.8191 64.7597 28.2148 62.605 28.7116 60.5195C28.7507 60.3419 28.7944 60.1688 28.8404 59.9912C28.7369 60.072 28.6334 60.1712 28.5345 60.2773C24.3642 64.6581 19.4303 68.2985 14.9357 72.3333C11.7891 75.1547 5.50723 79.4087 6.49172 84.3756L6.49632 84.3733Z" fill="black"/>
<path d="M27.9008 88.2138C27.4684 90.0478 28.3977 91.9948 28.4759 93.8127C28.5564 95.6606 27.8065 97.6745 28.3655 99.4393C28.9175 101.181 30.691 102.408 31.6617 104.005C32.6047 105.557 32.8647 107.698 34.162 109.052C35.4156 110.36 37.5364 110.72 39.0798 111.788C40.5657 112.817 41.6399 114.688 43.3604 115.445C45.0097 116.172 47.1098 115.712 48.943 116.146C50.7763 116.58 52.4485 117.932 54.2496 118.019C56.1265 118.112 57.9207 116.921 59.7079 116.665C61.5642 116.402 63.6229 117.03 65.3273 116.421C67.0916 115.791 68.2762 113.992 69.8127 113.025C71.3929 112.033 73.5252 111.728 74.7949 110.418C76.0807 109.089 76.3084 106.951 77.2032 105.334C78.0842 103.742 79.7817 102.418 80.2142 100.581C80.6466 98.7472 79.7173 96.8002 79.6391 94.9823C79.5586 93.1345 80.3085 91.1205 79.7495 89.3557C79.1975 87.614 77.424 86.3867 76.4534 84.7903C75.5103 83.2377 75.2504 81.0968 73.953 79.7427C72.6994 78.4346 70.5787 78.0748 69.0352 77.0066C67.5493 75.9777 66.4751 74.1068 64.7546 73.3501C63.1053 72.6235 61.0052 73.0825 59.172 72.6488C57.3387 72.2151 55.6665 70.8633 53.8654 70.7756C51.9885 70.6833 50.1943 71.8737 48.4071 72.1298C46.5508 72.3928 44.4921 71.7653 42.7877 72.3743C41.0234 73.0041 39.8389 74.8035 38.3023 75.7701C36.7221 76.7621 34.5898 77.0666 33.3201 78.377C32.0343 79.7058 31.8066 81.8443 30.9118 83.4615C30.0308 85.0533 28.3333 86.3774 27.9008 88.2138Z" fill="#FF9F00"/>
<path d="M54.4545 118.142C54.3832 118.142 54.3119 118.142 54.2406 118.137C53.1917 118.084 52.1704 117.606 51.1859 117.145C50.4498 116.799 49.6885 116.444 48.9133 116.259C48.1381 116.077 47.2986 116.054 46.4866 116.033C45.3986 116.005 44.2738 115.975 43.3123 115.551C42.2865 115.099 41.486 114.259 40.7108 113.447C40.1496 112.859 39.6205 112.305 39.0133 111.883C38.3738 111.44 37.6194 111.115 36.8902 110.801C35.8735 110.363 34.82 109.908 34.0794 109.133C33.2904 108.31 32.8787 107.2 32.4784 106.129C32.2139 105.419 31.9402 104.685 31.5652 104.067C31.1811 103.433 30.6544 102.847 30.1483 102.279C29.3847 101.426 28.5957 100.542 28.2576 99.4762C27.9079 98.3712 28.0597 97.1647 28.207 95.9997C28.299 95.2753 28.3933 94.5255 28.3611 93.8196C28.3312 93.1368 28.1771 92.417 28.0252 91.718C27.7745 90.553 27.5146 89.3488 27.7883 88.1884C28.062 87.028 28.8303 86.066 29.5733 85.1363C30.0195 84.5803 30.4795 84.0036 30.8108 83.4061C31.1535 82.7878 31.4019 82.075 31.6434 81.3852C32.0322 80.2756 32.4324 79.129 33.2375 78.2985C34.0126 77.498 35.1144 77.0597 36.1771 76.6375C36.8833 76.3561 37.6148 76.0677 38.2427 75.6732C38.8546 75.288 39.4273 74.7551 39.9794 74.2383C40.8143 73.4586 41.6769 72.6511 42.7511 72.2682C43.7609 71.9083 44.9041 71.9729 46.0105 72.0352C46.804 72.0813 47.6252 72.1275 48.3935 72.019C49.1249 71.9152 49.8472 71.6545 50.6086 71.38C51.662 70.9994 52.7546 70.6072 53.8725 70.6649C54.9214 70.7179 55.9427 71.1954 56.9272 71.6568C57.6633 72.0006 58.4223 72.3581 59.1998 72.5404C59.9749 72.7226 60.8145 72.7457 61.6265 72.7665C62.7145 72.7942 63.8393 72.8241 64.8008 73.2486C65.8266 73.7008 66.6271 74.5405 67.4023 75.3526C67.9635 75.9408 68.4926 76.4945 69.0998 76.9167C69.7393 77.3596 70.4937 77.6849 71.2229 77.9986C72.2396 78.4369 73.2908 78.8914 74.0337 79.6665C74.8227 80.4901 75.2344 81.5997 75.6347 82.6702C75.8992 83.3807 76.1729 84.1143 76.5479 84.7326C76.932 85.367 77.4587 85.9529 77.9648 86.5205C78.7284 87.374 79.5174 88.2576 79.8555 89.3234C80.2052 90.4284 80.0533 91.6349 79.9061 92.7999C79.8141 93.5243 79.7198 94.2741 79.752 94.98C79.7819 95.6629 79.936 96.3826 80.0879 97.0816C80.3386 98.2466 80.5985 99.4509 80.3248 100.611C80.0511 101.772 79.2828 102.734 78.5398 103.663C78.0936 104.219 77.6335 104.796 77.3023 105.394C76.9596 106.012 76.7112 106.725 76.4696 107.414C76.0809 108.524 75.6807 109.671 74.8756 110.501C74.1004 111.302 73.001 111.738 71.936 112.16C71.2275 112.441 70.4983 112.73 69.8704 113.124C69.2585 113.509 68.6858 114.042 68.1337 114.559C67.2988 115.339 66.4362 116.146 65.362 116.529C64.3522 116.889 63.209 116.824 62.1026 116.762C61.3091 116.716 60.4879 116.67 59.7196 116.778C58.9882 116.882 58.2659 117.143 57.5045 117.417C56.5178 117.773 55.4988 118.139 54.4545 118.139V118.142ZM28.0114 88.2414C27.7492 89.3511 28.0045 90.5299 28.2507 91.6695C28.4025 92.3755 28.5612 93.1068 28.5911 93.8081C28.6233 94.5348 28.5267 95.2938 28.4347 96.0274C28.2898 97.1693 28.1426 98.3481 28.4761 99.4047C28.7981 100.422 29.5365 101.248 30.3185 102.122C30.8338 102.699 31.3651 103.294 31.7608 103.945C32.1472 104.581 32.4255 105.327 32.6923 106.046C33.0834 107.096 33.4882 108.183 34.2427 108.972C34.9534 109.714 35.9379 110.139 36.9799 110.586C37.7206 110.905 38.4865 111.237 39.1421 111.691C39.77 112.125 40.3313 112.716 40.8764 113.286C41.6355 114.081 42.4199 114.905 43.4043 115.336C44.3244 115.742 45.3779 115.77 46.4935 115.798C47.317 115.819 48.168 115.842 48.9662 116.031C49.7644 116.22 50.5372 116.582 51.2825 116.931C52.2923 117.403 53.2469 117.851 54.2521 117.902C55.324 117.953 56.3935 117.57 57.4263 117.198C58.167 116.933 58.933 116.656 59.6874 116.55C60.4787 116.437 61.3114 116.485 62.1141 116.531C63.2458 116.596 64.3177 116.658 65.2838 116.312C66.312 115.945 67.1562 115.154 67.975 114.391C68.5363 113.867 69.1159 113.325 69.7462 112.928C70.3902 112.522 71.1332 112.229 71.8486 111.945C72.9365 111.514 73.967 111.106 74.7077 110.34C75.4783 109.544 75.8693 108.423 76.2488 107.336C76.4926 106.637 76.7457 105.915 77.0976 105.278C77.438 104.662 77.905 104.081 78.3558 103.516C79.0827 102.607 79.8348 101.666 80.097 100.556C80.3593 99.4462 80.104 98.2674 79.8578 97.1278C79.706 96.4218 79.5473 95.6905 79.5174 94.9892C79.4852 94.2625 79.5818 93.5036 79.6738 92.77C79.8187 91.628 79.9659 90.4492 79.6324 89.3926C79.3104 88.3752 78.572 87.5493 77.79 86.675C77.2747 86.0983 76.7434 85.5031 76.3477 84.8525C75.9613 84.2158 75.683 83.4707 75.4162 82.7509C75.0251 81.7013 74.6203 80.6147 73.8658 79.8257C73.1551 79.0852 72.1706 78.6584 71.1286 78.2109C70.3879 77.8925 69.622 77.5603 68.9641 77.1058C68.3362 76.6721 67.7749 76.0815 67.2298 75.5117C66.4707 74.7158 65.6863 73.8923 64.7018 73.4609C63.7818 73.0548 62.7283 73.0272 61.6127 72.9995C60.7892 72.9787 59.9381 72.9556 59.14 72.7665C58.3418 72.5773 57.5712 72.2151 56.8237 71.8668C55.8139 71.3938 54.8593 70.9463 53.8541 70.8955C52.7822 70.8425 51.7126 71.2277 50.6799 71.5992C49.9392 71.8668 49.1732 72.1413 48.4188 72.2474C47.6275 72.3605 46.7948 72.312 45.9898 72.2659C44.8581 72.2013 43.7885 72.1413 42.8224 72.485C41.7942 72.8518 40.95 73.6431 40.1312 74.4067C39.5699 74.9304 38.9903 75.4725 38.36 75.8693C37.716 76.2753 36.9753 76.5683 36.2576 76.8521C35.1696 77.2835 34.1392 77.6918 33.3985 78.4577C32.6279 79.2536 32.2369 80.3748 31.8551 81.4613C31.6112 82.1603 31.3582 82.8824 31.0063 83.5191C30.6659 84.1351 30.1989 84.7164 29.7481 85.2816C29.0212 86.1906 28.2691 87.1318 28.0068 88.2414H28.0114Z" fill="black"/>
<path d="M73.9678 99.1096C76.2584 89.3611 69.0327 79.3117 57.8288 76.6637C46.625 74.0157 35.6856 79.7719 33.395 89.5205C31.1044 99.2691 38.3301 109.318 49.534 111.966C60.7378 114.614 71.6772 108.858 73.9678 99.1096Z" fill="#97623A"/>
<path d="M54.9919 112.72C53.1931 112.72 51.3529 112.512 49.5036 112.074C44.059 110.787 39.3712 107.73 36.3074 103.467C33.2412 99.1991 32.167 94.2346 33.2826 89.4869C35.5851 79.6939 46.6099 73.8874 57.8579 76.5496C63.3025 77.8368 67.9903 80.8935 71.0541 85.1568C74.1203 89.4246 75.1945 94.3891 74.0789 99.1368C72.1536 107.322 64.1374 112.72 54.9896 112.72H54.9919ZM52.3719 76.1343C43.3299 76.1343 35.408 81.461 33.508 89.54C32.4062 94.2207 33.4689 99.1184 36.496 103.331C39.5276 107.548 44.1648 110.572 49.5588 111.848C60.6825 114.48 71.5832 108.752 73.8581 99.0815C74.9598 94.4007 73.8972 89.503 70.8701 85.2906C67.8384 81.0735 63.1989 78.0491 57.8073 76.7733C55.9763 76.3396 54.1523 76.1343 52.3719 76.1343Z" fill="black"/>
<path d="M39.5838 106.889C40.0278 107.279 40.4901 107.652 40.9663 108.005C41.5229 108.423 42.1118 108.82 42.7236 109.189C42.7581 109.207 42.7949 109.233 42.8294 109.251L45.4194 108.047L48.6627 106.674L52.9204 104.872L56.1682 103.502L61.4495 101.267L64.6974 99.8964L69.7601 97.7533L73.0034 96.3807L74.3835 95.797C74.4065 94.5951 74.2984 93.4001 74.0615 92.2305L71.246 93.4255L67.9981 94.7958L62.9354 96.9389L59.6875 98.3093L54.4063 100.545L51.163 101.917L46.8985 103.719L43.6552 105.092L39.5815 106.889H39.5838Z" fill="#FF9F00"/>
<path d="M42.8271 109.383L42.7765 109.355C42.7581 109.346 42.7397 109.332 42.719 109.32C42.7029 109.311 42.6868 109.3 42.6707 109.293C42.0611 108.926 41.4677 108.524 40.8995 108.1C40.4234 107.747 39.9565 107.371 39.5102 106.976L39.3745 106.856L43.6138 104.988L74.1535 92.0713L74.1811 92.2097C74.4203 93.3955 74.5284 94.6043 74.5054 95.7993V95.8731L69.813 97.8594L45.47 108.155L42.8294 109.383H42.8271ZM39.7978 106.921C40.198 107.267 40.6143 107.599 41.0376 107.913C41.5988 108.333 42.1877 108.73 42.788 109.092C42.8018 109.101 42.8225 109.113 42.8409 109.124L45.378 107.948L74.2777 95.7209C74.2938 94.6112 74.1949 93.4924 73.9832 92.3943L43.7058 105.2L39.8 106.921H39.7978Z" fill="black"/>
<path d="M34.4174 99.9229C34.8544 100.931 35.388 101.909 36.0206 102.841L41.0902 100.781L44.3335 99.4085L48.5912 97.6068L51.8344 96.2341L57.1203 94.001L60.3636 92.6238L65.4332 90.4876L68.6765 89.1103L72.389 87.5416C71.8576 86.5265 71.2297 85.5507 70.5074 84.6279L66.9076 86.1459L63.6643 87.5185L58.6016 89.6617L55.3514 91.0389L50.0725 93.2697L46.8223 94.647L42.5646 96.4441L39.3214 97.8167L34.4174 99.9276V99.9229Z" fill="#FF9F00"/>
<path d="M35.9784 102.985L35.9255 102.909C35.2999 101.983 34.757 100.994 34.3131 99.9695L34.2671 99.8634L39.2769 97.7087L70.5435 84.4854L70.5987 84.5546C71.3163 85.4704 71.9512 86.4555 72.4917 87.4867L72.5492 87.5974L65.4784 90.5941L41.1355 100.89L35.9784 102.985ZM34.5707 99.9857C34.9871 100.929 35.4885 101.843 36.0635 102.703L41.0458 100.678L72.2272 87.4844C71.7212 86.5339 71.13 85.6204 70.4699 84.7691L39.3666 97.9233L34.5684 99.988L34.5707 99.9857Z" fill="black"/>
<path d="M33.0424 91.6527C32.9228 92.8869 32.955 94.1165 33.116 95.33L36.8906 93.7313L40.1339 92.3587L44.3915 90.5569L47.6394 89.1866L52.9207 86.9512L56.1639 85.5786L61.2336 83.4354L64.4768 82.0628L66.9288 81.0247C65.873 80.1826 64.7114 79.4306 63.4785 78.7754L62.7149 79.1007L59.4716 80.4779L54.402 82.6211L51.1587 83.9937L45.8729 86.2268L42.6296 87.5994L38.3719 89.4012L35.124 90.7715L33.0447 91.6504L33.0424 91.6527Z" fill="#FF9F00"/>
<path d="M33.024 95.4964L33.0033 95.3464C32.8353 94.0961 32.81 92.8503 32.9274 91.6415L32.9343 91.5723L63.4831 78.6465L63.5314 78.6719C64.7874 79.3386 65.9535 80.0976 67.0001 80.9327L67.152 81.0526L33.0217 95.4941L33.024 95.4964ZM33.1505 91.7338C33.047 92.8549 33.0677 94.0084 33.2126 95.1665L66.7057 80.995C65.7235 80.2267 64.6378 79.5254 63.4739 78.9049L33.1505 91.7338Z" fill="black"/>
<path d="M48.6249 111.727C48.9262 111.81 49.2252 111.886 49.5288 111.958C50.3822 112.161 51.2425 112.313 52.0867 112.421C53.1769 112.557 54.2534 112.615 55.3184 112.599L57.0827 111.854L60.3259 110.481L65.6072 108.246L68.8551 106.875L70.1156 106.34C71.1323 105.231 71.9994 103.992 72.6803 102.644C72.9034 102.208 73.1035 101.756 73.2875 101.295L72.1604 101.775L67.0908 103.918L63.8429 105.288L58.5617 107.524L55.3184 108.896L51.0608 110.698L48.6226 111.729L48.6249 111.727Z" fill="#FF9F00"/>
<path d="M54.9554 112.717C53.9985 112.717 53.0324 112.657 52.0732 112.537C51.2106 112.429 50.3458 112.272 49.5016 112.071C49.1934 111.998 48.8966 111.924 48.593 111.841L48.271 111.753L73.4972 101.081L73.3937 101.337C73.1959 101.831 72.9958 102.276 72.7819 102.696C72.1033 104.036 71.2338 105.289 70.1988 106.417L70.1597 106.445L55.3188 112.715C55.1969 112.715 55.075 112.717 54.9531 112.717H54.9554ZM48.9795 111.705C49.1704 111.753 49.3613 111.801 49.5545 111.848C50.3895 112.046 51.2474 112.201 52.1008 112.309C53.1612 112.443 54.2377 112.5 55.2935 112.487L70.0469 106.244C71.059 105.137 71.9124 103.909 72.5772 102.592C72.7497 102.253 72.913 101.898 73.074 101.51L48.9749 111.705H48.9795Z" fill="black"/>
<path d="M34.4178 86.5244L36.2051 85.7677L40.4627 83.966L43.7106 82.5957L48.9919 80.3602L52.2397 78.9899L57.3025 76.8468L57.7717 76.6507C57.5509 76.5976 57.3232 76.5492 57.1 76.503C54.862 76.0439 52.6469 75.9217 50.51 76.097L50.2662 76.1155L47.2253 77.405L41.9441 79.6405L38.6962 81.0108L38.3949 81.1377C37.2747 82.1504 36.2902 83.3016 35.4874 84.5704C35.0826 85.1933 34.7284 85.8438 34.4155 86.529L34.4178 86.5244Z" fill="#FF9F00"/>
<path d="M34.1893 86.7453L34.3135 86.4754C34.6309 85.7833 34.9944 85.1189 35.3946 84.5029C36.1882 83.248 37.175 82.0853 38.3205 81.0471L38.3527 81.0264L41.9019 79.5292L50.2585 75.9972L50.5023 75.9788C52.6921 75.7988 54.921 75.9373 57.1223 76.3871C57.3454 76.4356 57.5754 76.484 57.7962 76.5348L58.1412 76.6155L57.3454 76.95L34.187 86.7453H34.1893ZM38.4608 81.234C37.336 82.2537 36.3676 83.3956 35.5878 84.6298C35.2451 85.1558 34.93 85.7187 34.6493 86.3023L57.396 76.6824C57.2902 76.6593 57.1821 76.6363 57.0785 76.6132C54.898 76.1679 52.6921 76.0318 50.523 76.2095L50.2976 76.2279L38.4608 81.234Z" fill="black"/>
<path d="M33.701 88.3866L35.1203 90.7743L36.8891 93.7341L39.3227 97.8151L41.0893 100.784L43.6563 105.096L45.4205 108.053L47.3826 111.343C47.792 111.484 48.2015 111.613 48.6224 111.731C48.9237 111.814 49.2227 111.89 49.5264 111.961C50.3797 112.164 51.24 112.317 52.0842 112.425L51.0583 110.702L48.6615 106.683L46.8973 103.725L44.3302 99.4138L42.5637 96.4448L40.1301 92.3638L38.3658 89.4063L36.199 85.7729L35.486 84.5732C35.0811 85.1961 34.7269 85.8467 34.4141 86.5318C34.1404 87.1316 33.9011 87.7499 33.6987 88.3935L33.701 88.3866Z" fill="#FF9F00"/>
<path d="M52.3085 112.565L52.0739 112.535C51.2113 112.426 50.3464 112.27 49.5022 112.069C49.194 111.995 48.8973 111.921 48.5937 111.838C48.1957 111.727 47.7886 111.601 47.3469 111.448L47.3078 111.434L33.5757 88.3973L33.5918 88.3489C33.7873 87.7237 34.0311 87.0916 34.3117 86.4756C34.6292 85.7836 34.9926 85.1192 35.3928 84.5032L35.494 84.3486L52.3085 112.565ZM47.4643 111.245C47.8852 111.388 48.2762 111.511 48.6581 111.617C48.9571 111.697 49.2515 111.774 49.5574 111.845C50.3165 112.025 51.094 112.168 51.8691 112.274L35.4871 84.7846C35.1329 85.3475 34.8086 85.9473 34.5234 86.5702C34.2519 87.1631 34.0196 87.7675 33.8287 88.3673L47.4643 111.243V111.245Z" fill="black"/>
<path d="M38.6463 80.9181L38.7015 81.008L40.4658 83.9655L42.6326 87.599L44.3968 90.5564L46.8281 94.642L48.597 97.6065L51.1709 101.918L52.9283 104.873L55.3251 108.892L57.0893 111.85L57.4596 112.47C58.7086 112.336 59.93 112.101 61.1008 111.766L60.3326 110.477L58.5683 107.519L56.1761 103.503L54.4119 100.546L51.838 96.2338L50.076 93.2648L47.6424 89.1838L45.8736 86.224L43.7137 82.5906L41.9494 79.6331L41.4917 78.8672C40.475 79.467 39.5181 80.1498 38.644 80.9158L38.6463 80.9181Z" fill="#FF9F00"/>
<path d="M57.3963 112.595L38.4956 80.8953L38.5692 80.8307C39.4364 80.0717 40.4002 79.3773 41.433 78.7706L41.5319 78.7129L61.2721 111.841L61.1272 111.882C59.9426 112.219 58.712 112.457 57.4676 112.588L57.394 112.595H57.3963ZM38.7923 80.9414L38.7969 80.9483L57.5182 112.35C58.6752 112.224 59.8184 112.004 60.9225 111.7L41.4537 79.0289C40.4991 79.5988 39.6066 80.2401 38.7969 80.9414H38.7923Z" fill="black"/>
<path d="M46.8177 76.7052L47.2272 77.3996L48.9914 80.3571L51.1582 83.9905L52.9225 86.948L55.3538 91.0336L57.1226 93.998L59.6896 98.3097L61.4539 101.267L63.8461 105.284L65.6103 108.241L66.3372 109.466C67.3424 108.836 68.2809 108.121 69.1342 107.33L68.8582 106.868L67.094 103.911L64.7018 99.8945L62.9375 96.937L60.3659 92.6185L58.6039 89.6563L56.1657 85.5731L54.4015 82.6156L52.2416 78.9821L50.5142 76.0869L50.2703 76.1054C49.0926 76.2115 47.9356 76.4099 46.8201 76.6983L46.8177 76.7052Z" fill="#FF9F00"/>
<path d="M66.2971 109.63L46.642 76.6338L46.7892 76.5946C47.9025 76.3039 49.071 76.1032 50.2579 75.9971L50.5753 75.9717L69.2805 107.353L69.2115 107.418C68.3512 108.213 67.4058 108.936 66.396 109.568L66.2971 109.63ZM46.9939 76.7791L47.3251 77.342L66.373 109.309C67.3046 108.719 68.1833 108.047 68.9861 107.311L66.9941 103.973L50.4488 76.2116L50.2763 76.2254C49.1538 76.3246 48.052 76.5115 46.9939 76.7791Z" fill="black"/>
<path d="M57.103 76.501L57.3054 76.8447L59.4722 80.4781L61.2365 83.4356L63.6701 87.5166L65.4366 90.4856L68.0037 94.7973L69.7679 97.7548L72.1647 101.774L72.6845 102.643C72.9077 102.207 73.1078 101.755 73.2918 101.294C73.5655 100.59 73.7909 99.8657 73.9681 99.1113C74.0325 98.8368 74.0923 98.5599 74.1452 98.2808L73.0089 96.3822L71.2515 93.427L68.6799 89.1084L66.9111 86.144L64.4775 82.063L62.7155 79.1009L62.1267 78.1158C60.7741 77.5114 59.3388 77.0177 57.8345 76.6625L57.7747 76.6486C57.5539 76.5956 57.3261 76.5471 57.103 76.501Z" fill="#FF9F00"/>
<path d="M72.6936 102.881L67.9046 94.8577L56.8706 76.333L57.1259 76.3861C57.349 76.4345 57.5791 76.483 57.7999 76.5337L57.8597 76.5476C59.3341 76.8959 60.7855 77.3873 62.1726 78.0078L62.2048 78.0217L74.2647 98.2559L74.2555 98.2997C74.2026 98.5788 74.1428 98.8603 74.0784 99.1348C73.9058 99.873 73.6758 100.614 73.3975 101.333C73.1997 101.829 72.9996 102.272 72.7857 102.692L72.6913 102.877L72.6936 102.881ZM57.3352 76.6675L57.4042 76.7852L72.6752 102.404C72.8524 102.046 73.0203 101.666 73.1859 101.25C73.4596 100.542 73.6873 99.8131 73.8575 99.0841C73.9174 98.8257 73.9749 98.5627 74.0255 98.302L62.0483 78.2062C60.6843 77.5972 59.2582 77.1174 57.8091 76.7736L57.7493 76.7598C57.6136 76.7275 57.4756 76.6975 57.3375 76.6675H57.3352Z" fill="black"/>
<path d="M54.6475 95.6916C54.6475 95.6916 47.4846 97.6064 46.5347 89.3498C46.5347 89.3498 54.1598 88.081 54.6475 95.6916Z" fill="#0ECC6D"/>
<path d="M52.9238 95.9937C51.8634 95.9937 50.4879 95.7907 49.2734 94.9602C47.684 93.8759 46.7248 91.9911 46.4212 89.3635L46.4097 89.2551L46.5178 89.2367C46.5523 89.232 50.0233 88.6807 52.4408 90.607C53.8393 91.7212 54.6191 93.4284 54.764 95.6846L54.7709 95.7791L54.6789 95.8045C54.6651 95.8091 53.9405 95.996 52.9238 95.996V95.9937ZM46.6627 89.4489C46.9709 91.9473 47.891 93.7375 49.3999 94.7687C51.4609 96.1782 54.0141 95.7145 54.5271 95.6015C54.3706 93.4607 53.6208 91.8412 52.2959 90.7869C50.1958 89.1144 47.2607 89.3751 46.6627 89.4489Z" fill="black"/>
<path d="M54.4839 95.6617C54.4839 95.6617 56.0066 88.3857 63.7836 91.2532C63.7836 91.2532 61.4788 98.6538 54.4839 95.6617Z" fill="#0ECC6D"/>
<path d="M57.6266 96.4895C56.6283 96.4895 55.5633 96.2496 54.4385 95.7674L54.3511 95.7305L54.3695 95.6382C54.3764 95.6082 55.0365 92.5769 57.5552 91.1789C59.2367 90.2446 61.346 90.2331 63.8233 91.1466L63.9268 91.1835L63.8946 91.2873C63.8831 91.3219 62.8112 94.6762 60.0073 95.975C59.2666 96.3188 58.4707 96.4895 57.6289 96.4895H57.6266ZM54.6202 95.5921C56.5961 96.4157 58.3741 96.4733 59.9106 95.7651C62.3466 94.6393 63.4368 91.8918 63.6416 91.3219C61.277 90.473 59.2712 90.4915 57.6726 91.3773C55.4897 92.5885 54.7513 95.0823 54.6225 95.5921H54.6202Z" fill="black"/>
<path d="M40.6949 9.34947C44.511 6.34122 51.6048 6.32969 54.342 8.36441C60.0396 2.6778 68.4169 -1.37319 80.5297 0.90376C80.5297 0.90376 97.9652 3.18532 99.481 21.048C99.481 21.048 115.274 22.7182 113.215 40.5624C112.976 42.6432 112.45 44.6964 111.49 46.5558C106.701 55.8435 97.4523 51.6334 96.7346 51.2989C90.2457 48.2468 89.7098 40.2832 89.1854 40.0202C58.3742 24.5707 59.4507 27.3528 43.2758 29.1522C43.2758 29.1522 28.7822 18.7364 40.6949 9.34716V9.34947Z" fill="white"/>
<path d="M102.338 52.6554C99.5109 52.6554 97.1762 51.6334 96.6862 51.4027C91.5798 49.0012 90.1146 43.5429 89.4866 41.2129C89.344 40.6846 89.2106 40.1863 89.1301 40.1218C62.342 26.6907 59.7428 27.0506 48.81 28.5617C47.2021 28.7831 45.3827 29.0346 43.2872 29.2699L43.2435 29.2745L43.2067 29.2491C43.1354 29.1984 36.0186 24.0124 35.8806 17.7237C35.8116 14.6416 37.4079 11.7948 40.6213 9.26181C42.3878 7.87073 45.0445 6.99178 47.9152 6.85337C50.5581 6.72649 52.9434 7.23401 54.3281 8.21446C61.2747 1.32133 70.096 -1.17478 80.5503 0.790729C80.5871 0.795343 84.9805 1.39515 89.4958 4.17962C93.6546 6.74263 98.7725 11.7302 99.5868 20.9465C100.406 21.0595 106.317 22.0215 110.147 26.8199C112.912 30.2827 113.984 34.9127 113.33 40.5762C113.068 42.8532 112.482 44.8833 111.591 46.6112C109.105 51.4327 105.427 52.6577 102.338 52.6577V52.6554ZM56.4052 27.6043C62.8871 27.6043 69.5439 30.0427 89.2382 39.9164C89.3923 39.9926 89.4797 40.2948 89.7097 41.153C90.3285 43.453 91.7753 48.8374 96.7828 51.1928C97.7857 51.6657 106.727 55.5413 111.387 46.5028C112.265 44.8002 112.84 42.7978 113.1 40.5485C113.747 34.9473 112.693 30.3749 109.968 26.963C105.926 21.9015 99.5316 21.1702 99.4671 21.1633L99.3728 21.1541L99.3636 21.0595C98.5839 11.8802 93.5004 6.92027 89.3739 4.37571C84.8977 1.61661 80.5549 1.02373 80.5112 1.01912C70.096 -0.939476 61.3184 1.56125 54.4201 8.44746L54.3511 8.51667L54.2706 8.45669C51.515 6.41044 44.4695 6.51886 40.7639 9.44176C37.6103 11.9263 36.0462 14.7108 36.1106 17.7168C36.2417 23.664 42.765 28.6332 43.3056 29.0346C45.3781 28.8039 47.1837 28.5524 48.7778 28.3333C51.7082 27.9273 54.0452 27.6043 56.4029 27.6043H56.4052Z" fill="black"/>
<path d="M92.3637 33.4872C95.0389 35.6419 96.5156 38.9962 96.1292 42.4151C96.1269 42.4405 96.1222 42.4681 96.1199 42.4935C95.7174 45.8963 94.3281 48.3531 93.5 49.5989C89.868 45.8755 80.3429 37.116 65.1524 33.8402C53.0281 31.2264 43.0291 33.3419 38.0377 34.7676C37.9342 33.1643 37.9572 30.1191 39.4247 26.7348C39.4362 26.7094 39.4477 26.6841 39.4592 26.6564C40.9199 23.3298 44.0113 21.0205 47.5835 20.4092C53.541 19.3918 62.6475 18.7643 72.7017 22.407C81.3205 25.5306 87.8622 29.8607 92.3614 33.4826L92.3637 33.4872Z" fill="white"/>
<path d="M93.5177 49.7833L93.4188 49.6818C87.9949 44.1221 78.6837 36.8783 65.1287 33.9554C53.913 31.5377 44.2245 33.1249 38.0692 34.8805L37.9312 34.9197L37.922 34.7766C37.7449 32.006 38.2279 29.21 39.3182 26.6908L39.3527 26.6124C40.8133 23.2858 43.8818 20.9258 47.5644 20.2983C56.4271 18.7872 64.8987 19.4609 72.7423 22.3007C79.8729 24.8845 86.4975 28.6171 92.4366 33.3948C95.2083 35.6256 96.6322 39.0006 96.2457 42.4241L96.2365 42.5049C95.9375 45.0402 95.0243 47.5156 93.5982 49.661L93.52 49.7787L93.5177 49.7833ZM53.5242 32.4905C57.1378 32.4905 61.0551 32.8411 65.177 33.7293C78.7045 36.6453 88.0225 43.8475 93.4832 49.4165C94.8449 47.3264 95.7167 44.9318 96.0065 42.4795L96.0157 42.4011C96.3952 39.056 95.0013 35.7571 92.2917 33.577C86.3733 28.8132 79.7694 25.0944 72.6641 22.5199C64.8596 19.6916 56.4271 19.0225 47.6035 20.5267C43.9991 21.1426 40.9928 23.4519 39.5643 26.707L39.5298 26.7831C38.4717 29.2261 37.9933 31.9322 38.1451 34.6198C42.0485 33.5171 47.3413 32.4905 53.5242 32.4905Z" fill="black"/>
<path d="M88.9596 30.9917C88.9228 30.9917 88.886 30.9732 88.8653 30.9409C88.8285 30.8879 88.8446 30.8164 88.8952 30.7818L94.411 27.0445C94.4639 27.0076 94.5353 27.0238 94.5698 27.0745C94.6066 27.1276 94.5905 27.1991 94.5399 27.2337L89.024 30.9709C89.0033 30.9848 88.9826 30.9917 88.9596 30.9917Z" fill="black"/>
<path d="M86.8668 29.5893C86.8668 29.5893 86.8507 29.5893 86.8438 29.5893C86.7817 29.5777 86.7403 29.5155 86.7541 29.4532L88.2493 22.034C88.2608 21.9718 88.3252 21.9302 88.385 21.9441C88.4471 21.9556 88.4885 22.0179 88.4747 22.0802L86.9795 29.4993C86.968 29.5547 86.9197 29.5916 86.8668 29.5916V29.5893Z" fill="black"/>
<path d="M56.828 19.7292C56.8119 19.7292 56.7958 19.7269 56.7797 19.72C56.7222 19.6946 56.6969 19.6254 56.7222 19.5677L59.3881 13.6827C59.4157 13.6251 59.4824 13.5997 59.5399 13.6251C59.5974 13.6504 59.6227 13.7196 59.5974 13.7773L56.9315 19.6623C56.9131 19.7038 56.8694 19.7292 56.8257 19.7292H56.828Z" fill="black"/>
<path d="M53.8426 19.8073C53.7874 19.8073 53.7391 19.768 53.7299 19.7104L52.6166 13.2532C52.6051 13.191 52.6488 13.131 52.7109 13.1194C52.7707 13.1102 52.8328 13.1517 52.8443 13.214L53.9576 19.6712C53.9691 19.7334 53.9254 19.7934 53.8633 19.805C53.8564 19.805 53.8495 19.805 53.8426 19.805V19.8073Z" fill="black"/>
<path d="M70.1516 42.8535C68.7784 48.8562 69.7238 54.5289 72.2494 57.671C73.2362 58.8937 74.4576 59.7311 75.886 60.0564C80.9603 61.2145 86.6187 55.3894 88.5256 47.0475C90.4325 38.7056 87.8654 31.0028 82.7912 29.8447C81.441 29.5356 80.0517 29.7224 78.7084 30.313C74.9798 31.9555 71.5548 36.724 70.1539 42.8512L70.1516 42.8535Z" fill="#FFE12B"/>
<path d="M77.183 60.3164C76.7391 60.3164 76.2974 60.268 75.8581 60.1688C74.4412 59.8458 73.1945 59.0292 72.1594 57.7442C69.5441 54.4914 68.7114 48.6364 70.0386 42.8298C71.4003 36.871 74.7839 31.918 78.6597 30.2109C80.0721 29.588 81.4706 29.4265 82.8162 29.7356C84.5367 30.1278 86.0388 31.2836 87.1612 33.0761C89.3073 36.5019 89.8571 41.734 88.638 47.0769C86.8852 54.7521 81.9398 60.321 77.1853 60.321L77.183 60.3164ZM81.4729 29.8118C80.5804 29.8118 79.6718 30.0148 78.7517 30.4185C74.9403 32.0979 71.6073 36.9886 70.2617 42.8783C68.9483 48.6179 69.7649 54.3968 72.3365 57.5965C73.3394 58.84 74.5424 59.6313 75.9087 59.9427C80.9139 61.0846 86.5195 55.2873 88.4103 47.0215C89.6179 41.7386 89.0773 36.5688 86.9634 33.196C85.8731 31.4566 84.4217 30.3377 82.7633 29.9571C82.3377 29.8602 81.9076 29.8118 81.4706 29.8118H81.4729Z" fill="black"/>
<path d="M78.9994 33.0511C80.0161 32.5551 81.0627 32.3867 82.0725 32.6174C85.8678 33.4848 87.6941 39.6651 86.1507 46.4199C86.0771 46.7451 85.9943 47.0612 85.9069 47.3772L79.0431 43.6931L84.6717 50.7431C82.6314 55.0801 79.4019 57.7492 76.483 57.0825C75.4157 56.838 74.5094 56.1805 73.7826 55.207C71.9263 52.7063 71.2937 48.1431 72.4024 43.2801C73.5364 38.3156 76.1725 34.4238 78.9948 33.0488L78.9994 33.0511Z" fill="black"/>
<path d="M77.4002 57.3019C77.0827 57.3019 76.7699 57.2673 76.4594 57.1958C75.3898 56.9513 74.4605 56.3053 73.6945 55.2764C71.7693 52.6811 71.2195 47.9634 72.2937 43.255C73.3978 38.4242 76.0085 34.3779 78.9482 32.9476C80.0247 32.4239 81.0828 32.2762 82.0972 32.5069C83.3094 32.7838 84.3743 33.6097 85.1794 34.8946C86.8609 37.5799 87.2772 42.0069 86.2628 46.4478C86.1961 46.7431 86.1179 47.0499 86.019 47.4098L85.9799 47.5482L79.4841 44.0624L84.8068 50.7271L84.7769 50.7917C82.8631 54.8612 80.0546 57.2996 77.4002 57.2996V57.3019ZM81.1564 32.6315C80.4686 32.6315 79.7625 32.8068 79.0471 33.1552C76.1672 34.5578 73.6048 38.5419 72.5168 43.308C71.4564 47.9519 71.9901 52.5958 73.8763 55.1403C74.6077 56.1254 75.4956 56.7413 76.51 56.9743C79.2541 57.6018 82.4744 55.108 84.5377 50.7618L78.6032 43.3288L85.8327 47.2091C85.9132 46.9115 85.9776 46.6485 86.0374 46.397C87.038 42.0138 86.6331 37.6537 84.9839 35.0192C84.211 33.7873 83.1966 32.996 82.0465 32.733C81.7544 32.6661 81.4577 32.6338 81.1587 32.6338L81.1564 32.6315Z" fill="black"/>
<path d="M60.5528 40.6221C59.2348 46.6386 55.9617 51.3609 52.3411 53.1188C50.9265 53.8016 49.4659 54.0346 48.0375 53.7163C42.9563 52.5882 40.3249 44.8969 42.1559 36.5388C43.9891 28.1808 49.5924 22.3165 54.6712 23.4446C56.0238 23.7445 57.2015 24.5081 58.1629 25.6201C60.8335 28.7021 61.8985 34.481 60.5528 40.6221Z" fill="#FFE12B"/>
<path d="M49.3184 53.9721C48.8791 53.9721 48.442 53.9237 48.0096 53.8291C42.8756 52.6895 40.1981 44.922 42.0406 36.5132C43.2137 31.1611 45.944 26.6649 49.3437 24.4894C51.1218 23.3498 52.9734 22.9507 54.694 23.3313C56.0396 23.6312 57.2357 24.3741 58.2478 25.5437C61.0241 28.748 61.9718 34.6769 60.663 40.6472C59.3864 46.4653 56.1385 51.4022 52.3869 53.2224C51.3518 53.723 50.3236 53.9721 49.3161 53.9721H49.3184ZM53.4059 23.4213C52.1132 23.4213 50.7721 23.8481 49.4679 24.6832C46.1188 26.8287 43.4276 31.2695 42.266 36.564C40.4512 44.8482 43.0481 52.4911 48.0602 53.603C49.4288 53.9075 50.8503 53.7091 52.2903 53.0124C55.9798 51.2223 59.1794 46.3477 60.4399 40.5965C61.7326 34.6953 60.8056 28.8449 58.0753 25.6937C57.0977 24.5633 55.943 23.8435 54.6457 23.5551C54.2385 23.4651 53.8245 23.419 53.4059 23.419V23.4213Z" fill="black"/>
<path d="M56.7338 27.9644C56.0253 27.0808 55.1513 26.481 54.1392 26.255C50.3393 25.4129 46.054 30.216 44.5681 36.9845C44.4968 37.3098 44.4347 37.6328 44.3794 37.9535L52.1541 37.5659L44.062 41.5269C44.0574 46.323 45.8401 50.1203 48.7613 50.7685C49.8309 51.0061 50.9304 50.7985 52.0023 50.2287C54.7464 48.7638 57.2651 44.9089 58.3324 40.0389C59.4227 35.0652 58.6982 30.4167 56.7338 27.9644Z" fill="black"/>
<path d="M49.6493 50.9814C49.3411 50.9814 49.0352 50.9491 48.7338 50.8822C45.8195 50.2362 43.9402 46.5636 43.9448 41.5275V41.456L51.5976 37.7118L44.2393 38.0786L44.2646 37.9356C44.3267 37.5734 44.3888 37.2551 44.4532 36.9621C45.4285 32.5143 47.6918 28.6894 50.3578 26.9823C51.6344 26.1656 52.9478 25.8772 54.1623 26.1448C55.1767 26.3709 56.0715 26.9592 56.8213 27.8935C58.8685 30.4473 59.5057 35.225 58.443 40.0649C57.4079 44.7803 54.9007 48.8105 52.053 50.3331C51.2388 50.7668 50.4337 50.9837 49.6493 50.9837V50.9814ZM44.1772 41.6013C44.191 46.4136 46.038 50.0471 48.7867 50.6584C49.8011 50.8845 50.8661 50.7068 51.9472 50.1301C54.7373 48.6398 57.1986 44.6696 58.2198 40.0165C59.2664 35.2411 58.6477 30.5396 56.6442 28.0388C55.9288 27.1461 55.0778 26.5832 54.114 26.3709C52.9616 26.1149 51.708 26.394 50.4843 27.1784C47.8667 28.8532 45.6447 32.6227 44.6809 37.0128C44.6257 37.2643 44.5728 37.5342 44.5176 37.8341L52.7086 37.4258L44.1772 41.6013Z" fill="black"/>
<path d="M68.2117 56.9167C68.2117 56.9167 67.0892 64.1812 64.0691 67.8469C64.0208 67.9069 63.9725 67.9646 63.9242 68.02V68.0246C62.7304 69.4018 61.2467 70.2092 59.4342 69.8125C57.5687 69.4064 56.4692 67.983 55.8459 66.1606C55.7884 65.9922 55.7332 65.8191 55.6849 65.6438C54.3761 61.0553 55.7378 54.4229 55.7378 54.4229L59.2134 55.1172L64.214 56.1161L68.2117 56.9167Z" fill="black"/>
<path d="M60.3466 70.0277C60.0406 70.0277 59.7278 69.9931 59.4127 69.9239C57.6944 69.5502 56.4569 68.2952 55.7393 66.1959C55.6749 66.0067 55.622 65.836 55.576 65.6722C54.274 61.1091 55.6128 54.4628 55.6266 54.3982L55.6496 54.2852L68.3443 56.8228L68.3282 56.9312C68.3167 57.005 67.1735 64.2258 64.1879 67.8846L64.1603 67.9192C64.1212 67.9653 64.0821 68.0138 64.043 68.0599L64.0154 68.0968C62.9044 69.3795 61.6738 70.0254 60.3489 70.0254L60.3466 70.0277ZM55.829 54.5574C55.6588 55.4479 54.603 61.4274 55.7968 65.6099C55.8405 65.7691 55.8934 65.9352 55.9555 66.1221C56.6455 68.1406 57.8232 69.3426 59.4587 69.6978C61.0435 70.0439 62.5064 69.4671 63.8084 67.9792L63.836 67.9422C63.8774 67.8961 63.9165 67.8477 63.9579 67.7992L63.9786 67.7715C66.7434 64.4149 67.9234 57.9255 68.0775 57.005L55.8267 54.5551L55.829 54.5574Z" fill="black"/>
<path d="M64.0711 67.8482C64.0228 67.9082 63.9745 67.9659 63.9262 68.0212V68.0258C62.7324 69.4031 61.2488 70.2105 59.4362 69.8137C57.5708 69.4077 56.4713 67.9843 55.8479 66.1618C55.7904 65.9934 55.7352 65.8204 55.6869 65.6451C56.492 63.698 58.6495 62.27 60.5633 62.5676C62.8106 62.9183 64.4299 65.3383 64.0711 67.8482Z" fill="#FF43E8"/>
<path d="M60.346 70.0276C60.04 70.0276 59.7272 69.993 59.4121 69.9238C57.6938 69.5501 56.4563 68.2951 55.7387 66.1958C55.6743 66.0066 55.6213 65.8359 55.5753 65.6721L55.5638 65.6329L55.5799 65.596C56.4218 63.5636 58.6645 62.1494 60.5806 62.4493C62.8992 62.8115 64.5484 65.2845 64.185 67.8522V67.8891L64.1574 67.9214C64.1183 67.9675 64.0792 68.016 64.0401 68.0621L64.0125 68.099C62.9015 69.3817 61.6709 70.0276 60.346 70.0276ZM55.8077 65.6513C55.8491 65.799 55.8974 65.9535 55.9549 66.122C56.6449 68.1405 57.8226 69.3424 59.4581 69.6977C61.0429 70.0438 62.5058 69.467 63.8077 67.979L63.8353 67.9421C63.8767 67.896 63.9158 67.8475 63.9573 67.7991C64.2908 65.3607 62.7312 63.0214 60.5415 62.6777C58.7358 62.3962 56.6196 63.7273 55.8054 65.649L55.8077 65.6513Z" fill="black"/>
<path d="M69.5564 54.4014C68.9078 55.0842 67.3919 56.8606 66.8537 59.645C66.2809 62.6048 67.1504 64.9464 67.5161 65.8023" fill="#0ECC6D"/>
<path d="M67.5159 65.9179C67.4722 65.9179 67.4285 65.8925 67.4101 65.8487C66.927 64.7229 66.1979 62.416 66.7407 59.6246C67.2283 57.1054 68.4957 55.3521 69.4733 54.3232C69.517 54.2771 69.5906 54.2748 69.6366 54.3186C69.6826 54.3624 69.6849 54.4362 69.6412 54.4824C68.6844 55.4882 67.4446 57.2046 66.9684 59.6684C66.4394 62.3998 67.1524 64.656 67.624 65.7587C67.6493 65.8164 67.624 65.8856 67.5642 65.911C67.5504 65.9179 67.5343 65.9202 67.5182 65.9202L67.5159 65.9179Z" fill="black"/>
<path d="M56.5309 51.5088C56.7908 52.4154 57.313 54.6947 56.5056 57.4122C55.6476 60.3028 53.796 61.9731 53.0737 62.5613" fill="white"/>
<path d="M53.0735 62.677C53.0413 62.677 53.0068 62.6631 52.9838 62.6354C52.9447 62.587 52.9516 62.5132 52.9999 62.474C53.9269 61.7173 55.6014 60.047 56.3927 57.3802C57.108 54.9764 56.7998 52.8794 56.418 51.5414C56.3996 51.4814 56.4364 51.4168 56.4962 51.3983C56.556 51.3799 56.6204 51.4168 56.6388 51.4768C57.0298 52.8425 57.3427 54.9856 56.6135 57.4448C55.8038 60.1693 54.0925 61.8765 53.1448 62.6516C53.1241 62.67 53.0988 62.677 53.0712 62.677H53.0735Z" fill="black"/>
<path d="M66.1397 50.5991C66.0384 52.3639 64.4122 53.702 62.5099 53.5912C60.6077 53.4805 59.1494 51.9602 59.2506 50.1977C59.3518 48.4329 60.978 47.0949 62.8803 47.2056C64.7825 47.3164 66.2409 48.8366 66.1397 50.5991Z" fill="#0ECC6D"/>
<path d="M62.7284 53.7132C62.6525 53.7132 62.5789 53.7132 62.503 53.7062C61.5553 53.6509 60.6812 53.2564 60.0464 52.5943C59.4092 51.9299 59.0849 51.0763 59.1355 50.1905C59.2413 48.3657 60.9205 46.9723 62.8871 47.0899C63.8348 47.1453 64.7089 47.5398 65.3437 48.2019C65.9809 48.8663 66.3052 49.7199 66.2546 50.6057C66.1534 52.359 64.5939 53.7132 62.7284 53.7132ZM62.6617 47.3114C60.9182 47.3114 59.4598 48.571 59.3655 50.202C59.3172 51.0233 59.6186 51.8146 60.212 52.4328C60.8078 53.0534 61.6266 53.4225 62.5168 53.4756C64.3547 53.5817 65.9257 52.2875 66.0246 50.5919C66.0729 49.7706 65.7716 48.9793 65.1781 48.3611C64.5824 47.7405 63.7635 47.3714 62.8733 47.3183C62.802 47.3137 62.7307 47.3114 62.6617 47.3114Z" fill="black"/>
<path d="M63.6923 48.5153C62.3697 48.9282 63.0092 50.9906 64.3341 50.5777C65.6567 50.1648 65.0173 48.1023 63.6923 48.5153Z" fill="white"/>
</g>
<defs>
<clipPath id="clip0_76_2770">
<rect width="118" height="118" fill="white" transform="translate(0.956543 0.141602)"/>
</clipPath>
</defs>
</svg>
