<svg width="96" height="117" viewBox="0 0 96 117" fill="none" xmlns="http://www.w3.org/2000/svg">
<g clip-path="url(#clip0_76_2623)">
<path d="M11.4786 101.645C11.4338 101.196 10.7416 101.192 10.7886 101.645C10.9835 103.603 9.81191 105.443 7.96602 106.04C6.51889 106.508 5.05831 105.954 4.6282 104.383C4.43778 103.69 4.43106 103.031 4.617 102.4C4.62372 102.4 4.6282 102.4 4.63268 102.4C5.26664 102.411 5.87148 102.236 6.4472 101.98C6.88851 101.784 7.50455 101.472 7.5964 100.93C7.70169 100.307 6.99828 99.8969 6.48976 99.8193C5.86028 99.7236 5.28232 100.088 4.87013 100.547C4.56547 100.886 4.3325 101.253 4.16001 101.641C4.06592 101.625 3.97183 101.611 3.87999 101.586C2.61654 101.253 1.53455 100.168 1.35757 98.8163C1.20076 97.6195 2.11027 96.9037 3.17658 96.6849C3.45436 97.0816 3.79934 97.4235 4.19809 97.656C4.99558 98.1211 5.84236 97.9159 6.16718 96.9972C6.20527 96.8901 6.16718 96.7259 6.07982 96.653C5.37193 96.0626 4.43778 95.8437 3.53052 95.9281C3.2505 95.4129 3.10265 94.8179 3.18554 94.2389C3.32667 93.2541 4.17569 92.3149 5.12551 92.1029C7.04308 91.6766 8.91809 93.7716 9.47813 95.4402C9.6215 95.8688 10.2891 95.6842 10.1457 95.2533C9.68198 93.8719 8.68511 92.6249 7.44183 91.9023C6.39568 91.2959 5.10535 91.1113 4.05024 91.8043C2.97944 92.5087 2.31636 93.7739 2.51573 95.0755C2.56726 95.4083 2.67254 95.7412 2.81815 96.058C2.59862 96.1173 2.3858 96.1902 2.18195 96.286C0.772895 96.9493 0.342785 98.4151 0.927465 99.8467C1.44718 101.119 2.6143 102.044 3.92479 102.313C3.78142 102.895 3.76126 103.51 3.86879 104.146C4.04128 105.156 4.57443 106.127 5.49962 106.592C6.34191 107.016 7.3343 107 8.21244 106.699C10.2935 105.988 11.7026 103.898 11.4786 101.645ZM4.02784 96.6211C4.52963 96.6439 5.01126 96.7738 5.38985 97.0154C5.04711 97.4668 4.3661 96.9767 4.02784 96.6211ZM4.9239 101.675C4.95078 101.629 4.97094 101.581 5.00006 101.536C5.25544 101.119 5.65195 100.599 6.16046 100.517C6.4024 100.478 6.62417 100.567 6.82131 100.706C6.96692 100.809 6.93107 100.822 6.81459 100.945C6.50769 101.274 5.96109 101.442 5.54666 101.566C5.34281 101.625 5.13223 101.657 4.9239 101.673V101.675Z" fill="black"/>
<path d="M12.0107 99.876L24.1725 99.8988C24.3785 99.8988 24.5443 100.07 24.5443 100.279C24.5443 100.489 24.3763 100.66 24.1725 100.66L12.0107 100.637C11.8046 100.637 11.6388 100.466 11.6388 100.257C11.6388 100.047 11.8068 99.876 12.0107 99.876Z" fill="black"/>
<path d="M12.2157 96.5273L19.8323 96.541C20.0384 96.541 20.2041 96.712 20.2041 96.9217C20.2041 97.1314 20.0361 97.3024 19.8323 97.3024L12.2157 97.2887C12.0096 97.2887 11.8439 97.1178 11.8439 96.908C11.8439 96.6983 12.0119 96.5273 12.2157 96.5273Z" fill="black"/>
<path d="M38.7174 92.2495C40.859 92.8741 42.967 93.6059 45.0996 94.2647C47.006 94.8551 49.9025 96.3391 51.9119 95.7464C55.3663 94.7297 50.3304 84.9138 49.4366 82.8325C48.0947 79.7118 52.799 77.5097 54.1387 80.6305C56.2489 85.5384 61.4102 95.1492 55.9756 99.526C53.5585 101.473 50.6799 101.261 47.8483 100.57C44.1274 99.6605 40.5297 98.2563 36.8536 97.1848C33.6569 96.2548 35.532 91.3195 38.7174 92.2473V92.2495Z" fill="black"/>
<path d="M38.6159 98.3406L40.7978 92.3247L31.4518 88.7686L25.0472 105.286L27.2067 106.239C27.2067 106.239 31.8282 106.704 34.3775 96.5511L38.6159 98.3383V98.3406Z" fill="#FF43E8"/>
<path d="M27.326 106.361C27.2566 106.361 27.2118 106.357 27.1961 106.357L27.1625 106.348L24.9044 105.351L24.9447 105.249L31.3897 88.626L40.9417 92.2596L38.6814 98.4921L34.4542 96.7094C32.1132 105.894 28.1123 106.359 27.326 106.359V106.361ZM27.2342 106.129C27.5321 106.145 31.8534 106.149 34.2683 96.5248L34.2996 96.3971L38.5514 98.1889L40.6527 92.3919L31.5151 88.9155L25.1912 105.228L27.2319 106.129H27.2342Z" fill="black"/>
<path d="M32.3227 102.095C29.9101 106.508 27.2085 106.241 27.2085 106.241L25.049 105.289L27.6274 98.6367C29.3523 99.5394 30.945 100.65 32.3227 102.095Z" fill="white"/>
<path d="M27.3165 106.359C27.2515 106.359 27.2112 106.357 27.2 106.355L27.1664 106.345L24.9083 105.349L27.5719 98.4785L27.6816 98.5355C29.5701 99.5248 31.1158 100.662 32.4039 102.014L32.4621 102.076L32.4218 102.151C30.2556 106.115 27.872 106.361 27.3165 106.361V106.359ZM27.2358 106.129C27.4576 106.143 29.9487 106.149 32.1843 102.112C30.95 100.831 29.476 99.7437 27.6884 98.7954L25.1951 105.226L27.2358 106.127V106.129Z" fill="black"/>
<path d="M33.79 89.6622L27.2062 106.242L25.049 105.289L31.4513 88.7686L33.79 89.6622Z" fill="black"/>
<path d="M27.2678 106.392L24.9044 105.348L24.9447 105.246L31.3897 88.623L33.939 89.5964L27.27 106.392H27.2678ZM25.1934 105.228L27.1468 106.089L33.6433 89.7264L31.5151 88.9148L25.1912 105.228H25.1934Z" fill="black"/>
<path d="M37.0514 97.7663C37.038 97.7663 37.0223 97.764 37.0089 97.7572C36.9529 97.7321 36.9238 97.666 36.9484 97.609L38.3149 94.2398C38.3395 94.1805 38.4045 94.1532 38.4605 94.1782C38.5165 94.2033 38.5456 94.2694 38.521 94.3264L37.1545 97.6957C37.1366 97.739 37.094 97.7663 37.0514 97.7663Z" fill="black"/>
<path d="M35.36 97.1853C35.3466 97.1853 35.3309 97.183 35.3175 97.1761C35.2615 97.1511 35.2324 97.085 35.257 97.028L36.6235 93.6587C36.6481 93.5995 36.7131 93.5721 36.7691 93.5972C36.8251 93.6223 36.8542 93.6884 36.8296 93.7454L35.4631 97.1146C35.4452 97.1579 35.4026 97.1853 35.36 97.1853Z" fill="black"/>
<path d="M71.1424 77.1909C74.2584 88.7644 75.6451 100.265 74.5877 112.258C74.292 115.616 69.1173 115.711 69.4174 112.317C70.4345 100.773 69.1733 89.8016 66.1715 78.6567C65.2866 75.3718 70.2575 73.9083 71.1424 77.1932V77.1909Z" fill="black"/>
<path d="M75.3935 106.118L69.0449 106.278L69.2846 116.604L86.8698 116.566L86.9348 114.131C86.9348 114.131 85.6265 109.51 75.3398 110.869L75.3913 106.118H75.3935Z" fill="#FF43E8"/>
<path d="M69.1781 116.718L68.9316 106.165L75.5065 105.999L75.455 110.736C85.6029 109.434 86.9895 113.905 87.0455 114.096L87.05 114.114L86.9805 116.677L69.1758 116.715L69.1781 116.718ZM69.1624 106.389L69.3976 116.49L86.7655 116.451L86.8282 114.146C86.7297 113.859 85.119 109.692 75.3609 110.98L75.2332 110.996L75.2847 106.234L69.1646 106.389H69.1624Z" fill="black"/>
<path d="M81.2085 110.765C86.1704 111.428 86.941 114.129 86.941 114.129L86.876 116.564L79.7949 116.58C79.9786 114.581 80.3998 112.634 81.2107 110.765H81.2085Z" fill="white"/>
<path d="M79.6722 116.692L79.6834 116.567C79.8827 114.378 80.3487 112.463 81.1081 110.717L81.1417 110.64L81.2246 110.651C86.2 111.317 87.0176 113.984 87.049 114.096L87.0535 114.114L86.984 116.678L79.6699 116.694L79.6722 116.692ZM81.2784 110.888C80.5637 112.559 80.118 114.385 79.9163 116.464L86.7667 116.448L86.8294 114.143C86.7555 113.927 85.8326 111.524 81.2784 110.888Z" fill="black"/>
<path d="M69.2305 114.02L86.9411 114.129L86.8762 116.564L69.2887 116.605L69.2305 114.02Z" fill="black"/>
<path d="M69.1799 116.719L69.1172 113.906L87.0563 114.018L86.9847 116.681L69.1799 116.719ZM69.3479 114.134L69.4017 116.489L86.7696 116.45L86.8278 114.241L69.3479 114.132V114.134Z" fill="black"/>
<path d="M75.3513 107.996L71.7424 107.946C71.6797 107.946 71.6304 107.894 71.6326 107.83C71.6326 107.766 71.6842 107.713 71.7469 107.718L75.3558 107.768C75.4185 107.768 75.4678 107.821 75.4655 107.884C75.4655 107.946 75.414 107.996 75.3535 107.996H75.3513Z" fill="black"/>
<path d="M75.4511 109.843L71.8423 109.792C71.7795 109.792 71.7303 109.74 71.7325 109.676C71.7325 109.612 71.7773 109.564 71.8467 109.564L75.4556 109.615C75.5184 109.615 75.5676 109.667 75.5654 109.731C75.5654 109.792 75.5139 109.843 75.4534 109.843H75.4511Z" fill="black"/>
<path d="M77.4636 19.13C86.3526 14.605 101.294 31.9413 81.6707 46.4212C79.2983 48.172 79.3499 48.2084 79.6321 51.4158C79.7217 52.4439 79.7486 53.4971 79.8382 54.5252L54.7843 62.5835L31.2224 58.1497C31.2224 58.0768 29.8985 51.5298 27.9764 51.7874C3.81638 55.0107 7.2931 32.787 15.7183 31.1069C10.9513 25.4399 10.8034 17.0624 15.3666 12.2547C19.4258 7.9782 26.1014 7.72289 31.0925 11.7418C32.898 4.31946 39.5513 -0.504161 46.2538 0.181996C51.722 0.742776 56.4936 4.89847 58.2387 10.6704C61.283 2.86963 69.0138 0.300535 73.8256 3.38026C78.7226 5.41594 80.5797 13.0366 77.4636 19.13Z" fill="white"/>
<path d="M54.7914 62.6975L54.7646 62.693L31.113 58.2409V58.1498C31.0346 57.6027 29.6771 51.6712 27.9903 51.8968C17.5063 53.2942 10.5686 49.909 9.43283 42.8377C8.58157 37.5445 11.4669 31.9869 15.5104 31.0317C13.2635 28.2962 11.9933 24.8677 11.9306 21.3571C11.8656 17.7827 13.0552 14.5206 15.2841 12.1727C17.2711 10.0777 19.9683 8.86954 22.8737 8.77152C25.7344 8.67122 28.622 9.656 31.0234 11.5412C32.8738 4.28528 39.3971 -0.63636 46.2654 0.0703138C51.6552 0.624255 56.4357 4.73208 58.2525 10.3376C59.8295 6.51472 62.6947 3.67891 66.1513 2.52999C68.8932 1.61816 71.7113 1.89399 73.8865 3.28454C75.8847 4.11203 77.482 5.92886 78.3691 8.38627C79.5541 11.6757 79.3054 15.5761 77.7127 18.8883C81.6195 17.1353 86.7652 19.3443 89.5653 24.0402C92.9099 29.6457 92.6097 38.4928 81.7382 46.5147C80.2209 47.6348 79.5511 49.2054 79.7288 51.2266L79.7445 51.4067C79.7893 51.9219 79.8184 52.4531 79.8476 52.9682C79.8767 53.4789 79.9058 54.0055 79.9506 54.5161L79.9596 54.6073L79.8744 54.6346L54.7937 62.6998L54.7914 62.6975ZM31.3146 58.0472L54.7758 62.4627L79.7176 54.4409C79.6773 53.9553 79.6482 53.4584 79.6213 52.9774C79.5922 52.4645 79.5631 51.9356 79.5183 51.425L79.5026 51.2449C79.2338 48.2016 79.2248 48.0831 81.6038 46.3278C92.3521 38.3971 92.6635 29.6754 89.3727 24.1565C86.5591 19.4423 81.3507 17.279 77.5133 19.2326L77.2042 19.3899L77.3632 19.0776C79.059 15.7585 79.357 11.792 78.1562 8.46377C77.2915 6.06792 75.7391 4.29896 73.7835 3.48742C71.6486 2.12423 68.8999 1.85751 66.2207 2.74883C62.7395 3.90687 59.8676 6.81107 58.3421 10.716L58.2234 11.0169L58.1293 10.7069C56.4156 5.03527 51.6373 0.852214 46.2408 0.298273C39.4307 -0.399282 32.9589 4.5292 31.1959 11.7669L31.1534 11.9379L31.0167 11.8285C26.057 7.83688 19.5068 8.04661 15.4409 12.3322C13.2545 14.6369 12.0852 17.8397 12.1501 21.3549C12.2151 24.8746 13.5099 28.3122 15.7993 31.0317L15.9248 31.1799L15.7366 31.2164C11.7066 32.0211 8.80783 37.5422 9.65236 42.8035C10.7657 49.7381 17.6094 53.0549 27.9589 51.6734C28.2658 51.6324 28.5727 51.7441 28.8706 52.0017C30.2506 53.1962 31.1735 57.3679 31.3124 58.0517L31.3146 58.0472Z" fill="black"/>
<path d="M79.6952 52.7646C73.4654 55.0944 65.0133 57.4948 54.7982 58.3132C45.3694 59.0677 37.2242 58.2516 30.9786 57.1232C31.8008 66.5083 32.6229 75.8934 33.4428 85.2807C39.5248 86.6348 48.4093 87.843 58.9537 86.571C68.7812 85.3856 77.1011 82.4472 82.529 79.8918C81.736 70.8464 80.486 61.8123 79.693 52.7669L79.6952 52.7646Z" fill="white"/>
<path d="M49.9733 87.2234C44.4379 87.2234 38.9003 86.6124 33.4209 85.3906L33.3402 85.3723L30.8536 56.9846L30.997 57.0096C38.8734 58.4321 46.8797 58.831 54.7897 58.1973C63.2709 57.518 71.6379 55.6533 79.6554 52.6556L79.792 52.6055L79.8055 52.7536C80.202 57.2741 80.7217 61.8675 81.2235 66.3104C81.7253 70.7556 82.245 75.3535 82.6415 79.8785L82.6482 79.9583L82.5765 79.9925C78.4815 81.921 69.9667 85.3541 58.9676 86.6808C55.977 87.041 52.9751 87.2211 49.9711 87.2211L49.9733 87.2234ZM33.5485 85.1877C41.9514 87.0501 50.4931 87.4764 58.9429 86.4574C69.848 85.1398 78.3023 81.75 82.413 79.8215C82.0165 75.3262 81.5013 70.7579 81.0017 66.34C80.5044 61.945 79.9914 57.4017 79.5971 52.9269C71.602 55.9018 63.2619 57.7528 54.8076 58.4298C46.9267 59.0613 38.9518 58.6692 31.1023 57.265L33.5463 85.19L33.5485 85.1877Z" fill="black"/>
<path d="M77.5674 19.0283C77.041 19.507 76.3869 20.0336 75.6006 20.542C74.6754 21.1392 73.8018 21.5564 73.0625 21.8527" fill="white"/>
<path d="M73.064 21.97C73.0192 21.97 72.9767 21.9426 72.961 21.897C72.9386 21.8377 72.9655 21.7716 73.0237 21.7488C73.8996 21.3978 74.7486 20.9601 75.5416 20.4472C76.2294 20.0027 76.8857 19.4966 77.4951 18.9449C77.5399 18.9039 77.6115 18.9062 77.6541 18.9541C77.6944 19.0019 77.6922 19.0726 77.6451 19.1159C77.0291 19.6767 76.3615 20.1896 75.6626 20.6409C74.8562 21.1607 73.9959 21.6052 73.1066 21.9608C73.0932 21.9654 73.0797 21.97 73.0663 21.97H73.064Z" fill="black"/>
<path d="M58.23 10.5605C58.3062 11.3903 58.3331 12.4344 58.2009 13.622C58.0598 14.8827 57.7797 15.9449 57.502 16.7656" fill="white"/>
<path d="M57.504 16.8803C57.4928 16.8803 57.4793 16.8803 57.4681 16.8734C57.4099 16.8529 57.3785 16.7891 57.3987 16.7275C57.7392 15.72 57.9722 14.6691 58.0909 13.609C58.2029 12.6037 58.2141 11.5825 58.12 10.5726C58.1133 10.5088 58.1603 10.4541 58.2208 10.4495C58.2858 10.445 58.3373 10.4906 58.3418 10.5521C58.4359 11.5779 58.4247 12.6151 58.3104 13.6364C58.1895 14.7146 57.952 15.7792 57.607 16.805C57.5913 16.8529 57.5488 16.8825 57.5017 16.8825L57.504 16.8803Z" fill="black"/>
<path d="M31.0255 11.5811C31.5497 12.2216 32.2643 13.252 32.7639 14.6745C33.1425 15.7504 33.2791 16.717 33.3262 17.4373" fill="white"/>
<path d="M33.3248 17.5519C33.2665 17.5519 33.2172 17.5063 33.2128 17.4448C33.1523 16.5101 32.9663 15.5915 32.6572 14.7115C32.2652 13.5968 31.6872 12.5665 30.9368 11.6523C30.8964 11.6045 30.9032 11.5315 30.9502 11.4928C30.9972 11.4517 31.0689 11.4586 31.107 11.5064C31.8731 12.4411 32.4645 13.4942 32.8655 14.634C33.1814 15.5322 33.3718 16.4714 33.4323 17.4288C33.4368 17.4926 33.3897 17.5451 33.327 17.5496C33.3248 17.5496 33.3225 17.5496 33.3203 17.5496L33.3248 17.5519Z" fill="black"/>
<path d="M15.5822 31.1396C16.1265 31.1761 16.8366 31.2833 17.6297 31.5637C18.7116 31.9443 19.5069 32.496 20.0109 32.9109" fill="white"/>
<path d="M20.0097 33.0226C19.9851 33.0226 19.9605 33.0135 19.9403 32.9975C19.2324 32.4162 18.4439 31.9694 17.5926 31.6708C16.943 31.4406 16.2642 31.3015 15.5742 31.2536C15.5115 31.2491 15.4667 31.1944 15.469 31.1328C15.4734 31.0713 15.5272 31.0211 15.5877 31.028C16.2956 31.0758 16.9945 31.2217 17.6643 31.4565C18.538 31.7643 19.3511 32.2248 20.0792 32.822C20.1262 32.8608 20.1352 32.9337 20.0971 32.9816C20.0747 33.0089 20.0433 33.0249 20.0097 33.0249V33.0226Z" fill="black"/>
<path d="M26.4816 52.0583C26.4233 52.0583 26.374 52.0127 26.3696 51.9535C26.3651 51.8896 26.4121 51.8372 26.4726 51.8327C27.4157 51.7643 28.995 51.6526 30.8745 50.7726C32.0215 50.2347 33.0631 49.5006 33.9682 48.5911C34.013 48.5478 34.0824 48.5478 34.1272 48.5911C34.1698 48.6367 34.1698 48.7073 34.1272 48.7529C33.2043 49.6807 32.1424 50.4307 30.9708 50.9801C29.0555 51.8783 27.4516 51.9922 26.4928 52.0606C26.4905 52.0606 26.4883 52.0606 26.4838 52.0606L26.4816 52.0583Z" fill="black"/>
<path d="M60.868 57.719C60.8209 57.719 60.7761 57.6871 60.7604 57.6392L58.0185 48.6622C58.0006 48.6029 58.0342 48.5391 58.0924 48.5186C58.1529 48.5003 58.2134 48.5345 58.2336 48.5938L60.9755 57.5708C60.9934 57.6301 60.9598 57.6939 60.9016 57.7145C60.8904 57.719 60.8792 57.719 60.868 57.719Z" fill="black"/>
<path d="M62.362 57.4794C62.3037 57.4794 62.2544 57.4338 62.25 57.3723L61.7952 50.6817C61.7907 50.6178 61.8378 50.5654 61.8983 50.5608C61.9587 50.5563 62.0125 50.6042 62.017 50.6657L62.4717 57.3563C62.4762 57.4201 62.4292 57.4726 62.3687 57.4771C62.3665 57.4771 62.3642 57.4771 62.3597 57.4771L62.362 57.4794Z" fill="black"/>
<path d="M48.4198 58.6987C48.3862 58.6987 48.3548 58.685 48.3324 58.6554L35.5031 42.37C35.465 42.3221 35.4717 42.2492 35.521 42.2104C35.5703 42.1717 35.6397 42.1785 35.6778 42.2287L48.5072 58.5141C48.5453 58.5619 48.5385 58.6349 48.4893 58.6736C48.4691 58.6896 48.4445 58.6987 48.4198 58.6987Z" fill="black"/>
<path d="M70.8262 55.8019C70.8262 55.8019 70.806 55.8019 70.7971 55.7973C70.7366 55.7814 70.703 55.7175 70.7187 55.6583L76.9889 32.0349C77.0045 31.9733 77.065 31.9391 77.1255 31.9551C77.186 31.971 77.2196 32.0349 77.2039 32.0941L70.9337 55.7175C70.9203 55.7677 70.8755 55.8019 70.8262 55.8019Z" fill="black"/>
<path d="M62.2823 64.8638C59.0744 65.4588 56.5833 64.2164 53.6286 64.7225C51.9686 65.0074 50.4162 65.6184 50.6268 67.5059C51.0121 70.964 53.9108 72.9404 57.2352 73.9275C61.5296 75.2018 66.3347 74.7276 69.9414 72.1289C74.303 68.9876 75.8823 65.0895 74.9571 63.1519C74.1372 61.4353 72.7662 61.2871 71.113 61.5972C68.1672 62.1511 65.2214 64.3144 62.2845 64.8593L62.2823 64.8638Z" fill="white"/>
<path d="M61.8606 74.7229C60.3216 74.7229 58.749 74.4972 57.201 74.039C52.1047 72.5254 50.7516 69.6599 50.5119 67.5194C50.279 65.4267 52.1674 64.8568 53.6078 64.6106C55.055 64.3645 56.3587 64.524 57.7387 64.6973C59.1567 64.8728 60.6218 65.0552 62.2616 64.752C63.7177 64.483 65.2096 63.7946 66.6522 63.1289C68.1039 62.461 69.6048 61.768 71.09 61.4899C72.5394 61.2163 74.1433 61.1958 75.0551 63.1061C76.0116 65.1099 74.3853 69.0695 70.0035 72.2245C67.7208 73.8703 64.8556 74.7229 61.8606 74.7229ZM55.1603 64.7109C54.6652 64.7109 54.1634 64.7451 53.6459 64.834C51.4707 65.2056 50.5724 66.0263 50.736 67.4921C51.1549 71.242 54.5173 73.0018 57.2638 73.8179C61.7598 75.1538 66.473 74.4858 69.8736 72.0353C74.1568 68.9487 75.7697 65.1213 74.8535 63.2019C74.0089 61.4352 72.5663 61.4397 71.1303 61.711C69.672 61.9846 68.1845 62.6707 66.7441 63.3341C65.2902 64.0043 63.7849 64.6973 62.3019 64.9731C60.6285 65.2831 59.1455 65.0985 57.7118 64.9207C56.8471 64.8135 56.0138 64.7087 55.1603 64.7087V64.7109Z" fill="black"/>
<path d="M71.7367 70.7457C71.7367 70.7457 71.7278 70.7457 71.7233 70.7457C71.6628 70.7388 71.618 70.6818 71.627 70.618C72.0548 67.112 70.7824 63.9639 69.6399 61.9373C69.6086 61.8826 69.6287 61.8142 69.6803 61.7823C69.734 61.7504 69.8012 61.7686 69.8326 61.8233C70.993 63.8773 72.2833 67.0778 71.8487 70.6454C71.842 70.7023 71.7927 70.7457 71.7367 70.7457Z" fill="black"/>
<path d="M65.8724 74.2037C65.8724 74.2037 65.8657 74.2037 65.8612 74.2037C65.8007 74.1968 65.7537 74.1421 65.7604 74.0806C65.85 73.1004 65.9351 71.1148 65.4983 68.8124C65.2138 67.3239 64.7456 65.8672 64.1027 64.4812C64.0758 64.4242 64.1005 64.3558 64.1565 64.3285C64.2125 64.3011 64.2797 64.3262 64.3066 64.3832C64.9562 65.7851 65.4333 67.26 65.7201 68.7668C66.1636 71.0966 66.0763 73.1072 65.9867 74.0988C65.9822 74.1581 65.9329 74.2014 65.8747 74.2014L65.8724 74.2037Z" fill="black"/>
<path d="M58.6751 74.363C58.6751 74.363 58.6639 74.363 58.6594 74.363C58.599 74.3539 58.5564 74.2969 58.5654 74.233C58.6975 73.3189 58.8879 71.4975 58.655 69.553C58.4601 67.9231 58.0322 66.3251 57.3825 64.8047C57.3579 64.7477 57.3825 64.6793 57.4408 64.6542C57.4968 64.6291 57.564 64.6542 57.5886 64.7135C58.2472 66.2545 58.6796 67.873 58.8767 69.5234C59.1119 71.493 58.9215 73.3394 58.7849 74.265C58.7759 74.3219 58.7289 74.363 58.6751 74.363Z" fill="black"/>
<path d="M46.3654 62.4666C49.9541 61.7007 53.4375 63.8823 54.1432 67.3381C54.8488 70.794 52.5101 74.2202 48.9214 74.9862" fill="white"/>
<path d="M48.9182 75.1026C48.8667 75.1026 48.8196 75.0661 48.8084 75.0114C48.795 74.9499 48.8353 74.8883 48.8958 74.8769C52.4196 74.1247 54.7247 70.7531 54.0325 67.3634C53.7099 65.7859 52.7847 64.4182 51.4249 63.5132C49.9509 62.5329 48.1633 62.2001 46.3868 62.5785C46.3263 62.5922 46.2659 62.5512 46.2547 62.4896C46.2412 62.4281 46.2815 62.3665 46.342 62.3551C48.1767 61.963 50.0248 62.3073 51.5481 63.3217C52.9572 64.2609 53.9182 65.6788 54.252 67.3155C54.9689 70.8284 52.5876 74.3207 48.9428 75.098C48.9361 75.098 48.9272 75.1003 48.9204 75.1003L48.9182 75.1026Z" fill="black"/>
<path d="M61.6642 60.763C63.5756 60.763 65.1252 59.178 65.1252 57.2228C65.1252 55.2676 63.5756 53.6826 61.6642 53.6826C59.7527 53.6826 58.2031 55.2676 58.2031 57.2228C58.2031 59.178 59.7527 60.763 61.6642 60.763Z" fill="#75D4D7"/>
<path d="M61.6634 60.8775C60.7673 60.8775 59.9183 60.5401 59.2552 59.9178C58.5518 59.259 58.1418 58.3586 58.0993 57.3829C58.0119 55.37 59.5419 53.6603 61.511 53.5714C62.4631 53.5258 63.3771 53.8678 64.0805 54.5266C64.7839 55.1854 65.1961 56.0858 65.2364 57.0615C65.3238 59.0744 63.7937 60.784 61.8246 60.873C61.7709 60.8752 61.7171 60.8775 61.6634 60.8775ZM61.6701 53.7971C61.6208 53.7971 61.5693 53.7971 61.5177 53.7994C59.6718 53.8837 58.2382 55.4863 58.321 57.3738C58.3614 58.2879 58.7444 59.1313 59.4053 59.7491C60.0639 60.3669 60.9174 60.6837 61.8134 60.645C63.6571 60.5606 65.093 58.9581 65.0101 57.0706C64.9698 56.1565 64.5845 55.313 63.9259 54.6953C63.3031 54.1117 62.5079 53.7971 61.6678 53.7971H61.6701Z" fill="black"/>
<path d="M63.7016 46.4978C64.2191 51.9688 66.6161 56.5098 69.647 58.4634C70.832 59.2225 72.1067 59.5895 73.4127 59.4641C78.0588 59.0219 81.242 52.4977 80.5229 44.8953C79.8039 37.2928 75.4557 31.4867 70.8096 31.9289C69.5731 32.0475 68.4418 32.5923 67.4629 33.4722C64.7478 35.9091 63.1685 40.9105 63.6972 46.4978H63.7016Z" fill="#FFE12B"/>
<path d="M72.9069 59.6025C71.7824 59.6025 70.669 59.2538 69.5893 58.5608C66.4463 56.5365 64.0919 51.8063 63.5901 46.5108C63.0771 41.0763 64.5691 35.9244 67.3939 33.3895C68.4244 32.464 69.5713 31.9351 70.8034 31.8189C75.5033 31.3721 79.9141 37.2329 80.6377 44.8878C81.0924 49.7114 80.0105 54.2569 77.7412 57.0517C76.5203 58.5539 75.0284 59.4293 73.4266 59.582C73.2542 59.598 73.0817 59.6071 72.9092 59.6071L72.9069 59.6025ZM63.8141 46.4858C64.3092 51.7151 66.6211 56.3769 69.708 58.3647C70.911 59.1375 72.1542 59.468 73.4042 59.3495C74.9455 59.2036 76.3859 58.3556 77.5687 56.9012C79.8021 54.152 80.8662 49.6681 80.4159 44.906C79.7058 37.3765 75.3957 31.6069 70.8258 32.0423C69.6408 32.1562 68.5364 32.6646 67.544 33.5582C64.7729 36.0475 63.3079 41.1219 63.8164 46.4858H63.8141Z" fill="black"/>
<path d="M68.485 35.7079C69.2131 35.0013 70.0554 34.5659 70.9806 34.4792C74.455 34.1487 77.7458 38.872 78.3283 45.0292C78.3552 45.3255 78.3753 45.6173 78.391 45.9091L71.5115 44.7146L78.2835 49.1074C77.7638 53.3543 75.7633 56.5229 73.0908 56.7759C72.1141 56.8694 71.1553 56.5662 70.266 55.9439C67.9832 54.3459 66.162 50.6575 65.7431 46.226C65.3152 41.7033 66.4667 37.6638 68.485 35.7079Z" fill="black"/>
<path d="M72.7411 56.9058C71.8831 56.9058 71.0318 56.6141 70.203 56.0373C67.797 54.3504 66.0452 50.5959 65.6308 46.2374C65.2141 41.8309 66.3029 37.6661 68.4064 35.6258C69.177 34.8781 70.0394 34.4541 70.9691 34.3652C74.4996 34.0301 77.8509 38.8082 78.44 45.0178C78.4647 45.2868 78.4848 45.5672 78.5027 45.9023L78.5095 46.0436L72.0399 44.9197L78.4042 49.0481L78.3952 49.1188C77.8486 53.5845 75.772 56.6346 73.1017 56.8876C72.9808 56.899 72.8598 56.9058 72.7411 56.9058ZM71.3253 34.5772C71.2133 34.5772 71.1035 34.5818 70.9915 34.5932C70.1134 34.6775 69.2957 35.0787 68.5632 35.7923C66.5067 37.7846 65.4449 41.8765 65.8548 46.2168C66.2558 50.4455 68.0121 54.2273 70.3307 55.8504C71.229 56.4773 72.1586 56.7531 73.0816 56.6619C75.5883 56.4226 77.6268 53.4135 78.1645 49.1643L70.9848 44.5071L78.272 45.7723C78.2563 45.5033 78.2406 45.2662 78.2182 45.0406C77.6604 39.1547 74.6093 34.5772 71.3253 34.5772Z" fill="black"/>
<path d="M74.3215 39.6807C74.331 38.0516 73.0148 36.723 71.3817 36.7131C69.7487 36.7032 68.4171 38.0159 68.4076 39.645C68.3981 41.2741 69.7143 42.6027 71.3473 42.6126C72.9804 42.6224 74.312 41.3098 74.3215 39.6807Z" fill="white"/>
<path d="M71.3711 42.7244C70.0562 42.7244 68.8375 41.8742 68.4343 40.5566C68.1968 39.7815 68.273 38.9608 68.6471 38.2428C69.0302 37.5087 69.6776 36.9708 70.4706 36.7291C72.088 36.2344 73.8062 37.1486 74.3013 38.7625C74.5387 39.5376 74.4625 40.3582 74.0884 41.0763C73.7054 41.8103 73.058 42.3483 72.2649 42.5899C71.967 42.6811 71.6668 42.7244 71.3711 42.7244ZM68.6471 40.4882C69.1063 41.9836 70.7013 42.8293 72.2 42.3711C72.9348 42.1477 73.5351 41.6485 73.8913 40.9692C74.2385 40.3058 74.308 39.5467 74.0884 38.8309C73.6292 37.3355 72.0342 36.4898 70.5355 36.948C69.8008 37.1714 69.2004 37.6706 68.8442 38.3499C68.497 39.0133 68.4276 39.7724 68.6471 40.4882Z" fill="black"/>
<path d="M66.305 44.2614C66.5783 45.1505 67.5214 45.652 68.413 45.3784C69.3046 45.1072 69.8064 44.1657 69.5331 43.2767C69.2598 42.3876 68.3167 41.8861 67.4251 42.1597C66.5335 42.4309 66.0317 43.3724 66.305 44.2614Z" fill="white"/>
<path d="M67.9191 45.5673C67.1485 45.5673 66.4339 45.0681 66.1964 44.2953C66.0575 43.8417 66.1024 43.3584 66.3219 42.939C66.5459 42.5081 66.9267 42.1935 67.3927 42.0522C68.3425 41.7627 69.3483 42.2984 69.6396 43.2444C69.7784 43.6981 69.7336 44.1814 69.5141 44.6031C69.2901 45.0339 68.9093 45.3485 68.4433 45.4898C68.2686 45.5423 68.0938 45.5673 67.9191 45.5673ZM67.9169 42.2004C67.7646 42.2004 67.61 42.2232 67.4576 42.2688C67.0499 42.3919 66.7184 42.6677 66.5213 43.0461C66.3286 43.4131 66.2905 43.8326 66.4115 44.2292C66.6646 45.0567 67.5473 45.524 68.3806 45.2733C68.7883 45.1479 69.1198 44.8743 69.317 44.4959C69.5096 44.1289 69.5477 43.7095 69.4267 43.3128C69.2206 42.6381 68.5934 42.2004 67.9191 42.2004H67.9169Z" fill="black"/>
<path d="M56.2493 48.074C57.0244 53.5176 55.6489 58.4871 53.0033 61.0859C51.9706 62.098 50.7475 62.7477 49.3788 62.9278C44.5064 63.5683 39.6834 57.956 38.6059 50.3923C37.5283 42.8286 40.6041 36.179 45.4764 35.5385C46.7735 35.3675 48.0638 35.6388 49.2779 36.268C52.6449 38.0141 55.4585 42.5163 56.2493 48.0717V48.074Z" fill="#FFE12B"/>
<path d="M48.6211 63.0923C43.966 63.0923 39.5216 57.6258 38.4933 50.4109C37.828 45.7423 38.7218 41.2265 40.8813 38.3314C42.1269 36.6627 43.7107 35.6574 45.4625 35.4272C46.7528 35.2585 48.0543 35.507 49.329 36.168C52.8303 37.9826 55.5902 42.6512 56.3608 48.0584C57.1112 53.3288 55.8232 58.4738 53.0812 61.1683C51.9947 62.2329 50.7537 62.8621 49.3917 63.0421C49.1341 63.0763 48.8764 63.0923 48.6211 63.0923ZM46.2465 35.6027C45.9934 35.6027 45.7425 35.6187 45.4893 35.6529C43.798 35.874 42.2658 36.8496 41.0583 38.4681C38.9346 41.3154 38.0587 45.7697 38.7151 50.379C39.7814 57.8698 44.5597 63.4502 49.3626 62.8165C50.6753 62.6432 51.8738 62.0346 52.9244 61.0042C55.6171 58.3599 56.8783 53.2901 56.1368 48.0903C55.3774 42.7538 52.6645 38.1536 49.2259 36.3709C48.2425 35.8603 47.2411 35.6027 46.2465 35.6027Z" fill="black"/>
<path d="M48.7671 38.6802C47.8531 38.1604 46.8832 37.9325 45.9132 38.0601C42.2684 38.5389 40.0193 43.8936 40.8907 50.0189C40.9333 50.3129 40.9826 50.6024 41.0364 50.8874L47.8083 48.1382L41.9078 53.974C43.4535 57.986 46.2649 60.6076 49.0651 60.2383C50.0911 60.1038 51.0006 59.5886 51.7667 58.7771C53.7268 56.6958 54.7147 52.686 54.0897 48.2795C53.449 43.7796 51.303 40.1163 48.7671 38.6779V38.6802Z" fill="black"/>
<path d="M48.5341 60.3913C45.9198 60.3913 43.3235 57.9613 41.8047 54.0199L41.7778 53.9492L47.3267 48.46L40.9534 51.0473L40.9288 50.9128C40.8683 50.5937 40.819 50.3064 40.7809 50.0374C40.2187 46.0892 40.9153 42.3506 42.6425 40.0346C43.5386 38.8332 44.6654 38.1129 45.8997 37.951C46.8719 37.8234 47.8553 38.0354 48.8231 38.5848C51.4665 40.0847 53.5789 43.8848 54.2017 48.2685C54.8088 52.5404 53.8858 56.6984 51.8495 58.8617C51.0386 59.7189 50.1089 60.2226 49.0829 60.3571C48.9015 60.3822 48.7178 60.3936 48.5341 60.3936V60.3913ZM42.0421 54.0062C43.6102 58.0183 46.4194 60.478 49.0538 60.1292C50.0283 60.0015 50.9154 59.5205 51.6882 58.7022C53.6775 56.589 54.578 52.5062 53.9799 48.3004C53.3661 43.9851 51.2985 40.2489 48.7133 38.7831C47.7904 38.2588 46.8517 38.0536 45.9288 38.1767C44.755 38.3317 43.6797 39.0224 42.8217 40.1736C41.155 42.4076 40.4584 46.1758 41.0027 50.0078C41.0341 50.2335 41.0744 50.4751 41.1237 50.7373L48.2944 47.8262L42.0444 54.0085L42.0421 54.0062Z" fill="black"/>
<path d="M48.9188 43.752C48.8001 45.3773 47.3149 46.6129 45.5989 46.5103C43.883 46.4077 42.5882 45.0057 42.7069 43.3804C42.8256 41.7551 44.3131 40.5195 46.0268 40.6244C47.7428 40.727 49.0376 42.1289 48.9188 43.7543V43.752Z" fill="white"/>
<path d="M45.7971 46.6314C45.7299 46.6314 45.6605 46.6314 45.591 46.6246C44.7017 46.5722 43.8706 46.1664 43.3083 45.5121C42.7908 44.9103 42.5377 44.1489 42.5937 43.3716C42.7169 41.687 44.2604 40.399 46.0323 40.5084C46.9217 40.5609 47.7528 40.9666 48.3151 41.6209C48.8325 42.2227 49.0857 42.9841 49.0297 43.7614C48.9109 45.3799 47.4817 46.6291 45.7971 46.6291V46.6314ZM45.8262 40.7296C44.2559 40.7296 42.9252 41.8876 42.8155 43.3876C42.764 44.1034 42.9969 44.8055 43.4763 45.3617C43.9983 45.9703 44.7734 46.3465 45.6045 46.3966C47.2622 46.4946 48.6936 45.307 48.8079 43.7455C48.8594 43.0297 48.6264 42.3276 48.147 41.7713C47.6251 41.1627 46.85 40.7866 46.0189 40.7364C45.9539 40.7318 45.889 40.7296 45.8262 40.7296Z" fill="black"/>
<path d="M52.1033 46.8756C52.0361 47.8034 51.187 48.5078 50.2081 48.4486C49.2291 48.3893 48.4899 47.5892 48.5571 46.6614C48.6243 45.7336 49.4733 45.0292 50.4523 45.0884C51.4312 45.1477 52.1705 45.9479 52.1033 46.8756Z" fill="white"/>
<path d="M50.3193 48.5652C50.2789 48.5652 50.2386 48.5652 50.1983 48.5606C49.6786 48.5287 49.1925 48.2916 48.8632 47.9086C48.5585 47.5553 48.4107 47.1085 48.4443 46.6503C48.5159 45.6632 49.4165 44.9087 50.4582 44.9725C50.9779 45.0044 51.464 45.2415 51.7933 45.6245C52.098 45.9778 52.2458 46.4246 52.2122 46.8828C52.1428 47.8334 51.3049 48.5652 50.3193 48.5652ZM50.3372 45.1982C49.4658 45.1982 48.7288 45.8388 48.6683 46.6685C48.6392 47.0652 48.7691 47.4527 49.0334 47.7582C49.3224 48.0956 49.7548 48.3053 50.214 48.3326C51.1324 48.3896 51.9277 47.7285 51.9904 46.8646C52.0195 46.4679 51.8896 46.0804 51.6253 45.7749C51.3363 45.4376 50.9039 45.2278 50.4447 45.2005C50.4089 45.2005 50.373 45.1982 50.3372 45.1982Z" fill="black"/>
<path d="M91.4421 76.557C89.3879 76.5843 87.6294 75.326 86.1441 74.0152C84.632 72.6817 83.2655 71.2045 82.0066 69.6247C81.8005 69.3649 81.5966 69.1027 81.3973 68.8383C81.0366 65.6195 80.6647 62.4007 80.3242 59.1819C80.3668 59.1705 82.9138 63.3217 84.3498 65.2662C85.378 66.6567 86.4802 68.0039 87.6786 69.2463C88.5702 70.1741 89.6724 71.4051 90.9045 71.8519C90.9112 71.7744 90.9157 71.7083 90.9201 71.6832C90.9694 70.589 90.8821 70.2744 90.7275 68.9796C90.4027 66.3057 89.8807 63.6226 89.3498 60.9646C89.1907 60.169 89.0295 59.3757 88.8749 58.5847C88.8659 58.5436 88.8592 58.5049 88.8502 58.4639C88.7427 57.9236 88.8122 57.4494 88.9936 57.0596C89.5873 55.7785 91.4063 55.3545 92.4793 56.2025C92.8422 56.4897 93.12 56.9206 93.2365 57.5155C93.2454 57.5566 93.2521 57.5999 93.2611 57.6409C93.409 58.3932 93.5613 59.15 93.7091 59.9046C94.3498 63.1233 94.9771 66.3695 95.2795 69.6225C95.5505 72.5472 95.1764 76.5045 91.4421 76.5547V76.557Z" fill="black"/>
<path d="M87.5316 58.5888C87.5316 58.5888 85.8358 61.6868 90.1795 60.8388C94.5232 59.9908 96.3108 59.0607 93.7996 57.5128C93.7996 57.5128 97.5967 56.291 93.7526 46.336C93.5554 45.8231 93.2082 45.2418 92.6706 45.1939C91.9179 45.1255 91.0532 45.6111 91.6894 50.8473C91.6894 50.8473 90.6656 43.3862 88.7301 44.0496C88.3627 44.1749 88.1499 44.5716 88.0782 44.9614C87.9282 45.7615 88.2216 49.0647 88.757 51.3785C88.757 51.3785 87.5742 47.0313 86.6513 45.7752C85.7261 44.5192 84.3596 44.5055 84.7427 47.3709C84.8412 48.1118 85.0003 48.8413 85.1996 49.5593L86.1069 52.8146C86.1159 52.8488 86.0755 52.8739 86.0531 52.8465C85.576 52.3222 83.3672 50.0244 82.2404 51.1573C81.4429 51.9575 83.6047 58.1648 87.5339 58.5888H87.5316Z" fill="white"/>
<path d="M88.8654 61.0984C88.1037 61.0984 87.584 60.9046 87.3107 60.5216C86.8784 59.913 87.2054 59.0308 87.3622 58.682C84.9877 58.3287 83.1216 55.8416 82.3129 53.4891C81.9948 52.5681 81.7887 51.4488 82.1584 51.0773C82.3936 50.8425 82.687 50.7285 83.0253 50.7353C84.058 50.7604 85.3147 51.9184 85.9084 52.5316L85.0885 49.5887C84.8734 48.8136 84.7211 48.091 84.627 47.3843C84.3806 45.5356 84.8734 45.0386 85.1893 44.9064C85.6373 44.7195 86.2444 45.0341 86.7372 45.7043C87.2525 46.4041 87.8371 48.0158 88.2628 49.3379C87.9828 47.4596 87.8528 45.5401 87.9648 44.9383C88.0589 44.4368 88.33 44.063 88.6906 43.9399C88.9483 43.851 89.2014 43.8852 89.4478 44.0402C90.3439 44.6032 90.9846 46.7552 91.3676 48.4877C91.3004 46.819 91.4729 45.7841 91.8918 45.3441C92.1562 45.066 92.4653 45.0591 92.6759 45.0774C93.283 45.1321 93.6503 45.7681 93.852 46.2924C96.063 52.021 95.7494 54.8842 95.0975 56.277C94.7458 57.0293 94.2888 57.3781 94.0289 57.5262C94.7883 58.0277 95.1199 58.4814 95.0437 58.9168C94.9048 59.7055 93.4554 60.3119 90.196 60.9479C89.6898 61.0459 89.244 61.0961 88.8587 61.0961L88.8654 61.0984ZM82.9939 50.9633C82.7251 50.9633 82.5033 51.0545 82.3174 51.2414C82.1248 51.4352 82.1068 52.1988 82.5257 53.4161C83.33 55.7527 85.1938 58.2238 87.5459 58.4768L87.7139 58.4951L87.631 58.6455C87.631 58.6455 87.0374 59.7511 87.4922 60.3894C87.8439 60.8841 88.7668 61.0003 90.1602 60.7268C92.0912 60.3484 94.6763 59.7466 94.8309 58.878C94.8936 58.5201 94.5285 58.0939 93.7444 57.6106L93.5339 57.4806L93.7691 57.4054C93.7691 57.4054 94.4434 57.1729 94.9093 56.1676C95.5366 54.8135 95.8278 52.0142 93.6526 46.3767C93.4734 45.914 93.1575 45.3509 92.6647 45.3053C92.4003 45.2825 92.2144 45.3418 92.0598 45.5037C91.5289 46.0622 91.4415 47.8562 91.8022 50.8334L91.5804 50.863C91.5715 50.806 90.7785 45.1412 89.3358 44.2339C89.1476 44.1154 88.9617 44.0903 88.7668 44.1564C88.4823 44.2545 88.2673 44.5622 88.1888 44.9816C88.0365 45.7932 88.3434 49.0917 88.8676 51.3508L88.6503 51.4078C88.6391 51.3645 87.463 47.0675 86.5625 45.841C86.1391 45.2643 85.6216 44.9725 85.2789 45.1184C84.8443 45.3008 84.6875 46.1146 84.8533 47.3547C84.9451 48.0523 85.0952 48.7635 85.308 49.5271L86.2153 52.7824C86.2332 52.8485 86.2063 52.9169 86.1481 52.9511C86.0898 52.9853 86.0181 52.9739 85.9711 52.9237C85.6776 52.6 84.1566 50.9884 83.0231 50.961C83.0141 50.961 83.0051 50.961 82.9939 50.961V50.9633Z" fill="black"/>
<path d="M87.387 51.8013C87.3333 51.8013 87.2862 51.7626 87.2773 51.7079C87.2661 51.6463 87.3064 51.5871 87.3669 51.5757L93.0188 50.5248C93.0793 50.5156 93.1375 50.5544 93.1487 50.6159C93.1599 50.6775 93.1196 50.7368 93.0591 50.7482L87.4072 51.7991C87.4072 51.7991 87.3937 51.7991 87.387 51.7991V51.8013Z" fill="black"/>
<path d="M90.1557 55.31C90.1041 55.31 90.0593 55.2735 90.0459 55.2211C89.8487 54.3662 89.4321 53.7325 88.8093 53.3404C87.6355 52.6018 86.1099 52.9574 86.0943 52.9597C86.0338 52.9757 85.9733 52.9369 85.9598 52.8754C85.9464 52.8138 85.9822 52.7523 86.0427 52.7386C86.1077 52.7226 87.6758 52.3579 88.9258 53.1466C89.6001 53.5729 90.0504 54.2522 90.2609 55.1686C90.2744 55.2302 90.2385 55.2917 90.1781 55.3054C90.1691 55.3054 90.1601 55.3077 90.1534 55.3077L90.1557 55.31Z" fill="black"/>
<path d="M88.1094 58.7445C87.8809 58.7445 87.6636 58.7309 87.4979 58.7103C87.4374 58.7035 87.3926 58.6465 87.4015 58.5827C87.4083 58.5211 87.4643 58.4756 87.527 58.4847C87.7577 58.5143 88.2707 58.5439 88.7255 58.4778C89.3191 58.3889 89.7313 58.2157 89.9239 58.1199C89.9777 58.0926 90.0472 58.1154 90.074 58.1724C90.1009 58.2294 90.0785 58.2977 90.0225 58.3251C89.8187 58.4277 89.3818 58.6123 88.7591 58.7035C88.5552 58.7331 88.329 58.7468 88.1117 58.7468L88.1094 58.7445Z" fill="black"/>
<path d="M92.3063 57.9754C92.2503 57.9754 92.2032 57.9344 92.1965 57.8774C92.1875 57.8158 92.2301 57.7566 92.2906 57.7474C92.5258 57.7132 92.761 57.6699 92.994 57.6175C93.2539 57.5582 93.5137 57.4876 93.7691 57.4055C93.8296 57.3873 93.8901 57.4192 93.9102 57.4807C93.9281 57.54 93.8968 57.6038 93.8363 57.6243C93.5742 57.7087 93.3076 57.7816 93.041 57.8432C92.8036 57.8979 92.5616 57.9412 92.322 57.9754C92.3175 57.9754 92.3107 57.9754 92.3063 57.9754Z" fill="black"/>
<path d="M35.6994 80.6995C35.4418 81.087 35.0363 81.3947 34.4651 81.5475C34.026 81.6637 33.5869 81.7823 33.1478 81.9008C29.7204 82.8218 26.2571 83.7724 22.7625 84.3217C19.9242 84.764 16.042 84.6067 15.7799 80.7952C15.6366 78.7003 16.7634 76.8333 17.9596 75.2398C19.176 73.6191 20.538 72.1419 22.012 70.765C24.6129 68.3327 28.5063 65.6177 31.5484 63.6162C31.6962 65.3054 31.8441 66.9923 31.9919 68.6792C30.1393 69.9444 28.0134 71.5082 26.396 72.9101C25.0945 74.0408 23.8422 75.2421 22.6975 76.5369C21.844 77.5012 20.706 78.6957 20.3387 79.9791C20.4148 79.9814 20.482 79.9837 20.5044 79.986C21.5752 79.9746 21.8776 79.8697 23.1321 79.6349C26.3557 79.0354 29.5681 78.1213 32.7424 77.2687C32.9238 77.2185 33.1053 77.1707 33.2867 77.1228C33.8109 76.9815 34.2769 77.0248 34.6689 77.1866C35.9503 77.72 36.4678 79.5574 35.6994 80.6995Z" fill="black"/>
<path d="M35.3693 68.2759L40.7411 88.8264C40.9517 89.6289 41.6484 90.1714 42.2981 90.0392C42.9477 89.907 43.3039 89.1479 43.0955 88.3454L37.7237 67.7949L35.3693 68.2759ZM42.1457 89.1524C42.0158 89.2071 41.8635 89.1387 41.8097 88.9997C41.7559 88.8606 41.8164 88.7056 41.9486 88.6509C42.0785 88.5962 42.2309 88.6646 42.2846 88.8036C42.3384 88.9427 42.2779 89.0977 42.1457 89.1524Z" fill="#0ECC6D"/>
<path d="M42.105 90.1744C41.4688 90.1744 40.8394 89.6273 40.6377 88.8568L35.2345 68.1877L37.8084 67.6611L37.8353 67.7637L43.2072 88.3142C43.3304 88.7838 43.2744 89.2603 43.0526 89.6227C42.8824 89.9008 42.6225 90.09 42.3223 90.1516C42.2507 90.1675 42.1767 90.1744 42.1028 90.1744H42.105ZM35.51 68.3655L40.8528 88.7998C41.0477 89.5452 41.6861 90.0513 42.2798 89.9305C42.5217 89.8803 42.7233 89.7344 42.8622 89.5065C43.0504 89.1987 43.0974 88.7861 42.9899 88.3781L37.6449 67.9301L35.5123 68.3678L35.51 68.3655ZM42.0558 89.2853C42.0065 89.2853 41.9594 89.2762 41.9124 89.2557C41.8183 89.2147 41.7466 89.1394 41.7085 89.0437C41.6301 88.8477 41.722 88.6243 41.9079 88.5468C41.9975 88.5103 42.0961 88.5103 42.1857 88.549C42.2798 88.5901 42.3515 88.6653 42.3895 88.761C42.468 88.9571 42.3783 89.1805 42.1902 89.258C42.1476 89.2762 42.1006 89.2853 42.0558 89.2853ZM42.0446 88.7474C42.0266 88.7474 42.0087 88.7496 41.993 88.7565C41.9191 88.7861 41.8855 88.8773 41.9169 88.9571C41.9326 88.9981 41.9617 89.0278 41.9998 89.046C42.0356 89.0619 42.0737 89.0619 42.1073 89.046C42.1812 89.0164 42.2148 88.9252 42.1834 88.8454C42.1678 88.8043 42.1386 88.7747 42.1006 88.7565C42.0826 88.7496 42.0647 88.7451 42.0446 88.7451V88.7474Z" fill="black"/>
<path d="M32.8289 56.6396C28.8415 57.7384 26.5252 60.3302 25.6896 61.372C26.2832 62.66 27.2129 64.3469 28.6511 66.0703C29.9145 67.5862 31.2183 68.7077 32.3473 69.5238C33.6892 70.4949 35.3222 70.8278 36.8052 70.3924C36.8187 70.3878 36.8321 70.3855 36.8455 70.381C36.906 70.3627 36.9643 70.3445 37.0225 70.324C38.4764 69.8339 39.6144 68.6622 40.1856 67.1462C40.656 65.897 41.1041 64.2945 41.2945 62.3887C41.5163 60.1616 41.3146 58.2604 41.0682 56.904C39.7801 56.4709 36.6036 55.6001 32.8312 56.6396H32.8289ZM34.1036 68.6804C33.8997 68.8217 33.6175 68.7602 33.4607 68.5368L28.2501 61.1919L29.2559 60.4921L34.2066 67.9692C34.3657 68.2085 34.3186 68.5299 34.1036 68.6804ZM36.5364 67.1622C36.6215 67.4221 36.5095 67.6956 36.2788 67.7822C36.0346 67.8757 35.7546 67.7298 35.656 67.4585L32.5691 58.9898L33.7071 58.5522L36.5364 67.1622ZM38.9961 66.7336C39.0319 67.0026 38.8706 67.242 38.6242 67.2784C38.3644 67.3172 38.1135 67.1143 38.0642 66.8294L36.5655 57.9845L37.7774 57.8067L38.9938 66.7336H38.9961Z" fill="#0ECC6D"/>
<path d="M35.4815 70.701C34.3793 70.701 33.2615 70.3317 32.2781 69.6204C30.9071 68.6288 29.6549 67.4594 28.5594 66.1463C27.3699 64.7193 26.3686 63.1304 25.5823 61.4207L25.5509 61.3523L25.5979 61.2931C26.671 59.9572 29.0343 57.5591 32.7978 56.5219C36.2095 55.5827 39.1979 56.148 41.1043 56.7863L41.1715 56.8091L41.1849 56.8798C41.5187 58.7149 41.5949 60.5704 41.4112 62.3987C41.2477 64.0468 40.8713 65.6585 40.2956 67.1881C39.7042 68.761 38.5236 69.9441 37.0586 70.4388C37.0003 70.4593 36.9398 70.4776 36.8771 70.4958L36.8368 70.5072C36.3955 70.6371 35.9385 70.701 35.4815 70.701ZM25.8309 61.3888C26.6038 63.0529 27.5827 64.6008 28.7431 65.9913C29.8251 67.2907 31.0617 68.4442 32.417 69.4244C33.7476 70.3864 35.3359 70.6964 36.7718 70.2769L36.8099 70.2655C36.8704 70.2473 36.9264 70.2291 36.9846 70.2108C38.3825 69.7412 39.5071 68.6083 40.0738 67.1038C40.6428 65.5947 41.0124 64.0035 41.176 62.3759C41.3529 60.5955 41.2835 58.7878 40.9654 56.9983C39.0881 56.3783 36.1782 55.8449 32.8628 56.759C29.218 57.7643 26.9084 60.0667 25.8332 61.3911L25.8309 61.3888ZM33.8619 68.8796C33.6759 68.8796 33.4878 68.7861 33.3646 68.6106L28.0823 61.1654L29.2875 60.3265L34.3054 67.9062C34.5003 68.2025 34.4421 68.5969 34.171 68.7838C34.0769 68.8499 33.9694 68.8796 33.8619 68.8796ZM28.4183 61.2247L33.5572 68.4692C33.6759 68.6379 33.8865 68.6881 34.0366 68.5832C34.1979 68.4692 34.2315 68.2276 34.1083 68.0407L29.2248 60.6639L28.4183 61.2247ZM36.1267 67.9335C36.046 67.9335 35.9631 67.9153 35.8847 67.8788C35.7302 67.8059 35.6047 67.6691 35.5442 67.5004L32.417 58.92L33.7812 58.3957L36.6509 67.1243C36.7562 67.4457 36.6128 67.7854 36.3216 67.8971C36.2588 67.9221 36.1939 67.9335 36.1267 67.9335ZM32.7216 59.0614L35.766 67.4161C35.8063 67.5232 35.8847 67.6121 35.9811 67.6577C36.0639 67.6964 36.1558 67.701 36.2342 67.6691C36.4044 67.603 36.4851 67.3978 36.4201 67.1995L33.6289 58.7103L32.7172 59.0614H32.7216ZM38.5617 67.4047C38.2683 67.4047 38.0017 67.1721 37.9479 66.8507L36.4291 57.8828L37.8807 57.6708L39.1128 66.7185C39.1598 67.0536 38.9515 67.3545 38.6401 67.4001C38.6132 67.4047 38.5864 67.4069 38.5595 67.4069L38.5617 67.4047ZM36.7046 58.088L38.1809 66.8097C38.2167 67.0262 38.4116 67.1881 38.6065 67.1585C38.7857 67.1311 38.9045 66.9533 38.8776 66.7504L37.6768 57.9444L36.7046 58.0857V58.088Z" fill="black"/>
<path d="M30.6682 76.8355C30.6682 76.8355 28.5266 75.5293 28.3026 77.2413C28.1324 78.5452 28.5939 81.3195 28.8246 82.5687C28.9299 83.1454 29.3286 83.6378 29.8819 83.7929C30.2404 83.8932 31.1207 83.5945 31.5217 83.2138C32.4424 83.7564 33.7059 84.8597 35.9326 84.8506C37.597 84.8437 39.3466 84.4403 40.8184 83.631C41.5733 83.2138 42.2409 82.669 42.615 81.862C42.8233 81.4152 42.9555 80.8978 42.8905 80.4008C42.8591 80.1523 42.774 79.9153 42.6329 79.7101C42.5926 79.6508 42.2901 79.2428 42.2901 79.2428C42.2901 79.2428 43.5133 76.9358 41.067 76.179C41.067 76.179 42.7091 72.4314 37.5903 73.8242C37.2812 73.9085 36.8331 72.5134 35.554 72.0165C35.3636 71.9435 34.0374 71.4489 32.7695 72.0233C31.2596 72.7072 30.3389 74.6745 30.6705 76.8333L30.6682 76.8355Z" fill="white"/>
<path d="M35.9059 84.966C34.0287 84.966 32.8257 84.1864 31.9476 83.6165C31.802 83.523 31.6653 83.4341 31.5354 83.3543C31.0874 83.7282 30.2406 84.0086 29.853 83.9014C29.2796 83.7419 28.8338 83.2267 28.715 82.5884C28.5 81.4213 28.0206 78.5581 28.1931 77.2245C28.2491 76.7891 28.4306 76.4928 28.7285 76.3469C29.302 76.0642 30.1465 76.429 30.5273 76.625C30.2876 74.5346 31.1703 72.622 32.7227 71.9176C33.9951 71.3409 35.3369 71.8082 35.5946 71.9085C36.4055 72.2231 36.8916 72.8842 37.2142 73.3196C37.3352 73.4837 37.5032 73.7117 37.5637 73.714C39.3603 73.2238 40.552 73.3082 41.1009 73.9647C41.6811 74.6577 41.3518 75.7496 41.2173 76.1098C41.9051 76.3469 42.3598 76.7344 42.5726 77.261C42.9064 78.0862 42.539 78.9821 42.4203 79.2328C42.5054 79.3468 42.6914 79.6021 42.7227 79.6477C42.8706 79.862 42.9647 80.1128 43.0005 80.3886C43.0767 80.979 42.8863 81.5444 42.7138 81.9136C42.3755 82.6408 41.7707 83.2358 40.8679 83.7328C39.4387 84.5215 37.6846 84.9592 35.9306 84.966H35.9037H35.9059ZM31.5063 83.074L31.578 83.115C31.7303 83.2039 31.8938 83.3088 32.0663 83.4227C32.9221 83.9767 34.0937 84.7381 35.9059 84.7381H35.9328C37.651 84.7312 39.367 84.3027 40.7648 83.5322C41.6251 83.058 42.1963 82.4972 42.5144 81.8156C42.6734 81.4737 42.8504 80.9517 42.781 80.4182C42.7496 80.1766 42.669 79.9623 42.5435 79.7777C42.5032 79.7184 42.203 79.3126 42.203 79.3126L42.1604 79.2534L42.194 79.1895C42.194 79.1895 42.7115 78.1934 42.3665 77.3476C42.1672 76.8575 41.7214 76.5019 41.0359 76.2899L40.9149 76.2534L40.9664 76.1349C40.9732 76.1212 41.5287 74.8241 40.9306 74.1129C40.4422 73.5316 39.3289 73.4723 37.6197 73.9351C37.427 73.9875 37.2702 73.7778 37.035 73.4586C36.7281 73.0438 36.2644 72.4146 35.5139 72.1228C35.272 72.0293 34.0063 71.5871 32.8145 72.1274C31.3226 72.8021 30.4668 74.7762 30.7805 76.8165L30.8163 77.0558L30.6125 76.9305C30.6013 76.9236 29.4633 76.2397 28.8271 76.552C28.6008 76.6637 28.4619 76.9008 28.4149 77.2542C28.2446 78.5558 28.7218 81.3871 28.9346 82.5451C29.0354 83.0968 29.4185 83.5436 29.9113 83.6803C30.2137 83.767 31.0582 83.4934 31.4458 83.1287L31.5063 83.0717V83.074Z" fill="black"/>
<path d="M39.104 77.0358C39.0592 77.0358 39.0144 77.0062 38.9987 76.9606C38.9785 76.9013 39.0076 76.8352 39.0659 76.8147L40.9835 76.108C41.0417 76.0875 41.1067 76.1172 41.1268 76.1764C41.147 76.2357 41.1179 76.3018 41.0596 76.3223L39.142 77.029C39.1286 77.0336 39.1174 77.0358 39.104 77.0358Z" fill="black"/>
<path d="M40.2423 79.9256C40.1931 79.9256 40.1483 79.8914 40.1348 79.8413C40.1191 79.7797 40.1527 79.7182 40.2132 79.7022L42.2607 79.1346C42.3212 79.1187 42.3817 79.1551 42.3974 79.2144C42.4131 79.2759 42.3795 79.3375 42.319 79.3535L40.2715 79.9211C40.2715 79.9211 40.2513 79.9256 40.2423 79.9256Z" fill="black"/>
<path d="M34.7746 74.8177C34.7275 74.8177 34.6827 74.7858 34.6671 74.7379C34.6491 74.6787 34.6827 74.6149 34.741 74.5966L37.5569 73.7167C37.6151 73.6962 37.6778 73.7326 37.6957 73.7919C37.7137 73.8512 37.6801 73.915 37.6218 73.9333L34.8059 74.8132C34.8059 74.8132 34.7835 74.8177 34.7723 74.8177H34.7746Z" fill="black"/>
<path d="M30.9269 79.0506C30.8709 79.0506 30.8239 79.0073 30.8149 78.9503L30.5595 76.8485C30.5528 76.787 30.5954 76.73 30.6581 76.7209C30.7186 76.7118 30.7746 76.7574 30.7836 76.8189L31.0389 78.9207C31.0456 78.9822 31.0031 79.0392 30.9404 79.0484C30.9359 79.0484 30.9314 79.0484 30.9269 79.0484V79.0506Z" fill="black"/>
<path d="M31.5216 83.3286C31.4656 83.3286 31.4163 83.2852 31.4096 83.226L31.2527 81.6895C31.246 81.6257 31.2908 81.571 31.3535 81.5642C31.4163 81.5573 31.47 81.6029 31.4768 81.6667L31.6336 83.2032C31.6403 83.267 31.5955 83.3217 31.5328 83.3286C31.5283 83.3286 31.526 83.3286 31.5216 83.3286Z" fill="black"/>
</g>
<defs>
<clipPath id="clip0_76_2623">
<rect width="94.913" height="116.717" fill="white" transform="translate(0.67395)"/>
</clipPath>
</defs>
</svg>
