<svg width="14" height="14" viewBox="0 0 14 14" fill="none" xmlns="http://www.w3.org/2000/svg">
<path d="M7.00008 1.1665C6.23404 1.1665 5.47549 1.31739 4.76776 1.61054C4.06003 1.90369 3.41697 2.33337 2.87529 2.87505C1.78133 3.96901 1.16675 5.45274 1.16675 6.99984C1.16675 8.54693 1.78133 10.0307 2.87529 11.1246C3.41697 11.6663 4.06003 12.096 4.76776 12.3891C5.47549 12.6823 6.23404 12.8332 7.00008 12.8332C8.54718 12.8332 10.0309 12.2186 11.1249 11.1246C12.2188 10.0307 12.8334 8.54693 12.8334 6.99984C12.8334 6.23379 12.6825 5.47525 12.3894 4.76752C12.0962 4.05978 11.6665 3.41672 11.1249 2.87505C10.5832 2.33337 9.94014 1.90369 9.2324 1.61054C8.52467 1.31739 7.76613 1.1665 7.00008 1.1665ZM9.45008 9.44984L6.41675 7.58317V4.08317H7.29175V7.1165L9.91675 8.6915L9.45008 9.44984Z" fill="#084C3B"/>
</svg>
