<svg width="130" height="130" viewBox="0 0 130 130" fill="none" xmlns="http://www.w3.org/2000/svg">
<rect x="2" y="2" width="126" height="126" rx="63" fill="#084C3B"/>
<rect x="2" y="2" width="126" height="126" rx="63" stroke="#084C3B" stroke-width="4"/>
<path d="M54.7783 84.2398L54.7846 84.2283L54.7904 84.2166C54.8262 84.1451 54.8939 84.0843 54.9747 84.054C55.0527 84.0247 55.1138 84.0334 55.1545 84.0537L57.3968 85.1749C57.4684 85.2107 57.5292 85.2784 57.5594 85.3591C57.5887 85.4372 57.5801 85.4982 57.5597 85.539L57.5531 85.5523L57.5469 85.5659L52.947 95.7604C52.9264 95.7945 52.8605 95.864 52.7301 95.9074C52.591 95.9538 52.4928 95.9325 52.4618 95.917L52.4619 95.9169L52.45 95.9112L49.5848 94.5409L49.5626 94.5303L49.5397 94.5211C49.4748 94.4952 49.4319 94.4498 49.4077 94.3627C49.3799 94.2627 49.3923 94.1471 49.4297 94.0662L54.7783 84.2398Z" stroke="white" stroke-width="1.5"/>
<path d="M76.4024 43.8141L76.3655 43.8279L76.3372 43.8421C76.3331 43.8402 76.3279 43.8376 76.3215 43.834C76.2672 43.803 76.1856 43.7267 76.1155 43.6042C75.4994 41.6036 74.5051 37.0509 76.344 33.2581C78.1965 29.4373 82.5377 27.528 84.5281 26.7816L84.565 26.7677L84.6 26.7502L84.6015 26.7501C84.6027 26.75 84.6046 26.7499 84.6074 26.7501C84.6194 26.7508 84.6435 26.7555 84.6749 26.7722C84.7063 26.789 84.7347 26.8125 84.7554 26.8375C84.7762 26.8626 84.7819 26.8802 84.7829 26.8841L84.7882 26.9052L84.7947 26.9259C85.4088 28.891 86.4458 33.5027 84.5865 37.3375C82.734 41.1584 78.3928 43.0677 76.4024 43.8141Z" stroke="white" stroke-width="1.5"/>
<path d="M90.27 46.6019L90.2908 46.6083L90.3118 46.6136C90.3157 46.6146 90.3333 46.6204 90.3584 46.6411C90.3835 46.6619 90.407 46.6903 90.4237 46.7217C90.4404 46.753 90.4451 46.7771 90.4458 46.7891C90.446 46.7919 90.4459 46.7939 90.4458 46.7951L90.4457 46.7965L90.4318 46.8242L90.4202 46.8532C90.0612 47.7508 89.3406 49.3113 88.2192 50.8663C87.0951 52.4251 85.6 53.9343 83.7055 54.7955C79.8829 56.533 75.2855 55.2654 73.277 54.6378L73.2392 54.626L73.2004 54.6182C73.155 54.6091 73.1314 54.5945 73.1201 54.5857C73.1081 54.5763 73.1001 54.5657 73.0945 54.5538C73.083 54.5291 73.0784 54.4891 73.1013 54.4433L73.1152 54.4154L73.1268 54.3864C73.4858 53.4889 74.2064 51.9283 75.3278 50.3734C76.4519 48.8146 77.9471 47.3053 79.8415 46.4442C83.6641 44.7066 88.2615 45.9742 90.27 46.6019Z" stroke="white" stroke-width="1.5"/>
<path d="M72.0729 42.6844L72.0729 42.6844L72.0739 42.6888C72.5332 44.6981 72.2518 46.7692 71.698 48.5951C71.1522 50.3948 70.3558 51.9101 69.8152 52.8155C69.8061 52.8225 69.7756 52.8435 69.7082 52.8561C69.6214 52.8724 69.5208 52.8635 69.4316 52.8264C67.7026 51.7058 63.9941 48.7465 63.0729 44.6014L63.073 44.6014L63.0719 44.5969C62.6127 42.5876 62.8941 40.5166 63.4478 38.6907C63.9936 36.891 64.7901 35.3757 65.3306 34.4703C65.3398 34.4632 65.3703 34.4423 65.4377 34.4296C65.5204 34.4141 65.6156 34.4215 65.7014 34.4542C67.482 35.7301 71.1556 38.5563 72.0729 42.6844Z" stroke="white" stroke-width="1.5"/>
<path d="M66.2516 68.2714L66.2656 68.2435L66.2772 68.2146C66.6362 67.317 67.3568 65.7565 68.4782 64.2015C69.6023 62.6427 71.0974 61.1334 72.9919 60.2723C76.7719 58.5542 81.3094 59.7744 83.3522 60.4087C83.5167 60.5071 83.5587 60.6379 83.5459 60.7428C83.179 61.649 82.4658 63.1744 81.3696 64.6944C80.2455 66.2532 78.7504 67.7624 76.8559 68.6236C73.0333 70.3611 68.4359 69.0936 66.4274 68.4659L66.3896 68.4541L66.3508 68.4463C66.3054 68.4373 66.2818 68.4226 66.2705 68.4138C66.2585 68.4044 66.2505 68.3938 66.2449 68.3819C66.2334 68.3572 66.2288 68.3172 66.2516 68.2714Z" stroke="white" stroke-width="1.5"/>
<path d="M65.2233 56.6385L65.2233 56.6385L65.2243 56.6429C65.6836 58.6522 65.4022 60.7233 64.8484 62.5492C64.3026 64.3489 63.5062 65.8642 62.9656 66.7696C62.9565 66.7766 62.926 66.7976 62.8586 66.8102C62.7759 66.8257 62.6807 66.8184 62.5948 66.7856C60.8143 65.5097 57.1407 62.6836 56.2233 58.5555L56.2233 58.5555L56.2223 58.551C55.7631 56.5417 56.0445 54.4707 56.5982 52.6448C57.144 50.8451 57.9405 49.3298 58.481 48.4244C58.4902 48.4173 58.5207 48.3964 58.5881 48.3838C58.6708 48.3682 58.7659 48.3756 58.8518 48.4083C60.6324 49.6842 64.306 52.5104 65.2233 56.6385Z" stroke="white" stroke-width="1.5"/>
<path d="M76.5679 74.3831L76.5886 74.3896L76.6052 74.3937C76.6127 74.3987 76.6334 74.4165 76.657 74.4671C76.691 74.54 76.7021 74.6264 76.6933 74.696C76.3265 75.6022 75.6132 77.1275 74.5171 78.6475C73.393 80.2063 71.8978 81.7156 70.0034 82.5767C66.1808 84.3142 61.5834 83.0467 59.5749 82.419L59.5371 82.4072L59.4982 82.3995C59.4528 82.3904 59.4293 82.3758 59.418 82.3669C59.406 82.3575 59.3979 82.347 59.3924 82.335C59.3808 82.3103 59.3762 82.2703 59.3991 82.2246L59.4131 82.1967L59.4246 82.1677C59.7837 81.2701 60.5043 79.7096 61.6257 78.1546C62.7498 76.5958 64.2449 75.0866 66.1394 74.2254C69.962 72.4879 74.5594 73.7554 76.5679 74.3831ZM76.6021 74.3921C76.6022 74.392 76.603 74.3923 76.6044 74.3932C76.6028 74.3926 76.6021 74.3922 76.6021 74.3921Z" stroke="white" stroke-width="1.5"/>
<path d="M58.3698 70.4666L58.3698 70.4666L58.3708 70.4711C58.8301 72.4804 58.5487 74.5514 57.9949 76.3773C57.4491 78.177 56.6526 79.6923 56.1121 80.5977C56.103 80.6048 56.0725 80.6257 56.0051 80.6383C55.9182 80.6546 55.8176 80.6457 55.7285 80.6087C53.9995 79.4881 50.291 76.5288 49.3698 72.3836L49.3698 72.3836L49.3688 72.3792C48.9095 70.3698 49.1909 68.2988 49.7447 66.4729C50.2905 64.6732 51.087 63.1579 51.6275 62.2525C51.6366 62.2454 51.6672 62.2245 51.7345 62.2119C51.8172 62.1964 51.9124 62.2037 51.9983 62.2365C53.7789 63.5124 57.4524 66.3385 58.3698 70.4666Z" stroke="white" stroke-width="1.5"/>
<path d="M19.5 20.2227L36.8333 40.4449" stroke="white" stroke-width="4" stroke-linecap="round"/>
<path d="M84.5 98.2227L101.833 118.445" stroke="white" stroke-width="4" stroke-linecap="round"/>
</svg>
