<svg width="21" height="24" viewBox="0 0 21 24" fill="none" xmlns="http://www.w3.org/2000/svg">
<g clip-path="url(#clip0_76_2903)">
<path d="M9.80704 11.4414L0.0869141 21.9696C0.19607 22.3695 0.392227 22.7383 0.66039 23.0479C0.928553 23.3574 1.26162 23.5995 1.63414 23.7555C2.00665 23.9116 2.40875 23.9775 2.80969 23.9483C3.21064 23.9191 3.59981 23.7955 3.94747 23.5869L14.8844 17.1473L9.80704 11.4414Z" fill="#EA4335"/>
<path d="M19.6358 9.65218L14.9063 6.85156L9.58264 11.6812L14.928 17.1326L19.6215 14.362C20.0373 14.1369 20.3855 13.7984 20.6285 13.3833C20.8715 12.9682 21 12.4922 21 12.007C21 11.5218 20.8715 11.0459 20.6285 10.6307C20.3855 10.2156 20.0373 9.87718 19.6215 9.6521L19.6358 9.65218Z" fill="#FBBC04"/>
<path d="M0.0869802 1.9917C0.0282275 2.21625 -0.00101947 2.44796 2.71223e-05 2.68058V21.2807C0.000636273 21.5133 0.0298552 21.7448 0.0869802 21.9697L10.1403 11.7111L0.0869802 1.9917Z" fill="#4285F4"/>
<path d="M9.87948 11.9808L14.9062 6.85154L3.98373 0.381885C3.57278 0.133071 3.10538 0.00130453 2.62914 5.20116e-06C1.44732 -0.00236936 0.408313 0.808542 0.0869141 1.98437L9.87948 11.9808Z" fill="#34A853"/>
</g>
<defs>
<clipPath id="clip0_76_2903">
<rect width="21" height="24" fill="white"/>
</clipPath>
</defs>
</svg>
