<svg width="98" height="117" viewBox="0 0 98 117" fill="none" xmlns="http://www.w3.org/2000/svg">
<g clip-path="url(#clip0_76_2435)">
<path d="M42.9517 77.4946C41.3195 82.6399 40.3669 87.8582 39.5994 93.1973C39.2201 95.8259 38.947 98.4658 38.8612 101.124C38.7686 103.937 39.0756 106.725 39.412 109.513C39.552 110.669 40.2924 111.67 41.543 111.67C42.586 111.67 43.814 110.678 43.674 109.513C43.0374 104.24 43.0104 99.136 43.7801 93.8744C44.5386 88.6949 45.48 83.6362 47.0647 78.6436C47.9045 75.9945 43.7892 74.8615 42.9539 77.4969L42.9517 77.4946Z" fill="black"/>
<path d="M45.0117 113.717C45.2126 116.589 43.0771 115.518 43.0771 115.518C41.9326 116.849 40.0521 115.946 40.0521 115.946C38.5577 117.104 36.7631 116.268 36.7631 116.268C35.0406 117.335 33.7449 116.106 33.7449 116.106C31.3565 117.161 30.2391 115.6 30.2391 115.6C29.9366 115.711 29.6521 115.752 29.388 115.748C28.388 115.732 27.6656 114.759 27.8417 113.762L28.169 111.911L28.2525 111.92C28.3112 112.087 28.3835 112.246 28.4715 112.399C29.3429 113.949 31.3542 114.3 32.9864 114.462C34.5463 114.615 36.131 114.558 37.6954 114.417L45.0095 113.714L45.0117 113.717Z" fill="white"/>
<path d="M35.3512 116.815C34.5137 116.815 33.9109 116.386 33.7281 116.238C31.6174 117.139 30.4616 116.026 30.2065 115.732C29.9378 115.823 29.6602 115.864 29.3893 115.862C28.9017 115.853 28.4389 115.625 28.1206 115.235C27.782 114.818 27.6398 114.275 27.7346 113.744L28.0822 111.788L28.3396 111.815L28.3644 111.884C28.4208 112.046 28.4908 112.196 28.5744 112.344C29.3961 113.808 31.2742 114.18 33.0034 114.351C34.3692 114.485 35.8591 114.471 37.6921 114.305L45.1191 113.594L45.1281 113.71C45.1958 114.69 45.004 115.34 44.557 115.643C44.0355 115.996 43.3425 115.755 43.11 115.657C42.0422 116.813 40.4123 116.22 40.0715 116.079C38.7012 117.093 37.0962 116.525 36.7779 116.398C36.2587 116.708 35.7778 116.817 35.3534 116.817L35.3512 116.815ZM33.771 115.971L33.8251 116.022C33.8748 116.069 35.0825 117.177 36.7079 116.17L36.7598 116.138L36.814 116.163C36.832 116.17 38.5658 116.954 39.9857 115.853L40.0399 115.81L40.1031 115.839C40.1211 115.848 41.9203 116.689 42.9948 115.438L43.0513 115.372L43.1303 115.411C43.1303 115.411 43.9159 115.796 44.4306 115.447C44.7895 115.205 44.9498 114.663 44.9091 113.835L37.7124 114.526C35.8636 114.692 34.3624 114.706 32.9809 114.572C31.1952 114.394 29.2516 114.004 28.378 112.449C28.3283 112.36 28.2831 112.269 28.2403 112.178L27.9558 113.776C27.8723 114.241 27.9965 114.718 28.2944 115.082C28.5744 115.427 28.9649 115.62 29.3915 115.627C29.6692 115.632 29.9356 115.584 30.202 115.486L30.281 115.456L30.3306 115.527C30.3735 115.588 31.4277 117 33.6987 115.996L33.7665 115.967L33.771 115.971Z" fill="black"/>
<path d="M40.0131 105.259C39.6857 105.081 38.6451 104.509 37.7037 105.031C36.9384 105.455 36.5208 106.449 36.6743 107.507C36.1054 107.411 34.4395 107.178 34.295 107.167C32.8863 107.053 31.34 107.055 30.0104 107.623C28.1796 108.405 27.5362 110.728 28.4731 112.399C29.3422 113.949 31.3558 114.298 32.9879 114.46C34.5501 114.615 36.1325 114.556 37.6969 114.417L45.011 113.717L44.7559 109.121C44.7559 109.121 46.5438 107.954 45.4354 106.289C45.1916 105.925 44.8395 105.633 44.4286 105.496C42.5707 104.876 41.2862 105.952 40.0153 105.257L40.0131 105.259Z" fill="#75D4D7"/>
<path d="M34.9452 114.667C34.25 114.667 33.5998 114.635 32.9768 114.576C31.1889 114.401 29.2452 114.011 28.3761 112.458C27.8885 111.59 27.7982 110.532 28.1278 109.554C28.4438 108.615 29.0985 107.894 29.9676 107.52C31.3898 106.914 33.0309 106.953 34.3041 107.055C34.4373 107.067 35.8663 107.265 36.5435 107.372C36.4419 106.328 36.8753 105.361 37.6474 104.933C38.6407 104.381 39.7129 104.967 40.0651 105.161C40.6656 105.489 41.2728 105.4 41.9749 105.298C42.6905 105.193 43.5032 105.074 44.4603 105.393C44.8802 105.535 45.2595 105.831 45.5258 106.23C45.8577 106.727 45.9751 107.233 45.8735 107.732C45.7132 108.519 45.0653 109.041 44.8712 109.182L45.1285 113.824L37.7061 114.533C36.6925 114.622 35.785 114.667 34.9452 114.667ZM32.9677 107.222C32.0128 107.222 30.9812 107.333 30.0556 107.728C29.2452 108.074 28.6357 108.747 28.3422 109.625C28.033 110.539 28.1188 111.53 28.5725 112.342C29.392 113.803 31.2701 114.175 32.9993 114.346C34.3583 114.48 35.8482 114.467 37.6858 114.303L44.8892 113.614L44.6364 109.061L44.6906 109.025C44.6906 109.025 45.4852 108.496 45.65 107.682C45.738 107.245 45.6319 106.798 45.3362 106.355C45.0969 105.998 44.7606 105.731 44.3858 105.608C43.4806 105.304 42.695 105.421 42.0042 105.521C41.2931 105.626 40.6204 105.724 39.9545 105.359C39.6294 105.181 38.6384 104.639 37.7535 105.131C37.0243 105.535 36.6338 106.483 36.7828 107.491L36.8054 107.646L36.6519 107.621C36.0807 107.525 34.4147 107.292 34.2838 107.283C33.8752 107.251 33.4282 107.224 32.9632 107.224L32.9677 107.222Z" fill="black"/>
<path d="M39.6554 110.973C39.6035 110.973 39.5583 110.936 39.5448 110.884C38.9872 108.415 36.6643 107.626 36.6394 107.617C36.5807 107.597 36.5469 107.533 36.5672 107.473C36.5853 107.414 36.6485 107.38 36.7094 107.401C36.7343 107.41 39.1768 108.235 39.7637 110.834C39.7773 110.895 39.7389 110.957 39.6779 110.971C39.6689 110.971 39.6599 110.973 39.6531 110.973H39.6554Z" fill="black"/>
<path d="M37.2496 111.368C37.1932 111.368 37.1458 111.327 37.139 111.27C36.7327 108.219 33.5722 107.287 33.5406 107.278C33.4797 107.26 33.4458 107.198 33.4616 107.136C33.4797 107.075 33.5406 107.041 33.6016 107.057C33.6355 107.066 36.9358 108.037 37.3625 111.238C37.3715 111.299 37.3286 111.358 37.2654 111.365C37.2609 111.365 37.2564 111.365 37.2496 111.365V111.368Z" fill="black"/>
<path d="M43.5787 110.35C43.8293 111.112 43.423 111.932 42.669 112.188C41.9173 112.441 41.1046 112.028 40.854 111.269C40.6034 110.508 41.0098 109.687 41.7638 109.434C42.5155 109.181 43.3282 109.593 43.5787 110.353V110.35Z" fill="black"/>
<path d="M42.2154 112.377C41.9784 112.377 41.7413 112.32 41.5224 112.21C41.1522 112.024 40.8767 111.702 40.7458 111.305C40.4772 110.487 40.9151 109.598 41.7255 109.324C42.1183 109.192 42.5382 109.222 42.9084 109.411C43.2787 109.598 43.5541 109.919 43.685 110.316C43.9536 111.134 43.5134 112.024 42.7053 112.297C42.545 112.352 42.3802 112.377 42.2154 112.377ZM42.2177 109.47C42.0777 109.47 41.9355 109.493 41.7978 109.539C41.1047 109.771 40.73 110.53 40.9603 111.23C41.0709 111.57 41.3079 111.843 41.624 112.005C41.94 112.165 42.2989 112.192 42.633 112.078C43.3261 111.846 43.7008 111.087 43.4705 110.387C43.3599 110.047 43.1229 109.773 42.8069 109.612C42.6195 109.516 42.4186 109.47 42.2154 109.47H42.2177Z" fill="black"/>
<path d="M60.3851 76.26C62.0849 81.6196 63.076 87.0545 63.8773 92.6147C64.2724 95.3527 64.5568 98.102 64.6471 100.87C64.7419 103.799 64.4236 106.703 64.0737 109.608C63.9293 110.812 63.1572 111.853 61.8524 111.853C60.7643 111.853 59.4866 110.821 59.6311 109.608C60.2925 104.116 60.3219 98.8019 59.5205 93.3192C58.7304 87.9254 57.7507 82.6569 56.1005 77.4546C55.2246 74.6961 59.5115 73.5152 60.3828 76.26H60.3851Z" fill="black"/>
<path d="M59.059 113.715C58.8581 116.587 60.9936 115.516 60.9936 115.516C62.1381 116.847 64.0186 115.944 64.0186 115.944C65.513 117.102 67.3077 116.266 67.3077 116.266C69.0301 117.333 70.3258 116.104 70.3258 116.104C72.7142 117.159 73.8316 115.598 73.8316 115.598C74.1341 115.709 74.4186 115.751 74.6827 115.746C75.6827 115.73 76.4051 114.757 76.229 113.76L75.9017 111.909L75.8182 111.918C75.7595 112.085 75.6873 112.244 75.5992 112.397C74.7278 113.947 72.7165 114.298 71.0843 114.46C69.5245 114.613 67.9397 114.556 66.3753 114.415L59.0613 113.712L59.059 113.715Z" fill="white"/>
<path d="M68.7203 116.813C68.2982 116.813 67.8151 116.704 67.2959 116.394C66.9776 116.521 65.3703 117.089 64.0023 116.075C63.6614 116.216 62.0315 116.809 60.9638 115.653C60.7313 115.751 60.0382 115.993 59.5168 115.639C59.0698 115.336 58.8779 114.686 58.9456 113.706L58.9547 113.59L66.3839 114.301C68.2169 114.465 69.7068 114.479 71.0726 114.347C72.8018 114.176 74.6777 113.802 75.5017 112.34C75.5852 112.192 75.6552 112.042 75.7116 111.88L75.7364 111.812L75.9938 111.784L76.3414 113.74C76.4362 114.271 76.294 114.814 75.9554 115.231C75.6371 115.621 75.1743 115.851 74.6867 115.858C74.4181 115.863 74.1404 115.819 73.8718 115.728C73.6144 116.02 72.4586 117.135 70.3502 116.234C70.1673 116.382 69.5646 116.811 68.7271 116.811L68.7203 116.813ZM67.3117 116.138L67.3636 116.17C68.9935 117.18 70.2328 116.034 70.2464 116.022L70.3005 115.97L70.3682 115.999C72.6392 117.002 73.6935 115.591 73.7363 115.53L73.786 115.461L73.865 115.491C74.1314 115.589 74.4091 115.639 74.6754 115.632C75.1044 115.626 75.4926 115.432 75.7748 115.087C76.0728 114.723 76.1969 114.246 76.1134 113.781L75.829 112.183C75.7883 112.277 75.7432 112.366 75.6913 112.454C74.8177 114.007 72.874 114.399 71.0884 114.575C69.7091 114.711 68.2056 114.695 66.3591 114.529L59.1601 113.838C59.1195 114.666 59.2797 115.206 59.6387 115.45C60.1556 115.799 60.9322 115.416 60.939 115.411L61.018 115.372L61.0744 115.439C62.1489 116.688 63.9481 115.847 63.9662 115.84L64.0294 115.81L64.0836 115.853C65.5057 116.955 67.2395 116.17 67.2553 116.164L67.3094 116.138H67.3117Z" fill="black"/>
<path d="M64.0511 105.257C64.3784 105.079 65.4191 104.507 66.3605 105.029C67.1257 105.453 67.5433 106.447 67.3898 107.505C67.9587 107.409 69.6247 107.177 69.7692 107.165C71.1778 107.051 72.7242 107.053 74.0538 107.621C75.8846 108.403 76.5279 110.726 75.5911 112.397C74.722 113.947 72.7084 114.296 71.0762 114.458C69.5141 114.613 67.9316 114.554 66.3672 114.415L59.0531 113.715L59.3082 109.119C59.3082 109.119 57.5203 107.952 58.6287 106.287C58.8725 105.923 59.2247 105.631 59.6356 105.494C61.4934 104.874 62.7779 105.95 64.0488 105.255L64.0511 105.257Z" fill="#75D4D7"/>
<path d="M69.1206 114.666C68.2809 114.666 67.3734 114.62 66.3598 114.531L58.9373 113.822L59.1947 109.181C58.9983 109.039 58.3504 108.517 58.1924 107.731C58.0908 107.232 58.2082 106.726 58.54 106.229C58.8064 105.83 59.1857 105.531 59.6055 105.392C60.5627 105.073 61.3731 105.191 62.091 105.296C62.793 105.399 63.4003 105.488 64.0008 105.159C64.3529 104.968 65.4252 104.382 66.4185 104.931C67.1905 105.36 67.6239 106.327 67.5224 107.371C68.1973 107.264 69.6285 107.065 69.7617 107.054C71.0349 106.951 72.6783 106.913 74.0983 107.519C74.9696 107.891 75.622 108.613 75.9381 109.552C76.2677 110.528 76.1774 111.588 75.6898 112.457C74.8206 114.009 72.8747 114.399 71.0891 114.575C70.4661 114.636 69.8159 114.666 69.1206 114.666ZM59.1766 113.615L66.3824 114.303C68.2199 114.468 69.7098 114.479 71.0688 114.347C72.798 114.176 74.6762 113.804 75.4956 112.343C75.9516 111.531 76.0351 110.54 75.7259 109.625C75.4302 108.75 74.8229 108.075 74.0125 107.729C72.6354 107.14 71.0282 107.182 69.782 107.282C69.6511 107.293 67.9851 107.523 67.414 107.619L67.2605 107.644L67.2831 107.489C67.4298 106.482 67.0393 105.533 66.3124 105.13C65.4252 104.64 64.4364 105.18 64.1114 105.358C63.4454 105.723 62.7727 105.624 62.0616 105.52C61.3709 105.419 60.5875 105.303 59.68 105.606C59.3076 105.732 58.9689 105.996 58.7319 106.354C58.4362 106.799 58.3301 107.245 58.4181 107.681C58.5829 108.495 59.3708 109.019 59.3775 109.024L59.4317 109.06L59.1789 113.613L59.1766 113.615Z" fill="black"/>
<path d="M64.4131 110.97C64.4131 110.97 64.3973 110.97 64.3883 110.968C64.3274 110.954 64.289 110.893 64.3025 110.831C64.8895 108.232 67.332 107.407 67.3568 107.398C67.4178 107.379 67.4787 107.411 67.4991 107.471C67.5171 107.53 67.4855 107.594 67.4268 107.614C67.4042 107.621 65.0791 108.412 64.5215 110.881C64.5102 110.934 64.4628 110.97 64.4109 110.97H64.4131Z" fill="black"/>
<path d="M66.8179 111.364C66.8179 111.364 66.8066 111.364 66.8021 111.364C66.7411 111.355 66.696 111.298 66.705 111.237C67.1317 108.036 70.432 107.065 70.4659 107.056C70.5268 107.04 70.5878 107.074 70.6059 107.135C70.6217 107.197 70.5878 107.259 70.5269 107.277C70.4952 107.286 67.3348 108.218 66.9285 111.269C66.9217 111.326 66.8721 111.367 66.8179 111.367V111.364Z" fill="black"/>
<path d="M60.4907 110.348C60.2402 111.11 60.6465 111.93 61.4005 112.186C62.1522 112.439 62.9649 112.026 63.2155 111.267C63.466 110.506 63.0597 109.685 62.3057 109.432C61.554 109.179 60.7413 109.592 60.4907 110.351V110.348Z" fill="black"/>
<path d="M61.853 112.375C61.6882 112.375 61.5234 112.348 61.3631 112.295C60.5527 112.022 60.1125 111.135 60.3834 110.314C60.5143 109.918 60.7897 109.596 61.16 109.409C61.5302 109.222 61.9501 109.193 62.3429 109.323C63.1533 109.596 63.5935 110.483 63.3226 111.304C63.1917 111.7 62.9162 112.022 62.546 112.209C62.3271 112.321 62.0923 112.375 61.853 112.375ZM61.8485 109.469C61.6453 109.469 61.4444 109.516 61.257 109.61C60.941 109.77 60.7062 110.045 60.5933 110.385C60.3631 111.085 60.7378 111.844 61.4309 112.077C61.7672 112.188 62.1261 112.163 62.4399 112.004C62.756 111.844 62.9907 111.568 63.1036 111.229C63.3339 110.529 62.9591 109.77 62.2661 109.537C62.1284 109.491 61.9884 109.469 61.8462 109.469H61.8485Z" fill="black"/>
<path d="M87.5133 59.9043C87.4298 60.8299 87.3056 61.7463 87.1408 62.6468C84.3055 78.3564 69.7315 89.7277 53.3448 88.4647C36.6714 87.1812 24.199 73.2863 24.6596 56.9954C24.6776 56.357 24.716 55.7142 24.7724 55.069C26.3165 37.9619 41.6152 25.175 58.9387 26.5109C76.2668 27.8445 89.0574 42.7972 87.5133 59.9043Z" fill="#FFE12B"/>
<path d="M55.8163 88.6746C54.9924 88.6746 54.1639 88.6427 53.3354 88.5789C36.7275 87.3022 24.0813 73.4278 24.5464 56.9933C24.5622 56.3801 24.6005 55.7281 24.6615 55.0601C26.2101 37.9188 41.5945 25.0612 58.9496 26.3994C67.485 27.0559 75.1761 30.9885 80.6052 37.4743C85.8718 43.7663 88.3663 51.7363 87.6281 59.9159C87.5446 60.8415 87.4182 61.7693 87.2534 62.6698C85.8718 70.3274 81.6594 77.1962 75.3951 82.0133C69.7515 86.3516 62.8798 88.6746 55.8186 88.6746H55.8163ZM56.4665 26.5316C40.2604 26.5316 26.35 38.8763 24.885 55.0806C24.8263 55.744 24.7879 56.3892 24.7721 57.0001C24.3116 73.3116 36.8652 87.0834 53.3535 88.3532C61.2229 88.9596 68.9997 86.6434 75.2574 81.8332C81.4766 77.0503 85.6596 70.2317 87.0299 62.6288C87.1924 61.7351 87.3188 60.8141 87.4023 59.8954C88.136 51.775 85.6619 43.8666 80.4337 37.6202C75.0429 31.1822 67.4083 27.2794 58.9339 26.6251C58.1076 26.5612 57.2837 26.5293 56.4687 26.5293L56.4665 26.5316Z" fill="black"/>
<path d="M53.2527 28.8623C53.2527 29.1792 53.9254 29.4277 54.7516 29.4163C55.5778 29.4049 56.2483 29.1359 56.2461 28.819C56.2461 28.5021 55.5733 28.2536 54.7471 28.265C53.9209 28.2764 53.2504 28.5454 53.2527 28.8623Z" fill="#FF9F00"/>
<path d="M54.6925 29.5302C54.0604 29.5302 53.5074 29.382 53.2703 29.1472C53.1846 29.0629 53.1394 28.9648 53.1394 28.8623C53.1394 28.4154 53.9656 28.1624 54.7444 28.151C55.4059 28.1396 55.9815 28.2923 56.2253 28.534C56.3111 28.6183 56.3562 28.7164 56.3562 28.8189C56.3562 29.2658 55.53 29.5188 54.7512 29.5302C54.7309 29.5302 54.7106 29.5302 54.6925 29.5302ZM54.8009 28.379C54.7828 28.379 54.7648 28.379 54.7467 28.379C53.8889 28.3926 53.3629 28.6685 53.3629 28.8623C53.3629 28.901 53.3855 28.9421 53.4284 28.9854C53.6248 29.1814 54.1643 29.3114 54.749 29.3022C55.6068 29.2886 56.1328 29.0127 56.1328 28.8189C56.1328 28.7802 56.1102 28.7392 56.0673 28.6958C55.8754 28.5066 55.3607 28.379 54.8009 28.379Z" fill="black"/>
<path d="M83.6571 49.0865C83.6255 48.9748 83.569 48.8767 83.4855 48.7947L83.2575 48.569C83.1965 48.5051 83.1243 48.4595 83.043 48.4322C82.964 48.3911 82.876 48.3729 82.7834 48.3752C82.6909 48.3729 82.6051 48.3911 82.5238 48.4345C82.4403 48.4618 82.3681 48.5074 82.3071 48.5735C82.271 48.6191 82.2371 48.6624 82.201 48.708C82.1401 48.8129 82.1085 48.9246 82.1062 49.0431C82.113 49.1024 82.122 49.1617 82.1288 49.2187C82.1604 49.3304 82.2168 49.4284 82.3003 49.5105C82.3771 49.5857 82.4516 49.661 82.5283 49.7362C82.5893 49.8 82.6615 49.8456 82.7428 49.873C82.8218 49.914 82.9098 49.9322 83.0024 49.93C83.095 49.9322 83.1807 49.914 83.262 49.8707C83.3455 49.8433 83.4178 49.7977 83.4787 49.7316L83.5848 49.5971C83.6458 49.4923 83.6774 49.3805 83.6796 49.262C83.6729 49.2027 83.6638 49.1435 83.6571 49.0865Z" fill="#FF9F00"/>
<path d="M84.6629 52.4722C84.6313 52.3605 84.5749 52.2625 84.4914 52.1804C84.4146 52.1052 84.3401 52.0299 84.2634 51.9547C84.2024 51.8909 84.1302 51.8453 84.0489 51.8179C83.9699 51.7769 83.8818 51.7587 83.7893 51.7609C83.6967 51.7587 83.611 51.7769 83.5297 51.8202C83.4462 51.8476 83.3739 51.8932 83.313 51.9593L83.2069 52.0938C83.1459 52.1964 83.1143 52.3103 83.1121 52.4289C83.1188 52.4882 83.1279 52.5474 83.1346 52.6044C83.1662 52.7161 83.2227 52.8142 83.3062 52.8962L83.5342 53.1219C83.5952 53.1858 83.6674 53.2314 83.7487 53.2587C83.8277 53.2997 83.9157 53.318 84.0083 53.3157C84.1008 53.318 84.1866 53.2997 84.2679 53.2564C84.3514 53.2291 84.4236 53.1835 84.4846 53.1174L84.5907 52.9829C84.6516 52.878 84.6832 52.7663 84.6855 52.6477C84.6787 52.5885 84.6697 52.5292 84.6629 52.4722Z" fill="#FF9F00"/>
<path d="M38.6525 50.2175C38.6254 50.1354 38.5802 50.0648 38.5148 50.0055C38.4538 49.9417 38.3816 49.8961 38.3003 49.8687C38.2213 49.8277 38.1333 49.8094 38.0407 49.8117C37.982 49.8208 37.9211 49.8277 37.8624 49.8368C37.7472 49.8687 37.6479 49.9257 37.5644 50.0078L37.4583 50.1423C37.3973 50.2471 37.3657 50.3588 37.3635 50.4774L37.359 51.0428C37.3544 51.134 37.3725 51.2183 37.4154 51.2981C37.4425 51.3802 37.4876 51.4508 37.5531 51.5101C37.614 51.5739 37.6863 51.6195 37.7675 51.6469C37.8466 51.6879 37.9346 51.7062 38.0272 51.7039C38.0858 51.6948 38.1468 51.6879 38.2055 51.6788C38.3206 51.6469 38.4199 51.5899 38.5035 51.5078L38.6096 51.3733C38.6705 51.2707 38.7021 51.1567 38.7044 51.0382L38.7089 50.4728C38.7134 50.3816 38.6954 50.2973 38.6525 50.2175Z" fill="#FF9F00"/>
<path d="M66.1782 54.6245C66.1669 54.5835 66.1534 54.5424 66.1399 54.5037C66.1037 54.4125 66.0676 54.3213 66.0247 54.2347C65.9864 54.1572 65.9389 54.0842 65.887 54.0158C65.8464 53.9383 65.7877 53.8768 65.7155 53.8312C65.65 53.7719 65.5755 53.7331 65.4875 53.7126C65.3972 53.6853 65.3091 53.6807 65.2188 53.7012C65.1285 53.7058 65.045 53.7331 64.9683 53.781C64.9231 53.8152 64.878 53.8517 64.8305 53.8859C64.747 53.968 64.6883 54.066 64.6545 54.18C64.6454 54.2392 64.6387 54.2985 64.6296 54.3555C64.6296 54.4763 64.659 54.5858 64.7199 54.6906C64.7764 54.7659 64.8215 54.8479 64.8622 54.9323C64.8667 54.9482 64.8757 54.9642 64.8802 54.9824C64.9005 55.0691 64.9389 55.1443 64.9999 55.2081C65.0473 55.2811 65.1082 55.3358 65.1872 55.3791C65.264 55.427 65.3475 55.4543 65.4378 55.4566C65.5281 55.4771 65.6161 55.4726 65.7064 55.4429C65.7606 55.4201 65.8148 55.3973 65.8667 55.3745C65.9683 55.3153 66.0496 55.2355 66.1105 55.1352C66.1331 55.0827 66.1557 55.0303 66.1805 54.9756C66.2144 54.857 66.2144 54.7408 66.1827 54.6222L66.1782 54.6245Z" fill="#FF9F00"/>
<path d="M46.8514 51.8402C46.8717 51.7513 46.8694 51.6646 46.8423 51.5757C46.822 51.4891 46.7837 51.4139 46.7227 51.35C46.6753 51.2771 46.6143 51.2201 46.5353 51.179L46.3751 51.1129C46.2554 51.081 46.1358 51.0833 46.0184 51.1129L45.8581 51.1813C45.7565 51.2406 45.6753 51.3204 45.6143 51.4207C45.5488 51.562 45.4834 51.7034 45.4518 51.8561C45.4202 52.0066 45.3976 52.1662 45.3998 52.3212C45.3953 52.4124 45.4134 52.4967 45.4563 52.5765C45.4834 52.6586 45.5285 52.7293 45.594 52.7885C45.6549 52.8524 45.7272 52.898 45.8084 52.9253C45.8875 52.9663 45.9755 52.9846 46.068 52.9823C46.1267 52.9732 46.1877 52.9663 46.2464 52.9572C46.3615 52.9253 46.4608 52.8683 46.5444 52.7863L46.6505 52.6517C46.7114 52.5492 46.743 52.4352 46.7453 52.3166C46.7453 52.2824 46.7498 52.2482 46.752 52.2118C46.7678 52.1388 46.7859 52.0681 46.813 51.9975C46.8333 51.9473 46.8491 51.8949 46.8514 51.8379V51.8402Z" fill="#FF9F00"/>
<path d="M69.4568 57.93C69.4772 57.8411 69.4749 57.7545 69.4478 57.6656C69.4275 57.5789 69.3891 57.5037 69.3282 57.4399C69.2808 57.3669 69.2198 57.3122 69.1408 57.2689L68.9805 57.2028C68.8609 57.1709 68.7412 57.1731 68.6238 57.2028L68.4636 57.2712C68.362 57.3304 68.2807 57.4102 68.2198 57.5105C68.1543 57.6519 68.0888 57.7932 68.0572 57.946C68.0256 58.0964 68.0031 58.256 68.0053 58.411C68.0008 58.5022 68.0189 58.5866 68.0617 58.6664C68.0888 58.7484 68.134 58.8191 68.1994 58.8784C68.2604 58.9422 68.3326 58.9878 68.4139 59.0152C68.4929 59.0562 68.581 59.0744 68.6735 59.0722C68.7322 59.063 68.7932 59.0562 68.8519 59.0471C68.967 59.0152 69.0663 58.9582 69.1498 58.8761L69.2559 58.7416C69.3169 58.6367 69.3485 58.525 69.3507 58.4065C69.3507 58.3723 69.3553 58.3381 69.3575 58.3016C69.3733 58.2287 69.3914 58.158 69.4185 58.0873C69.4388 58.0372 69.4546 57.9847 69.4568 57.9277V57.93Z" fill="#FF9F00"/>
<path d="M42.5025 53.1246C42.4416 53.0608 42.3694 53.0152 42.2881 52.9878C42.2091 52.9468 42.121 52.9286 42.0285 52.9309C41.8547 52.94 41.6741 52.997 41.5522 53.1269C41.4303 53.2569 41.3535 53.4164 41.3513 53.5965L41.3445 54.4993C41.3445 54.6703 41.4167 54.8481 41.5386 54.9689C41.5996 55.0328 41.6718 55.0784 41.7531 55.1057C41.8321 55.1467 41.9201 55.165 42.0127 55.1627C42.1865 55.1536 42.3671 55.0966 42.489 54.9666C42.6109 54.8367 42.6877 54.6771 42.6899 54.497L42.6967 53.5943C42.6967 53.4233 42.6244 53.2455 42.5025 53.1246Z" fill="#FF9F00"/>
<path d="M29.2975 48.1012C29.2365 48.0374 29.1643 47.9918 29.083 47.9644C29.004 47.9234 28.916 47.9051 28.8234 47.9074C28.6496 47.9165 28.469 47.9735 28.3471 48.1035C28.2252 48.2334 28.1484 48.393 28.1462 48.5731L28.1394 49.4759C28.1394 49.6468 28.2116 49.8247 28.3335 49.9455C28.3945 50.0093 28.4667 50.0549 28.548 50.0823C28.627 50.1233 28.7151 50.1415 28.8076 50.1393C28.9814 50.1301 29.162 50.0732 29.2839 49.9432C29.4058 49.8133 29.4826 49.6537 29.4848 49.4736L29.4916 48.5708C29.4916 48.3998 29.4194 48.222 29.2975 48.1012Z" fill="#FF9F00"/>
<path d="M72.8386 54.4947C72.7777 54.4309 72.7054 54.3853 72.6241 54.358C72.5451 54.3169 72.4571 54.2987 72.3645 54.301C72.1907 54.3101 72.0101 54.3671 71.8882 54.497C71.7663 54.627 71.6896 54.7866 71.6873 54.9667L71.6805 55.8694C71.6805 56.0404 71.7528 56.2182 71.8747 56.339C71.9356 56.4029 72.0079 56.4485 72.0891 56.4758C72.1681 56.5169 72.2562 56.5351 72.3487 56.5328C72.5226 56.5237 72.7032 56.4667 72.8251 56.3368C72.947 56.2068 73.0237 56.0472 73.026 55.8671L73.0327 54.9644C73.0327 54.7934 72.9605 54.6156 72.8386 54.4947Z" fill="#FF9F00"/>
<path d="M55.4286 43.1123C55.388 42.9596 55.3293 42.816 55.2661 42.6701C55.2209 42.5629 55.169 42.4603 55.1081 42.3623C55.0381 42.2483 54.9229 42.1571 54.792 42.1229C54.722 42.1001 54.6498 42.0978 54.5798 42.1138C54.5098 42.1184 54.4421 42.1389 54.3812 42.1776C54.266 42.2506 54.1667 42.3577 54.1351 42.4922C54.1035 42.629 54.1125 42.7749 54.187 42.898C54.2367 42.9801 54.2773 43.0667 54.318 43.1534C54.3496 43.2332 54.3789 43.3152 54.4015 43.3973C54.4173 43.4657 54.4489 43.525 54.4963 43.5751C54.5324 43.6321 54.5821 43.6777 54.6453 43.7096C54.7062 43.7484 54.7717 43.7689 54.8439 43.7712C54.9139 43.7871 54.9862 43.7826 55.0561 43.762C55.1848 43.721 55.3112 43.6412 55.3767 43.5181C55.4444 43.3927 55.4715 43.2514 55.4331 43.1123H55.4286Z" fill="#FF9F00"/>
<path d="M59.4504 42.9412C59.4346 42.9115 59.4188 42.8819 59.3985 42.8568C59.3556 42.7953 59.3082 42.7337 59.2563 42.679C59.245 42.6676 59.2337 42.6562 59.2202 42.6471C59.175 42.6083 59.1254 42.5718 59.078 42.5376C59.0509 42.5171 59.0215 42.5012 58.9922 42.4852C58.9312 42.4465 58.8658 42.4259 58.7935 42.4237C58.7236 42.4077 58.6513 42.4123 58.5813 42.4328C58.5114 42.4487 58.4504 42.4807 58.3985 42.5285C58.3398 42.565 58.2946 42.6152 58.2608 42.6767C58.2427 42.7177 58.2247 42.7611 58.2066 42.8021C58.1795 42.8956 58.1795 42.989 58.2066 43.0825C58.2247 43.1235 58.2427 43.1669 58.2585 43.2079C58.3059 43.2877 58.3691 43.3492 58.4481 43.3948C58.4617 43.4017 58.473 43.4108 58.4843 43.4176C58.491 43.4245 58.4978 43.4313 58.5046 43.4381C58.5114 43.4495 58.5204 43.4609 58.5272 43.4746C58.561 43.5362 58.6062 43.584 58.6626 43.6205C58.7145 43.6661 58.7732 43.698 58.8432 43.714C58.9132 43.7345 58.9854 43.7391 59.0554 43.7231C59.1254 43.7185 59.1931 43.698 59.254 43.6593L59.3624 43.5772C59.4279 43.5111 59.4753 43.4336 59.5001 43.3447C59.5069 43.2991 59.5137 43.2512 59.5204 43.2056C59.5204 43.1099 59.4979 43.0232 59.4504 42.9412Z" fill="#FF9F00"/>
<path d="M57.6106 39.8083C57.5948 39.7787 57.579 39.7491 57.5587 39.724C57.5158 39.6624 57.4684 39.6009 57.4165 39.5462C57.4052 39.5348 57.3939 39.5234 57.3803 39.5143C57.3352 39.4755 57.2855 39.439 57.2381 39.4048C57.211 39.3843 57.1817 39.3684 57.1523 39.3524C57.0914 39.3136 57.0259 39.2931 56.9537 39.2908C56.8837 39.2749 56.8115 39.2794 56.7415 39.3C56.6715 39.3159 56.6106 39.3478 56.5586 39.3957C56.4999 39.4322 56.4548 39.4823 56.4209 39.5439C56.4029 39.5849 56.3848 39.6282 56.3668 39.6693C56.3397 39.7627 56.3397 39.8562 56.3668 39.9497C56.3848 39.9907 56.4029 40.034 56.4187 40.0751C56.4661 40.1549 56.5293 40.2164 56.6083 40.262C56.6218 40.2688 56.6331 40.278 56.6444 40.2848C56.6512 40.2916 56.658 40.2985 56.6647 40.3053C56.6715 40.3167 56.6805 40.3281 56.6873 40.3418C56.7212 40.4034 56.7663 40.4512 56.8228 40.4877C56.8747 40.5333 56.9334 40.5652 57.0033 40.5812C57.0733 40.6017 57.1456 40.6062 57.2155 40.5903C57.2855 40.5857 57.3533 40.5652 57.4142 40.5265L57.5226 40.4444C57.588 40.3783 57.6354 40.3008 57.6603 40.2119C57.667 40.1663 57.6738 40.1184 57.6806 40.0728C57.6806 39.977 57.658 39.8904 57.6106 39.8083Z" fill="#FF9F00"/>
<path d="M52.668 69.91L25.0686 53.0674C24.1295 59.0061 25.7278 67.343 28.0168 71.7839C27.9649 71.7748 27.9153 71.7657 27.8633 71.7566C27.1206 73.4116 26.3779 75.3289 25.7323 77.4992C24.9242 80.2189 24.4591 82.7152 24.1882 84.8627C31.9357 87.0353 40.4463 89.0756 49.6589 90.7854C58.5057 92.4268 66.8492 93.5507 74.5764 94.3008C75.1814 91.9048 75.7119 89.1349 76.0099 86.0391C76.1769 84.3133 76.2492 82.6878 76.2627 81.1673C81.816 76.5554 85.7936 70.0901 87.1368 62.6491L87.1436 62.5556L52.6658 69.91H52.668Z" fill="white"/>
<path d="M74.6659 94.422L74.5688 94.4129C66.2479 93.6036 57.8615 92.4204 49.64 90.8953C41.1001 89.3109 32.5264 87.3161 24.158 84.9703L24.0632 84.9429L24.0745 84.8449C24.3883 82.3509 24.9098 79.8682 25.6231 77.4631C26.2033 75.5049 26.9234 73.5694 27.7587 71.7068L27.7948 71.6248H27.8083C25.675 67.3298 23.9955 59.1113 24.9549 53.0473L24.982 52.8809L52.6875 69.7873L87.2691 62.4101L87.2511 62.654C85.9485 69.8739 82.0883 76.4601 76.377 81.2178C76.3612 82.8456 76.2754 84.471 76.1242 86.0463C75.8555 88.8276 75.3725 91.6111 74.6862 94.324L74.6614 94.4175L74.6659 94.422ZM24.3161 84.7765C32.6483 87.1109 41.1814 89.0943 49.6829 90.6719C57.8661 92.1902 66.2118 93.3688 74.4943 94.1781C75.1625 91.5062 75.6366 88.766 75.9007 86.0281C76.0542 84.4414 76.14 82.8068 76.1535 81.1654V81.113L76.1942 81.0788C81.8671 76.3666 85.7092 69.842 87.0163 62.6996L52.6491 70.0312L25.1558 53.2525C24.2461 59.353 25.9708 67.5646 28.1176 71.7319L28.2237 71.9394L27.9302 71.8847C27.113 73.713 26.411 75.612 25.8421 77.5315C25.1423 79.8911 24.6276 82.3304 24.3138 84.7788L24.3161 84.7765Z" fill="black"/>
<path d="M45.0292 89.9154C45.0292 89.9154 45.0156 89.9154 45.0111 89.9154C44.9502 89.904 44.9073 89.847 44.9186 89.7832L48.088 70.54L53.4629 69.6327C53.5239 69.6213 53.5826 69.6646 53.5939 69.7262C53.6052 69.7877 53.5623 69.847 53.5013 69.8584L48.2866 70.7383L45.142 89.8219C45.133 89.8766 45.0856 89.9177 45.0314 89.9177L45.0292 89.9154Z" fill="black"/>
<path d="M53.0603 73.5842C53.1325 74.1724 52.7194 74.7081 52.1392 74.7811C51.5591 74.854 51.0286 74.4369 50.9563 73.8487C50.8841 73.2605 51.2972 72.7248 51.8774 72.6518C52.4575 72.5789 52.988 72.9961 53.0603 73.5842Z" fill="white"/>
<path d="M52.0043 74.9016C51.7447 74.9016 51.4941 74.815 51.2864 74.6508C51.0403 74.457 50.8823 74.1766 50.8439 73.862C50.8056 73.5474 50.8891 73.2374 51.0832 72.9866C51.2751 72.7359 51.5528 72.5763 51.8643 72.5375C52.1758 72.4988 52.4828 72.5831 52.7289 72.7792C52.975 72.9729 53.133 73.2533 53.1714 73.5679C53.2504 74.2177 52.7944 74.8104 52.151 74.8902C52.1013 74.897 52.0539 74.8993 52.0043 74.8993V74.9016ZM52.0088 72.7586C51.9704 72.7586 51.9298 72.7609 51.8891 72.7655C51.6386 72.7974 51.4151 72.9251 51.2593 73.128C51.1036 73.3309 51.0358 73.5816 51.0674 73.8347C51.099 74.0877 51.2255 74.3157 51.4241 74.473C51.625 74.6303 51.8733 74.701 52.1239 74.6668C52.6431 74.6007 53.0111 74.1219 52.9479 73.5976C52.9163 73.3445 52.7899 73.1166 52.5912 72.9593C52.4241 72.827 52.221 72.7564 52.011 72.7564L52.0088 72.7586Z" fill="black"/>
<path d="M52.1773 80.0676C52.2496 80.6558 51.8364 81.1915 51.2563 81.2645C50.6761 81.3374 50.1456 80.9203 50.0734 80.3321C50.0011 79.7439 50.4143 79.2082 50.9944 79.1352C51.5746 79.0623 52.1051 79.4795 52.1773 80.0676Z" fill="white"/>
<path d="M51.125 81.3854C50.8654 81.3854 50.6149 81.2988 50.4072 81.1347C50.1611 80.9409 50.0031 80.6605 49.9647 80.3459C49.8857 79.6962 50.3417 79.1034 50.9828 79.0236C51.6217 78.9438 52.2109 79.4044 52.2921 80.0541C52.3711 80.7038 51.9151 81.2965 51.2718 81.3763C51.2221 81.3832 51.1747 81.3854 51.125 81.3854ZM51.1273 79.2402C51.0889 79.2402 51.0505 79.2425 51.0099 79.247C50.4907 79.3132 50.1227 79.7919 50.1859 80.3162C50.2175 80.5693 50.344 80.7973 50.5426 80.9546C50.7413 81.1119 50.9896 81.1803 51.2424 81.1506C51.7616 81.0845 52.1296 80.6058 52.0664 80.0814C52.0077 79.5981 51.5968 79.2425 51.1273 79.2425V79.2402Z" fill="black"/>
<path d="M51.1715 86.6565C51.2437 87.2447 50.8306 87.7804 50.2504 87.8534C49.6703 87.9263 49.1398 87.5091 49.0675 86.921C48.9953 86.3328 49.4084 85.7971 49.9886 85.7241C50.5687 85.6511 51.0992 86.0683 51.1715 86.6565Z" fill="white"/>
<path d="M50.1192 87.9751C49.8596 87.9751 49.609 87.8885 49.4013 87.7244C49.1552 87.5306 48.9972 87.2502 48.9588 86.9356C48.8798 86.2859 49.3358 85.6931 49.9792 85.6133C50.2907 85.5723 50.5977 85.6612 50.8438 85.855C51.0899 86.0488 51.2479 86.3292 51.2863 86.6438C51.3653 87.2935 50.9093 87.8862 50.2659 87.966C50.2162 87.9729 50.1688 87.9751 50.1192 87.9751ZM50.1214 85.8299C50.083 85.8299 50.0424 85.8322 50.0018 85.8368C49.4826 85.9029 49.1146 86.3816 49.1778 86.9059C49.2094 87.159 49.3358 87.387 49.5368 87.5443C49.7354 87.7016 49.9837 87.77 50.2366 87.738C50.7558 87.6719 51.1237 87.1932 51.0605 86.6688C51.0289 86.4158 50.9025 86.1878 50.7038 86.0305C50.5345 85.8983 50.3336 85.8276 50.1237 85.8276L50.1214 85.8299Z" fill="black"/>
<path d="M29.1727 15.5053C31.8591 12.1404 37.9519 10.7156 40.7037 11.933C44.4804 5.87116 50.8802 0.691626 61.734 0.251639C61.734 0.251639 77.159 -1.24614 81.9719 13.93C81.9719 13.93 95.8686 12.2316 97.6023 28.1008C97.8055 29.9519 97.7558 31.835 97.2976 33.6382C95.0085 42.6386 86.2361 40.8353 85.5544 40.6848C79.3803 39.333 77.3577 32.5417 76.8542 32.4186C47.3518 25.1713 48.8237 27.3667 35.2813 32.1473C35.2813 32.1473 20.7864 26.0103 29.1727 15.503V15.5053Z" fill="white"/>
<path d="M88.0238 41.045C86.7664 41.045 85.816 40.8604 85.5293 40.7988C80.6668 39.7342 78.3326 35.2933 77.3371 33.3988C77.1227 32.993 76.9037 32.5736 76.8224 32.5302C51.178 26.2314 49.0176 27.0589 39.9247 30.5469C38.5883 31.0598 37.0735 31.6412 35.3172 32.259L35.2766 32.2726L35.236 32.2567C35.1637 32.227 28.0302 29.1517 26.6735 23.7259C26.0076 21.0655 26.818 18.2751 29.0845 15.4369C30.3306 13.8775 32.4435 12.5849 34.8838 11.8942C37.1277 11.2581 39.2745 11.2217 40.6583 11.7939C45.2748 4.43719 52.3631 0.516062 61.7292 0.137628C61.7608 0.133068 65.6549 -0.220289 70.084 1.29117C74.1609 2.68408 79.5381 5.98512 82.0506 13.8069C82.8091 13.7385 88.0509 13.4125 92.2655 16.7887C95.3289 19.2394 97.1619 23.042 97.7127 28.0871C97.9339 30.1137 97.8301 31.99 97.4034 33.6656C95.7962 39.9849 91.0307 41.0427 88.0215 41.0427L88.0238 41.045ZM51.2999 27.622C56.2459 27.622 63.262 28.9625 76.8811 32.3068C77.0324 32.3433 77.1678 32.5872 77.5358 33.2894C78.5178 35.1565 80.8158 39.5313 85.5768 40.5731C86.5316 40.7829 94.9609 42.3604 97.1867 33.6086C97.6066 31.9603 97.7082 30.1092 97.4892 28.1121C96.9452 23.1287 95.1392 19.3785 92.1256 16.9666C87.6649 13.3965 82.0416 14.0348 81.9829 14.0417L81.8904 14.0531L81.861 13.9642C79.3891 6.16978 74.0525 2.88926 70.0095 1.50774C65.6255 0.00996281 61.7811 0.361041 61.7428 0.3656C52.415 0.744034 45.3696 4.65604 40.796 11.9922L40.7441 12.0743L40.6561 12.0355C37.8885 10.8113 31.8656 12.3091 29.2583 15.5759C27.0392 18.3549 26.2424 21.0769 26.8902 23.6667C28.1679 28.7733 34.7122 31.7734 35.2834 32.0264C37.0171 31.4132 38.5183 30.8387 39.8434 30.3303C44.1461 28.6798 46.9046 27.622 51.2999 27.622Z" fill="black"/>
<path d="M78.2942 26.1243C81.0166 27.4579 82.9422 30.0705 83.2831 33.1093C83.2853 33.1321 83.2876 33.1572 83.2899 33.18C83.6127 36.2075 82.739 38.6172 82.2718 39.8619C78.4206 37.3588 68.6797 31.664 54.9884 31.8532C44.0602 32.0037 35.886 35.8291 31.8791 38.0564C31.475 36.6885 30.8971 34.0463 31.493 30.8205C31.4975 30.7954 31.5021 30.7704 31.5066 30.7476C32.1071 27.5742 34.3103 24.957 37.2585 23.7169C42.1775 21.6492 49.8776 19.2919 59.2279 20.4455C67.2463 21.4349 73.7138 23.8833 78.2919 26.1265L78.2942 26.1243Z" fill="white"/>
<path d="M82.3302 40.0326L82.2128 39.9574C73.9664 34.5978 64.5596 31.8324 54.9926 31.967C44.8861 32.106 36.8767 35.4093 31.9352 38.1564L31.8133 38.2248L31.7727 38.0903C31.0751 35.7217 30.9397 33.2026 31.3844 30.7997L31.3979 30.7245C32.0007 27.5488 34.1746 24.8884 37.2176 23.6095C44.5362 20.5341 51.9473 19.4285 59.2456 20.329C65.8802 21.1474 72.3049 23.0623 78.3458 26.0191C81.1676 27.4007 83.057 30.0451 83.3979 33.0931L83.4047 33.1638C83.7365 36.2802 82.82 38.7241 82.3798 39.8981L82.3302 40.0303V40.0326ZM55.6428 31.7321C64.9795 31.7321 74.1492 34.4747 82.2173 39.6884C82.6665 38.4847 83.4927 36.1411 83.1789 33.1912L83.1722 33.1205C82.8403 30.1523 81.0005 27.5739 78.2464 26.2266C72.2281 23.2789 65.826 21.3708 59.2163 20.5569C51.9564 19.661 44.5859 20.7598 37.3034 23.8215C34.3303 25.0708 32.2061 27.6674 31.6192 30.7678L31.6056 30.8408C31.1767 33.1615 31.2963 35.594 31.951 37.8874C36.9241 35.1426 44.9222 31.8758 54.9904 31.7367C55.2071 31.7344 55.4261 31.7321 55.6428 31.7321Z" fill="black"/>
<path d="M74.8592 24.6651C74.8321 24.6651 74.805 24.656 74.7825 24.6355C74.7373 24.5921 74.7351 24.5215 74.7757 24.4736L78.7781 20.1239C78.821 20.0783 78.891 20.076 78.9384 20.117C78.9836 20.1604 78.9858 20.231 78.9452 20.2789L74.9427 24.6286C74.9202 24.6537 74.8908 24.6651 74.8592 24.6651Z" fill="black"/>
<path d="M72.7739 23.8558C72.7129 23.8558 72.6633 23.8057 72.661 23.7441L72.5007 17.0167C72.5007 16.9528 72.5481 16.9004 72.6113 16.9004C72.6813 16.9027 72.7242 16.9483 72.7265 17.0121L72.8868 23.7396C72.8868 23.8034 72.8393 23.8558 72.7761 23.8558H72.7739Z" fill="black"/>
<path d="M44.5055 21.424C44.4874 21.424 44.4693 21.4195 44.4535 21.4104C44.3994 21.3807 44.3768 21.3123 44.4061 21.2553L47.1963 15.8797C47.2257 15.8228 47.2934 15.8022 47.3476 15.8319C47.4017 15.8615 47.4243 15.9299 47.395 15.9869L44.6048 21.3625C44.5845 21.4012 44.5461 21.424 44.5055 21.424Z" fill="black"/>
<path d="M42.564 21.958C42.5211 21.958 42.4782 21.9329 42.4601 21.8896L40.1666 16.5185C40.1417 16.4615 40.1666 16.3931 40.2252 16.3681C40.2817 16.343 40.3494 16.3681 40.3742 16.4273L42.6678 21.7984C42.6926 21.8554 42.6678 21.9238 42.6091 21.9488C42.5956 21.9557 42.5798 21.958 42.564 21.958Z" fill="black"/>
<path d="M34.4496 77.2884L84.7292 85.7216C85.6622 85.8781 86.2936 86.7698 86.1387 87.7121L86.1095 87.8897C85.9545 88.832 85.0716 89.4697 84.1385 89.3132L33.8589 80.8799L34.45 77.2861L34.4496 77.2884Z" fill="#FF43E8"/>
<path d="M84.432 89.4456C84.3304 89.4456 84.231 89.4365 84.1295 89.4205L33.739 80.9719L34.3643 77.1533L84.757 85.602C85.7503 85.7684 86.4253 86.7213 86.2605 87.7244L86.2311 87.9022C86.1521 88.3878 85.888 88.8141 85.4907 89.1014C85.1769 89.3271 84.8089 89.4456 84.432 89.4456ZM84.1656 89.1971C84.5877 89.2678 85.0121 89.1675 85.3598 88.9167C85.7074 88.6659 85.9377 88.2921 86.0076 87.8657L86.037 87.6879C86.1815 86.808 85.59 85.9736 84.7186 85.8277L34.5494 77.4178L33.9986 80.7849L84.1656 89.1948V89.1971Z" fill="black"/>
<path d="M47.2747 83.6348L44.5906 83.0899L45.6335 78.1064L48.4282 78.5784L47.2747 83.6348Z" fill="black"/>
<path d="M47.3608 83.7664L44.4578 83.1782L45.5458 77.9736L48.564 78.4843L47.3586 83.7664H47.3608ZM44.7264 83.0004L47.1915 83.4997L48.2931 78.6689L45.7242 78.2358L44.7287 83.0004H44.7264Z" fill="black"/>
<path d="M0.358067 72.824C0.34678 72.726 0.344522 72.6303 0.355809 72.5391L0.581553 72.5505C0.581553 72.5869 0.586068 72.6189 0.588325 72.6439C0.590583 72.6713 0.59284 72.6918 0.590583 72.7146C0.586068 72.7465 0.586068 72.7807 0.58381 72.8104L0.358067 72.824Z" fill="white"/>
<path d="M47.9685 76.4529C47.9459 76.6558 47.8691 76.8519 47.7404 77.0343C46.0722 79.4508 35.6925 80.308 23.6897 78.9629C11.6012 77.6088 1.67976 74.3556 0.706806 71.6062C0.639083 71.417 0.614252 71.2278 0.634568 71.0432C0.657143 70.8334 0.73841 70.6351 0.873856 70.4436C2.56919 68.0544 12.8473 67.2884 24.8207 68.6289C36.7355 69.9626 46.6275 73.0607 47.8488 75.7736C47.9526 76.0016 47.9933 76.2272 47.9685 76.4507V76.4529Z" fill="black"/>
<path d="M34.5182 79.717C31.2291 79.717 27.5404 79.5096 23.678 79.0787C11.7407 77.7428 1.60252 74.4782 0.600221 71.6468C0.525726 71.4371 0.500894 71.2319 0.521211 71.0336C0.546042 70.8079 0.634082 70.589 0.780816 70.3816C2.48744 67.9764 12.8287 67.1763 24.8315 68.5213C36.7598 69.8572 46.6993 72.9577 47.9499 75.7321C48.0628 75.9806 48.1057 76.2291 48.0786 76.4684C48.0537 76.6918 47.9702 76.9061 47.8303 77.1045C46.6677 78.7892 41.4959 79.7193 34.5159 79.7193L34.5182 79.717ZM13.7272 68.0882C7.01359 68.0882 2.07433 68.9476 0.963668 70.5115C0.839509 70.687 0.765014 70.8694 0.744697 71.0564C0.726637 71.2205 0.749212 71.3915 0.810162 71.5693C1.78537 74.3255 11.84 77.5239 23.7005 78.8507C35.4889 80.1707 46.0085 79.3432 47.6474 76.97C47.7671 76.8013 47.837 76.6235 47.8573 76.4411C47.8799 76.2427 47.8416 76.033 47.7467 75.8233C46.5458 73.1606 36.4709 70.051 24.8089 68.7447C20.8471 68.3002 17.0659 68.0882 13.7272 68.0882Z" fill="black"/>
<path d="M15.316 80.3238C16.6953 79.2774 17.6299 78.2402 17.806 76.1405C17.9504 74.4262 17.3138 72.7711 16.9481 71.132C16.5869 69.5202 16.5237 67.8629 16.2844 66.2169C16.2483 65.9707 16.5937 64.8741 16.447 64.2951C16.447 64.2951 14.1489 66.707 14.3724 70.4823C14.5959 74.2575 13.9841 73.8996 13.2098 72.901C12.4355 71.9025 11.4897 69.8006 12.7674 65.6264C14.0473 61.4523 10.6883 55.7119 10.6883 55.7119L8.62949 62.5739C8.62949 62.5739 7.19151 66.7298 7.87099 71.2688C7.93646 71.711 7.57978 72.0735 7.23891 71.9025C6.57297 71.5697 5.53455 70.252 4.46227 65.7906C4.46227 65.7906 -0.813355 77.041 6.11471 79.9933C12.282 82.6218 15.307 80.3307 15.316 80.3261V80.3238Z" fill="#FFE12B"/>
<path d="M11.6277 81.3765C10.1942 81.3765 8.34766 81.0665 6.07216 80.0976C4.55742 79.4525 3.49869 78.3605 2.92981 76.8513C1.26383 72.44 4.33168 65.806 4.36103 65.7399L4.49873 65.4481L4.57323 65.7604C5.68388 70.3883 6.75165 71.5304 7.28892 71.7971C7.42211 71.8633 7.53272 71.8085 7.58464 71.7698C7.72009 71.6695 7.78781 71.478 7.75847 71.2842C7.08124 66.7703 8.50793 62.5757 8.52148 62.5346L10.6525 55.4287L10.7834 55.6521C10.8173 55.7091 14.1515 61.4859 12.8738 65.6578C11.6706 69.5812 12.4404 71.7219 13.2982 72.8276C13.6526 73.2858 13.8942 73.4933 14.0228 73.4454C14.1718 73.3884 14.4021 72.9279 14.2576 70.484C14.0341 66.7225 16.269 64.3128 16.3638 64.2125L16.5038 64.0643L16.5534 64.2626C16.6528 64.657 16.5421 65.2612 16.4609 65.6989C16.4225 65.9086 16.3819 66.1275 16.3932 66.1959C16.4812 66.8068 16.5489 67.4269 16.6121 68.0265C16.7205 69.041 16.8311 70.0919 17.0568 71.1018C17.1471 71.5099 17.2578 71.9271 17.3638 72.3283C17.6889 73.5639 18.0275 74.8406 17.9169 76.1446C17.7408 78.2351 16.8537 79.2929 15.3818 80.4099C15.3028 80.4692 14.068 81.372 11.6255 81.372L11.6277 81.3765ZM4.43327 66.1389C3.86213 67.4771 1.70854 72.9803 3.13976 76.7692C3.68605 78.2168 4.7019 79.2655 6.1602 79.8856C9.31835 81.2306 11.6232 81.2534 13.0002 81.0346C14.4834 80.7975 15.2373 80.2412 15.2486 80.2321C16.6708 79.1538 17.5264 78.1371 17.6957 76.1286C17.8018 74.8634 17.4699 73.605 17.1494 72.3899C17.0433 71.9841 16.9327 71.5646 16.8401 71.1543C16.6121 70.1307 16.4993 69.0751 16.3909 68.0538C16.3277 67.4565 16.2622 66.8365 16.1742 66.2323C16.1584 66.1297 16.19 65.9565 16.2442 65.6601C16.3051 65.325 16.3841 64.8918 16.3706 64.5544C15.8536 65.1814 14.3005 67.3448 14.4856 70.4726C14.6414 73.0943 14.3795 73.5548 14.1041 73.6597C13.8039 73.7737 13.454 73.3952 13.1221 72.9689C12.2327 71.8222 11.4291 69.6086 12.6616 65.5917C13.7678 61.9829 11.3207 57.1111 10.7225 56.0009L8.74045 62.6053C8.72465 62.6509 7.31827 66.7931 7.98421 71.25C8.02484 71.5281 7.921 71.8063 7.72009 71.9544C7.55981 72.073 7.36567 72.0912 7.18959 72.0023C6.50785 71.6604 5.48072 70.3609 4.43327 66.1366V66.1389Z" fill="black"/>
<path d="M15.7816 67.2577C15.7816 67.2577 16.4205 72.1066 16.8381 74.7625C17.2309 77.2543 15.1631 80.7468 10.1448 80.0788C6.67062 79.6161 1.36339 78.3896 4.23033 68.2539C4.23033 68.2539 6.11981 74.457 8.12441 73.2078C9.36825 72.4326 8.80164 69.9956 8.73617 68.6688C8.66619 67.2827 8.70908 65.8944 8.93934 64.5334C9.32085 62.281 10.2035 60.1267 10.804 57.9473C10.804 57.9473 12.5129 60.9656 12.0907 63.4528C11.734 65.5502 11.2216 67.5973 11.2081 69.7631C11.2013 70.8688 11.6031 72.1682 12.1223 73.1143C12.5919 73.9737 13.4813 74.8446 14.3233 74.2564C14.8809 73.8666 15.048 72.9593 15.1857 72.2548C15.3414 71.466 15.8606 68.0715 15.7816 67.2577Z" fill="#FF9F00"/>
<path d="M42.0379 84.7307C43.5752 84.122 44.6971 83.4062 45.3902 81.514C45.9545 79.9707 45.7875 78.2791 45.862 76.6719C45.9365 75.092 46.2954 73.5464 46.4895 71.9665C46.5189 71.7317 46.5573 71.1983 46.7288 70.0128C46.7288 70.0128 44.3946 71.8662 43.6497 75.4066C42.9047 78.9448 42.4307 78.4592 41.9679 77.3376C41.5051 76.2159 41.162 74.0342 43.3946 70.5166C45.6272 66.9967 43.977 60.8369 43.977 60.8369L40.3493 66.6343C40.3493 66.6343 37.9745 70.0972 37.4575 74.4583C37.4079 74.8846 36.9857 75.124 36.7148 74.88C36.1844 74.4013 35.559 72.9195 35.6967 68.5264C35.6967 68.5264 27.9944 77.5405 33.638 82.052C38.663 86.0666 42.0311 84.7353 42.0401 84.7307H42.0379Z" fill="#FFE12B"/>
<path d="M40.5135 85.0683C39.0394 85.0683 36.6104 84.5736 33.5651 82.1411C32.328 81.154 31.6282 79.8705 31.4837 78.3317C31.2625 75.9744 32.398 73.412 33.389 71.6771C34.459 69.8032 35.5968 68.465 35.6081 68.4513L35.8158 68.2074L35.8067 68.5288C35.6645 73.0815 36.3598 74.4083 36.7887 74.7935C36.8926 74.887 37.0054 74.8642 37.0641 74.8437C37.2131 74.7867 37.3215 74.6294 37.344 74.4447C37.8587 70.1064 40.2313 66.6048 40.2561 66.5706L44.0193 60.5566L44.087 60.8074C44.1028 60.869 45.7236 67.0584 43.491 70.5783C41.3939 73.8839 41.5632 76.0565 42.0734 77.2944C42.2856 77.8073 42.4662 78.0581 42.5813 78.049C42.7325 78.0353 43.0599 77.6705 43.5407 75.3817C44.2856 71.8436 46.6356 69.9423 46.6605 69.9218L46.884 69.7439L46.8433 70.0266C46.7124 70.9317 46.6582 71.4469 46.6266 71.7547C46.6176 71.8481 46.6085 71.9211 46.6018 71.9781C46.5295 72.564 46.4347 73.1544 46.3399 73.7243C46.1842 74.6887 46.0216 75.6849 45.9742 76.672C45.9562 77.071 45.9516 77.4836 45.9494 77.8826C45.9381 79.1068 45.9268 80.372 45.4979 81.5484C44.8094 83.4337 43.7235 84.1792 42.0824 84.8312C42.0282 84.854 41.4729 85.0614 40.5157 85.0614L40.5135 85.0683ZM35.572 68.8548C34.6938 69.9605 31.346 74.4607 31.7095 78.3089C31.8494 79.7838 32.5199 81.0126 33.7073 81.961C36.2763 84.015 38.396 84.6283 39.7211 84.7833C41.1478 84.9474 41.9876 84.6283 41.9989 84.6237C43.5813 83.9968 44.6265 83.2787 45.2857 81.4731C45.7033 80.3333 45.7123 79.0885 45.7236 77.8848C45.7281 77.4836 45.7304 77.0687 45.7507 76.6652C45.7981 75.6621 45.9607 74.6613 46.1187 73.6901C46.2112 73.1225 46.3061 72.5343 46.3783 71.953C46.3851 71.8983 46.3918 71.8276 46.4009 71.7341C46.428 71.4606 46.4731 71.0251 46.5747 70.3025C45.9765 70.8678 44.3534 72.621 43.7619 75.4296C43.2427 77.8894 42.8838 78.2496 42.6016 78.2747C42.3081 78.3043 42.0937 77.9373 41.8657 77.381C41.3329 76.0907 41.1501 73.8429 43.3014 70.4529C45.2247 67.4209 44.2089 62.3212 43.9335 61.122L40.4458 66.6937C40.4187 66.7324 38.0777 70.1885 37.5698 74.4698C37.5382 74.7388 37.3711 74.9691 37.1454 75.0557C36.967 75.1241 36.7819 75.0899 36.6397 74.9622C36.0957 74.4721 35.4771 73.0108 35.5742 68.8526L35.572 68.8548Z" fill="black"/>
<path d="M45.8262 71.9919C45.8262 71.9919 45.1264 77.4359 44.8442 79.9938C44.5778 82.3943 41.7899 85.0798 37.3292 83.1694C34.2411 81.8472 29.6585 79.3463 34.8573 70.7381C34.8573 70.7381 35.0357 76.9458 37.2006 76.3097C38.5415 75.9153 38.6363 73.5216 38.9094 72.2815C39.1961 70.9843 39.5844 69.7168 40.1397 68.5199C41.0608 66.5411 42.4175 64.7812 43.5191 62.9277C43.5191 62.9277 44.334 66.1535 43.3159 68.3352C42.4581 70.1773 41.4671 71.9349 40.9118 73.9274C40.6273 74.9464 40.6702 76.2459 40.9095 77.2535C41.1262 78.1677 41.7267 79.2004 42.6523 78.8744C43.264 78.6601 43.6478 77.8645 43.9525 77.2513C44.2957 76.5628 45.6953 72.7579 45.8262 71.9896V71.9919Z" fill="#FF9F00"/>
<path d="M32.31 84.0022C34.7638 82.9923 36.4795 81.9026 37.1228 79.3356C37.6466 77.2406 36.8768 75.0543 36.5472 72.9433C36.2221 70.8687 36.3959 68.7987 36.2763 66.7082C36.2582 66.3959 36.1566 65.4658 36.1296 64.1207C36.1296 64.1207 32.6689 66.8655 32.4048 71.5937C32.1407 76.3218 31.1903 75.7519 30.0796 74.3499C28.969 72.9501 27.759 70.1438 30.5718 65.2378C33.3845 60.3318 28.8064 52.5078 28.8064 52.5078L24.2577 60.5849C24.2577 60.5849 21.1853 65.4384 21.5443 71.2084C21.5804 71.7715 20.928 72.1454 20.393 71.8627C19.3478 71.311 17.8579 69.4599 16.8375 63.7013C16.8375 63.7013 6.24113 76.5452 17.1784 81.6609C26.9147 86.2136 32.2942 84.0068 32.3077 84.0022H32.31Z" fill="#FFE12B"/>
<path d="M28.5021 84.6674C25.9286 84.6674 22.1022 84.0906 17.1336 81.7675C14.4518 80.5137 12.8287 78.6854 12.3027 76.3327C11.0363 70.6448 16.6957 63.7007 16.7521 63.6323L16.9079 63.4431L16.9508 63.6848C17.9553 69.3681 19.4069 71.2147 20.4475 71.7664C20.6756 71.8872 20.951 71.8758 21.1632 71.7368C21.346 71.6159 21.4453 71.429 21.4318 71.2215C21.0729 65.4812 24.1317 60.5775 24.1633 60.5296L28.8068 52.2861L28.9062 52.4548C28.9513 52.5346 33.4865 60.3928 30.6737 65.3011C28.5811 68.9532 28.4073 72.0582 30.1726 74.2855C30.5654 74.7825 31.062 75.3364 31.4142 75.2247C31.8724 75.0765 32.1681 73.8546 32.2946 71.5931C32.5609 66.849 36.0464 64.0404 36.0825 64.0244L36.2428 63.9447L36.2473 64.1247C36.2699 65.1506 36.3331 65.9235 36.3692 66.3862C36.3805 66.5253 36.3896 66.6347 36.3941 66.7077C36.4392 67.4828 36.4415 68.267 36.446 69.0239C36.4528 70.3051 36.4595 71.6296 36.6627 72.9291C36.744 73.4534 36.8568 73.9937 36.9629 74.5157C37.2925 76.1161 37.6357 77.7712 37.2338 79.367C36.595 81.918 34.9606 83.0396 32.3533 84.1111C32.2449 84.1544 30.9311 84.6696 28.5021 84.6696V84.6674ZM16.7702 63.9697C15.874 65.1278 11.3952 71.2284 12.5217 76.2802C13.0296 78.56 14.6121 80.3359 17.2262 81.5578C22.2354 83.8991 26.0595 84.4097 28.3847 84.428C30.9017 84.4394 32.211 83.9196 32.2675 83.8968C34.8071 82.8527 36.3986 81.7653 37.0149 79.3077C37.4031 77.7621 37.0668 76.1321 36.7395 74.5568C36.6311 74.0324 36.5182 73.4899 36.437 72.961C36.2315 71.6433 36.2248 70.3096 36.218 69.0193C36.2135 68.2647 36.209 67.4851 36.1661 66.7145C36.1615 66.6416 36.1525 66.5367 36.1412 66.3999C36.1051 65.9713 36.0487 65.2783 36.0238 64.3641C35.3195 65.0002 32.7438 67.5922 32.5181 71.6022C32.3803 74.0666 32.0598 75.2498 31.4796 75.4367C31.0011 75.5918 30.4818 75.0401 29.992 74.4245C28.7165 72.8173 27.7662 69.9084 30.4751 65.1848C32.9944 60.7918 29.4502 53.9184 28.8068 52.7421L24.3552 60.6459C24.3213 60.6983 21.3031 65.5405 21.6575 71.2056C21.6756 71.4928 21.5356 71.7618 21.2851 71.926C21.0029 72.1106 20.6417 72.1243 20.3415 71.967C19.2714 71.4016 17.7928 69.5505 16.7724 63.9697H16.7702Z" fill="black"/>
<path d="M35.0426 67.8249C35.0426 67.8249 35.5099 74.044 35.7537 77.4249C35.9839 80.5982 31.9838 84.4943 23.8118 82.6135C18.1547 81.3118 9.60355 78.6787 16.035 66.7102C16.035 66.7102 18.1118 74.7963 21.6312 73.6679C23.8141 72.968 23.2904 69.8265 23.4032 68.1669C23.5206 66.432 23.8254 64.72 24.4349 63.0808C25.444 60.368 27.2635 57.8808 28.6179 55.3047C28.6179 55.3047 30.934 59.4082 29.8166 62.3992C28.873 64.9229 27.6833 67.3576 27.3018 70.0408C27.1054 71.4109 27.5524 73.1048 28.2454 74.3883C28.8753 75.5509 30.1981 76.8185 31.688 76.2668C32.6745 75.902 33.1012 74.81 33.4488 73.9665C33.8394 73.0204 34.2457 71.2445 35.0426 67.8227V67.8249Z" fill="#FF9F00"/>
<path d="M47.9601 76.5458C46.8043 84.9625 39.3163 90.541 23.9387 88.9862C9.86586 87.5637 -0.0442777 80.8545 0.63521 71.3047C0.646497 71.405 0.671329 71.5076 0.70519 71.6079C1.67814 74.3572 11.5996 77.6104 23.6881 78.9646C35.6909 80.3096 46.0706 79.4524 47.7388 77.0359C47.863 76.8604 47.9397 76.6712 47.9646 76.4774C47.9646 76.507 47.9623 76.5275 47.9601 76.5458Z" fill="#97623A"/>
<path d="M28.7586 89.3533C27.2258 89.3533 25.6162 89.2689 23.9277 89.0979C16.8551 88.3821 10.8955 86.3737 6.68764 83.2846C2.32402 80.0794 0.190746 75.9348 0.522589 71.2956L0.748332 71.291C0.757362 71.3799 0.779936 71.4711 0.813798 71.5691C1.78901 74.3231 11.8436 77.5215 23.7019 78.8506C35.4902 80.1705 46.0099 79.343 47.6488 76.9698C47.7639 76.8102 47.8316 76.6392 47.8565 76.4614L48.0822 76.4819C48.0822 76.5139 48.0777 76.5389 48.0754 76.5595C46.9422 84.8235 39.9916 89.3533 28.7608 89.3533H28.7586ZM0.718986 71.9111C0.612886 76.2243 2.7123 80.0839 6.82083 83.1C10.9948 86.1639 16.9183 88.161 23.9502 88.87C31.2598 89.6086 37.0727 88.7788 41.2264 86.4033C44.7615 84.3812 47.0009 81.2169 47.7368 77.2229C45.7706 79.6029 35.5331 80.4031 23.6771 79.074C12.11 77.7791 2.23598 74.6741 0.718986 71.9065V71.9111Z" fill="black"/>
<path d="M24.9946 53.2154C24.8997 53.8287 24.8253 54.4465 24.7688 55.0711C24.6875 55.9876 24.6447 56.8995 24.6447 57.8045C24.4573 57.8387 24.2654 57.8729 24.0758 57.9025C20.9176 58.4132 16.9107 59.2225 14.116 57.1001C11.2468 54.9207 12.4703 50.555 12.9105 47.5526C13.4568 43.8366 14.3485 40.1572 14.6961 36.4138C14.8045 35.2124 15.6285 34.1934 16.9017 34.2002C18.0146 34.2071 19.202 35.2375 19.0914 36.4344C18.7776 39.8129 17.9965 43.0957 17.4773 46.4401C17.247 47.9242 16.9829 49.4197 16.8272 50.9152C16.6398 52.723 16.2267 53.6144 18.1861 53.9974C18.7595 54.1068 19.3126 54.0407 19.895 53.9791C21.4481 53.8196 22.99 53.6303 24.5228 53.3203C24.6808 53.2861 24.8388 53.2565 24.9946 53.22V53.2154Z" fill="black"/>
<path d="M17.7921 27.9321C17.7921 27.9321 20.3407 18.9682 23.2663 20.2927C25.5689 21.3346 21.2414 29.8858 21.2414 29.8858L17.7898 27.9321H17.7921Z" fill="white"/>
<path d="M21.2892 30.0453L17.657 27.989L17.6818 27.9024C17.7586 27.6356 19.5735 21.3322 21.9506 20.2174C22.4134 20.0008 22.8717 19.9917 23.3119 20.1901C23.5985 20.32 23.8062 20.5617 23.9259 20.9059C24.7273 23.2039 21.4811 29.6669 21.3411 29.9405L21.2869 30.0453H21.2892ZM17.9256 27.8773L21.1944 29.7284C21.6188 28.869 24.4293 23.0306 23.7137 20.9788C23.6144 20.6916 23.4518 20.5001 23.2193 20.3952C22.8355 20.222 22.4518 20.2288 22.0454 20.4203C19.9076 21.4234 18.1536 27.1045 17.9234 27.875L17.9256 27.8773Z" fill="black"/>
<path d="M14.7031 27.2583C14.7031 27.2583 13.6353 19.0877 16.29 18.9943C19.5385 18.8803 17.8996 27.5888 17.8996 27.5888L14.7031 27.2583Z" fill="white"/>
<path d="M17.989 27.7127L14.6029 27.3639L14.5916 27.275C14.56 27.0265 13.8128 21.1608 15.2959 19.3917C15.5668 19.068 15.9009 18.897 16.2869 18.8833C16.8016 18.8628 17.2328 19.0543 17.5669 19.4487C19.1697 21.3363 18.059 27.3571 18.0116 27.6124L17.9913 27.715L17.989 27.7127ZM14.8038 27.1542L17.8062 27.4642C17.9484 26.6504 18.8175 21.2702 17.3931 19.5923C17.1019 19.2504 16.7407 19.0931 16.2937 19.1067C15.9709 19.1181 15.7 19.2595 15.4675 19.5353C14.1446 21.1129 14.7157 26.3996 14.8038 27.1519V27.1542Z" fill="black"/>
<path d="M20.1484 35.9607C20.1484 35.9607 22.5119 38.1447 19.11 38.5414C16.6855 38.8241 10.9607 38.5232 13.5183 35.4957C13.5183 35.4957 9.2721 32.4705 12.7079 28.1299L22.0356 30.0107C22.2411 30.0517 22.3765 30.2158 22.46 30.4119C23.0605 31.8344 23.2795 34.8801 20.1484 35.9607Z" fill="white"/>
<path d="M17.5085 38.7421C15.6958 38.7421 13.4541 38.4434 12.8943 37.3811C12.6234 36.8658 12.7792 36.2389 13.3593 35.5185C12.9688 35.2108 11.5624 33.9866 11.2983 32.1126C11.1109 30.7721 11.5556 29.4111 12.6234 28.0616L12.6663 28.0068L22.0617 29.9013C22.283 29.9446 22.4568 30.1065 22.5674 30.3686C22.9354 31.2395 23.1634 32.7122 22.599 33.9888C22.1881 34.919 21.4342 35.596 20.3596 36.0064C20.635 36.3005 21.231 37.03 21.0233 37.6797C20.8563 38.1995 20.2197 38.5278 19.1293 38.6554C18.6959 38.7056 18.1293 38.7398 17.5107 38.7398L17.5085 38.7421ZM12.7566 28.2576C11.7611 29.5365 11.3457 30.8223 11.5218 32.0807C11.8085 34.1165 13.5693 35.3931 13.5851 35.4045L13.6866 35.4775L13.6054 35.5732C13.0297 36.2549 12.8559 36.8271 13.0907 37.2739C13.7431 38.5095 17.3256 38.6372 19.0977 38.4297C20.091 38.3135 20.6644 38.0376 20.8021 37.6113C21.0188 36.9342 20.082 36.0543 20.0707 36.0451L19.9307 35.9152L20.1113 35.8537C21.2152 35.4729 21.9827 34.8141 22.3868 33.8976C22.9218 32.6871 22.7028 31.2874 22.3552 30.4598C22.2988 30.3276 22.1949 30.1635 22.0143 30.127L12.7543 28.2599L12.7566 28.2576Z" fill="black"/>
<path d="M18.1099 36.3762C18.0083 36.3762 17.909 36.3739 17.8119 36.3671C17.7487 36.3625 17.7036 36.3078 17.7081 36.2463C17.7126 36.1824 17.7713 36.1346 17.8277 36.1414C18.8255 36.2121 20.1077 35.8587 20.119 35.8564C20.18 35.8405 20.2409 35.8747 20.259 35.9362C20.2748 35.9978 20.2409 36.0593 20.18 36.0753C20.1303 36.089 19.0761 36.3785 18.1099 36.3785V36.3762Z" fill="black"/>
<path d="M15.5754 36.0563H15.5732C15.5348 36.0563 14.6228 36.0244 13.485 35.6026C13.4263 35.5821 13.397 35.516 13.4173 35.4567C13.4376 35.3974 13.5031 35.3678 13.5618 35.3883C14.6679 35.7964 15.5709 35.826 15.5799 35.826C15.6431 35.826 15.6905 35.8807 15.6905 35.9423C15.6905 36.0038 15.6386 36.054 15.5777 36.054L15.5754 36.0563Z" fill="black"/>
<path d="M12.0968 25.6842C12.6634 25.5041 13.3722 25.6683 13.8486 26.0148C14.5551 26.5323 14.8779 27.4487 15.0247 28.2717C15.1534 28.9853 15.1082 29.8607 14.3542 30.2665C13.2752 30.8455 12.3496 30.0225 11.8214 29.1927C11.3293 28.4176 10.9613 27.3598 11.2999 26.4434C11.4512 26.0353 11.7469 25.7936 12.0945 25.6842H12.0968Z" fill="white"/>
<path d="M13.6279 30.5718C12.9485 30.5718 12.2735 30.1158 11.7272 29.2564C11.4247 28.7822 10.77 27.5557 11.1944 26.4067C11.3457 25.9963 11.6459 25.7091 12.0613 25.5769C12.6369 25.3945 13.3796 25.5358 13.9146 25.9257C14.5287 26.3748 14.9395 27.159 15.1359 28.2533C15.3165 29.2678 15.0592 30.0178 14.4068 30.3689C14.1517 30.5056 13.8898 30.574 13.6279 30.574V30.5718ZM12.0952 25.684L12.129 25.7935C11.7814 25.9029 11.5331 26.1422 11.4044 26.4842C11.0161 27.5374 11.6324 28.6864 11.9146 29.131C12.2441 29.6507 13.1358 30.7883 14.2984 30.166C15.014 29.783 15.0253 28.9349 14.9102 28.292C14.7251 27.257 14.3436 26.5207 13.7792 26.1081C13.3097 25.7638 12.6279 25.6339 12.1268 25.7935L12.0929 25.684H12.0952Z" fill="black"/>
<path d="M22.4502 30.3962C21.3915 28.0298 15.0729 26.0784 13.6891 27.6331C11.8651 29.6826 17.5606 32.0216 17.5606 32.0216C17.5606 32.0216 16.5583 33.6402 18.0098 34.502" fill="white"/>
<path d="M18.0058 34.6156C17.9855 34.6156 17.9675 34.611 17.9494 34.5996C17.5227 34.3466 17.2564 34.0046 17.1548 33.5874C17.0013 32.956 17.2677 32.3313 17.3986 32.0783C16.7372 31.7933 13.6084 30.3685 13.2494 28.7886C13.1501 28.3486 13.2697 27.9337 13.6038 27.5576C14.0937 27.0059 15.1728 26.8303 16.6401 27.0606C18.9382 27.4208 21.8525 28.7818 22.5523 30.3502C22.5771 30.4072 22.5523 30.4756 22.4959 30.5007C22.4394 30.5258 22.3717 30.5007 22.3469 30.4437C21.6764 28.9436 18.8456 27.6374 16.6062 27.2863C15.236 27.072 14.2043 27.227 13.7731 27.7103C13.4865 28.034 13.3871 28.3692 13.4706 28.7385C13.8386 30.3525 17.5656 31.9027 17.604 31.9164L17.7282 31.9666L17.6582 32.0805C17.6582 32.0805 17.2067 32.826 17.3783 33.5327C17.464 33.8884 17.6966 34.1825 18.069 34.4036C18.1232 34.4355 18.1413 34.5062 18.1097 34.5586C18.0894 34.5951 18.051 34.6156 18.0126 34.6156H18.0058Z" fill="black"/>
<path d="M94.3996 78.517C93.4515 82.0164 88.9863 82.4746 86.0651 83.1631C82.4465 84.018 78.733 84.5332 75.1663 85.5841C74.0217 85.9215 72.7801 85.5249 72.3174 84.3212C72.2722 84.1981 72.2361 84.0727 72.2135 83.9405C72.0397 82.9419 72.5589 81.7382 73.5657 81.4419C74.6358 81.1296 75.7126 80.8651 76.7939 80.6303C78.9746 80.1515 81.1755 79.7777 83.3585 79.2807C84.8078 78.9501 86.2819 78.6492 87.7108 78.248C88.2729 78.0884 89.9773 77.8125 90.2053 77.2289C90.2956 76.9964 90.0969 76.1119 90.0473 75.836C89.9366 75.2547 89.6725 74.76 89.4016 74.2357C88.686 72.8314 87.9433 71.4521 87.0945 70.1276C86.6295 69.4004 86.1396 68.6868 85.6407 67.9824C86.2954 66.2566 86.7966 64.4556 87.1307 62.5908C88.677 64.6107 90.1872 66.6578 91.4762 68.8578C93.1083 71.6436 95.3251 75.1134 94.4019 78.5193L94.3996 78.517Z" fill="black"/>
<path d="M73.4874 81.5091C73.4874 81.5091 74.589 79.1656 75.7381 80.4833C76.6139 81.4863 77.772 84.1012 78.2754 85.2889C78.5079 85.8361 78.4425 86.4858 78.0564 86.9349C77.8059 87.2267 76.8848 87.4843 76.3295 87.3977C75.8442 88.3894 75.3814 90.0558 73.4739 91.337C72.0472 92.2968 70.3225 92.9693 68.6136 93.1357C67.7332 93.2224 66.8596 93.1449 66.0853 92.6821C65.6564 92.4245 65.2545 92.0643 65.031 91.606C64.9204 91.3781 64.8595 91.1273 64.864 90.872C64.864 90.7967 64.8956 90.277 64.8956 90.277C64.8956 90.277 62.5569 89.0368 64.2251 86.9782C64.2251 86.9782 60.7216 84.7623 65.8821 82.9727C66.1936 82.8633 65.7963 81.4248 66.6113 80.2644C66.7332 80.0911 67.591 78.9057 68.9974 78.6572C70.6724 78.3608 72.5596 79.4893 73.4851 81.5069L73.4874 81.5091Z" fill="white"/>
<path d="M68.0176 93.2794C67.2387 93.2794 66.5841 93.1152 66.0265 92.7801C65.6721 92.5681 65.1935 92.1988 64.9294 91.6562C64.8052 91.4009 64.7443 91.1364 64.751 90.8697C64.751 90.8127 64.7714 90.4867 64.7781 90.3408C64.5389 90.1995 63.7239 89.6546 63.5456 88.7678C63.4305 88.1979 63.6043 87.6051 64.0603 87.0033C63.7465 86.7776 62.8525 86.0503 62.9586 85.1293C63.058 84.2562 64.0287 83.4948 65.8437 82.8633C65.8956 82.8291 65.9114 82.5396 65.9227 82.3253C65.9543 81.769 66.0017 80.9301 66.5164 80.196C66.6789 79.9635 67.5638 78.7917 68.977 78.5409C70.6971 78.2377 72.5257 79.3434 73.4896 81.2515C73.704 80.8663 74.2255 80.0615 74.8756 79.9703C75.2097 79.9224 75.5303 80.0684 75.8215 80.4012C76.7177 81.4293 77.9074 84.1263 78.3769 85.2365C78.632 85.8429 78.5395 86.5359 78.1399 87.0033C77.869 87.3202 76.9863 87.5709 76.3949 87.5139C76.3272 87.6553 76.2594 87.8103 76.1872 87.9767C75.7515 88.973 75.1556 90.3362 73.5347 91.4259C72.0313 92.4359 70.2863 93.081 68.6226 93.2452C68.4126 93.2657 68.2117 93.2748 68.0176 93.2748V93.2794ZM69.5323 78.7256C69.3607 78.7256 69.1869 78.7393 69.0176 78.7712C67.6925 79.006 66.8572 80.1139 66.7037 80.3328C66.2252 81.0144 66.18 81.8146 66.1507 82.3435C66.1281 82.7493 66.1123 83.016 65.9181 83.0844C64.1935 83.6817 63.2724 84.3816 63.1844 85.159C63.076 86.1051 64.2747 86.8779 64.286 86.8847L64.3944 86.9531L64.3131 87.0534C63.8458 87.6302 63.6607 88.1933 63.7668 88.7245C63.9497 89.6386 64.9362 90.1744 64.9475 90.1789L65.0107 90.2131L65.0061 90.2861C65.0061 90.2861 64.9768 90.8036 64.9745 90.8765C64.97 91.1068 65.0219 91.3348 65.1303 91.5559C65.3696 92.0483 65.812 92.3857 66.1416 92.584C66.7963 92.9762 67.5977 93.1198 68.6 93.0217C70.2276 92.8622 71.9365 92.2307 73.4083 91.2413C74.975 90.188 75.5551 88.859 75.9795 87.8901C76.0653 87.694 76.1443 87.5117 76.2256 87.3452L76.2617 87.27L76.343 87.2837C76.878 87.368 77.7539 87.1081 77.9661 86.8596C78.3092 86.4584 78.3882 85.8589 78.167 85.3322C77.702 84.2311 76.5236 81.5593 75.6499 80.5585C75.4129 80.2849 75.1601 80.1641 74.905 80.2029C74.1826 80.3054 73.5912 81.5479 73.5866 81.5593L73.4828 81.7781L73.3812 81.557C72.5956 79.8449 71.0357 78.7256 69.5278 78.7256H69.5323Z" fill="black"/>
<path d="M64.2848 87.0967C64.2352 87.0967 64.1878 87.0625 64.1742 87.0101C64.1584 86.9485 64.1968 86.887 64.2555 86.871L66.2917 86.3581C66.3526 86.3421 66.4136 86.3809 66.4294 86.4402C66.4452 86.4994 66.4068 86.5633 66.3481 86.5792L64.3119 87.0922C64.3119 87.0922 64.2939 87.0944 64.2848 87.0944V87.0967Z" fill="black"/>
<path d="M64.8962 90.394C64.8488 90.394 64.8059 90.3644 64.7901 90.3165C64.7698 90.2572 64.8014 90.1911 64.8601 90.1729L66.9301 89.4662C66.9888 89.4457 67.0543 89.4776 67.0724 89.5369C67.0927 89.5961 67.0611 89.6622 67.0024 89.6805L64.9323 90.3872C64.921 90.3917 64.9075 90.394 64.8962 90.394Z" fill="black"/>
<path d="M65.8815 83.0888C65.8341 83.0888 65.789 83.0569 65.7732 83.009C65.7551 82.9497 65.789 82.8859 65.8477 82.8676L68.7485 81.9785C68.8094 81.9603 68.8704 81.9945 68.8884 82.0538C68.9065 82.113 68.8726 82.1769 68.8139 82.1951L65.9131 83.0842C65.9131 83.0842 65.8906 83.0888 65.8793 83.0888H65.8815Z" fill="black"/>
<path d="M74.4447 83.5472C74.4041 83.5472 74.3634 83.5244 74.3431 83.4834L73.3837 81.5593C73.3566 81.5023 73.3769 81.4339 73.4334 81.4065C73.4876 81.3792 73.5575 81.3997 73.5846 81.4567L74.544 83.3808C74.5711 83.4378 74.5508 83.5062 74.4944 83.5335C74.4786 83.5426 74.4605 83.5449 74.4447 83.5449V83.5472Z" fill="black"/>
<path d="M76.3306 87.5094C76.2899 87.5094 76.2516 87.4866 76.2312 87.4478L75.5043 86.0572C75.475 86.0025 75.4953 85.9318 75.5518 85.9022C75.6059 85.8725 75.6759 85.8931 75.7053 85.9501L76.4322 87.3407C76.4615 87.3954 76.4412 87.4661 76.3847 87.4957C76.3689 87.5048 76.3509 87.5094 76.3328 87.5094H76.3306Z" fill="black"/>
<path d="M77.4316 47.797C77.1314 47.797 76.8221 47.7583 76.506 47.6648C76.4451 47.6466 76.4112 47.585 76.4293 47.5234C76.4473 47.4619 76.5083 47.4277 76.5693 47.4459C78.8312 48.1025 80.7861 45.9094 80.8042 45.8866C80.8448 45.8387 80.9171 45.8342 80.9645 45.8775C81.0119 45.9185 81.0164 45.9915 80.9735 46.0393C80.9554 46.0599 79.4091 47.7993 77.4316 47.7993V47.797Z" fill="black"/>
<path d="M76.7268 40.6458C76.6636 40.6458 76.6139 40.5957 76.6139 40.5318C76.6139 40.468 76.6636 40.4179 76.7268 40.4179C79.2686 40.4065 80.1558 37.3311 80.1648 37.3015C80.1829 37.2399 80.2438 37.2057 80.3048 37.2217C80.3657 37.2376 80.3996 37.3015 80.3838 37.363C80.3748 37.3949 79.4425 40.6344 76.729 40.6458H76.7268Z" fill="black"/>
<path d="M76.8186 44.6959C76.7576 44.6959 76.7079 44.6457 76.7057 44.5842C76.7057 44.5203 76.7531 44.4679 76.8163 44.4679C79.3785 44.4018 80.4034 41.9123 80.4124 41.8873C80.435 41.828 80.5004 41.8006 80.5591 41.8234C80.6178 41.8462 80.6449 41.9123 80.6223 41.9716C80.6111 41.999 79.5297 44.6229 76.8231 44.6959H76.8208H76.8186Z" fill="black"/>
<path d="M61.1043 45.2377C60.8988 47.7226 61.0185 50.0981 61.3955 52.2114C63.4633 51.5799 66.0571 51.377 68.8156 51.7395C69.2333 51.7919 69.6419 51.858 70.0369 51.9401C72.0889 52.3254 73.9378 52.9888 75.4322 53.8323C76.2336 51.7098 76.7866 49.2386 77.0079 46.5805C77.6851 38.1523 74.6827 31.0213 70.2943 30.6475C67.1903 30.3898 64.2376 33.5541 62.5197 38.4031C62.5129 38.4099 62.5129 38.4145 62.5106 38.4213C61.8018 40.4434 61.3029 42.7596 61.102 45.2377H61.1043Z" fill="white"/>
<path d="M75.4904 53.9986L75.3776 53.9347C73.8538 53.0775 72.0004 52.4278 70.0162 52.0562C69.6437 51.9787 69.2486 51.9126 68.8017 51.8556C66.1717 51.5091 63.5531 51.6755 61.4266 52.323L61.3047 52.3594L61.2821 52.234C60.8916 50.0478 60.7923 47.6267 60.9909 45.2307C61.1851 42.8097 61.6591 40.5117 62.4018 38.3961L62.4063 38.3642L62.4199 38.3482C64.2213 33.2759 67.2418 30.2803 70.3029 30.5356C74.7432 30.9163 77.802 38.118 77.1203 46.5917C76.9058 49.1838 76.3573 51.7029 75.5378 53.8755L75.4927 53.9986H75.4904ZM66.1311 51.4498C67.016 51.4498 67.9235 51.5091 68.8287 51.6276C69.2802 51.6846 69.6843 51.7507 70.059 51.8305C72.014 52.1976 73.8493 52.8336 75.373 53.6703C76.1609 51.5456 76.6869 49.0949 76.8968 46.5712C77.5673 38.2229 74.601 31.1283 70.2848 30.7613C67.3321 30.5174 64.3906 33.4582 62.6276 38.4417L62.614 38.4736C61.8804 40.5687 61.4108 42.8484 61.2167 45.249C61.0225 47.5811 61.1151 49.9361 61.4831 52.0676C62.8759 51.6596 64.4674 51.4498 66.1311 51.4498Z" fill="black"/>
<path d="M61.1043 45.237C60.8988 47.7219 61.0185 50.0974 61.3955 52.2107C63.4633 51.5792 66.0571 51.3763 68.8156 51.7388C69.2333 51.7912 69.6419 51.8573 70.0369 51.9394C70.5539 50.2524 70.7661 48.2896 70.9963 46.272C71.0415 45.8867 71.0731 45.5129 71.1047 45.139L65.5266 43.0348L71.1566 41.6191C70.9218 36.9798 69.4297 33.6537 67.2377 33.5717C65.5469 33.5124 63.8132 35.4182 62.5174 38.4024C62.5106 38.4092 62.5106 38.4138 62.5084 38.4206C61.7995 40.4427 61.3006 42.7589 61.0997 45.237H61.1043Z" fill="black"/>
<path d="M61.3086 52.3595L61.286 52.2341C60.8955 50.0478 60.7962 47.6267 60.9948 45.2308C61.189 42.8097 61.663 40.5117 62.4057 38.3961L62.4103 38.3642L62.4261 38.346C63.8008 35.1817 65.5616 33.399 67.2457 33.4605C69.4467 33.5449 71.0269 36.7456 71.2729 41.6174L71.2775 41.7109L65.9093 43.0605L71.2278 45.0666L71.221 45.1532C71.1894 45.5226 71.1578 45.9033 71.1127 46.2908L71.0878 46.512C70.8621 48.4816 70.6499 50.3419 70.1487 51.9787L70.1194 52.0768L70.0178 52.0563C69.6476 51.9787 69.2525 51.9126 68.8056 51.8556C66.1757 51.5091 63.557 51.6755 61.4305 52.323L61.3086 52.3595ZM62.6179 38.4668C61.882 40.5642 61.4125 42.8439 61.2183 45.2467C61.0242 47.5789 61.1167 49.9338 61.4847 52.0654C63.618 51.4384 66.2208 51.2811 68.8304 51.6254C69.2412 51.6778 69.6137 51.7371 69.9591 51.8078C70.4332 50.2142 70.6409 48.3996 70.8598 46.48L70.8847 46.2589C70.9253 45.9055 70.9569 45.5545 70.9862 45.2148L65.1463 43.0126L71.0404 41.5308C70.7899 36.9098 69.2661 33.7615 67.2366 33.6839C65.6677 33.6269 63.943 35.4097 62.6247 38.4463L62.6157 38.4645L62.6179 38.4668Z" fill="black"/>
<path d="M36.3199 42.1461C33.8435 42.096 32.7328 39.333 32.7215 39.3056C32.699 39.2463 32.7261 39.1802 32.7848 39.1574C32.8434 39.1346 32.9089 39.162 32.9315 39.2212C32.9428 39.2486 34.0015 41.8703 36.3244 41.9182C36.3876 41.9182 36.4373 41.9706 36.435 42.0344C36.435 42.096 36.3831 42.1461 36.3222 42.1461H36.3199Z" fill="black"/>
<path d="M38.0802 35.0924C38.0802 35.0924 38.0621 35.0924 38.0531 35.0901C35.4548 34.4381 35.2787 31.1759 35.2764 31.1439C35.2742 31.0801 35.3216 31.0277 35.3848 31.0254H35.3893C35.4503 31.0254 35.4999 31.0733 35.5022 31.1348C35.5022 31.1667 35.6715 34.2603 38.1073 34.869C38.1682 34.885 38.2043 34.9465 38.1908 35.0081C38.1772 35.0605 38.1321 35.0947 38.0802 35.0947V35.0924Z" fill="black"/>
<path d="M36.9628 38.9175C36.9628 38.9175 36.9425 38.9175 36.9335 38.9129C34.3464 38.2062 34.0349 35.3406 34.0327 35.3132C34.0259 35.2517 34.071 35.1947 34.1342 35.1878C34.1907 35.1833 34.2516 35.2266 34.2584 35.2904C34.2607 35.3178 34.5609 38.0284 36.9944 38.694C37.0554 38.71 37.0892 38.7738 37.0734 38.8331C37.0599 38.8833 37.0147 38.9175 36.9651 38.9175H36.9628Z" fill="black"/>
<path d="M36.276 48.1214C36.2805 48.1487 36.276 48.1738 36.2872 48.1943C36.2872 48.2148 36.2872 48.2331 36.294 48.2536C36.2985 48.3265 36.3098 48.3972 36.3211 48.4702C36.6259 48.3767 36.9351 48.2946 37.2625 48.2217C37.4363 48.1806 37.6146 48.1373 37.7997 48.1031H37.8065C39.4138 47.7885 41.2265 47.6951 43.1295 47.8706C43.8835 47.9367 44.6149 48.0438 45.3192 48.1898C45.4208 48.2125 45.5156 48.2285 45.6082 48.249C47.3464 48.6297 48.8995 49.2202 50.1727 49.952C50.9831 47.9686 51.6062 45.6752 51.9335 43.2063C53.06 34.826 50.4775 27.5491 46.1725 26.9495C43.7842 26.6167 41.3687 28.4154 39.5018 31.4999C39.5018 31.4999 39.5018 31.5067 39.4951 31.5067C39.2129 31.9741 38.9465 32.4802 38.6959 33.0091C38.6733 33.0661 38.644 33.1139 38.6192 33.1709C38.5808 33.2462 38.5447 33.3191 38.5063 33.3943C38.4611 33.4878 38.416 33.5881 38.3686 33.6861C38.2918 33.8412 38.2241 33.9962 38.1587 34.1603C38.0661 34.3723 37.9781 34.5844 37.8968 34.8055C37.8088 35.0312 37.7252 35.2569 37.6485 35.4826C37.4318 36.0867 37.2376 36.7227 37.0615 37.3884C37.0051 37.605 36.9464 37.8261 36.8945 38.0473C36.8877 38.0587 36.8855 38.0723 36.8855 38.086C36.8132 38.3915 36.741 38.7015 36.6778 39.0207C36.6326 39.2373 36.592 39.4607 36.5514 39.6841C36.522 39.8505 36.4949 40.0169 36.4656 40.1834C36.4543 40.2289 36.452 40.2654 36.4407 40.311C36.4001 40.5481 36.3617 40.7966 36.3324 41.0405C35.996 43.5505 35.9938 45.9602 36.2714 48.1191L36.276 48.1214Z" fill="white"/>
<path d="M50.2304 50.1183L50.1198 50.0545C48.8354 49.3159 47.2687 48.7322 45.5869 48.3629C45.5372 48.3515 45.4898 48.3424 45.4402 48.3333C45.3928 48.3242 45.3454 48.3151 45.298 48.3037C44.5846 48.1578 43.8532 48.0506 43.1218 47.9868C41.291 47.8181 39.4625 47.8979 37.8304 48.217H37.8146L37.8078 48.2193C37.6295 48.2535 37.4579 48.2923 37.2908 48.3333C36.959 48.4062 36.652 48.4883 36.3563 48.5795L36.2321 48.6183L36.2118 48.4883C36.2005 48.4085 36.1892 48.3356 36.1847 48.2626C36.1824 48.2535 36.1779 48.2353 36.1779 48.2147C36.1712 48.1919 36.1712 48.1714 36.1689 48.1555L36.2795 48.1258L36.1666 48.1395C35.8822 45.9145 35.9025 43.457 36.2276 41.0313C36.2569 40.7851 36.2953 40.5298 36.3359 40.2973C36.3427 40.2722 36.345 40.2539 36.3472 40.2357C36.3517 40.2129 36.3563 40.1878 36.3608 40.1628L36.4443 39.6703C36.4849 39.4446 36.5256 39.2212 36.5707 39.0024C36.6317 38.6901 36.6994 38.3914 36.7784 38.0631C36.7784 38.0631 36.7784 38.0403 36.7919 38.013C36.8439 37.7941 36.9003 37.5753 36.9567 37.3633C37.1328 36.693 37.3292 36.0479 37.5459 35.4483C37.6204 35.2249 37.7062 34.9946 37.7942 34.7666C37.8733 34.5546 37.959 34.3426 38.0584 34.1169C38.1193 33.9619 38.1893 33.8046 38.2706 33.6382L38.2819 33.6108C38.3247 33.5196 38.3654 33.4307 38.406 33.3441L38.5189 33.1207C38.5279 33.0979 38.5415 33.0683 38.5573 33.0409C38.5685 33.0158 38.5821 32.993 38.5934 32.9657C38.8598 32.4048 39.1306 31.8965 39.4015 31.4474L39.4377 31.3858H39.4399C41.4016 28.1714 43.8577 26.514 46.1896 26.8378C50.551 27.4442 53.1787 34.7963 52.0477 43.2244C51.7339 45.5931 51.1221 47.9343 50.2779 49.9998L50.2282 50.1183H50.2304ZM41.2549 47.6722C41.8779 47.6722 42.5078 47.7018 43.1399 47.7588C43.878 47.8226 44.6185 47.9321 45.3431 48.0802C45.3928 48.0916 45.4379 48.1008 45.4831 48.1099C45.535 48.119 45.5847 48.1304 45.6366 48.1418C47.2913 48.5043 48.8376 49.0742 50.1198 49.7923C50.9303 47.7748 51.5217 45.4973 51.8265 43.1925C52.9416 34.8898 50.3998 27.6539 46.1626 27.0635C43.9187 26.7511 41.5326 28.3811 39.616 31.5363L39.607 31.6229H39.5618C39.3067 32.0492 39.0516 32.5325 38.8011 33.0569C38.7898 33.0819 38.7762 33.1116 38.7627 33.1412C38.7514 33.1663 38.7379 33.1891 38.7288 33.2142L38.6137 33.4444C38.5731 33.5265 38.5324 33.6154 38.4918 33.7043L38.4782 33.7316C38.3992 33.8935 38.3315 34.0463 38.2706 34.199C38.1712 34.4247 38.0855 34.6321 38.0087 34.8419C37.9207 35.0676 37.8371 35.2933 37.7626 35.5167C37.5482 36.114 37.3518 36.7523 37.1802 37.4157C37.1238 37.63 37.0651 37.8511 37.0132 38.0723L36.9996 38.1042C36.9251 38.437 36.8574 38.7311 36.7965 39.0411C36.7513 39.2577 36.7107 39.4811 36.6723 39.7045L36.5865 40.2015C36.5797 40.2289 36.5775 40.2471 36.573 40.2676C36.5685 40.2904 36.5662 40.3132 36.5594 40.336C36.5211 40.5594 36.4827 40.8102 36.4533 41.0541C36.1305 43.4615 36.1079 45.8985 36.3924 48.103V48.135L36.4104 48.1646L36.4037 48.2011C36.4037 48.2011 36.4059 48.2148 36.4082 48.2239C36.4104 48.2581 36.415 48.29 36.4172 48.3196C36.6813 48.2421 36.9522 48.1714 37.2412 48.1076C37.415 48.0666 37.5956 48.0233 37.7807 47.9891H37.7965L37.801 47.9868C38.8868 47.7748 40.0562 47.6699 41.2549 47.6699V47.6722Z" fill="black"/>
<path d="M36.2845 48.4521C36.2845 48.4521 37.6118 48.1397 37.797 48.1056H37.8037C39.411 47.7909 41.2237 47.6975 43.1268 47.873C43.8807 47.9391 44.6121 48.0463 45.3165 48.1922C45.8447 46.4482 46.2307 44.4785 46.4407 42.3994C46.479 42.0004 46.5129 41.6061 46.5377 41.2185L40.9935 39.2716L46.5016 37.5823L46.5581 37.5618C46.4204 35.1453 45.9734 33.0799 45.2758 31.6368C44.6009 30.2074 43.6821 29.373 42.6075 29.373C41.2305 29.3844 39.8377 30.7728 38.6954 33.0092C38.6345 33.1323 38.5667 33.2645 38.5058 33.3945C38.4606 33.488 38.4155 33.5883 38.3681 33.6863C38.2913 33.8413 38.2236 33.9963 38.1581 34.1605C38.0656 34.3725 37.9775 34.5845 37.8963 34.8056C37.8082 35.0313 37.7247 35.257 37.648 35.4827C37.4312 36.0868 37.2371 36.7229 37.061 37.3886C37.0046 37.6051 36.9459 37.8263 36.894 38.0474C36.8872 38.0588 36.8849 38.0725 36.8849 38.0862C36.8127 38.3916 36.7405 38.7017 36.6773 39.0208C36.6321 39.2374 36.5915 39.4608 36.5508 39.6842C36.5215 39.8507 36.4944 40.0171 36.4651 40.1835C36.4538 40.2291 36.4515 40.2656 36.4402 40.3112C36.3996 40.5483 36.3612 40.7968 36.3319 41.0407C35.9955 43.5507 36.1287 46.2863 36.28 48.4475L36.2845 48.4521Z" fill="black"/>
<path d="M36.2699 48.5616C36.2428 48.5616 36.2315 48.5524 36.2157 48.5388L36.1773 48.5068L36.1728 48.4567C36.0125 46.1747 35.8906 43.5074 36.2247 41.0271C36.2541 40.7808 36.2924 40.5255 36.3331 40.293C36.3398 40.2679 36.3421 40.2497 36.3444 40.2314C36.3489 40.2086 36.3534 40.1836 36.3579 40.1585L36.4414 39.6661C36.4821 39.4404 36.5227 39.217 36.5678 38.9981C36.6288 38.6858 36.6965 38.3871 36.7755 38.0589C36.7755 38.0589 36.7755 38.0361 36.7891 38.0087C36.841 37.7898 36.8974 37.571 36.9539 37.359C37.1299 36.6887 37.3263 36.0436 37.5431 35.444C37.6176 35.2206 37.7033 34.9903 37.7914 34.7624C37.8704 34.5504 37.9562 34.3383 38.0555 34.1127C38.1164 33.9576 38.1864 33.8003 38.2677 33.6339L38.279 33.6066C38.3219 33.5154 38.3625 33.4265 38.4031 33.3398C38.4415 33.26 38.4821 33.178 38.5205 33.0982L38.5905 32.9568C39.805 30.5814 41.2294 29.2682 42.6042 29.2568H42.6065C43.6991 29.2568 44.6562 30.0616 45.3764 31.5844C46.0852 33.0526 46.5322 35.1157 46.6699 37.5528L46.6744 37.6371L46.5389 37.6873L41.3559 39.2785L46.6541 41.1388L46.6473 41.2254C46.6202 41.6129 46.5886 42.0096 46.548 42.4086C46.338 44.4854 45.9588 46.4437 45.4192 48.2242L45.3899 48.3222L45.2883 48.3017C44.5727 48.1535 43.8413 48.0463 43.1099 47.9848C41.2791 47.8161 39.4506 47.8959 37.8185 48.215H37.8027L37.7959 48.2173C37.6356 48.2492 36.9539 48.4088 36.5814 48.4954C36.3827 48.541 36.3037 48.5593 36.2631 48.5593L36.2699 48.5616ZM42.611 29.4871C41.3243 29.4985 39.9698 30.7683 38.7982 33.0617L38.7282 33.203C38.6898 33.2828 38.6492 33.3626 38.6108 33.4424C38.5702 33.5268 38.5273 33.6157 38.4867 33.7069L38.4731 33.7342C38.3941 33.8961 38.3264 34.0488 38.2654 34.2016C38.1661 34.4273 38.0803 34.6347 38.0036 34.8444C37.9155 35.0701 37.832 35.2958 37.7575 35.5192C37.5431 36.1165 37.3467 36.7549 37.1751 37.4183C37.1187 37.6325 37.06 37.8537 37.008 38.0748L36.9945 38.1067C36.92 38.4396 36.8523 38.7337 36.7913 39.0437C36.7462 39.2603 36.7055 39.4837 36.6672 39.7071L36.5814 40.2041C36.5746 40.2314 36.5724 40.2497 36.5678 40.2702C36.5633 40.293 36.5611 40.3158 36.5543 40.3386C36.5159 40.562 36.4775 40.8128 36.4482 41.0567C36.1231 43.4709 36.2315 46.0698 36.3872 48.3085C36.4279 48.2994 36.4798 48.288 36.5362 48.2743C36.9494 48.1786 37.6424 48.0167 37.7756 47.9916H37.7914L37.7959 47.9893C39.4461 47.6679 41.2904 47.5881 43.1347 47.7591C43.839 47.8206 44.5456 47.9209 45.2364 48.06C45.7556 46.3183 46.1213 44.4125 46.3267 42.3881C46.3629 42.021 46.3945 41.6563 46.4193 41.2983L40.629 39.2671L46.4419 37.4844C46.2996 35.1157 45.8617 33.1119 45.1754 31.687C44.496 30.2485 43.6088 29.4871 42.611 29.4871Z" fill="black"/>
<path d="M56.9894 45.8799L56.6576 48.2417C56.6576 48.2417 53.0727 46.1193 52.7838 47.9385C52.4948 49.7577 56.346 50.8998 56.346 50.8998" fill="#FF9F00"/>
<path d="M56.3432 51.013C56.3432 51.013 56.3229 51.013 56.3116 51.0085C56.1513 50.9606 52.3678 49.8162 52.6681 47.9217C52.7223 47.5752 52.8916 47.3335 53.167 47.2013C54.097 46.7591 56.0159 47.7553 56.5644 48.0608L56.8737 45.8631C56.8827 45.8016 56.9414 45.756 57.0024 45.7674C57.0633 45.7765 57.1062 45.8335 57.0972 45.8973L56.7405 48.4278L56.596 48.3412C56.5712 48.3275 54.2235 46.9506 53.264 47.4088C53.0564 47.5068 52.9345 47.6869 52.8916 47.9582C52.6207 49.6589 56.3364 50.7805 56.3748 50.7919C56.4335 50.8101 56.4696 50.874 56.4515 50.9332C56.438 50.9834 56.3928 51.0153 56.3432 51.0153V51.013Z" fill="black"/>
<path d="M59.6764 52.8934C59.6764 52.8934 58.8614 68.2132 53.4842 67.543C47.3643 66.7792 50.6195 51.7627 50.6195 51.7627C51.3555 52.2711 52.9108 53.1989 55.1028 53.452C57.1932 53.6936 58.8479 53.2035 59.6764 52.8934Z" fill="white"/>
<path d="M53.8226 67.6772C53.7075 67.6772 53.5901 67.6704 53.4704 67.6544C52.4704 67.529 51.6509 67.0229 51.0369 66.1475C49.8766 64.4924 49.4364 61.5607 49.7254 57.4367C49.9421 54.375 50.5019 51.7625 50.5087 51.7374L50.5448 51.5732L50.6825 51.669C51.6013 52.3028 53.116 53.1098 55.1138 53.34C56.6354 53.5156 58.1975 53.3241 59.6355 52.7883L59.7958 52.7291L59.7867 52.9023C59.7619 53.356 59.1569 64.0205 55.694 66.9477C55.1184 67.4356 54.4885 67.6795 53.8203 67.6795L53.8226 67.6772ZM50.696 51.9494C50.4252 53.2922 48.7118 62.4339 51.222 66.0153C51.7977 66.836 52.5629 67.3102 53.4975 67.4265C54.2334 67.5176 54.9242 67.2965 55.5518 66.7676C58.7032 64.1026 59.4594 54.4685 59.552 53.0573C58.1253 53.5612 56.5857 53.7367 55.089 53.5634C53.1431 53.3377 51.6464 52.5809 50.696 51.9494Z" fill="black"/>
<path d="M55.2633 67.2035L55.1504 67.1967L55.0398 67.1716L56.6787 53.4818C56.6855 53.4203 56.7464 53.3747 56.8051 53.3815C56.8661 53.3884 56.9112 53.4454 56.9044 53.5092L55.2655 67.2035H55.2633Z" fill="black"/>
<path d="M51.8877 67.0012C51.8877 67.0012 51.8787 67.0012 51.8742 67.0012C51.8132 66.9943 51.7681 66.9373 51.7748 66.8758L53.3189 53.1039C53.3257 53.0401 53.3821 52.9968 53.4431 53.0036C53.504 53.0105 53.5492 53.0675 53.5424 53.129L51.9983 66.9008C51.9916 66.9601 51.9419 67.0012 51.8855 67.0012H51.8877Z" fill="black"/>
<path d="M58.5588 60.7502C58.5588 60.7502 58.5497 60.7502 58.5452 60.7502L49.7435 59.6468C49.6825 59.6399 49.6374 59.5829 49.6464 59.5191C49.6532 59.4576 49.7141 59.412 49.7728 59.4211L58.5746 60.5245C58.6355 60.5313 58.6807 60.5883 58.6716 60.6521C58.6649 60.7091 58.6152 60.7524 58.5588 60.7524V60.7502Z" fill="black"/>
</g>
<defs>
<clipPath id="clip0_76_2435">
<rect width="97.4783" height="116.717" fill="white" transform="translate(0.348389 0.0976562)"/>
</clipPath>
</defs>
</svg>
