<svg width="130" height="130" viewBox="0 0 130 130" fill="none" xmlns="http://www.w3.org/2000/svg">
<rect x="2" y="2" width="126" height="126" rx="63" stroke="#084C3B" stroke-width="4"/>
<mask id="mask0_111_641" style="mask-type:luminance" maskUnits="userSpaceOnUse" x="24" y="33" width="83" height="66">
<path d="M24.291 33.0781H106.166V98.454H24.291V33.0781Z" fill="white"/>
</mask>
<g mask="url(#mask0_111_641)">
<path d="M35.1044 71.8864C35.4024 67.4355 39.7008 62.3836 45.1937 61.7101C45.7098 61.6446 46.2284 61.6131 46.7323 61.6131C50.2941 61.6131 54.1879 63.2898 54.4326 67.9903C54.5804 70.8276 53.2308 74.1083 50.912 76.5506C48.4842 79.1068 45.327 80.4612 41.993 80.3328C39.8946 80.2529 38.1574 79.5187 36.9652 78.2127C35.6059 76.7202 34.9299 74.5299 35.1044 71.8864ZM52.6275 78.1788C55.4188 75.2374 56.9768 71.3825 56.795 67.8668C56.5237 62.6308 51.3918 58.5966 44.9054 59.3598C38.0871 60.1642 33.3526 65.989 32.7444 71.758C32.3979 75.0363 33.4204 77.8348 35.2183 79.807C36.8465 81.5927 38.7583 82.5038 41.9057 82.6952C45.9376 82.9423 49.8556 81.0985 52.6275 78.1788ZM99.5706 81.3044C96.4038 84.3888 89.6993 86.2593 83.7509 85.9395C77.5359 85.6051 73.2738 82.5837 70.107 79.4896C70.5044 76.7032 70.2524 74.2367 70.0295 72.1408C69.9059 70.9948 69.8017 70.0038 69.8211 69.1388C69.8865 66.522 71.0447 62.9288 72.1641 59.4543C73.2666 56.0258 74.2382 52.7888 74.3545 50.3949C74.6525 44.2382 70.1821 40.5844 65.5493 40.7492C63.4825 40.8219 61.7307 41.4567 59.6178 42.6124C60.1339 39.7025 61.297 37.1923 64.2724 35.9299C65.0308 35.6077 65.8522 35.4429 66.7124 35.4429C71.8903 35.4429 77.8315 41.3501 81.0977 44.4442C83.6564 46.8671 86.971 48.5462 88.5508 49.244C92.5027 50.991 96.5903 52.796 100.644 58.8607C104.826 65.1167 105.393 75.6299 99.5706 81.3044ZM67.6767 72.3928C68.1274 76.6427 68.6895 81.932 63.5067 88.4836C59.7414 93.2447 53.4247 96.0868 46.6088 96.0868C40.9995 96.0868 36.1632 94.1993 32.9891 90.9477C35.6011 92.1447 38.3342 92.7601 41.1546 92.7601C49.1941 92.7601 55.9882 87.9554 59.6663 83.4633C63.2863 79.0365 64.1876 73.4177 64.9848 68.4604C65.4548 65.5214 65.9007 62.7471 66.8408 60.4986C68.9028 55.5606 70.8339 49.7989 70.6982 45.8252C71.4687 47.0101 72.0236 48.585 71.9897 50.3489C71.9509 52.3987 70.9599 55.4734 69.9107 58.7274C68.7404 62.3643 67.5313 66.1222 67.4587 69.0807C67.432 70.1007 67.5507 71.2129 67.6767 72.3928ZM31.2421 87.2842C29.0493 85.8281 27.3678 82.7533 26.8517 79.257C26.447 76.5264 26.4058 71.1789 30.6509 66.0544C33.2508 62.9118 36.3861 61.1843 39.7081 59.355C41.598 58.3131 43.5534 57.2349 45.4191 55.8732C47.452 54.3855 49.3952 52.8736 51.273 51.4101C56.9865 46.9592 61.9221 43.1624 65.5493 43.114C69.9883 43.0558 68.1177 51.3011 64.6577 59.5851C63.6109 62.0953 63.1433 65.0053 62.649 68.0848C61.864 72.9743 61.0498 78.0334 57.8345 81.9635C54.6531 85.8523 48.3751 90.3953 41.1546 90.3953C37.6873 90.3953 34.3533 89.3462 31.2421 87.2842ZM102.611 57.545C98.1774 50.9086 93.5713 48.8733 89.5079 47.0779C87.9354 46.3849 85.43 45.1928 82.7526 42.7529C78.9243 39.2687 72.8547 33.0781 66.7124 33.0781C65.5348 33.0781 64.4008 33.3035 63.3468 33.7517C58.6583 35.7434 57.4493 40.0029 57.0228 44.1922C54.7646 45.6944 52.3658 47.5601 49.8192 49.5445C47.956 50.9958 46.0297 52.498 44.0234 53.9615C42.2789 55.2384 40.3914 56.2754 38.5668 57.2833C35.1989 59.1393 31.717 61.0583 28.8288 64.5449C25.3009 68.8044 23.663 74.3021 24.511 79.6011C25.8291 87.8367 29.9046 91.2167 31.4238 92.7407C35.0341 96.3582 40.4156 98.454 46.6088 98.454C54.1419 98.454 61.1516 95.2751 65.3628 89.9519C67.5653 87.1655 68.8325 84.5609 69.5352 82.1573C72.8644 85.0842 77.3445 87.6186 83.494 88.2898C84.4826 88.3988 85.4809 88.4545 86.4671 88.4545C92.3719 88.4545 97.6104 86.5162 101.221 82.9981C108.102 76.2889 107.302 64.5643 102.611 57.545Z" fill="#084C3B"/>
</g>
</svg>
