<svg width="130" height="130" viewBox="0 0 130 130" fill="none" xmlns="http://www.w3.org/2000/svg">
<rect x="2" y="2" width="126" height="126" rx="63" stroke="#084C3B" stroke-width="4"/>
<path d="M64.7522 88.3224C62.3672 88.2144 59.9648 88.1063 57.5799 87.919C56.1725 87.8109 54.7498 87.6566 53.3424 87.4869C52.9911 87.456 52.6398 87.3943 52.2885 87.3634C52.1969 87.348 52.0878 87.348 52.0114 87.3326C51.9045 87.3171 52.0267 87.3326 52.042 87.3326C52.0114 87.3326 51.9503 87.3171 51.9198 87.3171C51.7212 87.3017 51.5379 87.2554 51.3546 87.2246C50.6367 87.1165 49.9014 87.0085 49.1835 86.8542C46.384 86.3296 43.5998 85.6484 40.9224 84.5506C40.7697 84.4889 40.6169 84.4271 40.4642 84.3654C40.4184 84.35 40.2504 84.2728 40.3878 84.35C40.2962 84.3191 40.2045 84.2728 40.1282 84.2265C39.8532 84.1031 39.5478 83.9488 39.2554 83.7945C38.6902 83.5013 38.1251 83.1772 37.573 82.8355C37.3287 82.6658 37.0843 82.496 36.8246 82.3417C36.7024 82.2491 36.5955 82.172 36.4733 82.0794C36.3969 82.0177 36.3511 81.9868 36.29 81.9251C36.4275 82.0331 36.29 81.9251 36.2442 81.8942C35.7991 81.5239 35.3714 81.1205 35.0048 80.6884C34.8063 80.4724 34.6382 80.2409 34.4528 80.0249C34.4222 79.994 34.5466 80.1483 34.4375 80.0094C34.4069 79.9477 34.3458 79.886 34.3153 79.8221C34.2389 79.714 34.1778 79.606 34.0862 79.4671C33.9487 79.2202 33.8113 78.9888 33.6738 78.7264C33.628 78.603 33.5516 78.4795 33.4905 78.3561C33.4752 78.3252 33.3989 78.1379 33.46 78.2635C33.5058 78.387 33.4294 78.1533 33.4141 78.107C33.3072 77.8138 33.2156 77.5206 33.1545 77.1966C33.1239 77.0268 33.0781 76.8416 33.0476 76.6719C33.0323 76.5771 33.0323 76.5 33.017 76.4074C33.0323 76.5771 33.017 76.4074 33.017 76.3919C33.017 76.3302 33.0017 76.2685 33.0017 76.2068C32.8926 75.1575 32.8163 74.0751 32.801 73.0081C32.7552 69.2077 33.5516 65.5307 34.9437 61.9903C34.8979 62.116 34.9895 61.8823 34.9895 61.836C35.0201 61.7589 35.0659 61.6663 35.0965 61.5891C35.1728 61.404 35.2492 61.2188 35.3256 61.0336C35.463 60.6941 35.6311 60.3679 35.7838 60.0592C36.0435 59.4883 36.3511 58.9328 36.6566 58.3905C37.0843 57.6189 37.5578 56.8606 38.0334 56.1199C40.0824 53.0293 42.7444 50.3244 45.6487 48.2699C46.7964 47.4498 48.0052 46.7092 49.2446 46.061C49.7334 45.7965 50.2374 45.565 50.7284 45.3182C50.8353 45.2564 50.9422 45.2256 51.0491 45.1638C51.0797 45.1484 51.2477 45.0713 51.1255 45.133C50.988 45.1947 51.1713 45.1175 51.2324 45.1021C51.4157 45.025 51.599 44.9478 51.7823 44.8552C55.2233 43.4334 58.7887 42.6442 62.4436 42.5053C64.1412 42.4281 65.8388 42.4899 67.5364 42.5361C69.3868 42.5979 71.2524 42.6596 73.1049 42.8778C77.1875 43.3408 81.2264 44.67 84.7896 46.9561C87.7418 48.8408 90.3101 51.2834 92.4681 54.1425C92.5139 54.2197 92.575 54.266 92.6055 54.3431C92.6361 54.374 92.743 54.5437 92.6514 54.4203C92.7583 54.5746 92.8652 54.7135 92.9721 54.8678C93.1707 55.1455 93.354 55.4233 93.5525 55.7033C93.8907 56.1971 94.2115 56.7063 94.5017 57.2001C95.2807 58.4522 96.0007 59.7506 96.6423 61.0953C97.5303 62.9647 98.2177 64.9112 98.7086 66.9525C99.1974 69.0071 99.5945 71.1388 99.5792 73.2396C99.564 75.3581 98.9072 77.4435 97.6373 79.0351C97.1943 79.5906 96.6881 80.102 96.1382 80.5649C96.0466 80.6421 95.9549 80.7193 95.8786 80.781C95.9855 80.6884 95.8327 80.8118 95.7869 80.8427C95.6953 80.9199 95.6036 80.9662 95.5273 81.0433C95.2196 81.2593 94.9294 81.493 94.6086 81.7091C92.0077 83.5013 89.3936 84.6123 86.4414 85.5558C83.5349 86.4839 80.5521 87.132 77.5235 87.5795C77.4318 87.5949 77.3707 87.5949 77.2791 87.6103C77.2485 87.6103 77.0347 87.6412 77.1264 87.6258C77.218 87.6103 76.9736 87.6412 76.9278 87.6412C76.8361 87.6566 76.7445 87.6566 76.6529 87.6721C76.3016 87.7338 75.9481 87.7647 75.5968 87.7955C74.9247 87.8727 74.2657 87.952 73.5937 87.9983C72.3848 88.1063 71.2066 88.1835 69.9999 88.2452C68.4398 88.3224 66.8949 88.3532 65.35 88.3224C65.182 88.3532 64.9682 88.3532 64.7522 88.3224C64.2787 88.3069 63.8663 88.7699 63.8663 89.2482C63.8663 89.7751 64.2787 90.1609 64.7522 90.1763C65.6402 90.2072 66.5261 90.2072 67.4295 90.1917C69.6617 90.1609 71.8961 90.0374 74.1283 89.8214C77.1111 89.526 80.1092 89.0785 83.0461 88.3995C86.1817 87.6721 89.2562 86.6845 92.1473 85.2472C94.8683 83.9179 97.6831 82.1566 99.4876 79.5597C100.834 77.6132 101.43 75.2346 101.399 72.8384C101.368 70.6295 100.956 68.3568 100.422 66.2251C99.5181 62.6098 97.9427 59.2723 96.0007 56.1353C94.3795 53.5076 92.4833 51.0519 90.2795 48.9334C87.1134 45.9376 83.3669 43.6185 79.2822 42.2893C75.444 41.0371 71.4379 40.8057 67.46 40.6822C63.6524 40.5588 59.8732 40.6051 56.142 41.4868C53.4188 42.1349 50.7437 43.171 48.2496 44.5003C45.4043 46.0148 42.7597 47.9767 40.4489 50.309C38.3389 52.4583 36.5497 54.9141 35.0812 57.5881C33.5058 60.4781 32.3122 63.5974 31.6707 66.8114C31.2408 68.9299 31.027 71.077 31.0576 73.2396C31.0728 74.3065 31.1645 75.3735 31.2714 76.4382C31.3652 77.212 31.5027 77.9527 31.7623 78.6802C32.6788 81.105 34.468 82.959 36.5497 84.35C38.9041 85.9107 41.5661 86.8851 44.2434 87.6258C47.1783 88.4458 50.2069 88.9396 53.2202 89.3254C55.9587 89.6671 58.7124 89.8831 61.4639 90.0374C62.5658 90.0992 63.6524 90.1454 64.7522 90.1917C65.2278 90.2072 65.6402 89.7442 65.6402 89.2637C65.6402 88.739 65.2278 88.3532 64.7522 88.3224Z" fill="#084C3B"/>
<path d="M46.7785 47.3418C47.7124 47.3264 48.6594 47.3418 49.5933 47.419C50.1737 47.4498 50.741 47.5116 51.3215 47.5909C51.4742 47.6064 51.6422 47.6218 51.7797 47.6526C51.8713 47.6681 52.0852 47.6526 51.8255 47.6526C51.9171 47.6526 52.0241 47.6681 52.0852 47.6835C52.4234 47.7452 52.7441 47.7915 53.0802 47.8533C54.5639 48.131 56.0324 48.5014 57.4704 48.9643C58.2799 49.2288 59.0763 49.522 59.8553 49.8461C60.0539 49.9232 60.2241 50.0158 60.4226 50.093C60.5754 50.1701 60.4684 50.1084 60.4379 50.093C60.4837 50.1084 60.5448 50.1238 60.5906 50.1701C60.7128 50.2318 60.835 50.2781 60.9572 50.3399C61.3696 50.525 61.7689 50.7256 62.1813 50.9593C63.6651 51.7309 65.1183 52.6281 66.4777 53.6311C66.8006 53.878 67.1214 54.0962 67.4269 54.3586C67.5032 54.4203 67.5491 54.4666 67.6254 54.5129C67.656 54.5437 67.7018 54.5746 67.7324 54.6055C67.7476 54.6209 67.8698 54.7135 67.7782 54.6363C67.6865 54.5592 67.7935 54.6517 67.824 54.6672C67.8545 54.698 67.9004 54.7289 67.9309 54.7598C68.0226 54.8369 68.0837 54.8832 68.1775 54.9604C68.7274 55.4233 69.2772 55.9039 69.7834 56.3977C70.761 57.3412 71.6949 58.3288 72.5502 59.3803C72.9343 59.8432 73.3161 60.3216 73.6827 60.8021C73.7132 60.8639 73.7743 60.9102 73.8049 60.9719C73.8965 61.0953 73.7743 60.941 73.7743 60.9102C73.7896 60.941 73.8049 60.9719 73.8507 61.0027C73.9424 61.1262 74.034 61.2496 74.1104 61.3731C74.2631 61.5891 74.4311 61.8206 74.5861 62.0521C75.5636 63.4739 76.4364 64.9729 77.2001 66.5491C77.2765 66.6726 77.3223 66.8114 77.3987 66.9371C77.6125 67.3692 78.2256 67.5235 78.6075 67.2766C79.0352 66.9988 79.1421 66.472 78.9283 66.0245C78.2256 64.5409 77.4292 63.119 76.528 61.7434C75.1359 59.5963 73.5452 57.6035 71.756 55.7959C69.5063 53.5385 66.9839 51.5766 64.2455 50.0158C61.2169 48.3008 57.9286 47.0332 54.5639 46.3079C52.1943 45.8119 49.7766 45.5342 47.3458 45.5342C47.1451 45.5342 46.9618 45.5342 46.7632 45.5342C46.305 45.5342 45.8621 45.9685 45.8773 46.4622C45.9232 46.9098 46.2745 47.3418 46.7785 47.3418Z" fill="#084C3B"/>
<path d="M54.2174 66.7807C54.9964 65.2663 55.8844 63.8158 56.8467 62.4402C56.9231 62.3322 57.0016 62.2242 57.078 62.1316C57.1086 62.0676 57.1544 62.0214 57.2002 61.9596C57.2155 61.9288 57.246 61.8825 57.2766 61.867C57.3529 61.7745 57.1544 62.0368 57.246 61.8979C57.4293 61.651 57.6126 61.4195 57.7959 61.1726C58.1777 60.6788 58.5923 60.1674 59.02 59.6891C59.9517 58.6221 60.9467 57.6037 61.9875 56.6602C62.2777 56.3978 62.5527 56.1664 62.8276 55.9195C62.9651 55.8114 63.1025 55.6726 63.24 55.5623C63.2705 55.5315 63.3164 55.5006 63.3491 55.4698C63.1942 55.5778 63.3011 55.5006 63.3316 55.4852C63.4255 55.408 63.5171 55.3309 63.5935 55.2692C64.235 54.7754 64.8765 54.297 65.5507 53.8319C67.0498 52.8134 68.6252 51.9316 70.277 51.1755C70.3839 51.1138 70.4908 51.0829 70.5977 51.0212C70.6283 51.0058 70.8116 50.9286 70.6436 51.0058C70.6894 50.9903 70.7505 50.9749 70.7963 50.9286C71.0254 50.836 71.2545 50.7258 71.4858 50.6332C71.9135 50.4635 72.3564 50.2937 72.7688 50.1394C73.5958 49.8462 74.4512 49.5839 75.2934 49.3679C76.103 49.1518 76.9299 48.9645 77.7722 48.8101C78.1388 48.733 78.5359 48.6867 78.9177 48.625C79.0094 48.6095 79.101 48.5941 79.1774 48.5941C78.933 48.6095 79.208 48.5941 79.269 48.5787C79.4698 48.5632 79.6531 48.517 79.8516 48.5015C82.1297 48.2392 84.4557 48.2083 86.7337 48.4244C86.917 48.4398 87.085 48.4552 87.2683 48.4861C87.7287 48.5478 88.1717 48.0232 88.1564 47.5602C88.1411 47.0179 87.7745 46.6939 87.2683 46.6322C85.1277 46.3853 82.9566 46.3698 80.8139 46.555C77.4187 46.8482 74.0388 47.622 70.8574 48.9182C67.5233 50.2937 64.403 52.1785 61.5882 54.5439C59.4782 56.3207 57.5973 58.3598 55.9303 60.5863C54.7978 62.1161 53.7592 63.7386 52.8558 65.4382C52.7794 65.5617 52.7183 65.7006 52.6572 65.824C52.4434 66.2561 52.5351 66.8425 52.978 67.0761C53.4057 67.3385 53.973 67.2304 54.2174 66.7807Z" fill="#084C3B"/>
<mask id="mask0_111_459" style="mask-type:luminance" maskUnits="userSpaceOnUse" x="42" y="40" width="26" height="22">
<path d="M42.627 40.4443H67.2051V61.1947H42.627V40.4443Z" fill="white"/>
</mask>
<g mask="url(#mask0_111_459)">
<path d="M44.8979 60.3521C45.2644 59.7657 45.6616 59.1947 46.0609 58.6062C46.2747 58.2975 46.5038 57.9889 46.7177 57.6957C46.794 57.5877 46.5802 57.8809 46.7024 57.7112C46.7177 57.6803 46.7482 57.6494 46.7788 57.6186C46.8246 57.5414 46.901 57.4488 46.9621 57.3717C47.0842 57.1997 47.2064 57.03 47.3308 56.8757C48.4458 55.4538 49.6241 54.0804 50.8788 52.782C51.5966 52.0391 52.332 51.3447 53.111 50.6481C53.4928 50.2932 53.9074 49.9383 54.2892 49.6142C54.3809 49.5371 54.4878 49.4445 54.5795 49.3674C54.6253 49.3365 54.6864 49.2748 54.7322 49.2439C54.7627 49.2285 54.9155 49.0874 54.778 49.213C54.9919 49.0257 55.221 48.8559 55.437 48.6862C57.1804 47.3415 59.0308 46.0916 60.9269 45.0246C61.8608 44.4845 62.8078 44.0039 63.7723 43.541C64.0014 43.433 64.2152 43.3404 64.4443 43.2324C64.5665 43.1707 64.6887 43.1244 64.7956 43.0627C64.8262 43.0472 64.872 43.0318 64.9178 43.0009C64.704 43.0935 64.9178 43.0009 64.9658 42.9855C65.3935 42.8003 65.8059 42.6129 66.2336 42.4432C66.6634 42.2735 67.0147 41.8105 66.8467 41.3013C66.7092 40.8516 66.2336 40.4658 65.7448 40.651C61.9983 42.15 58.4023 44.1274 55.1293 46.5699C51.8716 49.0102 48.9193 51.8694 46.3664 55.0835C45.2644 56.459 44.2411 57.8963 43.2919 59.3799C43.0323 59.7811 43.2003 60.4138 43.6127 60.632C44.1494 60.9407 44.6229 60.7864 44.8979 60.3521Z" fill="#084C3B"/>
</g>
<mask id="mask1_111_459" style="mask-type:luminance" maskUnits="userSpaceOnUse" x="64" y="40" width="25" height="22">
<path d="M64.9707 40.4443H88.4317V61.1947H64.9707V40.4443Z" fill="white"/>
</mask>
<g mask="url(#mask1_111_459)">
<path d="M88.2738 59.3014C86.4846 56.5194 84.4509 53.9071 82.1707 51.544C79.1879 48.4379 75.7927 45.7485 72.1226 43.6014C70.2417 42.4881 68.2844 41.5314 66.2792 40.6959C65.8515 40.5107 65.2863 40.8965 65.1794 41.3462C65.0572 41.8863 65.3322 42.2875 65.7904 42.4881C65.9889 42.5653 66.157 42.6424 66.3555 42.7372C66.4472 42.7681 66.541 42.8144 66.6174 42.8452C66.8159 42.9378 66.493 42.7835 66.6174 42.8452C66.6937 42.8761 66.7548 42.907 66.8312 42.9378C67.2436 43.123 67.6255 43.3082 68.0073 43.4934C68.8801 43.9254 69.7376 44.3597 70.593 44.8381C72.4739 45.9028 74.2937 47.1086 76.0066 48.4533C76.2226 48.6231 76.4211 48.762 76.6197 48.9317C76.6503 48.9626 76.7113 49.0089 76.7419 49.0397C76.6197 48.9317 76.7572 49.0552 76.7724 49.0706C76.8946 49.1654 77.0016 49.258 77.1085 49.3505C77.4903 49.6592 77.8896 49.9987 78.2562 50.3227C79.0046 50.9884 79.7094 51.652 80.412 52.3618C81.6514 53.6139 82.8297 54.9586 83.9294 56.3496C84.2066 56.7046 84.4815 57.0595 84.7411 57.4012C84.7717 57.4629 84.8175 57.4938 84.8481 57.5555C85.0008 57.7252 84.8786 57.6172 84.8481 57.5555C84.9244 57.6326 84.9703 57.7252 85.0314 57.8024C85.1535 57.9721 85.2757 58.1419 85.3979 58.327C85.8431 58.9619 86.286 59.61 86.6831 60.2581C86.9428 60.6615 87.4796 60.8776 87.892 60.5998C88.3349 60.3044 88.5488 59.7335 88.2738 59.3014Z" fill="#084C3B"/>
</g>
<path d="M19.5 20.2227L36.8333 40.4449" stroke="#084C3B" stroke-width="4" stroke-linecap="round"/>
<path d="M84.5 98.2227L101.833 118.445" stroke="#084C3B" stroke-width="4" stroke-linecap="round"/>
</svg>
