<svg width="116" height="116" viewBox="0 0 116 116" fill="none" xmlns="http://www.w3.org/2000/svg">
<g clip-path="url(#clip0_76_1976)">
<path d="M115.553 99.9782H0.525734C0.462651 99.9782 0.413086 99.9288 0.413086 99.8658C0.413086 99.8029 0.462651 99.7534 0.525734 99.7534H115.553C115.616 99.7534 115.665 99.8029 115.665 99.8658C115.665 99.9288 115.616 99.9782 115.553 99.9782Z" fill="black"/>
<path d="M12.9943 34.3608C8.42754 35.8402 7.98145 36.5214 8.13691 41.7891C6.64995 36.7327 6.01462 36.2246 1.21582 36.2359C5.78257 34.7565 6.22865 34.0753 6.0732 28.8076C7.56015 33.864 8.19548 34.3721 12.9965 34.3608H12.9943Z" fill="#FFE12B"/>
<path d="M8.27428 42.6572L8.02871 41.8208C6.56654 36.8522 5.98978 36.3463 1.36896 36.3463C1.31715 36.3463 1.26758 36.3463 1.21351 36.3463H0.49707L1.17972 36.126C5.71041 34.6578 6.11369 34.0418 5.96049 28.8079L5.93571 27.9355L6.18128 28.7719C7.65922 33.7945 8.22697 34.2487 12.9942 34.2442H13.7107L13.028 34.4645C8.49732 35.9326 8.09404 36.5486 8.24724 41.7826L8.27203 42.6549L8.27428 42.6572ZM1.90292 36.126C5.90417 36.1732 6.72425 36.8117 8.00392 40.9597C7.93408 36.6183 8.51535 35.7573 12.3048 34.4712C8.30357 34.424 7.48349 33.7855 6.20381 29.6375C6.27365 33.9789 5.69239 34.84 1.90292 36.126Z" fill="black"/>
<path d="M107.079 8.09174C102.284 8.35929 101.681 8.90337 100.489 14.0361C100.338 8.76847 99.8535 8.11423 95.2079 6.90241C100.002 6.63487 100.606 6.09079 101.798 0.958008C101.949 6.22569 102.433 6.87993 107.079 8.09174Z" fill="#FFE12B"/>
<path d="M100.401 14.9128L100.376 14.0405C100.228 8.80656 99.7906 8.21527 95.1811 7.01245L94.4872 6.83034L95.2036 6.78987C99.9596 6.52457 100.505 6.03221 101.69 0.930898L101.888 0.0810547L101.913 0.95338C102.062 6.18734 102.501 6.77863 107.108 7.98145L107.802 8.16356L107.086 8.20403C102.33 8.46932 101.785 8.96169 100.599 14.063L100.401 14.9128ZM95.9043 6.97198C99.7614 8.03541 100.392 8.86277 100.575 13.1997C101.613 8.98417 102.395 8.3007 106.385 8.02192C102.528 6.95849 101.897 6.13113 101.715 1.79423C100.678 6.00972 99.8965 6.69319 95.9043 6.97198Z" fill="black"/>
<path d="M24.2777 7.07836C20.8262 8.19575 20.4905 8.7106 20.6054 12.6923C19.4812 8.87248 19.0013 8.48578 15.374 8.49477C18.8256 7.37738 19.1612 6.86253 19.0463 2.88086C20.1706 6.70066 20.6504 7.08736 24.2777 7.07836Z" fill="#FFE12B"/>
<path d="M20.7425 13.562L20.4969 12.7257C19.3862 8.94634 18.9536 8.60235 15.3737 8.6091H14.6572L15.3399 8.38877C18.7463 7.28487 19.0482 6.82173 18.9333 2.88502L18.9086 2.0127L19.1541 2.84905C20.2648 6.62838 20.6952 6.97236 24.2774 6.96562H24.9938L24.3111 7.18595C20.9047 8.28984 20.6028 8.75299 20.7177 12.6897L20.7425 13.562ZM16.0541 8.38652C18.9018 8.43598 19.5529 8.93959 20.4766 11.8758C20.4451 8.79795 20.9069 8.11898 23.5992 7.1882C20.7515 7.13873 20.1004 6.63512 19.1767 3.69889C19.2082 6.77676 18.7463 7.45574 16.0541 8.38652Z" fill="black"/>
<path d="M115.126 33.7349C112.006 33.9418 111.618 34.3015 110.877 37.6536C110.742 34.225 110.422 33.8024 107.39 33.0447C110.51 32.8379 110.898 32.4781 111.639 29.126C111.774 32.5546 112.094 32.9772 115.126 33.7349Z" fill="#FFE12B"/>
<path d="M110.797 38.5307L110.763 37.6584C110.63 34.277 110.344 33.8993 107.361 33.1551L106.665 32.982L107.381 32.9348C110.45 32.7302 110.799 32.4087 111.527 29.106L111.714 28.2539L111.748 29.1262C111.881 32.5076 112.167 32.8853 115.15 33.6295L115.846 33.8026L115.129 33.8498C112.061 34.0544 111.712 34.3759 110.982 37.6786L110.795 38.5307H110.797ZM108.062 33.1057C110.315 33.7307 110.786 34.3287 110.948 36.8445C111.552 34.3984 112.122 33.8925 114.451 33.6767C112.198 33.0517 111.727 32.4537 111.565 29.9379C110.961 32.384 110.391 32.8898 108.064 33.1057H108.062Z" fill="black"/>
<path d="M94.225 73.418C94.225 83.6656 91.0348 92.9801 85.8305 99.8665H41.6139C36.4141 92.9801 33.2217 83.6656 33.2217 73.418C33.2217 72.15 33.269 70.8954 33.3659 69.6589C34.8686 50.2182 47.8862 35.0244 63.7222 35.0244C79.5583 35.0244 92.6209 50.2676 94.0876 69.7511C94.1777 70.9561 94.225 72.1814 94.225 73.4157V73.418Z" fill="#AB80DF"/>
<path d="M85.8901 99.9788H41.5609L41.5271 99.9338C36.102 92.7484 33.1123 83.3304 33.1123 73.4178C33.1123 72.1498 33.1596 70.884 33.2565 69.652C33.9887 60.1845 37.4785 51.4208 43.0861 44.9795C48.7366 38.4888 56.0654 34.9141 63.7255 34.9141C71.3855 34.9141 78.7369 38.5 84.3919 45.011C90.004 51.4725 93.4871 60.2565 94.2035 69.7464C94.2936 70.9515 94.3409 72.1858 94.3409 73.4201C94.3409 83.3349 91.3513 92.7506 85.9239 99.9361L85.8901 99.981V99.9788ZM41.6713 99.754H85.7752C91.153 92.6135 94.1134 83.2629 94.1134 73.4178C94.1134 72.1903 94.0683 70.9582 93.9782 69.7599C93.2663 60.3194 89.8012 51.5804 84.2206 45.1549C78.6085 38.6934 71.3315 35.1366 63.7232 35.1366C56.115 35.1366 48.8605 38.6844 43.2551 45.1257C37.6791 51.531 34.2072 60.2475 33.4795 69.6677C33.3849 70.8953 33.3376 72.1565 33.3376 73.4178C33.3376 83.2629 36.298 92.6135 41.6735 99.754H41.6713Z" fill="black"/>
<path d="M41.7651 36.7027C41.4384 37.249 39.6428 40.1245 35.9862 40.9474C32.6744 41.6938 29.6239 40.3493 27.7922 38.6586C25.5843 36.6195 24.994 33.9485 24.8927 33.3865C24.8431 33.1122 24.8003 32.8356 24.7687 32.5591C24.201 27.7838 26.4179 23.0962 30.2637 20.1712L31.2483 19.4225C31.5727 7.31787 36.8536 2.05019 44.4055 0.50788C49.549 -0.542058 54.7511 0.0559786 62.1025 7.91815C62.1025 7.91815 81.3045 -4.18649 89.7643 16.7943C89.7643 16.7943 105.06 15.18 103.922 30.3513C103.78 32.2331 103.392 35.5156 100.759 37.5323C97.9426 39.6883 94.2883 39.0319 93.1235 38.8228C93.1235 38.8228 91.8348 38.5912 86.0627 35.8506L41.7651 36.7004V36.7027Z" fill="white"/>
<path d="M34.1062 41.269C31.4545 41.269 29.1452 40.0594 27.7168 38.7397C25.4684 36.6646 24.8781 33.9307 24.7812 33.4046C24.7316 33.128 24.6888 32.847 24.655 32.5705C24.0986 27.8896 26.2208 23.103 30.1951 20.0814L31.139 19.3642C31.3013 13.6266 32.6102 9.10761 35.0299 5.93532C37.204 3.08452 40.3514 1.22071 44.3842 0.397848C47.455 -0.229418 49.9467 -0.114756 52.4655 0.766563C55.5521 1.84573 58.7107 4.13896 62.124 7.77664C63.0139 7.24381 71.1493 2.57417 78.886 5.06974C83.651 6.6053 87.3346 10.5105 89.8399 16.6775C90.6464 16.6146 96.9457 16.2503 100.875 20.0522C103.31 22.4083 104.374 25.8774 104.036 30.3627C103.858 32.7368 103.333 35.7068 100.828 37.6246C97.9708 39.8121 94.3097 39.1534 93.1044 38.9376C93.1044 38.9376 91.8112 38.706 86.0369 35.9676L41.8293 36.8152C41.2999 37.683 39.4525 40.2843 36.0122 41.0577C35.3633 41.2038 34.7258 41.269 34.1062 41.269ZM47.9979 0.224731C46.8061 0.224731 45.6256 0.373117 44.427 0.618177C35.9288 2.35159 31.655 8.50283 31.3598 19.4249V19.4788L30.3302 20.2612C26.4191 23.2357 24.3306 27.9436 24.8781 32.5457C24.9096 32.8178 24.9524 33.0943 25.002 33.3664C25.0944 33.8812 25.6734 36.5499 27.8678 38.5756C29.5868 40.1629 32.617 41.5905 35.9626 40.8373C39.3894 40.0662 41.1962 37.4335 41.6694 36.6443L41.7009 36.5904L86.0864 35.7405L86.1112 35.7518C91.7796 38.4429 93.1314 38.7127 93.1449 38.715C94.3255 38.9263 97.9144 39.5716 100.69 37.447C103.123 35.5831 103.637 32.6739 103.81 30.3447C104.142 25.9291 103.101 22.5207 100.719 20.2118C96.6145 16.2369 89.8466 16.9001 89.779 16.9068L89.6934 16.9158L89.6619 16.8371C87.1836 10.6904 83.5338 6.80315 78.8184 5.28107C70.7618 2.68433 62.2501 7.95875 62.1645 8.01271L62.0857 8.06217L62.0226 7.99473C56.4623 2.05032 52.1681 0.224731 47.9979 0.224731Z" fill="black"/>
<path d="M41.8356 36.1844C41.4954 37.4569 41.1687 39.179 41.1575 41.2272C41.1462 43.4462 41.5112 45.2966 41.8807 46.6253C50.1197 45.3101 51.6112 43.707 63.5519 44.1994C75.853 44.7075 78.2276 45.0628 85.6624 47.0772C86.1851 45.9103 86.9241 43.8667 86.9714 41.225C87.0164 38.6957 86.4059 36.7015 85.9485 35.5279C82.3686 33.9406 74.7491 31.0696 64.5274 31.0831C53.4631 31.0965 45.3592 34.4802 41.8379 36.1799L41.8356 36.1844Z" fill="white"/>
<path d="M85.7242 47.2141L85.6319 47.1894C78.3796 45.2244 76.0883 44.8332 63.5461 44.3138C55.0615 43.9631 51.8375 44.6781 47.7574 45.5841C46.1263 45.9461 44.2766 46.3575 41.8997 46.7352L41.8006 46.751L41.7735 46.6543C41.2824 44.8849 41.0391 43.0571 41.0481 41.2247C41.0571 39.5138 41.2869 37.8074 41.7307 36.1527L41.7443 36.1032L41.7916 36.0807C46.6061 33.7583 54.4599 30.9861 64.5307 30.9727H64.6028C73.9886 30.9727 81.4166 33.394 85.9991 35.4265L86.0419 35.4444L86.0577 35.4872C86.7764 37.3262 87.1233 39.2575 87.0873 41.227C87.0512 43.2707 86.6074 45.2536 85.7693 47.1242L85.731 47.2119L85.7242 47.2141ZM59.4908 43.9991C60.7029 43.9991 62.0457 44.0283 63.5551 44.0913C75.5521 44.5881 78.0642 44.9096 85.5958 46.9488C86.3956 45.1322 86.8192 43.2099 86.8552 41.2292C86.889 39.3047 86.5533 37.4162 85.8572 35.6176C81.2904 33.5964 73.912 31.202 64.596 31.202H64.5262C54.532 31.2155 46.7301 33.9583 41.9313 36.2651C41.5009 37.8861 41.2779 39.5565 41.2711 41.2292C41.2621 43.0076 41.4942 44.7815 41.9628 46.5014C44.2856 46.1282 46.1015 45.7235 47.7078 45.3683C51.0783 44.6196 53.8674 44.0013 59.4908 44.0013V43.9991Z" fill="black"/>
<path d="M89.7114 22.4751C89.7114 22.4751 89.6912 22.4751 89.6799 22.4706C89.6213 22.4526 89.5853 22.3897 89.6033 22.3312C89.8782 21.4049 90.0178 20.4449 90.0178 19.4782C90.0178 18.5676 89.8962 17.6593 89.6529 16.778C89.6371 16.7173 89.6709 16.6566 89.7317 16.6386C89.7903 16.6229 89.8534 16.6566 89.8714 16.7173C90.1192 17.6166 90.2454 18.5451 90.2454 19.4782C90.2454 20.4652 90.1012 21.4454 89.8196 22.3942C89.8061 22.4436 89.761 22.4751 89.7114 22.4751Z" fill="black"/>
<path d="M65.7245 16.3568C65.6704 16.3568 65.6231 16.3186 65.6141 16.2647C65.4068 15.0798 65.0937 13.9107 64.6791 12.7866C63.8928 10.653 62.888 9.14442 62.0071 7.95059C61.9711 7.90113 61.9801 7.82919 62.0319 7.79321C62.0815 7.75724 62.1513 7.76623 62.1896 7.81794C63.0795 9.02526 64.0956 10.5496 64.8909 12.7102C65.31 13.8455 65.6276 15.0304 65.8372 16.2264C65.8484 16.2871 65.8079 16.3456 65.7448 16.3568C65.738 16.3568 65.7313 16.3568 65.7245 16.3568Z" fill="black"/>
<path d="M35.861 21.7683C35.1536 21.7683 34.0226 21.6087 32.9187 21.0084C32.1391 20.5835 31.5286 20.0641 31.1073 19.4638C31.0712 19.4121 31.0847 19.3424 31.1343 19.3065C31.1861 19.2705 31.256 19.284 31.292 19.3334C31.6953 19.9045 32.2788 20.4014 33.0268 20.8083C34.3245 21.5143 35.656 21.5884 36.2373 21.5232C36.3003 21.5165 36.3544 21.5615 36.3612 21.6222C36.3679 21.6829 36.3251 21.7391 36.262 21.7458C36.1516 21.7593 36.0165 21.7661 35.861 21.7661V21.7683Z" fill="black"/>
<path d="M49.8192 33.2226C49.79 33.2226 49.7584 33.2114 49.7359 33.1866L45.3381 28.4518C45.2953 28.4068 45.2976 28.3349 45.3449 28.2922C45.3899 28.2494 45.462 28.2517 45.5048 28.2989L49.9026 33.0337C49.9454 33.0787 49.9432 33.1506 49.8958 33.1934C49.8733 33.2136 49.8463 33.2226 49.8192 33.2226Z" fill="black"/>
<path d="M53.5089 32.2561C53.5089 32.2561 53.4976 32.2561 53.4931 32.2561C53.4323 32.2471 53.3895 32.1909 53.3962 32.1302L54.4866 24.3962C54.4957 24.3355 54.5497 24.2928 54.6128 24.2995C54.6736 24.3085 54.7164 24.3647 54.7097 24.4254L53.6193 32.1595C53.6102 32.2157 53.5629 32.2561 53.5089 32.2561Z" fill="black"/>
<path d="M71.4633 31.6187C71.4115 31.6187 71.3664 31.5828 71.3529 31.5311L69.4627 23.2574C69.4492 23.1967 69.4875 23.136 69.5483 23.1226C69.6091 23.1068 69.6699 23.1473 69.6835 23.208L71.5737 31.4816C71.5872 31.5423 71.5489 31.603 71.4881 31.6165C71.4791 31.6165 71.4701 31.6187 71.4633 31.6187Z" fill="black"/>
<path d="M75.5343 32.3077C75.5117 32.3077 75.4892 32.3009 75.4689 32.2874C75.4171 32.2515 75.4058 32.1818 75.4419 32.13L78.9858 27.1749C79.0218 27.1232 79.0917 27.1119 79.1435 27.1479C79.1953 27.1839 79.2066 27.2536 79.1705 27.3053L75.6266 32.2604C75.6041 32.2919 75.5703 32.3077 75.5343 32.3077Z" fill="black"/>
<path d="M111.918 59.519C111.891 59.6967 111.857 59.8698 111.828 60.0474C111.828 60.0699 111.823 60.0923 111.817 60.1193C111.632 61.2435 111.474 62.3743 111.316 63.5097C110.789 67.4127 110.361 71.3359 109.498 75.1782C108.764 78.4404 107.574 83.2045 103.499 83.562C99.7655 83.8902 96.3703 80.2503 94.0205 77.8334C94.1557 76.3855 94.2233 74.9106 94.2233 73.42C94.2233 72.2127 94.1782 71.0212 94.0881 69.8408C94.39 70.1691 94.6941 70.4928 95.0028 70.8211C96.1924 72.0846 97.3707 73.3593 98.6008 74.5846C99.2203 75.2007 99.7858 75.8684 100.437 76.4552C100.951 76.9183 101.834 77.721 102.629 77.4916C103.665 77.1949 103.645 75.5851 103.848 74.7735C104.247 73.1368 104.522 71.4618 104.778 69.7958C105.083 67.8578 105.328 65.9153 105.592 63.9796C105.731 62.9049 105.878 61.8258 106.036 60.7556C106.04 60.7219 106.047 60.6881 106.051 60.6612C106.146 59.9867 106.254 59.3189 106.367 58.6512C106.968 55.1214 112.517 55.9735 111.918 59.519Z" fill="black"/>
<path d="M108.335 46.96C107.475 45.6628 106.04 44.9028 104.575 45.0153C104.325 45.0355 102.744 45.1839 101.802 46.5463C101.074 47.6008 100.977 49.0194 101.556 50.0828C101.703 50.3504 102.056 51.0204 102.849 51.2946C103.428 51.4947 104.161 51.4543 105.024 50.9754C105.024 50.9754 106.382 53.8015 103.933 54.757C103.917 54.7637 103.899 54.7525 103.902 54.7345C103.924 54.3208 104.057 50.3594 100.871 50.9911C97.5122 51.6566 99.8079 59.512 104.454 60.589C104.339 60.6182 103.633 60.7913 103.334 61.4433C103.043 62.0751 103.343 62.7091 103.413 62.844C104.102 64.1772 106.754 64.085 107.783 64.049C109.892 63.9748 112.803 63.5994 113.19 62.1493C113.407 61.3399 112.805 60.3551 111.746 60.0966C111.746 60.0966 114.95 58.4666 114.216 53.2439C114.216 53.2439 118.016 44.089 113.359 44.9276C113.29 44.633 113.587 41.9958 111.996 41.7957C110.636 41.6226 109.07 43.5831 108.338 46.96H108.335Z" fill="white"/>
<path d="M107.013 64.1778C105.767 64.1778 103.893 64.0204 103.312 62.8963C103.217 62.7119 102.929 62.0577 103.231 61.3989C103.427 60.974 103.78 60.7357 104.073 60.6053C102.744 60.1894 101.512 59.1934 100.572 57.7635C99.6665 56.3853 99.1393 54.7553 99.1618 53.4019C99.1844 52.008 99.7994 51.0907 100.849 50.8816C101.253 50.8029 101.62 50.7894 101.951 50.8456C101.699 50.5826 101.55 50.3083 101.464 50.1509C100.858 49.038 100.96 47.5699 101.71 46.484C102.629 45.153 104.13 44.9372 104.567 44.9035C105.977 44.7955 107.378 45.4723 108.282 46.6863C109.016 43.5433 110.528 41.4951 112.008 41.6817C113.425 41.8616 113.446 43.7771 113.455 44.5954C113.455 44.6674 113.455 44.7393 113.459 44.7955C114.277 44.6741 114.89 44.8585 115.282 45.3464C116.766 47.1854 114.536 52.7544 114.331 53.258C114.707 55.9739 114.007 57.7096 113.351 58.6898C112.853 59.4362 112.312 59.8634 112.019 60.0612C112.477 60.2299 112.862 60.5446 113.101 60.9471C113.335 61.3427 113.407 61.7812 113.301 62.1769C112.903 63.6674 110.084 64.0789 107.788 64.1598C107.588 64.1666 107.32 64.1756 107.016 64.1756L107.013 64.1778ZM101.518 51.0367C101.322 51.0367 101.113 51.0592 100.894 51.1019C99.6124 51.356 99.4006 52.6532 99.3894 53.4041C99.3308 57.0441 102.314 59.978 104.481 60.4817L104.938 60.5873L104.483 60.6997C104.251 60.7582 103.688 60.9493 103.44 61.4911C103.181 62.0577 103.433 62.631 103.517 62.7929C104.172 64.0631 106.795 63.971 107.784 63.935C109.6 63.8698 112.704 63.5505 113.085 62.1184C113.175 61.7812 113.112 61.4034 112.909 61.0595C112.659 60.639 112.227 60.3265 111.722 60.2029L111.429 60.1309L111.697 59.9938C111.729 59.978 114.82 58.3323 114.106 53.258L114.101 53.2288L114.112 53.1995C114.137 53.1411 116.548 47.2686 115.108 45.4858C114.752 45.0451 114.171 44.8945 113.38 45.0361L113.274 45.0541L113.25 44.9507C113.236 44.8922 113.234 44.7933 113.232 44.5977C113.223 43.8378 113.205 42.0594 111.983 41.9043C110.422 41.7064 109.028 44.3099 108.449 46.9808L108.392 47.2416L108.246 47.0191C107.399 45.7421 105.997 45.0181 104.589 45.126C104.177 45.1575 102.764 45.3598 101.901 46.6099C101.199 47.6283 101.102 49.002 101.663 50.0295C101.814 50.3083 102.154 50.9333 102.895 51.1873C103.51 51.3987 104.229 51.2908 104.979 50.8748L105.083 50.8164L105.134 50.9243C105.164 50.9828 105.826 52.3879 105.353 53.5817C105.123 54.164 104.661 54.5935 103.983 54.8588C103.938 54.8767 103.891 54.87 103.852 54.843L103.803 54.807L103.796 54.7284C103.81 54.4945 103.889 52.4104 102.818 51.4819C102.474 51.1851 102.041 51.0345 101.525 51.0345L101.518 51.0367ZM103.136 51.4864C103.994 52.4171 104.035 54.0269 104.021 54.6002C104.569 54.3574 104.943 53.9887 105.137 53.5053C105.502 52.5835 105.114 51.4796 104.972 51.1334C104.33 51.4661 103.704 51.5853 103.138 51.4864H103.136Z" fill="black"/>
<path d="M113.544 44.9072C113.544 44.9072 111.692 45.1703 110.841 52.3715L113.544 44.9072Z" fill="white"/>
<path d="M110.841 52.4839C110.841 52.4839 110.832 52.4839 110.827 52.4839C110.767 52.4772 110.721 52.4209 110.728 52.358C111.582 45.1546 113.45 44.8083 113.529 44.7971C113.589 44.7881 113.648 44.8308 113.657 44.8915C113.666 44.9522 113.623 45.0084 113.562 45.0174C113.535 45.0219 111.776 45.4378 110.954 52.3827C110.947 52.4389 110.897 52.4817 110.841 52.4817V52.4839Z" fill="black"/>
<path d="M107.774 52.0346C107.734 51.178 107.806 49.4963 108.333 46.9805L107.774 52.0346Z" fill="white"/>
<path d="M107.773 52.1476C107.712 52.1476 107.662 52.1004 107.66 52.0397C107.633 51.4484 107.633 49.7689 108.221 46.9563C108.235 46.8956 108.293 46.8574 108.354 46.8687C108.415 46.8821 108.453 46.9406 108.442 47.0013C107.858 49.7891 107.858 51.4461 107.885 52.0284C107.888 52.0914 107.84 52.1431 107.777 52.1453H107.773V52.1476Z" fill="black"/>
<path d="M111.642 52.6497C111.642 52.6497 111.633 52.6497 111.628 52.6497L106.99 52.0607C106.929 52.0517 106.884 51.9955 106.893 51.9348C106.902 51.8741 106.958 51.8314 107.019 51.8381L111.658 52.4271C111.719 52.4361 111.764 52.4923 111.755 52.5531C111.748 52.6093 111.698 52.652 111.642 52.652V52.6497Z" fill="black"/>
<path d="M105.767 48.7695C105.925 49.8959 105.337 50.7165 105.015 50.9976L105.767 48.7695Z" fill="white"/>
<path d="M105.014 51.1103C104.983 51.1103 104.951 51.0968 104.929 51.0721C104.888 51.0249 104.893 50.9552 104.94 50.9125C105.276 50.6179 105.803 49.84 105.654 48.7833C105.645 48.7226 105.688 48.6642 105.751 48.6574C105.812 48.6485 105.871 48.6912 105.877 48.7541C106.037 49.9052 105.456 50.7596 105.089 51.0833C105.069 51.1013 105.041 51.1103 105.014 51.1103Z" fill="black"/>
<path d="M103.901 54.7388C104 55.1592 104.613 55.6988 105.037 55.8202L103.901 54.7388Z" fill="white"/>
<path d="M105.037 55.9328C105.037 55.9328 105.017 55.9328 105.005 55.9283C104.552 55.7979 103.904 55.2336 103.791 54.7637C103.777 54.703 103.813 54.6423 103.874 54.6288C103.937 54.6153 103.996 54.6513 104.009 54.712C104.1 55.0964 104.681 55.6023 105.066 55.7125C105.127 55.7304 105.161 55.7912 105.143 55.8519C105.129 55.9013 105.084 55.9328 105.035 55.9328H105.037Z" fill="black"/>
<path d="M104.481 60.5908C104.675 60.6493 104.896 60.701 105.146 60.7325C105.709 60.8067 106.191 60.7549 106.543 60.683" fill="white"/>
<path d="M105.695 60.8813C105.506 60.8813 105.319 60.8701 105.132 60.8453C104.902 60.8161 104.672 60.7666 104.451 60.6992C104.393 60.6812 104.359 60.6182 104.377 60.5598C104.395 60.5013 104.458 60.4676 104.517 60.4834C104.728 60.5463 104.945 60.5935 105.163 60.6227C105.614 60.6812 106.071 60.6655 106.524 60.5755C106.585 60.5643 106.643 60.6025 106.657 60.6632C106.668 60.7239 106.63 60.7824 106.569 60.7959C106.278 60.8543 105.988 60.8835 105.697 60.8835L105.695 60.8813Z" fill="black"/>
<path d="M109.29 60.6539C109.617 60.6741 110.088 60.6674 110.631 60.5325C111.135 60.4088 111.532 60.2177 111.804 60.0581" fill="white"/>
<path d="M109.562 60.7752C109.47 60.7752 109.375 60.7729 109.283 60.7662C109.22 60.7617 109.173 60.71 109.177 60.647C109.182 60.5841 109.233 60.5368 109.296 60.5413C109.736 60.5683 110.175 60.5278 110.603 60.4222C111.004 60.3233 111.389 60.1681 111.748 59.9613C111.802 59.9298 111.869 59.9478 111.901 60.0018C111.932 60.0557 111.914 60.1254 111.86 60.1546C111.484 60.3727 111.079 60.5368 110.657 60.6403C110.299 60.7279 109.932 60.7729 109.562 60.7729V60.7752Z" fill="black"/>
<path d="M33.5601 79.1071C33.5443 79.1296 33.5331 79.1453 33.515 79.1678C31.5347 81.895 28.6937 85.9936 24.9448 86.1937C20.8579 86.4162 19.0015 81.8747 17.8007 78.7452C16.6381 75.7055 15.764 72.5782 14.8876 69.4486C14.6127 68.4571 14.3311 67.4724 14.045 66.4921C13.7972 65.6468 13.5448 64.8059 13.2767 63.9696C13.2429 63.8414 13.1979 63.7088 13.1596 63.5806C12.1165 60.3454 16.8477 58.7199 18.3008 61.42C18.3571 61.5212 18.4067 61.6269 18.4518 61.7371C18.4788 61.8045 18.5013 61.8697 18.5239 61.9372C18.9114 63.1512 19.2763 64.3698 19.6301 65.5951C20.3195 67.9782 20.9706 70.3771 21.7005 72.749C22.1939 74.3588 22.7099 75.9776 23.3384 77.5423C23.602 78.1988 24.1608 80.4988 25.3255 80.1121C26.7359 79.6445 27.6799 77.7042 28.5022 76.6116C29.5408 75.2311 30.5276 73.8012 31.5212 72.3803C32.1385 71.5013 32.7513 70.6222 33.3618 69.7364C33.2672 70.9437 33.2222 72.1735 33.2222 73.4168C33.2222 75.348 33.3348 77.2456 33.5578 79.1049L33.5601 79.1071Z" fill="black"/>
<path d="M14.474 53.7591C14.4493 53.7546 14.3862 53.1003 14.028 52.5091C13.4872 51.6187 12.3157 50.6183 11.374 50.1371C10.5494 49.7167 9.58963 49.6088 8.74027 50.0629C7.80078 50.5643 7.57774 51.7289 7.99679 52.6529C7.90667 52.5945 7.77375 52.5158 7.60027 52.4506C7.48987 52.4079 7.40652 52.3876 7.38624 52.3831C7.06857 52.3179 6.74189 52.2955 6.41972 52.3337C5.66948 52.4191 5.02514 52.8845 4.65565 53.532C4.23435 54.2672 4.26589 55.0901 4.32447 55.9062C4.30194 55.9062 4.05186 55.9062 4.02933 55.9062C2.45902 55.9894 1.4542 57.3698 1.59163 58.9233C1.92282 62.6375 6.34087 63.9167 6.34087 63.9167C6.75541 69.3935 11.4754 67.9052 11.4754 67.9052C12.4914 71.046 15.6208 70.041 19.4621 65.794C23.3034 61.5493 18.4438 60.9198 18.4438 60.9198C22.1476 54.8383 15.8416 53.9592 14.4785 53.7613L14.474 53.7591Z" fill="white"/>
<path d="M13.5793 69.8522C13.4171 69.8522 13.2594 69.8364 13.1107 69.805C12.3244 69.6363 11.7477 69.0428 11.4007 68.0423C10.9636 68.157 9.30321 68.5077 7.95594 67.5972C6.95563 66.9204 6.37437 65.7109 6.23243 63.9999C5.64441 63.8066 1.78735 62.4082 1.47869 58.9324C1.40434 58.0938 1.65442 57.2754 2.1681 56.6841C2.63446 56.1468 3.29458 55.8298 4.02228 55.7915C4.0358 55.7915 4.1124 55.7915 4.18675 55.7915C4.19351 55.7915 4.19801 55.7915 4.20477 55.7915C4.14845 54.9462 4.1507 54.184 4.55848 53.4736C4.95726 52.7766 5.64892 52.3067 6.40816 52.2213C6.73034 52.1853 7.06828 52.2011 7.41073 52.273C7.44452 52.2798 7.53239 52.3022 7.64278 52.345C7.69235 52.3629 7.73966 52.3832 7.78697 52.4057C7.52563 51.5401 7.73515 50.4722 8.69041 49.964C9.50823 49.5279 10.4815 49.5549 11.43 50.0382C12.4483 50.5598 13.6109 51.5963 14.129 52.4506C14.4129 52.9183 14.5188 53.4196 14.5616 53.6332C14.5616 53.6422 14.5661 53.6512 14.5661 53.6602C15.589 53.8086 18.4795 54.2582 19.4167 56.2457C19.9822 57.4463 19.7164 58.9908 18.626 60.8366C19.1193 60.9311 20.5432 61.2908 20.9465 62.3834C21.2844 63.2962 20.8136 64.4698 19.5452 65.8705C17.1998 68.4628 15.1091 69.8544 13.5838 69.8544L13.5793 69.8522ZM11.5449 67.7613L11.5787 67.867C11.8964 68.8495 12.4281 69.4273 13.1558 69.5824C14.6247 69.8971 16.8326 68.5235 19.3717 65.7154C20.5793 64.3822 21.0344 63.285 20.7302 62.4576C20.2976 61.2863 18.4435 61.03 18.4254 61.0277L18.2542 61.0053L18.3443 60.8569C19.4663 59.0156 19.7569 57.4957 19.2095 56.3356C18.3083 54.4268 15.429 54.0087 14.4805 53.8715L14.4557 53.867C14.3724 53.8535 14.3611 53.7951 14.3341 53.6759C14.2913 53.4736 14.1921 52.9992 13.9285 52.5653C13.4284 51.7402 12.3064 50.7397 11.3196 50.2361C10.4387 49.7864 9.53977 49.7595 8.78954 50.1596C7.84555 50.6633 7.7284 51.7941 8.09563 52.6035L8.25784 52.961L7.93116 52.7451C7.81626 52.6687 7.6901 52.6058 7.55492 52.554C7.45354 52.5158 7.37919 52.4956 7.35666 52.4911C7.03674 52.4236 6.72358 52.4079 6.42619 52.4416C5.73903 52.5203 5.11046 52.9475 4.74773 53.5838C4.35121 54.274 4.36924 55.0384 4.43007 55.895L4.43908 56.0096L4.32418 56.0141C4.31291 56.0141 4.24758 56.0141 4.17999 56.0141C4.1124 56.0141 4.04481 56.0141 4.02904 56.0141C3.35315 56.0501 2.76738 56.3311 2.33482 56.8302C1.86169 57.3743 1.62964 58.132 1.69948 58.9099C2.0194 62.5049 6.3248 63.7931 6.36761 63.8044L6.44196 63.8268L6.44872 63.9055C6.57488 65.585 7.1246 66.7631 8.07986 67.4083C9.5195 68.3818 11.421 67.8018 11.439 67.795L11.5449 67.7613Z" fill="black"/>
<path d="M2.27579 73.9759L0.867695 73.0272C0.604099 72.8496 0.534257 72.4921 0.714494 72.229L20.3783 43.5097C20.5585 43.2467 20.919 43.1792 21.1826 43.3569L22.5907 44.3056C22.8543 44.4832 22.9241 44.8407 22.7439 45.1038L3.07785 73.8231C2.89761 74.0861 2.53714 74.1535 2.27354 73.9759H2.27579Z" fill="#97623A"/>
<path d="M2.59723 74.187C2.46431 74.187 2.32913 74.1488 2.20972 74.0679L0.801624 73.1191C0.648423 73.0157 0.544787 72.8606 0.510993 72.6785C0.477198 72.4986 0.515499 72.3165 0.619135 72.1636L20.2829 43.4443C20.497 43.1318 20.9273 43.0486 21.2427 43.2622L22.6508 44.211C22.804 44.3144 22.9076 44.4695 22.9414 44.6516C22.9752 44.8315 22.9369 45.0136 22.8333 45.1665L3.17174 73.8858C3.03881 74.0814 2.82027 74.187 2.59948 74.187H2.59723ZM20.8552 43.3724C20.7065 43.3724 20.5578 43.4443 20.4677 43.5747L0.80613 72.294C0.736289 72.3952 0.711506 72.5188 0.734036 72.6402C0.756565 72.7616 0.826407 72.8673 0.930043 72.937L2.33814 73.8858C2.55217 74.0297 2.84055 73.9735 2.98699 73.7621L22.6508 45.0428C22.7206 44.9416 22.7454 44.818 22.7229 44.6966C22.7004 44.5752 22.6305 44.4695 22.5269 44.3998L21.1188 43.451C21.0377 43.3971 20.9476 43.3701 20.8575 43.3701L20.8552 43.3724Z" fill="black"/>
<path d="M31.053 41.3855C34.1827 36.8515 34.3981 31.5799 31.534 29.6112C28.67 27.6425 23.8111 29.7221 20.6814 34.2562C17.5518 38.7902 17.3364 44.0618 20.2004 46.0305C23.0645 47.9992 27.9234 45.9196 31.053 41.3855Z" fill="#97623A"/>
<path d="M22.7187 46.877C21.7815 46.877 20.9096 46.641 20.1684 46.1418C19.1568 45.4606 18.4787 44.3522 18.2061 42.9358C17.7127 40.3593 18.5913 37.1083 20.5559 34.2395C23.6988 29.6508 28.6373 27.5217 31.5661 29.4935C32.5777 30.1747 33.2558 31.2831 33.5284 32.6995C34.0218 35.276 33.1432 38.527 31.1786 41.3958C28.8333 44.8221 25.4831 46.877 22.7187 46.877ZM29.0022 28.9764C26.3167 28.9764 23.0432 30.9998 20.7384 34.3654C18.8076 37.1848 17.9425 40.3728 18.4246 42.8931C18.6837 44.2488 19.3303 45.3077 20.2923 45.9552C23.1198 47.8595 27.9186 45.7574 30.9916 41.2699C32.9224 38.4483 33.7875 35.2625 33.3054 32.7422C33.0463 31.3865 32.3997 30.3276 31.4377 29.6801C30.7303 29.2034 29.8989 28.9786 29.0022 28.9786V28.9764Z" fill="black"/>
<path d="M22.106 43.6358C22.0835 43.6358 22.0632 43.6291 22.043 43.6156C21.3445 43.1457 20.8782 42.3835 20.6912 41.41C20.3532 39.6474 20.9525 37.4239 22.2953 35.4611C24.4446 32.3203 27.8308 30.8657 29.8405 32.2214C29.8923 32.2551 29.9058 32.3271 29.8697 32.3765C29.8359 32.4282 29.7639 32.4417 29.7143 32.4058C27.806 31.1197 24.5618 32.5474 22.48 35.587C21.1711 37.5003 20.5831 39.6609 20.9097 41.3651C21.0855 42.2779 21.518 42.9906 22.1646 43.4267C22.2164 43.4605 22.23 43.5324 22.1939 43.5819C22.1714 43.6133 22.1376 43.6313 22.1015 43.6313L22.106 43.6358Z" fill="black"/>
<path d="M3.58301 60.525C3.58301 60.525 9.10951 63.5893 9.76287 60.833C10.4252 58.0361 4.31972 55.9048 4.31972 55.9048" fill="white"/>
<path d="M8.05368 62.0946C6.2085 62.0946 3.6559 60.694 3.52749 60.622C3.47341 60.5928 3.45314 60.5231 3.48468 60.4691C3.51397 60.4152 3.58381 60.395 3.63788 60.4264C3.67393 60.4467 7.29443 62.4341 8.93233 61.7124C9.31308 61.5438 9.54964 61.247 9.65328 60.8041C10.2841 58.1355 4.34306 56.0288 4.28448 56.0063C4.2259 55.9861 4.19436 55.9209 4.21464 55.8625C4.23491 55.804 4.30025 55.7725 4.35883 55.7928C4.3746 55.7973 5.91337 56.3391 7.35075 57.2182C9.28379 58.4007 10.1579 59.6575 9.87407 60.8536C9.75466 61.3617 9.46853 61.7192 9.0247 61.9148C8.74308 62.0384 8.41415 62.0901 8.05818 62.0901L8.05368 62.0946Z" fill="black"/>
<path d="M5.61426 56.4455C9.79124 58.3722 9.8363 60.8094 9.8363 60.8094C14.34 60.0067 12.8913 56.3803 12.7111 56.0363C12.7043 56.0228 12.7111 56.0048 12.7246 55.9981C16.8565 53.8375 12.5827 50.2335 10.2824 49.7861" fill="white"/>
<path d="M9.72723 60.9419V60.8115C9.72272 60.7867 9.61909 58.4193 5.56602 56.5488C5.50969 56.5218 5.48491 56.4566 5.51195 56.4004C5.53898 56.3442 5.60432 56.3195 5.66064 56.3464C9.35324 58.0506 9.86691 60.1348 9.93676 60.6788C11.3358 60.4068 12.2618 59.8245 12.6899 58.9499C13.2599 57.7853 12.771 56.4004 12.6088 56.0924L12.5862 56.0519L12.5975 55.9867C12.6088 55.9507 12.6335 55.9193 12.6673 55.9035C13.8997 55.2583 14.4539 54.4489 14.3143 53.4956C14.0687 51.8207 11.7188 50.1839 10.2544 49.9007C10.1936 49.8894 10.153 49.8287 10.1643 49.768C10.1756 49.7073 10.2364 49.6668 10.2972 49.6803C11.8067 49.9749 14.2692 51.6318 14.5373 53.4642C14.6432 54.1814 14.4292 55.2088 12.8386 56.0654C12.9828 56.4026 13.5054 57.7898 12.8881 59.0511C12.4128 60.0201 11.3922 60.6496 9.85114 60.9261L9.72272 60.9486L9.72723 60.9419Z" fill="black"/>
<path d="M12.7346 56.1484C12.6738 56.1484 12.6332 56.0877 12.6017 56.0382C11.8109 54.8129 10.2046 53.6775 8.07551 52.8412L8.05073 52.8322L8.0327 52.812C7.77361 52.5219 7.64294 52.0431 7.67899 51.5305C7.71729 50.9954 7.93808 50.5232 8.28053 50.2332C9.13891 49.5115 10.1663 49.6711 10.2564 49.6869C11.9393 49.9297 14.2396 51.7238 14.5235 53.4707C14.6474 54.2261 14.4446 55.303 12.7864 56.1349C12.7662 56.1439 12.7504 56.1484 12.7324 56.1484H12.7346ZM8.18365 52.6456C10.3262 53.4909 11.9551 54.6421 12.7729 55.8921C13.9445 55.2783 14.4581 54.4779 14.3004 53.5089C14.0346 51.8789 11.7974 50.1388 10.2226 49.9117H10.2158C10.2158 49.9117 9.22452 49.7363 8.42697 50.4086C8.12958 50.6581 7.93808 51.0741 7.90429 51.5507C7.87274 51.9846 7.98089 52.4028 8.18365 52.6478V52.6456Z" fill="black"/>
<path d="M18.7793 60.9933C19.5318 59.4532 19.6557 58.0615 19.6129 57.3803C19.5048 55.6469 18.1981 54.6869 16.0668 54.0776C13.2776 53.2817 11.7163 53.2885 10.2767 53.4144C9.25157 53.502 8.34363 54.2395 8.18592 55.2489C7.72632 58.1559 13.8093 59.2216 13.8093 59.2216C13.8093 59.2216 9.55347 62.5086 14.6452 64.7479" fill="white"/>
<path d="M14.6413 64.8604C14.6255 64.8604 14.6097 64.8582 14.5962 64.8514C13.0259 64.1612 12.1675 63.2956 12.0436 62.2794C11.8769 60.9147 13.08 59.7052 13.5553 59.287C13.0687 59.1858 11.9017 58.9115 10.7797 58.4304C8.81285 57.5828 7.87562 56.4789 8.07389 55.2334C8.2361 54.2104 9.15756 53.3988 10.266 53.3044C11.62 53.1875 13.1858 53.1425 16.0967 53.9721C18.4713 54.6488 19.6225 55.7302 19.7239 57.376C19.7757 58.2078 19.5797 59.6085 18.8791 61.0451C18.852 61.1013 18.7844 61.1238 18.7281 61.0968C18.6718 61.0699 18.6493 61.0024 18.6763 60.9462C19.3589 59.55 19.5482 58.1943 19.4986 57.3895C19.4018 55.8314 18.3339 54.8444 16.0336 54.1879C13.1611 53.3673 11.6178 53.4123 10.284 53.5269C9.27696 53.6146 8.43886 54.3453 8.29467 55.2671C7.8576 58.0325 13.7671 59.1004 13.8279 59.1116L14.078 59.1566L13.8775 59.3117C13.8595 59.3252 12.0796 60.7214 12.2689 62.2524C12.3838 63.1832 13.1971 63.9881 14.6886 64.6446C14.7449 64.6693 14.7719 64.7368 14.7471 64.793C14.7291 64.8357 14.6863 64.8604 14.6435 64.8604H14.6413Z" fill="black"/>
<path d="M11.4989 68.0236C11.447 68.0236 11.402 67.9876 11.3885 67.9359C11.3749 67.8752 11.4132 67.8145 11.4741 67.801C12.3415 67.6009 13.6279 67.0681 14.6395 66.1643C14.6868 66.1238 14.7566 66.126 14.7994 66.1733C14.84 66.2205 14.8377 66.2902 14.7904 66.3329C13.7473 67.2637 12.4203 67.8145 11.5259 68.0213C11.5169 68.0213 11.5079 68.0236 11.5011 68.0236H11.4989Z" fill="black"/>
<path d="M16.4775 64.8627C16.4459 64.8627 16.4144 64.8493 16.3918 64.8245C16.3513 64.7773 16.3558 64.7076 16.4031 64.6649C17.7887 63.4508 18.2663 62.1199 18.5817 61.2385C18.6268 61.1149 18.6673 61.0002 18.7079 60.8946C18.7304 60.8361 18.7957 60.8069 18.8521 60.8294C18.9106 60.8518 18.9399 60.917 18.9174 60.9755C18.8769 61.0789 18.8363 61.1936 18.7935 61.315C18.4713 62.2165 17.9824 63.5812 16.5518 64.8335C16.5293 64.8515 16.5045 64.8605 16.4775 64.8605V64.8627Z" fill="black"/>
<path d="M94.225 73.4178C94.225 83.6654 91.0348 92.9799 85.8305 99.8663H41.6139C36.4141 92.9799 33.2217 83.6654 33.2217 73.4178C33.2217 72.1498 33.269 70.8952 33.3659 69.6587C36.3646 72.6174 41.3188 76.7947 48.4179 80.0434C54.7194 82.9279 60.4306 84.0363 64.4049 84.4927C68.2574 84.0273 74.1286 82.8582 80.5766 79.65C86.9795 76.4619 91.4111 72.523 94.0876 69.7509C94.1552 70.6389 94.225 71.9025 94.225 73.4155V73.4178Z" fill="white"/>
<path d="M85.8901 99.9793H41.5609L41.5271 99.9343C36.102 92.7489 33.1123 83.3309 33.1123 73.4183C33.1123 72.1503 33.1596 70.8845 33.2565 69.6525L33.2745 69.4097L33.448 69.5805C37.8255 73.8994 42.8789 77.3865 48.4685 79.945C53.5128 82.254 58.8749 83.7468 64.4081 84.3831C70.0383 83.7019 75.4611 82.0764 80.5303 79.5516C85.5724 77.0403 90.1076 73.7173 94.012 69.675L94.1855 69.4951L94.2035 69.7447C94.2936 70.9407 94.3409 72.1773 94.3409 73.4183C94.3409 83.3332 91.3513 92.7489 85.9239 99.9343L85.8901 99.9793ZM41.6713 99.7545H85.7752C91.153 92.614 94.1134 83.2635 94.1134 73.4183C94.1134 72.2695 94.0728 71.1251 93.9962 70.0122C90.1166 73.9916 85.6197 77.2696 80.6294 79.7539C75.5332 82.29 70.0811 83.9245 64.4217 84.6079H64.4081H64.3946C58.8343 83.9694 53.4452 82.4698 48.3738 80.1496C42.8338 77.6136 37.8187 74.1692 33.4615 69.911C33.3782 71.0621 33.3376 72.2402 33.3376 73.4183C33.3376 83.2635 36.298 92.614 41.6735 99.7545H41.6713Z" fill="black"/>
<path d="M61.389 99.849C61.3259 99.849 61.2764 99.7996 61.2764 99.7366V84.046C61.2764 83.9831 61.3259 83.9336 61.389 83.9336C61.4521 83.9336 61.5017 83.9831 61.5017 84.046V99.7366C61.5017 99.7996 61.4521 99.849 61.389 99.849Z" fill="black"/>
<path d="M67.7425 99.9794C67.6794 99.9794 67.6299 99.93 67.6299 99.867V84.046C67.6299 83.9831 67.6794 83.9336 67.7425 83.9336C67.8056 83.9336 67.8552 83.9831 67.8552 84.046V99.867C67.8552 99.93 67.8056 99.9794 67.7425 99.9794Z" fill="black"/>
<path d="M67.7109 87.5284C67.6568 87.5284 67.6095 87.4902 67.6005 87.4362C67.5892 87.3755 67.6298 87.317 67.6929 87.3058C72.8995 86.4065 77.9934 84.8979 82.8282 82.8183C86.9737 81.0376 91.0606 78.4679 94.0412 75.77C94.0863 75.7295 94.1584 75.7317 94.2012 75.7767C94.244 75.8217 94.2395 75.8936 94.1944 75.9363C91.1957 78.65 87.0863 81.2355 82.9206 83.0251C78.0677 85.1092 72.958 86.6246 67.7334 87.5261C67.7267 87.5261 67.7199 87.5261 67.7132 87.5261L67.7109 87.5284Z" fill="black"/>
<path d="M61.3133 87.6614C61.3133 87.6614 61.2998 87.6614 61.293 87.6614C56.0684 86.7576 50.9587 85.2445 46.1058 83.1603C41.6653 81.2538 35.9518 77.3868 33.2054 74.898C33.1604 74.8553 33.1558 74.7856 33.1987 74.7384C33.2415 74.6911 33.3113 74.6889 33.3586 74.7316C36.0937 77.2069 41.7779 81.056 46.196 82.9535C51.0308 85.0309 56.1248 86.5395 61.3313 87.441C61.3922 87.4523 61.435 87.5107 61.4237 87.5714C61.4147 87.6254 61.3674 87.6636 61.3133 87.6636V87.6614Z" fill="black"/>
<path d="M64.0916 73.85C62.1518 73.85 59.8651 72.636 59.2838 70.2955C59.2681 70.2348 59.3064 70.1741 59.3672 70.1584C59.428 70.1426 59.4888 70.1809 59.5046 70.2416C60.0769 72.546 62.3929 73.6994 64.2809 73.6207C65.5651 73.5645 67.8563 73.0227 68.7958 70.0078C68.8138 69.9493 68.8769 69.9156 68.9378 69.9336C68.9963 69.9515 69.0301 70.0145 69.0121 70.0752C68.0321 73.2205 65.6327 73.7871 64.2921 73.8455C64.2268 73.8478 64.1615 73.85 64.0961 73.85H64.0916Z" fill="black"/>
<path d="M57.7197 66.9878C58.5127 67.6308 60.3106 69.29 60.3376 71.7316C60.3669 74.3306 58.3753 76.2731 57.5732 76.9791" fill="#AB80DF"/>
<path d="M57.5711 77.0916C57.5396 77.0916 57.508 77.0781 57.4878 77.0533C57.4472 77.0061 57.4517 76.9364 57.4968 76.8937C58.5264 75.9877 60.2499 74.1103 60.2251 71.7317C60.2026 69.5891 58.8125 68.0153 57.65 67.0733C57.6027 67.0351 57.5936 66.9631 57.6342 66.9159C57.6748 66.8687 57.7446 66.8597 57.7919 66.9002C58.9905 67.8737 60.4256 69.5014 60.4504 71.7317C60.4774 74.2003 58.7044 76.1338 57.6477 77.0646C57.6274 77.0826 57.6004 77.0916 57.5734 77.0916H57.5711Z" fill="black"/>
<path d="M70.445 66.6772C69.688 67.4439 67.9735 69.3864 68.0073 71.828C68.0434 74.4248 70.035 76.048 70.8348 76.6258" fill="#AB80DF"/>
<path d="M70.8323 76.7383C70.8097 76.7383 70.7872 76.7316 70.7669 76.7181C69.708 75.9537 67.9259 74.3035 67.8921 71.8304C67.8606 69.6068 69.2191 67.7565 70.3636 66.5987C70.4064 66.5537 70.4785 66.5537 70.5236 66.5987C70.5687 66.6414 70.5687 66.7133 70.5236 66.7583C69.4084 67.8869 68.0881 69.6833 68.1174 71.8304C68.149 74.2045 69.8747 75.7986 70.8998 76.5382C70.9494 76.5742 70.9607 76.6439 70.9246 76.6956C70.9021 76.7271 70.8683 76.7428 70.8323 76.7428V76.7383Z" fill="black"/>
<path d="M43.9128 50.7455C43.8947 50.7455 43.879 50.741 43.8609 50.7342C41.5066 49.5359 41.7341 46.4153 41.7364 46.3838C41.7409 46.3209 41.7927 46.2737 41.8581 46.2804C41.9189 46.2849 41.9662 46.3389 41.9617 46.4018C41.9594 46.4311 41.7454 49.4033 43.9646 50.5341C44.0209 50.5634 44.0412 50.6308 44.0141 50.6848C43.9939 50.723 43.9556 50.7455 43.9128 50.7455Z" fill="black"/>
<path d="M42.9667 53.6167H42.9622C41.7749 53.5605 40.7565 52.9377 40.0176 51.8159C39.4633 50.975 39.2606 50.1634 39.2538 50.1297C39.2403 50.069 39.2763 50.0082 39.3372 49.9948C39.398 49.979 39.4588 50.0172 39.4723 50.0779C39.4791 50.1094 40.2812 53.2682 42.9734 53.3941C43.0365 53.3964 43.0838 53.4503 43.0816 53.511C43.0793 53.5717 43.0298 53.619 42.9689 53.619L42.9667 53.6167Z" fill="black"/>
<path d="M41.8644 57.6904C41.8644 57.6904 41.8531 57.6904 41.8463 57.6904C39.0144 57.2497 38.3678 54.2978 38.361 54.2685C38.3475 54.2078 38.388 54.1494 38.4489 54.1359C38.5097 54.1224 38.5683 54.1629 38.5818 54.2236C38.5886 54.2528 39.2036 57.0519 41.8801 57.4678C41.941 57.4768 41.9838 57.5353 41.9747 57.596C41.9657 57.6522 41.9184 57.6904 41.8644 57.6904Z" fill="black"/>
<path d="M57.9507 67.1055C57.6984 67.0178 57.4415 66.9391 57.1757 66.8672C55.1593 66.2849 52.7216 66.0556 50.1284 66.2871C49.6846 66.3209 49.2475 66.3726 48.8262 66.4423C47.0329 66.7008 45.3747 67.1617 43.9418 67.7777C43.6331 67.9059 43.329 68.0453 43.0406 68.1914C42.2859 65.9274 41.8105 63.3082 41.6933 60.5114C41.6505 59.4299 41.6641 58.3755 41.7339 57.3548C41.9096 54.6209 42.4571 52.1276 43.2772 50.0502C44.6875 46.5024 46.9067 44.1957 49.4863 44.0878C52.7801 43.9529 55.7653 47.4062 57.3649 52.566C57.3762 52.5705 57.3762 52.5772 57.3762 52.5862C58.034 54.7378 58.4666 57.1884 58.5657 59.8009C58.6716 62.4179 58.4463 64.9022 57.9507 67.1055Z" fill="white"/>
<path d="M42.9727 68.3515L42.9321 68.2278C42.1616 65.9211 41.693 63.2547 41.5781 60.5185C41.5353 59.4551 41.5488 58.3872 41.6187 57.3485C41.7921 54.6798 42.3283 52.1415 43.171 50.0102C44.6534 46.2825 46.9537 44.0837 49.4792 43.9758C52.7235 43.8387 55.783 47.1099 57.4615 52.508C57.4727 52.5237 57.4817 52.544 57.484 52.5687C58.1779 54.8372 58.5767 57.2698 58.6758 59.7991C58.7794 62.3419 58.5654 64.8779 58.0585 67.1307L58.0315 67.2543L57.9121 67.2116C57.6777 67.1284 57.4254 67.052 57.1438 66.9756C55.0598 66.3753 52.6379 66.1752 50.1348 66.4C49.6707 66.436 49.2359 66.4877 48.8416 66.5551C47.0686 66.8114 45.4352 67.2588 43.982 67.8839C43.6756 68.012 43.3737 68.1491 43.0876 68.293L42.9704 68.3515H42.9727ZM49.6707 44.1962C49.6099 44.1962 49.5491 44.1962 49.4882 44.2007C47.055 44.3041 44.8269 46.4512 43.3782 50.0934C42.5446 52.2022 42.0129 54.7158 41.8417 57.362C41.7719 58.3939 41.7583 59.4529 41.8012 60.5073C41.9138 63.1737 42.3621 65.7727 43.1034 68.0322C43.3602 67.9063 43.6238 67.7872 43.8942 67.6748C45.3631 67.043 47.0168 66.5889 48.8056 66.3303C49.2044 66.2629 49.646 66.2111 50.1146 66.1729C52.6446 65.9481 55.0959 66.1482 57.2024 66.7575C57.4412 66.8227 57.6597 66.8879 57.8647 66.9576C58.3469 64.752 58.5496 62.2834 58.4505 59.8058C58.3536 57.3013 57.9594 54.8934 57.2745 52.6474H57.27L57.2564 52.5979C55.6411 47.3909 52.7483 44.1939 49.6707 44.1939V44.1962Z" fill="black"/>
<path d="M57.1725 66.8678C55.1561 66.2855 52.7184 66.0562 50.1252 66.2877C49.6814 66.3215 49.2443 66.3732 48.823 66.4429C47.0296 66.7014 45.3715 67.1623 43.9386 67.7783C43.6434 66.7374 43.4497 65.62 43.3753 64.4487C43.0059 58.5605 45.8221 53.5963 49.6679 53.3557C53.5114 53.1219 56.9291 57.7016 57.3009 63.5898C57.3707 64.7229 57.3234 65.8246 57.1747 66.8655L57.1725 66.8678Z" fill="black"/>
<path d="M43.8644 67.9335L43.8283 67.8098C43.5264 66.7419 43.3349 65.6155 43.2606 64.4577C43.0804 61.5889 43.6413 58.8438 44.8399 56.7304C46.0475 54.6013 47.7598 53.3648 49.6567 53.2456C53.5589 53.0073 57.0352 57.6477 57.4092 63.5854C57.479 64.7027 57.4362 65.8111 57.283 66.8836L57.265 67.0117L57.1411 66.9757C55.0593 66.3755 52.6374 66.1754 50.1344 66.4002C49.6703 66.4361 49.2354 66.4879 48.8412 66.5553C47.0681 66.8116 45.4347 67.259 43.9815 67.884L43.8644 67.9357V67.9335ZM49.9474 53.4614C49.8573 53.4614 49.7649 53.4637 49.6725 53.4704C47.8521 53.5828 46.2052 54.7812 45.0382 56.8406C43.8599 58.9157 43.3102 61.6159 43.4881 64.4419C43.5602 65.5391 43.736 66.6093 44.0131 67.6232C45.4527 67.0162 47.0658 66.5823 48.8074 66.3305C49.2062 66.263 49.6477 66.2113 50.1163 66.1731C52.5946 65.9505 55.0008 66.1416 57.0802 66.7217C57.2177 65.7055 57.2537 64.6555 57.1861 63.5966C56.8302 57.922 53.6107 53.4592 49.9474 53.4592V53.4614Z" fill="black"/>
<path d="M53.3547 60.4826C50.7864 60.9659 50.489 61.3594 50.1195 64.7767C49.759 61.3594 49.4639 60.9637 46.8955 60.4758C49.4639 59.9924 49.7613 59.599 50.1308 56.1816C50.4912 59.599 50.7864 59.9947 53.3547 60.4848V60.4826Z" fill="white"/>
<path d="M83.1812 49.6336C83.1316 49.6336 83.0843 49.5999 83.073 49.5481C83.0573 49.4874 83.0933 49.4267 83.1541 49.411C85.5783 48.7927 86.0424 45.8475 86.0469 45.8183C86.056 45.7576 86.1145 45.7149 86.1754 45.7239C86.2362 45.7328 86.279 45.7891 86.27 45.852C86.2655 45.8835 85.7788 48.9726 83.2105 49.6291C83.2015 49.6313 83.1924 49.6336 83.1834 49.6336H83.1812Z" fill="black"/>
<path d="M83.9976 52.6415C83.8962 52.6415 83.7925 52.637 83.6889 52.628C83.6258 52.6235 83.5808 52.5673 83.5853 52.5066C83.5898 52.4459 83.6461 52.3987 83.7069 52.4032C86.3857 52.6325 87.6316 49.6131 87.6428 49.5816C87.6654 49.5231 87.7307 49.4961 87.7893 49.5186C87.8479 49.5411 87.8749 49.6063 87.8524 49.6648C87.8389 49.6985 87.5257 50.4741 86.8588 51.2341C86.0455 52.1581 85.061 52.6415 83.9976 52.6415Z" fill="black"/>
<path d="M85.837 55.9105C85.4067 55.9105 84.9494 55.8386 84.4695 55.6632C84.4109 55.643 84.3816 55.5778 84.4019 55.5193C84.4222 55.4609 84.4875 55.4316 84.5461 55.4519C87.0942 56.3782 89.0205 54.2356 89.0385 54.2131C89.0791 54.1659 89.1511 54.1614 89.1985 54.2018C89.2458 54.2423 89.2503 54.3143 89.2097 54.3615C89.194 54.3795 87.8197 55.9083 85.837 55.9083V55.9105Z" fill="black"/>
<path d="M85.6725 59.7534C85.6928 62.4131 85.3661 64.92 84.7804 67.1322C84.7691 67.1592 84.7691 67.1862 84.7601 67.2064C84.7556 67.2267 84.7488 67.2492 84.7443 67.2649C84.7285 67.3391 84.7083 67.4133 84.6857 67.4875C84.3861 67.3571 84.0865 67.2312 83.7643 67.121C83.7485 67.1098 83.7327 67.1053 83.717 67.1008C83.5345 67.0333 83.352 66.9704 83.1605 66.9074H83.156C81.4865 66.3611 79.5715 66.0171 77.5258 65.9429C76.7148 65.9047 75.9172 65.9204 75.149 65.9766C75.0431 65.9834 74.9349 65.9879 74.8336 65.9991C73.2114 66.1363 71.7065 66.4465 70.3997 66.9029C70.1767 66.9839 69.9582 67.0648 69.7441 67.1502C69.1494 64.9762 68.7979 62.5053 68.7889 59.8816C68.7258 51.0032 72.4612 43.7706 77.1248 43.7346C79.709 43.7099 82.0363 45.9109 83.6043 49.3777C83.6043 49.3777 83.6043 49.3822 83.6088 49.3822C83.8476 49.9106 84.0594 50.4704 84.2532 51.0572C84.2757 51.1201 84.296 51.1741 84.314 51.237C84.3455 51.3157 84.3726 51.4012 84.4064 51.4866C84.4379 51.5878 84.4762 51.6979 84.51 51.8081C84.5708 51.9767 84.6249 52.1521 84.6677 52.3319C84.7376 52.5635 84.8029 52.7973 84.8637 53.0356C84.9246 53.2852 84.9831 53.528 85.0327 53.7753C85.1814 54.4318 85.303 55.1243 85.3977 55.8392C85.4247 56.073 85.4585 56.3114 85.4878 56.5497C85.4923 56.5654 85.4923 56.5812 85.4878 56.5924C85.5261 56.9206 85.5621 57.2534 85.5847 57.5974C85.6027 57.8244 85.614 58.0628 85.6252 58.3011C85.632 58.4809 85.6432 58.6563 85.65 58.8362C85.6545 58.8834 85.65 58.9216 85.6568 58.9688C85.668 59.2229 85.6748 59.4881 85.6725 59.7467V59.7534Z" fill="white"/>
<path d="M84.7594 67.6448L84.64 67.5931C84.3584 67.4717 84.0543 67.3413 83.7276 67.2311L83.7028 67.2199C83.7028 67.2199 83.6893 67.2154 83.6825 67.2109C83.5023 67.1434 83.3266 67.0827 83.1418 67.0243L83.1193 67.0198C81.4183 66.4622 79.483 66.1317 77.5207 66.062C76.7434 66.0261 75.9481 66.0373 75.1573 66.0958C75.0515 66.1025 74.9456 66.107 74.8464 66.1182C73.2356 66.2531 71.7554 66.5567 70.4374 67.0175C70.2166 67.0985 69.9981 67.1772 69.7863 67.2626L69.6691 67.3098L69.6353 67.1884C69.018 64.9289 68.6846 62.4064 68.6756 59.8906C68.6125 50.9627 72.402 43.6671 77.1219 43.6311C79.634 43.6041 82.0244 45.6636 83.6758 49.2765H83.678L83.7096 49.344C83.9349 49.8453 84.1489 50.3984 84.3584 51.0302L84.3764 51.0796C84.3922 51.1246 84.408 51.1673 84.4215 51.2168C84.435 51.2482 84.453 51.2977 84.4711 51.3472C84.4846 51.3831 84.4959 51.4191 84.5094 51.4551L84.5387 51.545C84.5634 51.6237 84.5905 51.7046 84.6153 51.7856C84.6806 51.9722 84.7324 52.1453 84.7752 52.3139C84.8496 52.5545 84.9127 52.786 84.9712 53.0154L84.9915 53.0986C85.0456 53.3211 85.0974 53.5392 85.1424 53.7618C85.2889 54.407 85.4106 55.1063 85.5074 55.8324C85.521 55.9404 85.5345 56.046 85.548 56.1539C85.5638 56.2798 85.5818 56.408 85.5953 56.5339C85.6021 56.5586 85.6021 56.5834 85.5998 56.6058C85.6426 56.9656 85.6741 57.2893 85.6944 57.5973C85.7125 57.8244 85.7237 58.065 85.735 58.3033C85.7372 58.3955 85.7417 58.4831 85.7462 58.5708C85.7508 58.6608 85.7553 58.7507 85.7575 58.8406C85.7598 58.8586 85.7598 58.8856 85.7598 58.9103C85.7598 58.9283 85.7598 58.944 85.7598 58.9643C85.7733 59.2565 85.78 59.5196 85.7755 59.7557C85.7958 62.3479 85.4939 64.8412 84.8789 67.1637L84.8698 67.1952C84.8676 67.2086 84.8631 67.2266 84.8563 67.2469C84.8496 67.2716 84.8451 67.2896 84.8406 67.3053C84.827 67.3705 84.8068 67.447 84.7842 67.5234L84.7482 67.6471L84.7594 67.6448ZM83.8132 67.022C84.0971 67.1187 84.3629 67.2289 84.613 67.3345C84.622 67.3031 84.6288 67.2738 84.6355 67.2424C84.6423 67.2176 84.6468 67.2042 84.6513 67.1884L84.6626 67.1592C84.6671 67.1322 84.6716 67.112 84.6806 67.094C85.2866 64.803 85.584 62.3299 85.5638 59.7579C85.566 59.5241 85.5638 59.2633 85.548 58.9845C85.5457 58.9643 85.5457 58.9395 85.5457 58.9126C85.5457 58.8946 85.5457 58.8788 85.5457 58.8586C85.5412 58.7597 85.5367 58.672 85.5322 58.5843C85.5277 58.4944 85.5232 58.4067 85.521 58.3145C85.5097 58.0785 85.4962 57.8424 85.4804 57.6153C85.4601 57.3051 85.4286 56.9768 85.3835 56.6148L85.379 56.5811L85.3835 56.5744C85.3677 56.444 85.352 56.3136 85.334 56.1854C85.3204 56.0775 85.3069 55.9696 85.2934 55.8639C85.1988 55.1445 85.0749 54.4543 84.9307 53.8113C84.8856 53.5887 84.8338 53.3728 84.782 53.1548L84.7617 53.0716C84.7054 52.8467 84.64 52.6174 84.5679 52.3746C84.5274 52.2082 84.4756 52.0396 84.4125 51.8553C84.3877 51.7698 84.3607 51.6911 84.3359 51.6147L84.3089 51.5293C84.2976 51.4978 84.2841 51.4596 84.2706 51.4236C84.2548 51.3786 84.239 51.3337 84.221 51.2887C84.2052 51.2325 84.1917 51.1965 84.1782 51.1583L84.1602 51.1043C83.9551 50.4883 83.7479 49.951 83.5293 49.4609L83.5046 49.4361V49.4114C81.8892 45.8569 79.5664 43.8335 77.1377 43.8559C72.5417 43.8919 68.8536 51.0864 68.9144 59.8906C68.9234 62.3412 69.2411 64.7985 69.8336 67.0086C70.0116 66.9389 70.1918 66.8737 70.3743 66.8062C71.7103 66.3386 73.2108 66.0328 74.8374 65.8957C74.9388 65.8844 75.0469 65.8777 75.1551 65.8732C75.9526 65.8147 76.7569 65.8012 77.5432 65.8395C79.5191 65.9092 81.4701 66.2441 83.1869 66.804L83.2094 66.8085C83.4032 66.8714 83.5879 66.9344 83.7704 67.0041C83.7817 67.0086 83.8042 67.0153 83.8267 67.0265L83.8132 67.022Z" fill="black"/>
<path d="M84.1711 64.3357C84.117 65.3047 83.9796 66.2445 83.7656 67.1236C83.7498 67.1123 83.734 67.1078 83.7183 67.1033C83.5358 67.0359 83.3533 66.9729 83.1618 66.91H83.1573C81.4878 66.3637 79.5728 66.0197 77.5271 65.9455C76.7161 65.9073 75.9185 65.923 75.1503 65.9792C75.0444 65.986 74.9362 65.9905 74.8349 66.0017C73.2127 66.1388 71.7078 66.4491 70.401 66.9055C70.2343 65.8466 70.1757 64.7179 70.2433 63.5578C70.5768 57.6651 73.9652 53.0629 77.811 53.2788C81.6568 53.4901 84.5068 58.443 84.1711 64.3312V64.3357Z" fill="black"/>
<path d="M83.8368 67.3053L83.7038 67.2176C83.7038 67.2176 83.6903 67.2131 83.6836 67.2086C83.5033 67.1411 83.3276 67.0804 83.1428 67.022L83.1203 67.0175C81.4193 66.4599 79.484 66.1294 77.5217 66.0597C76.7445 66.0238 75.9492 66.035 75.1584 66.0935C75.0525 66.1002 74.9466 66.1047 74.8475 66.1159C73.2366 66.2508 71.7564 66.5543 70.4384 67.0152L70.31 67.0602L70.2897 66.9276C70.1163 65.8304 70.0644 64.695 70.1298 63.5552C70.4677 57.6108 73.908 52.9524 77.8169 53.1704C79.2002 53.2469 80.5069 53.9281 81.5928 55.1399C83.4853 57.251 84.4901 60.6909 84.2828 64.3421C84.2288 65.3088 84.0913 66.2531 83.8751 67.1501L83.8368 67.3053ZM83.1721 66.7972L83.1947 66.8017C83.3636 66.8556 83.5259 66.9118 83.6858 66.9703C83.8841 66.1227 84.008 65.2346 84.0598 64.3286C84.2648 60.7358 83.2803 57.359 81.4261 55.2906C80.3807 54.1237 79.1281 53.4695 77.8056 53.3953C74.0296 53.1884 70.6862 57.7457 70.3573 63.5687C70.2942 64.6456 70.3393 65.718 70.4947 66.7589C71.797 66.316 73.2546 66.026 74.8272 65.8934C74.9286 65.8821 75.0367 65.8754 75.1448 65.8709C75.9424 65.8124 76.7467 65.7989 77.533 65.8371C79.5088 65.9068 81.4599 66.2418 83.1766 66.8017L83.1721 66.7972Z" fill="black"/>
<path d="M80.5482 60.862C77.9798 61.3453 77.6825 61.7388 77.313 65.1561C76.9525 61.7388 76.6574 61.3431 74.089 60.8552C76.6574 60.3718 76.9547 59.9784 77.3242 56.561C77.6847 59.9784 77.9798 60.3741 80.5482 60.8642V60.862Z" fill="white"/>
<path d="M64.0737 67.8746C65.8592 67.8746 67.3067 66.6838 67.3067 65.2149C67.3067 63.746 65.8592 62.5552 64.0737 62.5552C62.2882 62.5552 60.8407 63.746 60.8407 65.2149C60.8407 66.6838 62.2882 67.8746 64.0737 67.8746Z" fill="#FF43E8"/>
<path d="M64.0731 67.9846C62.2279 67.9846 60.7274 66.7414 60.7274 65.2125C60.7274 63.6837 62.2279 62.4404 64.0731 62.4404C65.9182 62.4404 67.4187 63.6837 67.4187 65.2125C67.4187 66.7414 65.9182 67.9846 64.0731 67.9846ZM64.0731 62.6675C62.3518 62.6675 60.9527 63.8096 60.9527 65.2148C60.9527 66.6199 62.3518 67.7621 64.0731 67.7621C65.7943 67.7621 67.1934 66.6199 67.1934 65.2148C67.1934 63.8096 65.7943 62.6675 64.0731 62.6675Z" fill="black"/>
<path d="M64.7235 115.321C75.5599 115.321 84.3446 114.046 84.3446 112.473C84.3446 110.899 75.5599 109.624 64.7235 109.624C53.8872 109.624 45.1025 110.899 45.1025 112.473C45.1025 114.046 53.8872 115.321 64.7235 115.321Z" fill="black"/>
<path d="M64.7235 115.436C59.4764 115.436 54.5446 115.139 50.8318 114.599C48.1643 114.213 44.9854 113.529 44.9854 112.47C44.9854 111.411 48.1643 110.728 50.8318 110.341C54.5424 109.802 59.4764 109.505 64.7235 109.505C69.9707 109.505 74.9024 109.802 78.6152 110.341C81.2827 110.728 84.4617 111.411 84.4617 112.47C84.4617 113.529 81.2827 114.213 78.6152 114.599C74.9046 115.139 69.9707 115.436 64.7235 115.436ZM64.7235 109.739C53.0554 109.739 45.2174 111.153 45.2174 112.473C45.2174 113.792 53.0554 115.206 64.7235 115.206C76.3916 115.206 84.2296 113.792 84.2296 112.473C84.2296 111.153 76.3916 109.739 64.7235 109.739Z" fill="black"/>
<path d="M40.304 96.615C43.5461 99.1691 47.0832 100.361 49.5682 99.9739L49.0838 98.0562C47.1643 98.4384 44.2084 97.4312 41.4688 95.2773C37.7312 92.3321 35.8094 88.3684 37.1769 86.4169C38.5422 84.4699 42.6809 85.2725 46.4231 88.2133C46.4884 88.2672 46.5267 86.5113 46.5267 86.5113C42.0839 83.3997 36.9088 82.6646 35.1718 85.1399C33.3199 87.7861 35.6134 92.9234 40.3018 96.6128L40.304 96.615Z" fill="#75D4D7"/>
<path d="M48.5975 100.16C46.117 100.16 43.0124 98.8947 40.2345 96.7049C35.5078 92.9863 33.1963 87.768 35.082 85.0746C35.6047 84.3282 36.4653 83.8313 37.5693 83.6357C40.0633 83.1973 43.5216 84.263 46.5969 86.4168L46.6464 86.4528V86.5135C46.6081 88.2582 46.5563 88.2829 46.4775 88.3189L46.4121 88.3481L46.3513 88.3009C43.7942 86.2909 40.9825 85.223 39.0134 85.513C38.2294 85.6277 37.6436 85.9537 37.2741 86.482C35.9426 88.3796 37.8577 92.2826 41.5412 95.1851C44.1637 97.2467 47.1151 98.3281 49.0616 97.9414L49.1698 97.919L49.7105 100.064L49.5843 100.084C49.2666 100.133 48.9377 100.158 48.593 100.158L48.5975 100.16ZM38.7476 83.7706C38.3511 83.7706 37.9703 83.8021 37.6098 83.8651C36.5532 84.0517 35.7669 84.5036 35.2713 85.2073C33.4554 87.8018 35.7466 92.8784 40.3787 96.5228C43.4405 98.9352 46.892 100.21 49.4288 99.8749L49.003 98.1865C46.9957 98.5282 44.0285 97.4311 41.4016 95.3649C37.6234 92.3882 35.6881 88.3414 37.0871 86.3471C37.4882 85.7738 38.1438 85.4074 38.9819 85.2837C40.9757 84.9914 43.7852 86.0324 46.3513 88.0064C46.3761 87.7253 46.4009 87.1295 46.4144 86.5697C43.8483 84.7846 41.0253 83.7684 38.7476 83.7684V83.7706Z" fill="black"/>
<path d="M87.2624 93.7332C85.1063 95.9703 82.6168 97.2248 80.864 97.1371L80.5869 98.8975C82.8534 98.9627 85.8814 97.4676 88.4655 94.7787C92.1806 90.9251 93.5842 86.0711 91.6061 83.942C89.8578 82.0625 86.0594 82.9303 82.6394 85.8059L82.3465 87.6764C85.2303 84.8796 88.5827 83.8184 89.9817 85.3225C91.4417 86.8895 90.2228 90.6554 87.2602 93.731L87.2624 93.7332Z" fill="#75D4D7"/>
<path d="M80.7332 99.0142C80.6836 99.0142 80.634 99.0142 80.5867 99.0142L80.4561 99.0097L80.7692 97.0177L80.8729 97.0223C82.6549 97.1077 85.1242 95.7879 87.1811 93.6521C90.0987 90.6237 91.3176 86.9231 89.9004 85.401C89.5174 84.9895 88.9767 84.7715 88.2918 84.7535C86.6337 84.7063 84.3852 85.8619 82.4319 87.7572L82.1841 87.9977L82.5378 85.7427L82.5716 85.7157C86.0997 82.7503 89.9365 81.9701 91.6961 83.8632C93.7147 86.035 92.3066 90.9677 88.5532 94.8572C86.0749 97.4337 83.0965 99.012 80.7332 99.012V99.0142ZM80.7242 98.7849H80.7354C83.0357 98.7849 85.951 97.2313 88.3865 94.6998C92.0543 90.8957 93.4624 86.1069 91.5248 84.0228C89.8554 82.2309 86.1718 83.0088 82.7518 85.8686L82.5175 87.3615C84.4551 85.5651 86.6539 84.4837 88.2986 84.5264C89.0488 84.5466 89.6436 84.7872 90.0717 85.2458C91.5721 86.8556 90.351 90.6979 87.3501 93.814C85.2864 95.9543 82.8014 97.2988 80.9675 97.2561L80.7287 98.7849H80.7242Z" fill="black"/>
<path d="M43.6007 78.3848H84.947L79.5872 111.947H50.1073L43.6007 78.3848Z" fill="#75D4D7"/>
<path d="M79.6856 112.061H50.0119L49.9938 111.967L43.458 78.2676H85.0814L79.6856 112.061ZM50.2034 111.832H79.4896L84.8133 78.5014H43.7419L50.2056 111.832H50.2034Z" fill="black"/>
<path d="M81.7306 87.0317C82.1076 87.0317 82.4133 86.7287 82.4133 86.355C82.4133 85.9812 82.1076 85.6782 81.7306 85.6782C81.3536 85.6782 81.048 85.9812 81.048 86.355C81.048 86.7287 81.3536 87.0317 81.7306 87.0317Z" fill="#75D4D7"/>
<path d="M81.7303 87.1462C81.291 87.1462 80.9327 86.791 80.9327 86.3549C80.9327 85.9187 81.291 85.5635 81.7303 85.5635C82.1696 85.5635 82.5278 85.9187 82.5278 86.3549C82.5278 86.791 82.1696 87.1462 81.7303 87.1462ZM81.7303 85.795C81.4171 85.795 81.1625 86.0469 81.1625 86.3549C81.1625 86.6629 81.4171 86.9147 81.7303 86.9147C82.0434 86.9147 82.298 86.6629 82.298 86.3549C82.298 86.0469 82.0434 85.795 81.7303 85.795Z" fill="black"/>
<path d="M80.4738 97.7153C80.4738 98.0885 80.1674 98.392 79.7912 98.392C79.4149 98.392 79.1085 98.0885 79.1085 97.7153C79.1085 97.3421 79.4149 97.0386 79.7912 97.0386C80.1674 97.0386 80.4738 97.3421 80.4738 97.7153Z" fill="#75D4D7"/>
<path d="M79.7908 98.5066C79.3515 98.5066 78.9933 98.1514 78.9933 97.7152C78.9933 97.2791 79.3515 96.9238 79.7908 96.9238C80.2302 96.9238 80.5884 97.2791 80.5884 97.7152C80.5884 98.1514 80.2302 98.5066 79.7908 98.5066ZM79.7908 97.1531C79.4777 97.1531 79.2231 97.405 79.2231 97.713C79.2231 98.021 79.4777 98.2728 79.7908 98.2728C80.104 98.2728 80.3586 98.021 80.3586 97.713C80.3586 97.405 80.104 97.1531 79.7908 97.1531Z" fill="black"/>
<path d="M47.9913 87.0339C48.0003 87.4072 47.7029 87.7174 47.3267 87.7264C46.9504 87.7354 46.6373 87.4409 46.6283 87.0677C46.6192 86.6945 46.9166 86.3842 47.2929 86.3752C47.6691 86.3662 47.9823 86.6607 47.9913 87.0339Z" fill="#75D4D7"/>
<path d="M47.3086 87.8432C46.8783 87.8432 46.5223 87.5015 46.5111 87.072C46.5065 86.8607 46.5831 86.6606 46.7318 86.5055C46.8783 86.3526 47.0765 86.2649 47.2906 86.2604C47.7344 86.2514 48.0971 86.5954 48.1084 87.0316C48.1129 87.2429 48.0363 87.443 47.8876 87.5981C47.7412 87.751 47.5429 87.8387 47.3289 87.8432C47.3221 87.8432 47.3154 87.8432 47.3086 87.8432ZM47.3086 86.4897C47.3086 86.4897 47.2996 86.4897 47.2951 86.4897C47.1441 86.4942 47.0022 86.5549 46.8986 86.6629C46.7949 86.7708 46.7386 86.9124 46.7431 87.0631C46.7499 87.3711 47.0157 87.6206 47.3244 87.6094C47.4753 87.6049 47.6173 87.5442 47.7209 87.4363C47.8245 87.3283 47.8808 87.1867 47.8763 87.0361C47.8696 86.7326 47.615 86.4897 47.3109 86.4897H47.3086Z" fill="black"/>
<path d="M50.4034 98.8147C50.4124 99.1879 50.115 99.4982 49.7388 99.5072C49.3625 99.5162 49.0494 99.2216 49.0404 98.8484C49.0313 98.4752 49.3287 98.165 49.705 98.156C50.0812 98.147 50.3944 98.4415 50.4034 98.8147Z" fill="#75D4D7"/>
<path d="M49.7207 99.622C49.2904 99.622 48.9344 99.2803 48.9232 98.8509C48.9187 98.6395 48.9953 98.4394 49.144 98.2843C49.2904 98.1314 49.4887 98.0437 49.7027 98.0392C50.1353 98.0212 50.5092 98.3742 50.5205 98.8104C50.525 99.0217 50.4484 99.2218 50.2997 99.377C50.1533 99.5298 49.955 99.6175 49.741 99.622C49.7342 99.622 49.7275 99.622 49.7207 99.622ZM49.7207 98.2708C49.7207 98.2708 49.7117 98.2708 49.7072 98.2708C49.5562 98.2753 49.4143 98.336 49.3107 98.4439C49.207 98.5518 49.1507 98.6935 49.1552 98.8441C49.162 99.1521 49.4278 99.3994 49.7365 99.3904C49.8874 99.3859 50.0294 99.3252 50.133 99.2173C50.2366 99.1094 50.293 98.9678 50.2885 98.8171C50.2817 98.5136 50.0271 98.2708 49.7207 98.2708Z" fill="black"/>
<path d="M49.3679 86.2849L52.5423 106.607C52.6865 107.524 54.1644 107.293 54.0225 106.373L50.8481 86.0511C50.7039 85.1338 49.2259 85.3654 49.3679 86.2849Z" fill="white"/>
<path d="M57.4273 113.242C58.2992 112.655 58.966 111.726 58.9953 110.647C59.0201 109.649 58.4952 108.727 58.1617 107.801C57.8328 106.89 57.8125 106.94 57.5602 106.004C57.4295 105.519 57.3326 104.388 57.3417 103.887C57.3417 103.824 57.2628 103.797 57.229 103.848C56.8798 104.368 56.0349 105.838 56.2963 107.574C56.623 109.743 56.1724 109.572 55.5776 109.042C54.9828 108.511 54.2145 107.351 54.9377 104.862C55.6632 102.374 53.016 99.2529 53.016 99.2529L51.8557 103.343C51.8557 103.343 51.0176 105.831 51.7025 108.415C51.7701 108.666 51.5313 108.898 51.2812 108.819C50.7923 108.666 49.1251 108.001 48.1631 105.483C48.1631 105.483 45.3784 112.259 50.4431 113.559C52.66 114.127 55.3793 114.618 57.425 113.239L57.4273 113.242Z" fill="#FFE12B"/>
<path d="M54.1616 114.244C52.9134 114.244 51.6225 113.979 50.4149 113.671C49.1735 113.352 48.2881 112.682 47.7812 111.677C46.5375 109.201 47.993 105.593 48.056 105.44L48.1664 105.17L48.2701 105.442C49.1758 107.816 50.701 108.518 51.3138 108.709C51.3904 108.734 51.4715 108.713 51.5278 108.657C51.5864 108.601 51.6089 108.522 51.5887 108.444C50.9015 105.856 51.7351 103.329 51.7441 103.304L52.9607 99.0122L53.1004 99.1786C53.2108 99.309 55.7792 102.376 55.0447 104.896C54.513 106.724 54.7203 108.129 55.6508 108.959C55.9887 109.26 56.1216 109.291 56.1734 109.264C56.2455 109.226 56.3897 108.985 56.1779 107.594C55.9121 105.831 56.7547 104.343 57.1287 103.785C57.1738 103.72 57.2526 103.691 57.3292 103.716C57.4058 103.74 57.4554 103.81 57.4554 103.891C57.4464 104.365 57.5365 105.487 57.6694 105.975C57.8496 106.643 57.9082 106.798 58.0502 107.178C58.1065 107.326 58.1741 107.506 58.2664 107.762C58.3498 107.992 58.4467 108.226 58.539 108.453C58.8274 109.154 59.1271 109.878 59.1068 110.651C59.0798 111.686 58.4895 112.664 57.4892 113.338C56.4956 114.008 55.3466 114.246 54.1593 114.246L54.1616 114.244ZM48.1687 105.804C47.8533 106.699 46.9859 109.577 47.9907 111.573C48.4638 112.515 49.2997 113.147 50.4735 113.448C52.7782 114.04 55.4007 114.467 57.363 113.145C58.3025 112.513 58.8545 111.602 58.8792 110.645C58.8973 109.919 58.6089 109.217 58.3273 108.54C58.2326 108.311 58.1358 108.075 58.0502 107.841C57.9578 107.587 57.8902 107.407 57.8339 107.261C57.6919 106.886 57.6288 106.715 57.4464 106.038C57.3247 105.586 57.2368 104.619 57.2256 104.071C56.8381 104.694 56.1779 106.02 56.41 107.562C56.6353 109.062 56.4731 109.368 56.2861 109.469C56.0608 109.59 55.7747 109.379 55.4998 109.134C54.8036 108.511 54.121 107.261 54.8262 104.835C55.43 102.762 53.5938 100.188 53.0644 99.5046L51.9672 103.378C51.9582 103.408 51.1471 105.872 51.814 108.39C51.8568 108.549 51.8095 108.713 51.6901 108.83C51.5707 108.945 51.4039 108.983 51.2462 108.934C50.6267 108.74 49.1217 108.052 48.1687 105.809V105.804Z" fill="black"/>
<path d="M56.8453 105.712C56.8453 105.712 57.8253 108.397 58.2421 109.908C58.6319 111.326 57.3161 113.467 53.7137 113.377C51.2196 113.314 46.8286 112.952 48.417 106.922C48.417 106.922 50.5956 110.364 51.9676 109.523C52.8192 109.002 52.3078 107.626 52.1997 106.861C52.0893 106.063 52.0577 105.258 52.1614 104.458C52.3326 103.134 52.8665 101.834 53.1955 100.539C53.1955 100.539 54.5472 102.185 54.3557 103.646C54.1935 104.88 53.9209 106.095 54.0088 107.347C54.0539 107.985 54.3986 108.714 54.8086 109.231C55.1803 109.701 55.854 110.15 56.4262 109.761C56.807 109.503 56.8836 108.968 56.9512 108.554C57.0278 108.089 56.9354 106.178 56.843 105.712H56.8453Z" fill="#FF9F00"/>
<path d="M79.6286 113.228C80.6176 112.517 81.2755 111.836 81.3228 110.552C81.3611 109.504 80.8204 108.531 80.4802 107.555C80.1445 106.595 79.6984 105.691 79.597 104.68C79.5542 104.257 79.4754 103.735 79.3717 103.306C79.3537 103.227 79.2456 103.218 79.2118 103.29C78.9189 103.906 78.3827 105.523 78.6328 107.306C78.9527 109.585 78.3759 109.394 77.7564 108.828C77.1368 108.263 76.3438 107.038 77.1345 104.435C77.9253 101.831 75.1812 98.5239 75.1812 98.5239L73.9173 102.802C73.9173 102.802 73.0094 105.406 73.6988 108.124C73.7664 108.389 73.514 108.628 73.2504 108.542C72.739 108.376 72.2952 107.58 71.3152 104.927C71.3152 104.927 67.4401 112.259 72.739 113.677C77.4567 114.941 79.6241 113.225 79.6308 113.221L79.6286 113.228Z" fill="#FFE12B"/>
<path d="M75.9884 114.264C75.0715 114.264 73.981 114.139 72.7059 113.799C71.469 113.469 70.6196 112.79 70.1803 111.785C69.0088 109.105 71.1198 105.053 71.2099 104.882L71.3316 104.653L71.4217 104.896C72.3567 107.425 72.8095 108.286 73.2849 108.441C73.366 108.468 73.4538 108.448 73.5169 108.39C73.58 108.329 73.6071 108.244 73.5845 108.16C72.8929 105.438 73.7963 102.798 73.8053 102.771L75.1278 98.2905L75.2675 98.4569C75.3801 98.594 78.0409 101.841 77.2411 104.473C76.6598 106.389 76.8648 107.868 77.8313 108.749C78.2211 109.105 78.3788 109.105 78.4396 109.073C78.5298 109.026 78.7168 108.761 78.5162 107.326C78.2189 105.197 79.0141 103.439 79.1065 103.246C79.1448 103.167 79.2214 103.122 79.3115 103.131C79.3971 103.14 79.4647 103.201 79.485 103.284C79.5796 103.682 79.6652 104.201 79.7126 104.671C79.7869 105.406 80.0438 106.076 80.3164 106.782C80.4087 107.025 80.5034 107.27 80.5912 107.517C80.6746 107.758 80.7737 108.005 80.8683 108.244C81.1635 108.981 81.4699 109.745 81.4406 110.557C81.3933 111.852 80.7399 112.576 79.699 113.32C79.6224 113.379 78.4261 114.262 75.9907 114.262L75.9884 114.264ZM71.2955 105.226C70.8607 106.139 69.4188 109.473 70.3898 111.692C70.7999 112.63 71.5997 113.262 72.7644 113.574C77.3289 114.797 79.4647 113.206 79.5549 113.138H79.5594C80.5687 112.412 81.1612 111.755 81.2063 110.548C81.2333 109.786 80.9382 109.046 80.652 108.329C80.5552 108.088 80.456 107.839 80.3704 107.594C80.2848 107.349 80.1924 107.106 80.0978 106.865C79.832 106.175 79.5571 105.46 79.4805 104.694C79.4377 104.266 79.3634 103.799 79.2777 103.423C79.102 103.821 78.4802 105.406 78.7438 107.295C78.9128 108.504 78.8519 109.116 78.5455 109.278C78.2752 109.419 77.9372 109.161 77.6736 108.92C76.9504 108.262 76.2498 106.942 77.018 104.408C77.6781 102.227 75.7609 99.4911 75.2224 98.7806L74.0216 102.843C74.0103 102.875 73.1317 105.451 73.8053 108.104C73.8481 108.271 73.7985 108.441 73.6724 108.558C73.5462 108.675 73.375 108.716 73.2105 108.662C72.6586 108.482 72.2192 107.702 71.2955 105.229V105.226Z" fill="black"/>
<path d="M79.1737 105.305C79.1737 105.305 80.1222 108.178 80.5412 109.768C80.9355 111.261 79.3066 113.239 75.8776 113.426C74.0978 113.522 68.9813 112.778 71.2793 106.467C71.2793 106.467 72.5117 110.161 73.9626 109.293C74.8615 108.756 74.3411 107.306 74.2374 106.503C74.1293 105.665 74.1068 104.819 74.2239 103.981C74.4199 102.591 74.9922 101.236 75.3527 99.8799C75.3527 99.8799 76.7517 101.622 76.5355 103.153C76.353 104.446 76.0511 105.719 76.1299 107.034C76.1705 107.706 76.5219 108.473 76.9477 109.019C77.333 109.516 78.0337 109.997 78.6397 109.595C79.0407 109.329 79.1286 108.767 79.2052 108.333C79.2908 107.845 79.266 105.793 79.1737 105.305Z" fill="#FF9F00"/>
<path d="M69.3909 113.45C70.5444 112.62 71.3127 111.829 71.3668 110.329C71.4118 109.106 70.781 107.973 70.3822 106.836C69.9925 105.716 69.8595 104.547 69.5734 103.396C69.5329 103.229 69.3684 102.571 69.231 102.015C69.2264 101.997 69.2039 101.993 69.1949 102.009C68.9989 102.278 67.7643 104.088 68.1067 106.539C68.4785 109.199 67.9287 108.985 67.2078 108.326C66.4846 107.667 65.5609 106.238 66.4823 103.202C67.4038 100.167 64.2046 96.3115 64.2046 96.3115L62.7312 101.303C62.7312 101.303 61.6723 104.338 62.4766 107.51C62.5554 107.82 62.2603 108.099 61.9539 107.998C61.3569 107.805 60.3904 106.937 59.2459 103.843C59.2459 103.843 55.1725 112.144 61.3524 113.799C66.8541 115.271 69.3864 113.459 69.3932 113.455L69.3909 113.45Z" fill="#FFE12B"/>
<path d="M65.3675 114.485C64.2545 114.485 62.9095 114.334 61.3212 113.907C59.841 113.511 58.8159 112.704 58.2707 111.506C56.8829 108.457 59.048 103.976 59.1403 103.787L59.2597 103.545L59.3521 103.799C60.5327 106.991 61.5104 107.729 61.9881 107.884C62.0917 107.917 62.1976 107.893 62.2764 107.819C62.3553 107.744 62.3868 107.636 62.3621 107.533C61.5578 104.365 62.6099 101.29 62.6189 101.26L64.1532 96.0669L64.2928 96.2333C64.2928 96.2333 65.1084 97.2225 65.7911 98.5625C66.4241 99.808 67.0798 101.627 66.5931 103.232C65.915 105.474 66.1538 107.205 67.287 108.237C67.625 108.545 67.848 108.675 67.9516 108.621C68.0665 108.56 68.2265 108.212 67.9945 106.551C67.6498 104.082 68.8573 102.274 69.1029 101.937L69.1457 101.876L69.2381 101.883C69.2899 101.894 69.3327 101.933 69.344 101.984L69.6864 103.365C69.7923 103.792 69.8802 104.23 69.9635 104.651C70.1055 105.361 70.2497 106.096 70.493 106.793C70.5921 107.074 70.707 107.362 70.8174 107.641C71.1621 108.5 71.5181 109.388 71.482 110.33C71.428 111.832 70.6665 112.673 69.4589 113.54C69.4273 113.563 68.1026 114.48 65.3675 114.48V114.485ZM59.2327 104.14C58.7956 105.134 57.3177 108.862 58.4802 111.411C58.9961 112.542 59.9717 113.307 61.3798 113.684C64.1915 114.437 66.2011 114.309 67.3907 114.069C68.6816 113.808 69.3147 113.363 69.3214 113.358C70.5042 112.511 71.1982 111.742 71.25 110.328C71.2838 109.435 70.9368 108.569 70.6011 107.733C70.4885 107.452 70.3713 107.162 70.2722 106.877C70.0244 106.164 69.8757 105.422 69.7337 104.702C69.6504 104.282 69.5648 103.85 69.4589 103.425L69.166 102.252C68.819 102.794 67.9246 104.43 68.2175 106.524C68.4721 108.345 68.2783 108.711 68.053 108.83C67.7917 108.967 67.4515 108.711 67.1248 108.412C66.2867 107.648 65.4734 106.117 66.3656 103.169C67.1473 100.586 64.8426 97.3394 64.2455 96.5593L62.8352 101.335C62.8239 101.371 61.7943 104.381 62.5829 107.481C62.6302 107.668 62.5738 107.859 62.4319 107.992C62.29 108.124 62.0962 108.167 61.9137 108.109C61.3009 107.908 60.3434 107.054 59.2327 104.145V104.14Z" fill="black"/>
<path d="M69.1825 104.168C69.1825 104.168 69.9665 107.563 70.4554 109.417C70.915 111.158 69.2749 113.761 64.8658 113.604C61.8131 113.496 57.1292 112.961 59.1523 105.6C59.1523 105.6 61.0899 109.874 62.7818 108.862C63.8295 108.235 63.2234 106.544 63.1018 105.609C62.9756 104.631 62.9486 103.646 63.086 102.666C63.3135 101.047 63.9827 99.4643 64.404 97.8838C64.404 97.8838 66.0374 99.914 65.7828 101.701C65.5687 103.21 65.2173 104.692 65.3097 106.227C65.357 107.009 65.767 107.904 66.2627 108.543C66.711 109.121 67.5288 109.683 68.2362 109.213C68.7049 108.903 68.8062 108.248 68.8964 107.742C68.9955 107.174 69.2884 104.736 69.1825 104.165V104.168Z" fill="#FF9F00"/>
<path d="M33.9408 111.076C31.7036 111.964 26.0036 112.133 22.667 111.494L23.9377 96.0824L32.6003 95.7114C32.9833 98.9264 33.72 109.21 33.9408 111.076Z" fill="#75D4D7"/>
<path d="M27.4441 111.989C25.7251 111.989 24.0039 111.865 22.6431 111.604L22.5439 111.586L23.8304 95.9742L32.698 95.5942L32.7093 95.6977C32.9278 97.53 33.2568 101.608 33.5474 105.206C33.7659 107.917 33.9552 110.26 34.0498 111.062L34.0588 111.148L33.9777 111.179C32.6597 111.703 30.0553 111.989 27.4419 111.989H27.4441ZM22.785 111.402C26.1532 112.022 31.6279 111.822 33.8155 111.002C33.7164 110.123 33.5339 107.845 33.3221 105.224C33.0382 101.694 32.716 97.7031 32.4975 95.8281L24.0377 96.19L22.7828 111.402H22.785Z" fill="black"/>
<path d="M31.3217 104.248C31.3127 104.275 30.3169 103.632 28.5798 103.944C27.7125 104.1 27.2619 104.581 26.6761 105.147C26.6175 105.206 25.7749 103.681 23.8779 103.762L23.335 110.329C26.2503 110.867 31.2203 110.781 33.1624 110.093C33.0384 109.214 32.732 106.026 32.4279 103.036C31.8872 103.108 31.5853 103.486 31.3239 104.25L31.3217 104.248Z" fill="white"/>
<path d="M27.8395 110.786C26.2309 110.786 24.5907 110.674 23.311 110.437L23.2119 110.419L23.7706 103.652L23.8698 103.648C25.4604 103.58 26.348 104.617 26.6387 104.956C26.6499 104.97 26.6612 104.981 26.6702 104.992L26.6972 104.965C27.2402 104.439 27.7066 103.985 28.5582 103.832C29.2431 103.708 30.2614 103.657 31.2527 104.097C31.5343 103.335 31.8745 102.991 32.4085 102.922L32.5234 102.906L32.5347 103.02C32.6158 103.828 32.6991 104.648 32.778 105.435C32.9943 107.582 33.179 109.435 33.2691 110.073L33.2826 110.163L33.197 110.195C32.1088 110.579 30.0023 110.784 27.8395 110.784V110.786ZM23.453 110.235C26.3863 110.752 31.1266 110.642 33.0371 110.015C32.9424 109.3 32.7645 107.512 32.5572 105.46C32.4828 104.713 32.404 103.933 32.3251 103.167C31.9218 103.265 31.665 103.591 31.4262 104.286L31.4104 104.333L31.3631 104.354C31.3135 104.376 31.2798 104.358 31.2099 104.327C30.2547 103.886 29.2611 103.938 28.5987 104.057C27.817 104.196 27.3934 104.608 26.8549 105.129L26.7175 105.262H26.6634C26.6004 105.257 26.5666 105.219 26.4674 105.102C26.1723 104.756 25.395 103.857 23.9779 103.87L23.4507 110.235H23.453Z" fill="black"/>
<path d="M29.5843 105.118C29.501 105.109 29.4875 105.226 29.5708 105.235C29.6542 105.244 29.6677 105.127 29.5843 105.118Z" fill="black"/>
<path d="M29.5822 105.347C29.5822 105.347 29.5687 105.347 29.562 105.347C29.4989 105.34 29.4448 105.302 29.42 105.246C29.3952 105.19 29.402 105.125 29.438 105.073C29.4741 105.023 29.5349 104.999 29.598 105.005C29.6611 105.012 29.7152 105.05 29.7399 105.107C29.7647 105.163 29.758 105.228 29.7219 105.28C29.6904 105.325 29.6386 105.349 29.5822 105.349V105.347ZM29.5732 105.23C29.5867 105.23 29.607 105.224 29.6183 105.208C29.6295 105.192 29.6318 105.174 29.625 105.156C29.616 105.138 29.598 105.125 29.5845 105.125C29.5732 105.125 29.5507 105.131 29.5394 105.147C29.5282 105.163 29.5259 105.181 29.5327 105.199C29.5417 105.217 29.5597 105.23 29.5732 105.23Z" fill="black"/>
<path d="M28.6058 105.684C28.5225 105.675 28.5089 105.792 28.5923 105.801C28.6757 105.81 28.6892 105.693 28.6058 105.684Z" fill="black"/>
<path d="M28.5998 105.916C28.5998 105.916 28.5863 105.916 28.5795 105.916C28.5142 105.909 28.4624 105.871 28.4376 105.815C28.4128 105.758 28.4196 105.693 28.4556 105.644C28.4917 105.594 28.5525 105.57 28.6156 105.576C28.6787 105.583 28.7327 105.621 28.7575 105.677C28.7823 105.734 28.7755 105.799 28.7372 105.848C28.7057 105.893 28.6539 105.918 28.5976 105.918L28.5998 105.916ZM28.593 105.797C28.6066 105.797 28.6268 105.79 28.6381 105.774C28.6494 105.758 28.6516 105.74 28.6449 105.722C28.6359 105.704 28.6178 105.691 28.6043 105.691C28.5908 105.691 28.5705 105.698 28.5593 105.713C28.548 105.729 28.5457 105.747 28.5525 105.765C28.5615 105.783 28.5795 105.797 28.593 105.797Z" fill="black"/>
<path d="M27.9828 106.572C27.8994 106.563 27.8859 106.68 27.9693 106.689C28.0526 106.698 28.0661 106.581 27.9828 106.572Z" fill="black"/>
<path d="M27.9766 106.802C27.9766 106.802 27.9631 106.802 27.9563 106.802C27.8933 106.795 27.8392 106.757 27.8144 106.701C27.7896 106.644 27.7964 106.579 27.8347 106.528C27.8707 106.478 27.9316 106.453 27.9946 106.46C28.0915 106.471 28.1614 106.555 28.1501 106.651C28.1411 106.739 28.0667 106.804 27.9766 106.804V106.802ZM27.9811 106.577L27.9699 106.683C27.9834 106.683 28.0037 106.676 28.0149 106.66C28.0262 106.644 28.0284 106.626 28.0217 106.608C28.0127 106.59 27.9946 106.577 27.9811 106.577ZM27.9789 106.577C27.9586 106.577 27.9293 106.595 27.9271 106.624C27.9226 106.656 27.9496 106.68 27.9699 106.683L27.9811 106.577C27.9811 106.577 27.9789 106.577 27.9766 106.577H27.9789Z" fill="black"/>
<path d="M25.1429 104.983C25.0596 104.974 25.0461 105.091 25.1294 105.1C25.2128 105.109 25.2263 104.992 25.1429 104.983Z" fill="black"/>
<path d="M25.1369 105.212C25.1369 105.212 25.1234 105.212 25.1166 105.212C25.0513 105.205 24.9995 105.167 24.9747 105.111C24.9499 105.055 24.9567 104.99 24.9927 104.94C25.0288 104.891 25.0896 104.866 25.1527 104.873C25.218 104.879 25.2698 104.918 25.2946 104.974C25.3194 105.03 25.3126 105.095 25.2766 105.145C25.2451 105.19 25.1932 105.214 25.1369 105.214V105.212ZM25.1302 105.093C25.1437 105.093 25.164 105.086 25.1752 105.071C25.1865 105.055 25.1887 105.037 25.182 105.019C25.173 105.001 25.1549 104.987 25.1414 104.987C25.1279 104.987 25.1076 104.994 25.0964 105.01C25.0851 105.026 25.0828 105.044 25.0896 105.062C25.0986 105.08 25.1166 105.093 25.1302 105.093Z" fill="black"/>
<path d="M26.3988 106.275C26.3154 106.266 26.3019 106.383 26.3853 106.392C26.4686 106.401 26.4821 106.284 26.3988 106.275Z" fill="black"/>
<path d="M26.3928 106.507C26.3928 106.507 26.3793 106.507 26.3725 106.507C26.3094 106.5 26.2553 106.462 26.2306 106.406C26.2058 106.35 26.2125 106.285 26.2486 106.235C26.2846 106.186 26.3455 106.161 26.4085 106.168C26.4716 106.174 26.5257 106.213 26.5505 106.269C26.5753 106.325 26.5685 106.39 26.5325 106.44C26.5009 106.485 26.4491 106.509 26.3928 106.509V106.507ZM26.386 106.388C26.3995 106.39 26.4198 106.381 26.4311 106.365C26.4423 106.35 26.4446 106.332 26.4378 106.314C26.4288 106.296 26.4108 106.282 26.3973 106.282C26.3838 106.282 26.3635 106.289 26.3522 106.305C26.341 106.32 26.3387 106.338 26.3455 106.356C26.3545 106.374 26.3725 106.388 26.386 106.388Z" fill="black"/>
<path d="M31.6195 105.702C31.5361 105.693 31.5226 105.81 31.606 105.819C31.6893 105.828 31.7029 105.711 31.6195 105.702Z" fill="black"/>
<path d="M31.6135 105.931C31.6135 105.931 31.6 105.931 31.5932 105.931C31.5301 105.924 31.476 105.886 31.4513 105.83C31.4265 105.774 31.4332 105.709 31.4693 105.657C31.5053 105.607 31.5662 105.583 31.6293 105.589C31.6923 105.596 31.7464 105.634 31.7712 105.691C31.796 105.747 31.7892 105.812 31.7532 105.864C31.7216 105.909 31.6698 105.933 31.6135 105.933V105.931ZM31.6045 105.812C31.618 105.812 31.6383 105.805 31.6495 105.79C31.6608 105.774 31.663 105.756 31.6563 105.738C31.6473 105.72 31.6293 105.706 31.6157 105.706C31.6045 105.706 31.5819 105.713 31.5707 105.729C31.5594 105.745 31.5572 105.763 31.5639 105.781C31.5729 105.799 31.591 105.812 31.6045 105.812Z" fill="black"/>
<path d="M30.647 106.588C30.5636 106.579 30.5501 106.696 30.6334 106.705C30.7168 106.714 30.7303 106.597 30.647 106.588Z" fill="black"/>
<path d="M30.6409 106.819C30.6409 106.819 30.6274 106.819 30.6207 106.819C30.5576 106.813 30.5035 106.774 30.4787 106.718C30.454 106.662 30.4607 106.597 30.4968 106.545C30.5328 106.496 30.5936 106.471 30.6567 106.478C30.7536 106.489 30.8234 106.572 30.8122 106.669C30.8032 106.756 30.7288 106.822 30.6387 106.822L30.6409 106.819ZM30.6454 106.595L30.6342 106.7C30.6477 106.702 30.668 106.693 30.6792 106.678C30.6905 106.662 30.6928 106.644 30.686 106.626C30.677 106.608 30.659 106.595 30.6454 106.595ZM30.6409 106.595C30.6207 106.595 30.5914 106.613 30.5891 106.642C30.5846 106.673 30.6117 106.698 30.6319 106.7L30.6432 106.595C30.6432 106.595 30.6409 106.595 30.6387 106.595H30.6409Z" fill="black"/>
<path d="M31.8871 108.4C31.8037 108.391 31.7902 108.508 31.8736 108.517C31.9569 108.526 31.9704 108.409 31.8871 108.4Z" fill="black"/>
<path d="M31.8809 108.629C31.8809 108.629 31.8674 108.629 31.8606 108.629C31.7976 108.623 31.7435 108.584 31.7187 108.528C31.6939 108.472 31.7007 108.407 31.739 108.355C31.775 108.306 31.8359 108.281 31.8989 108.288C31.9958 108.299 32.0657 108.382 32.0544 108.479C32.0454 108.566 31.971 108.632 31.8809 108.632V108.629ZM31.8854 108.405L31.8742 108.51C31.8877 108.51 31.908 108.504 31.9192 108.488C31.9305 108.472 31.9327 108.454 31.926 108.436C31.917 108.418 31.8989 108.405 31.8854 108.405ZM31.8809 108.405C31.8606 108.405 31.8314 108.423 31.8291 108.452C31.8246 108.483 31.8516 108.508 31.8719 108.51L31.8832 108.405C31.8832 108.405 31.8809 108.405 31.8787 108.405H31.8809Z" fill="black"/>
<path d="M24.8636 108.294C24.7803 108.285 24.7668 108.402 24.8501 108.411C24.9335 108.42 24.947 108.303 24.8636 108.294Z" fill="black"/>
<path d="M24.8576 108.526C24.8576 108.526 24.8441 108.526 24.8373 108.526C24.772 108.519 24.7202 108.481 24.6954 108.425C24.6706 108.369 24.6774 108.304 24.7134 108.254C24.7495 108.205 24.8103 108.18 24.8734 108.187C24.9365 108.193 24.9905 108.232 25.0153 108.288C25.0401 108.344 25.0334 108.409 24.9951 108.459C24.9635 108.504 24.9117 108.528 24.8554 108.528L24.8576 108.526ZM24.8486 108.407C24.8621 108.407 24.8824 108.4 24.8937 108.384C24.9049 108.369 24.9072 108.351 24.9004 108.333C24.8914 108.315 24.8734 108.301 24.8599 108.301C24.8464 108.301 24.8261 108.308 24.8148 108.324C24.8036 108.34 24.8013 108.358 24.8081 108.375C24.8171 108.393 24.8351 108.407 24.8486 108.407Z" fill="black"/>
<path d="M25.6429 109.535C25.5596 109.526 25.5461 109.643 25.6294 109.652C25.7128 109.661 25.7263 109.544 25.6429 109.535Z" fill="black"/>
<path d="M25.6369 109.767C25.6369 109.767 25.6234 109.767 25.6166 109.767C25.5197 109.756 25.4499 109.672 25.4612 109.576C25.4724 109.481 25.558 109.414 25.6549 109.425C25.718 109.432 25.7721 109.47 25.7968 109.526C25.8216 109.582 25.8149 109.648 25.7788 109.699C25.7473 109.744 25.6955 109.769 25.6391 109.769L25.6369 109.767ZM25.6279 109.648C25.6459 109.648 25.6797 109.632 25.6842 109.6C25.6887 109.569 25.6617 109.544 25.6414 109.542C25.6279 109.542 25.6076 109.549 25.5963 109.564C25.5851 109.58 25.5828 109.598 25.5896 109.616C25.5986 109.634 25.6166 109.648 25.6301 109.648H25.6279Z" fill="black"/>
<path d="M29.3031 108.47C29.2197 108.461 29.2062 108.578 29.2896 108.587C29.3729 108.596 29.3864 108.479 29.3031 108.47Z" fill="black"/>
<path d="M29.2971 108.701C29.2971 108.701 29.2836 108.701 29.2768 108.701C29.2137 108.694 29.1596 108.656 29.1349 108.6C29.1101 108.544 29.1168 108.479 29.1529 108.427C29.1889 108.377 29.2498 108.353 29.3128 108.359C29.3759 108.366 29.43 108.404 29.4548 108.461C29.4796 108.517 29.4728 108.582 29.4368 108.634C29.4052 108.679 29.3534 108.703 29.2971 108.703V108.701ZM29.2903 108.582C29.3038 108.582 29.3241 108.575 29.3354 108.56C29.3466 108.544 29.3489 108.526 29.3421 108.508C29.3331 108.49 29.3151 108.476 29.3016 108.476C29.2903 108.476 29.2678 108.483 29.2565 108.499C29.2453 108.515 29.243 108.533 29.2498 108.551C29.2588 108.569 29.2768 108.582 29.2903 108.582Z" fill="black"/>
<path d="M24.8213 111.323C24.8213 111.323 24.8145 111.323 24.81 111.323C24.7492 111.317 24.7019 111.263 24.7087 111.2L25.1502 106.615C25.157 106.555 25.2111 106.505 25.2741 106.514C25.335 106.521 25.3823 106.575 25.3755 106.638L24.9339 111.222C24.9294 111.281 24.8799 111.323 24.8213 111.323Z" fill="black"/>
<path d="M28.8261 111.274C28.7653 111.274 28.7157 111.227 28.7135 111.166L28.5558 106.658C28.5558 106.595 28.6031 106.544 28.6639 106.541C28.7248 106.537 28.7788 106.588 28.7811 106.649L28.9388 111.157C28.9388 111.22 28.8915 111.272 28.8306 111.274C28.8306 111.274 28.8284 111.274 28.8261 111.274Z" fill="black"/>
<path d="M32.3848 110.867C32.3307 110.867 32.2834 110.826 32.2744 110.772L31.594 106.447C31.585 106.386 31.6256 106.328 31.6886 106.319C31.7495 106.31 31.8081 106.35 31.8171 106.413L32.4975 110.739C32.5065 110.799 32.4659 110.858 32.4028 110.867C32.3961 110.867 32.3916 110.867 32.3848 110.867Z" fill="black"/>
<path d="M24.2094 97.8671L24.0539 100.844C24.0359 101.179 24.5541 101.206 24.5721 100.871L24.7276 97.894C24.7456 97.5591 24.2274 97.5321 24.2094 97.8671Z" fill="white"/>
<path d="M24.2885 101.381C23.955 101.356 23.9167 101.874 24.2502 101.898C24.5836 101.923 24.6219 101.406 24.2885 101.381Z" fill="white"/>
<path d="M23.0734 97.0935L33.2703 96.7293C33.2703 96.7293 32.9841 90.1711 27.71 90.5601C23.56 90.8659 23.0734 97.0935 23.0734 97.0935Z" fill="#0ECC6D"/>
<path d="M22.9482 97.2105L22.9573 97.0846C22.9618 97.0217 23.498 90.758 27.6975 90.4478C29.0898 90.3443 30.2681 90.7108 31.1986 91.5359C33.2082 93.3188 33.3749 96.5855 33.3794 96.7249L33.3839 96.8373L22.9482 97.2083V97.2105ZM28.1481 90.6568C28.0061 90.6568 27.8619 90.6613 27.7155 90.6726C24.0319 90.9446 23.2952 96.0999 23.1961 96.9767L33.1474 96.6215C33.0978 96.0279 32.7824 93.2423 31.0476 91.7045C30.2613 91.0076 29.2881 90.6568 28.1458 90.6568H28.1481Z" fill="black"/>
<path d="M29.245 91.3085C29.1977 91.4794 29.022 91.5783 28.8508 91.5311C28.6818 91.4839 28.5827 91.3063 28.63 91.1377C28.6773 90.9668 28.853 90.8679 29.0242 90.9151C29.1932 90.9623 29.2923 91.1399 29.245 91.3085Z" fill="black"/>
<path d="M29.0714 92.5024C29.0241 92.6733 28.8484 92.7722 28.6772 92.725C28.5082 92.6778 28.4091 92.5001 28.4564 92.3315C28.5037 92.1606 28.6794 92.0617 28.8507 92.1089C29.0196 92.1562 29.1188 92.3338 29.0714 92.5024Z" fill="black"/>
<path d="M27.661 91.7177C27.6137 91.8886 27.438 91.9875 27.2668 91.9403C27.0978 91.8931 26.9987 91.7155 27.046 91.5468C27.0933 91.376 27.269 91.2771 27.4403 91.3243C27.6092 91.3715 27.7084 91.5491 27.661 91.7177Z" fill="black"/>
<path d="M30.5928 91.9604C30.5455 92.1313 30.3698 92.2302 30.1986 92.183C30.0274 92.1358 29.9305 91.9581 29.9778 91.7895C30.0251 91.6187 30.2008 91.5197 30.3721 91.5669C30.541 91.6142 30.6402 91.7918 30.5928 91.9604Z" fill="black"/>
<path d="M23.184 96.4231C23.1232 96.4231 23.0736 96.3759 23.0714 96.3152C23.0691 96.2523 23.1164 96.2006 23.1795 96.1983L33.1286 95.8296C33.1894 95.8296 33.2435 95.8768 33.2457 95.9375C33.248 96.0005 33.1984 96.0522 33.1376 96.0544L23.1885 96.4231C23.1885 96.4231 23.1863 96.4231 23.184 96.4231Z" fill="black"/>
<path d="M26.0821 91.8441C26.046 91.7564 25.9199 91.6867 25.8275 91.7384C24.8137 92.3094 24.2437 93.4898 24.095 94.6139C24.0612 94.8635 24.4487 94.9152 24.4802 94.6679C24.6087 93.6989 25.0885 92.5995 25.9762 92.1004C26.0686 92.0486 26.1249 91.952 26.0821 91.8463V91.8441Z" fill="white"/>
<path d="M105.02 91.9451C105.036 96.001 105.004 100.122 105.02 104.176C105.031 106.647 105.04 109.12 105.049 111.593C103.81 111.887 102.152 112.161 100.185 112.161C98.2316 112.161 96.5847 111.894 95.3523 111.604L95.3636 104.124L95.3816 92.0553L105.022 91.9429L105.02 91.9451Z" fill="#FFE12B"/>
<path d="M100.165 112.275C98.5334 112.275 96.9067 112.086 95.3252 111.715L95.2373 111.694L95.2486 104.127L95.2666 91.9457L105.132 91.8311V91.9435C105.141 93.9714 105.137 96.0488 105.132 98.061C105.128 100.071 105.123 102.148 105.132 104.176C105.144 106.647 105.153 109.12 105.162 111.593V111.683L105.076 111.703C103.476 112.083 101.832 112.277 100.185 112.277H100.167L100.165 112.275ZM95.4626 111.517C97.0059 111.872 98.5987 112.056 100.183 112.05C101.78 112.05 103.379 111.865 104.934 111.503C104.925 109.062 104.916 106.618 104.905 104.176C104.896 102.148 104.9 100.071 104.905 98.0587C104.909 96.087 104.912 94.0478 104.905 92.0559L95.4874 92.166L95.4603 111.515L95.4626 111.517Z" fill="black"/>
<path d="M97.4101 112.026C97.3471 112.026 97.2975 111.974 97.2998 111.911L97.4507 103.442C97.4507 103.379 97.5003 103.334 97.5656 103.332C97.6287 103.332 97.6783 103.383 97.676 103.446L97.5251 111.915C97.5251 111.976 97.4732 112.026 97.4124 112.026H97.4101Z" fill="black"/>
<path d="M100.09 112.219C100.027 112.219 99.9777 112.167 99.9777 112.106L100 104.298C100 104.235 100.05 104.186 100.113 104.186C100.176 104.186 100.225 104.237 100.225 104.298L100.203 112.106C100.203 112.169 100.153 112.219 100.09 112.219Z" fill="black"/>
<path d="M102.78 112.059C102.719 112.059 102.67 112.009 102.667 111.949L102.487 103.378C102.487 103.315 102.534 103.266 102.598 103.264H102.6C102.661 103.264 102.71 103.313 102.712 103.374L102.893 111.944C102.893 112.007 102.845 112.057 102.782 112.059H102.78Z" fill="black"/>
<path d="M95.3579 111.555L94.2607 113.738C95.9685 113.95 97.8993 114.1 100.019 114.12C102.092 114.141 103.987 114.031 105.67 113.857C105.447 113.093 105.221 112.326 104.998 111.562C103.761 111.845 102.119 112.106 100.186 112.106C98.2417 112.106 96.5993 111.843 95.3602 111.557L95.3579 111.555Z" fill="#0ECC6D"/>
<path d="M100.485 114.233C100.329 114.233 100.174 114.233 100.018 114.233C98.0966 114.215 96.1545 114.086 94.2485 113.85L94.0908 113.83L95.2984 111.427L95.384 111.447C96.9521 111.809 98.5674 111.993 100.185 111.993C101.794 111.993 103.405 111.811 104.97 111.451L105.074 111.427L105.815 113.954L105.68 113.967C103.959 114.143 102.215 114.233 100.485 114.233ZM94.4355 113.644C96.2829 113.866 98.1619 113.988 100.023 114.006C101.85 114.021 103.702 113.938 105.525 113.756L104.921 111.692C103.371 112.038 101.778 112.216 100.187 112.216C98.5832 112.216 96.9814 112.036 95.4223 111.685L94.4378 113.646L94.4355 113.644Z" fill="black"/>
<path d="M99.872 86.5671L99.6377 84.6876C99.7323 84.6224 99.9509 84.4898 100.264 84.4673C100.568 84.4448 100.8 84.5392 100.902 84.5864C100.881 85.2384 100.859 85.8904 100.839 86.5424L99.8697 86.5671H99.872Z" fill="black"/>
<path d="M99.7712 86.6818L99.5166 84.6337L99.5729 84.5955C99.7149 84.4988 99.9469 84.3774 100.256 84.3549C100.557 84.3324 100.801 84.4134 100.949 84.4853L101.015 84.5168L100.947 86.6526L99.7712 86.6818ZM99.7554 84.7416L99.9694 86.4503L100.729 86.4323L100.785 84.6562C100.659 84.6045 100.481 84.5595 100.271 84.5752C100.051 84.591 99.8771 84.6674 99.7554 84.7393V84.7416Z" fill="black"/>
<path d="M95.3752 92.9902L105.018 92.8891L105.049 92.1539C107.309 90.353 106.593 86.2927 99.8856 86.5669C95.0079 86.767 92.6784 89.8382 95.3391 92.2258C95.3481 92.2348 95.3752 92.9902 95.3752 92.9902Z" fill="#0ECC6D"/>
<path d="M95.2646 93.1049L95.2601 92.9947C95.251 92.7092 95.2375 92.3877 95.2308 92.282C94.2327 91.3692 93.8835 90.3103 94.2507 89.2941C94.832 87.6866 97.0399 86.5714 99.8786 86.4568C104.608 86.2657 105.84 88.1655 106.151 88.9928C106.57 90.1147 106.18 91.3737 105.157 92.2123L105.124 93.0037L95.2646 93.1071V93.1049ZM100.489 86.6681C100.293 86.6681 100.093 86.6726 99.8899 86.6816C97.1435 86.794 95.0145 87.8507 94.4648 89.3705C94.1268 90.3058 94.4648 91.2905 95.4155 92.1449C95.4583 92.1831 95.4606 92.1854 95.4854 92.8778L104.912 92.7789L104.941 92.0999L104.982 92.0684C105.957 91.2905 106.336 90.1147 105.944 89.0693C105.374 87.5472 103.357 86.6681 100.491 86.6681H100.489Z" fill="black"/>
<path d="M95.3438 92.3411C95.283 92.3411 95.2312 92.2917 95.2312 92.2287C95.2312 92.1657 95.2808 92.1163 95.3438 92.1163L105.034 92.0376C105.095 92.0376 105.146 92.0871 105.146 92.15C105.146 92.213 105.097 92.2624 105.034 92.2624L95.3438 92.3411Z" fill="black"/>
<path d="M105.493 89.4628C105.383 88.8782 105.034 88.4038 104.599 88.0126C104.47 87.898 104.254 87.9384 104.153 88.0688C104.04 88.2127 104.081 88.3993 104.207 88.514C104.522 88.7973 104.799 89.166 104.869 89.5797C104.946 90.0338 104.799 90.4745 104.59 90.8814C104.511 91.0343 104.606 91.2344 104.757 91.2996C104.923 91.3715 105.094 91.2861 105.173 91.1332C105.435 90.6251 105.601 90.0361 105.491 89.4628H105.493Z" fill="white"/>
</g>
<defs>
<clipPath id="clip0_76_1976">
<rect width="115.435" height="115.435" fill="white" transform="translate(0.413086)"/>
</clipPath>
</defs>
</svg>
