<svg width="130" height="130" viewBox="0 0 130 130" fill="none" xmlns="http://www.w3.org/2000/svg">
<rect x="2" y="2" width="126" height="126" rx="63" fill="#084C3B"/>
<rect x="2" y="2" width="126" height="126" rx="63" stroke="#084C3B" stroke-width="4"/>
<mask id="mask0_111_521" style="mask-type:luminance" maskUnits="userSpaceOnUse" x="22" y="40" width="86" height="52">
<path d="M22.7949 40.6113H107.054V91.0796H22.7949V40.6113Z" fill="white"/>
</mask>
<g mask="url(#mask0_111_521)">
<path d="M92.7883 65.6241C92.7527 65.7774 92.7527 65.9389 92.7883 66.095C94.5434 74.2627 99.4419 80.4864 102.528 83.7365C98.5191 82.9862 91.9258 81.316 87.7229 77.9974C85.4612 76.2122 83.3255 73.9259 81.3733 71.1988C81.3432 71.1605 81.313 71.1221 81.2802 71.0865C81.8552 70.5964 82.3836 70.1173 82.8628 69.6545L91.0688 77.4197C91.2824 77.6251 91.5617 77.7264 91.8355 77.7264C92.1312 77.7264 92.4296 77.6086 92.6487 77.3759C93.0731 76.9269 93.0539 76.2204 92.6049 75.796L84.3934 68.0226C84.7439 67.5982 85.0423 67.1793 85.2696 66.7823H90.2392C90.8552 66.7823 91.3563 66.2812 91.3563 65.6624C91.3563 65.0463 90.8552 64.5453 90.2392 64.5453H85.0943C84.8096 64.1017 84.4454 63.639 84.0292 63.1707L92.6049 55.0523C93.0539 54.6279 93.0731 53.9215 92.6487 53.4725C92.2243 53.0234 91.5151 53.0043 91.0688 53.4287L82.4576 61.5772C82.1043 61.2486 81.7292 60.9146 81.3295 60.5723C81.3459 60.5559 81.3596 60.5367 81.3733 60.5175C83.3255 57.7904 85.4612 55.5041 87.7229 53.7216C91.9258 50.4003 98.5191 48.7329 102.528 47.9799C99.4419 51.23 94.5434 57.4536 92.7883 65.6241ZM70.8837 75.6016C69.6406 76.3217 68.0854 77.1705 66.3111 78.033C66.3029 78.0358 66.2947 78.0385 66.2865 78.044C62.5024 79.8785 57.207 82.0005 51.7883 82.7316C51.7829 82.7316 51.7801 82.7343 51.7746 82.7343C51.2544 82.8028 50.7342 82.8575 50.2139 82.9013C50.0798 82.9123 49.9456 82.9232 49.8087 82.9342C49.7074 82.9397 49.6061 82.9452 49.5048 82.9506C49.3405 82.9616 49.1735 82.9698 49.0092 82.9753C48.9298 82.978 48.8504 82.9807 48.771 82.9835C48.5245 82.9917 48.2754 82.9944 48.0262 82.9944C48.0235 82.9944 48.0207 82.9944 48.0153 82.9944C47.9249 82.9944 47.8345 82.9917 47.7442 82.989C47.6675 82.9835 47.5909 82.9807 47.5142 82.9807C47.4786 82.9807 47.4457 82.9835 47.4129 82.9862C44.5461 82.9096 41.9532 82.2853 39.634 81.316C40.6224 77.3376 41.1427 72.8416 41.1427 68.2444C41.1427 61.8373 40.1433 55.7286 38.317 50.9014C40.9017 49.62 43.8616 48.7602 47.1966 48.637C47.2349 48.6398 47.2705 48.6425 47.3088 48.6425C47.3882 48.6398 47.4676 48.637 47.5443 48.6343C47.7059 48.6261 47.8647 48.6206 48.0262 48.6206C48.2726 48.6206 48.5163 48.6261 48.7628 48.6315C48.8504 48.6343 48.9353 48.6398 49.0229 48.6425C49.1789 48.648 49.335 48.6562 49.4911 48.6644C49.6006 48.6699 49.7101 48.6754 49.8169 48.6836C49.9374 48.6918 50.0579 48.7027 50.1783 48.7109C56.1254 49.1956 62.0862 51.5421 66.229 53.5464C66.2372 53.5491 66.2481 53.5519 66.2563 53.5573C68.0525 54.4281 69.6269 55.2851 70.8837 56.0161C73.3425 57.4427 75.4672 58.861 77.2415 60.1753C77.2634 60.1972 77.2881 60.2164 77.3127 60.2355C80.1548 62.3548 82.0277 64.1647 82.9258 65.3393C82.9258 65.342 82.9285 65.3448 82.9312 65.3503C82.9532 65.3776 82.9723 65.405 82.9942 65.4351C82.9778 65.5091 82.9696 65.5857 82.9696 65.6624C82.9696 65.8157 82.9997 65.9636 83.0572 66.095C83.0161 66.1525 82.9778 66.2073 82.9312 66.2675C82.9312 66.2703 82.9285 66.273 82.9258 66.2757C82.0304 67.4476 80.163 69.2548 77.3264 71.3686C77.3018 71.3877 77.2799 71.4096 77.2552 71.4288C75.4809 72.7485 73.3507 74.1696 70.8837 75.6016ZM63.8249 85.6504C63.9837 86.6826 64.1371 87.6546 63.803 88.0435C63.6278 88.2488 63.072 88.5938 61.3305 88.5938C60.8952 88.5938 60.4051 88.5719 59.8739 88.5281C56.8374 88.2789 53.7652 87.1317 50.7123 85.1055C51.1175 85.0672 51.5227 85.0206 51.9307 84.9686C55.2821 87.7833 60.416 88.2762 60.6433 88.2981C60.657 88.2981 60.6707 88.2981 60.6844 88.2981C60.9308 88.2981 61.1389 88.1119 61.1608 87.8627C61.1854 87.5999 60.991 87.3671 60.7282 87.3425C60.6789 87.337 56.3746 86.9263 53.2532 84.7715C53.7899 84.6811 54.3265 84.577 54.8577 84.4648C57.9627 87.0112 62.6311 87.4602 62.8392 87.4794C62.8529 87.4794 62.8666 87.4794 62.8803 87.4794C63.1267 87.4794 63.3348 87.2932 63.3595 87.0441C63.3814 86.7812 63.187 86.5485 62.9241 86.5238C62.8803 86.5211 58.9511 86.1432 56.0844 84.1855C56.5991 84.0595 57.1084 83.9254 57.6177 83.783C59.6357 85.5354 62.5873 85.8338 62.7215 85.8475C62.7352 85.8475 62.7516 85.8475 62.7653 85.8475C63.0117 85.8475 63.2198 85.6613 63.2417 85.4149C63.2691 85.1493 63.0747 84.9166 62.8118 84.8919C62.7845 84.8892 60.5091 84.6592 58.7485 83.449C59.0798 83.3476 59.4057 83.2409 59.7315 83.1341C61.0129 84.1088 62.7078 84.2786 62.7872 84.2868C62.8036 84.2895 62.8173 84.2895 62.8337 84.2895C63.0774 84.2895 63.2855 84.1034 63.3102 83.8542C63.3348 83.5913 63.1404 83.3586 62.8776 83.334C62.8639 83.3312 61.848 83.2244 60.8952 82.7371C61.9001 82.3784 62.8776 82.0005 63.8195 81.6062C63.4142 83.0136 63.6387 84.4648 63.8249 85.6504ZM37.5777 80.3111C34.3249 78.5478 31.6689 76.1109 29.6537 73.6932C26.932 70.402 25.4206 67.1766 25.1331 65.8075C25.4617 64.2359 27.4112 60.2109 30.9488 56.4542C32.4657 54.8607 34.2646 53.3164 36.3483 52.024C38.0021 56.5501 38.9057 62.248 38.9057 68.2444C38.9057 72.483 38.4484 76.6229 37.5777 80.3111ZM59.8739 42.9172C60.4051 42.8761 60.8952 42.8542 61.3305 42.8542C63.072 42.8542 63.625 43.1992 63.803 43.4046C64.1343 43.7934 63.9837 44.7654 63.8249 45.7949C63.6305 47.0352 63.3923 48.5658 63.8797 50.0334C62.8611 49.609 61.8015 49.1983 60.709 48.8123C61.6701 48.2893 62.7051 48.1688 62.727 48.1661C62.9898 48.1387 63.1815 47.9032 63.1541 47.6404C63.1267 47.3775 62.8912 47.1858 62.6284 47.2132C62.5462 47.2214 60.8486 47.4104 59.559 48.4262C59.2277 48.3167 58.8936 48.2099 58.5569 48.1086C60.3284 46.8217 62.6448 46.5588 62.6722 46.5561C62.9351 46.5287 63.1267 46.2932 63.0993 46.0304C63.072 45.7648 62.8365 45.5758 62.5709 45.6032C62.4395 45.6169 59.4659 45.9482 57.4343 47.7827C56.9168 47.6404 56.3965 47.5035 55.8735 47.3775C58.7622 45.2993 62.7516 44.8722 62.7981 44.8694C63.061 44.842 63.2527 44.6093 63.2253 44.3437C63.2006 44.0809 62.9679 43.8892 62.7023 43.9166C62.4942 43.9357 57.7875 44.4341 54.6633 47.1119C54.1184 46.9996 53.5736 46.8983 53.0259 46.808C56.1665 44.5107 60.5584 44.0425 60.6049 44.037C60.8705 44.0124 61.0622 43.7769 61.0348 43.5141C61.0074 43.2512 60.7747 43.0596 60.5091 43.0842C60.2846 43.1061 55.0987 43.6565 51.7254 46.6218C51.3256 46.5725 50.9258 46.5287 50.5288 46.4958C50.5179 46.4958 50.5069 46.4931 50.496 46.4931C53.0396 44.7818 56.2815 43.2101 59.8739 42.9172ZM106.577 47.1995C106.958 46.8874 107.089 46.3617 106.9 45.9044C106.711 45.4499 106.246 45.1761 105.756 45.2226C105.247 45.2747 93.2018 46.5451 86.3347 51.9638C84.084 53.7435 81.9538 55.9723 80.0015 58.6036C79.4484 58.4722 78.8926 58.3435 78.3532 58.2203C76.4502 56.8239 74.2899 55.4056 72.0063 54.0803C70.8508 53.4122 69.438 52.6346 67.8335 51.8406C67.7267 51.4846 67.4775 51.0903 66.9792 50.6851C65.6102 49.5734 65.7087 48.2263 66.0346 46.1399C66.2646 44.6531 66.5028 43.1198 65.5006 41.9479C64.723 41.0389 63.3978 40.6172 61.3305 40.6172C60.8349 40.6172 60.2846 40.6418 59.6904 40.6884C55.4409 41.0361 51.0135 43.013 46.8598 46.4137C38.9467 46.7916 33.2214 50.948 29.7577 54.4637C25.7821 58.4996 23.4793 63.0229 22.9673 65.2544C22.9646 65.2654 22.9618 65.2736 22.9591 65.2845C22.9372 65.3804 22.918 65.4735 22.9043 65.5611C22.8852 65.6432 22.877 65.7308 22.877 65.8185C22.877 65.8568 22.8797 65.8979 22.8852 65.9335C22.8852 65.9362 22.8852 65.9362 22.8852 65.9389C22.8879 65.9745 22.8934 66.0129 22.9016 66.0485L22.9043 66.0512C22.918 66.1333 22.9345 66.2182 22.9536 66.3086C22.9646 66.3524 22.9755 66.4017 22.9865 66.4482C22.992 66.4729 23.0002 66.5002 23.0056 66.5276C23.3917 68.0582 24.5143 70.4759 26.3844 73.1127C26.3926 73.1209 26.3981 73.1319 26.4036 73.1401C26.494 73.266 26.5843 73.392 26.6774 73.5179C26.7924 73.6768 26.9101 73.8383 27.0306 73.9971C27.0443 74.0135 27.0553 74.0272 27.069 74.0437C27.1155 74.1066 27.1675 74.1723 27.2168 74.2381C27.9698 75.2101 28.8158 76.1958 29.7577 77.1514C33.2543 80.6999 39.0563 84.9029 47.0843 85.2123C51.2216 88.5473 55.4628 90.4119 59.6904 90.7569C60.2846 90.8062 60.8349 90.8308 61.3305 90.8308C63.3978 90.8308 64.723 90.4064 65.5034 89.4974C66.5055 88.3282 66.2673 86.7922 66.0346 85.3081C65.7087 83.219 65.6102 81.8746 66.9792 80.7602C67.3817 80.4343 67.6199 80.1112 67.7541 79.8155C69.3914 79.0051 70.8317 78.2165 72.0063 77.5347C74.2132 76.2533 76.3051 74.887 78.1588 73.5371C78.1807 73.5316 78.2026 73.5289 78.2217 73.5262C78.7748 73.3975 79.3909 73.2578 80.0015 73.1127C81.9538 75.744 84.084 77.9755 86.3347 79.7526C93.2018 85.1712 105.247 86.4444 105.756 86.4964C105.794 86.4992 105.833 86.5019 105.868 86.5019C106.317 86.5019 106.725 86.2308 106.9 85.8119C107.089 85.3574 106.958 84.8317 106.577 84.5168C106.487 84.4429 97.517 76.9652 95.0253 65.8595C97.517 54.7512 106.487 47.2735 106.577 47.1995Z" fill="white"/>
<path d="M31.7185 59.2324C30.7081 59.2324 29.8867 60.0538 29.8867 61.0642C29.8867 62.0745 30.7081 62.896 31.7185 62.896C32.7288 62.896 33.5503 62.0745 33.5503 61.0642C33.5503 60.0538 32.7288 59.2324 31.7185 59.2324Z" fill="white"/>
<path d="M74.8696 60.0528C63.2985 51.9782 47.1411 49.6316 46.4593 49.5358C45.8487 49.4482 45.282 49.8753 45.1943 50.4859C45.1095 51.0993 45.5366 51.6633 46.1472 51.7509C46.3087 51.7728 62.4525 54.1166 73.591 61.8873C73.7854 62.0242 74.0072 62.0899 74.2289 62.0899C74.5821 62.0899 74.9299 61.9229 75.1462 61.6107C75.4994 61.1042 75.3762 60.406 74.8696 60.0528Z" fill="white"/>
</g>
</svg>
