<svg width="130" height="130" viewBox="0 0 130 130" fill="none" xmlns="http://www.w3.org/2000/svg">
<rect x="2" y="2" width="126" height="126" rx="63" stroke="#084C3B" stroke-width="4"/>
<mask id="mask0_111_586" style="mask-type:luminance" maskUnits="userSpaceOnUse" x="22" y="36" width="83" height="57">
<path d="M22.4629 36.1113H104.653V92.8441H22.4629V36.1113Z" fill="white"/>
</mask>
<g mask="url(#mask0_111_586)">
<mask id="mask1_111_586" style="mask-type:luminance" maskUnits="userSpaceOnUse" x="17" y="19" width="102" height="97">
<path d="M88.9589 19.7334L118.325 54.1941L46.9094 115.049L17.543 80.5887L88.9589 19.7334Z" fill="white"/>
</mask>
<g mask="url(#mask1_111_586)">
<mask id="mask2_111_586" style="mask-type:luminance" maskUnits="userSpaceOnUse" x="17" y="19" width="102" height="97">
<path d="M88.9589 19.7334L118.325 54.1941L46.9094 115.049L17.543 80.5887L88.9589 19.7334Z" fill="white"/>
</mask>
<g mask="url(#mask2_111_586)">
<path fill-rule="evenodd" clip-rule="evenodd" d="M63.3877 68.866C61.8904 66.147 58.6714 59.618 59.1998 54.4669C59.7794 48.7959 65.1123 40.7184 68.1808 38.2864C68.8882 37.7295 69.9082 37.8119 70.5191 38.4739C73.1642 41.3605 77.1447 50.1824 76.818 55.8733C76.7867 56.4614 76.6873 57.0552 76.531 57.6519L78.9034 55.6261C79.0057 54.3277 79.3097 51.5774 80.1876 48.7419C81.0485 45.9718 82.4691 43.1562 84.6596 41.3691C89.0834 37.7664 98.5672 35.8288 102.451 36.2805C103.349 36.3828 104.014 37.1641 103.974 38.0648C103.801 41.9742 100.383 51.0291 96.1267 54.8249C94.0157 56.7058 91.0097 57.6604 88.1344 58.0724C85.2023 58.4872 82.4378 58.3508 81.1366 58.2457L78.7699 60.2658C79.3836 60.2089 79.9802 60.2061 80.5627 60.2658C86.2337 60.8454 94.3111 66.1783 96.7403 69.2467C97.3001 69.9542 97.2177 70.9742 96.5528 71.585C93.6662 74.2302 84.8472 78.2107 79.1563 77.8839C73.9995 77.5884 68.087 73.4034 65.6266 71.4799L61.6887 74.8382C62.2939 74.7842 62.8877 74.7814 63.4587 74.841C69.1297 75.4206 77.2072 80.7507 79.6364 83.822C80.1933 84.5295 80.1138 85.5494 79.4489 86.1603C76.5623 88.8026 67.7432 92.7859 62.0524 92.4592C56.6143 92.1467 50.3325 87.507 48.1505 85.7625C46.3008 86.9303 44.4115 88.0468 42.3715 88.7969C36.4647 90.9562 29.4242 89.9249 23.918 87.0183C23.077 86.5723 22.756 85.5295 23.1992 84.6914C23.6424 83.8504 24.6851 83.5294 25.5233 83.9726C30.2027 86.4444 36.1749 87.399 41.1896 85.5636C42.9085 84.9357 44.5052 84.0095 46.0593 83.0265C44.4853 80.1057 41.593 73.9489 42.0959 69.0393C42.6755 63.3712 48.0084 55.2937 51.0769 52.8616C51.7843 52.3048 52.8043 52.3843 53.4152 53.0492C56.0603 55.9358 60.0408 64.7577 59.7141 70.4457C59.68 71.0395 59.5777 71.6475 59.4214 72.2527L63.3877 68.866ZM51.182 83.8021C53.5288 85.6262 58.1457 88.7884 62.2512 89.0242C66.3965 89.2629 72.4852 86.8138 75.7213 84.6857C72.8631 82.069 67.2404 78.6851 63.1093 78.2618C60.9301 78.0402 58.4497 79.0858 56.2308 80.333C54.33 81.4013 52.6168 82.6514 51.4178 83.6004L51.182 83.8021ZM66.0243 66.5789C67.1722 65.5447 68.7973 63.9678 70.2492 62.1381C71.8317 60.1436 73.258 57.8593 73.3858 55.6744C73.6217 51.5291 71.1726 45.4376 69.0445 42.2044C66.4278 45.0598 63.0439 50.6853 62.6206 54.8135C62.2029 58.9077 64.5981 63.9792 66.0243 66.5789ZM82.4293 54.8817C83.7249 54.9414 85.6427 54.9499 87.6514 54.6658C89.8618 54.3476 92.2115 53.7026 93.8367 52.2536C96.9392 49.4892 99.5133 43.4545 100.295 39.6587C96.4221 39.8291 90.055 41.4145 86.836 44.0369C85.1455 45.4121 84.1369 47.6282 83.472 49.7619C82.8754 51.7024 82.5771 53.5947 82.4293 54.8817ZM68.2774 69.224C70.6214 71.0452 75.2468 74.2131 79.3552 74.4518C83.5004 74.6876 89.5891 72.2385 92.8252 70.1105C89.967 67.4937 84.3443 64.1099 80.2132 63.6865C78.034 63.4649 75.5537 64.5105 73.3347 65.7578C71.2976 66.8999 69.482 68.2552 68.2774 69.224ZM48.9204 81.1541C50.0683 80.1199 51.6934 78.5431 53.1453 76.7134C54.7278 74.7189 56.1541 72.4345 56.2819 70.2497C56.5177 66.1044 54.0686 60.0129 51.9406 56.7768C49.3239 59.635 45.94 65.2577 45.5167 69.3888C45.099 73.4829 47.4941 78.5544 48.9204 81.1541Z" fill="#084C3B"/>
</g>
</g>
</g>
</svg>
