<svg width="130" height="130" viewBox="0 0 130 130" fill="none" xmlns="http://www.w3.org/2000/svg">
<rect x="2" y="2" width="126" height="126" rx="63" fill="#084C3B"/>
<rect x="2" y="2" width="126" height="126" rx="63" stroke="#084C3B" stroke-width="4"/>
<mask id="mask0_111_603" style="mask-type:luminance" maskUnits="userSpaceOnUse" x="42" y="54" width="49" height="43">
<path d="M42.4688 54.6387H90.195V96.0965H42.4688V54.6387Z" fill="white"/>
</mask>
<g mask="url(#mask0_111_603)">
<path d="M69.7437 96.1815C69.199 96.1815 68.7293 95.811 68.5985 95.2808C64.8142 79.9523 55.7397 66.3381 43.0454 56.9536C42.5176 56.5662 42.4087 55.8229 42.796 55.3023C43.1834 54.7745 43.9267 54.6631 44.4473 55.0529C56.3353 63.8418 65.1508 76.2068 69.6251 90.2302C72.6806 78.9645 79.0556 68.7253 87.8759 61.0211C88.365 60.5902 89.1131 60.641 89.5441 61.1349C89.9727 61.6264 89.9218 62.3722 89.4279 62.8031C79.8303 71.1804 73.252 82.6931 70.9035 95.2178C70.8066 95.7602 70.3345 96.1621 69.7776 96.1815C69.7679 96.1815 69.7583 96.1815 69.7437 96.1815Z" fill="white"/>
</g>
<mask id="mask1_111_603" style="mask-type:luminance" maskUnits="userSpaceOnUse" x="71" y="41" width="31" height="42">
<path d="M71.5996 41.623H101.833V82.5312H71.5996V41.623Z" fill="white"/>
</mask>
<g mask="url(#mask1_111_603)">
<path d="M79.7733 82.4916C78.0252 82.4916 76.1876 82.327 74.2676 81.9832C73.6211 81.8742 73.1926 81.2593 73.3064 80.6177C73.4177 79.9712 74.0351 79.5427 74.6743 79.6589C81.6061 80.8816 87.2523 79.7121 91.4531 76.1869C98.7239 70.088 99.2856 59.1999 99.2856 56.004C99.2856 49.399 98.5253 46.3193 97.9854 44.9586C95.7555 47.2563 92.6491 48.9099 89.3854 50.6459C81.6715 54.7498 73.6889 58.9966 74.3814 72.4898C74.4153 73.1386 73.9116 73.6931 73.2603 73.727C72.5921 73.7585 72.0546 73.2597 72.0183 72.6084C71.2532 57.6165 80.6934 52.5925 88.2716 48.5589C91.8598 46.6534 95.2471 44.8472 97.1574 42.2953C97.4987 41.8425 98.1282 41.6948 98.6343 41.9491C99.5398 42.4018 101.649 44.6826 101.649 56.004C101.649 65.219 98.4091 73.4389 92.976 77.9955C89.4072 80.9929 84.9861 82.4916 79.7733 82.4916Z" fill="white"/>
</g>
<mask id="mask2_111_603" style="mask-type:luminance" maskUnits="userSpaceOnUse" x="28" y="34" width="39" height="48">
<path d="M28.3848 34.7383H66.6418V81.2951H28.3848V34.7383Z" fill="white"/>
</mask>
<g mask="url(#mask2_111_603)">
<path d="M57.928 81.0964C57.9183 81.0964 57.9086 81.0964 57.8989 81.0916C40.5197 80.6606 28.3848 68.8961 28.3848 52.466C28.3848 38.5031 30.6413 35.5396 31.0941 35.0868C31.3241 34.8519 31.634 34.7139 31.9754 34.7406C32.3022 34.7551 32.6121 34.9028 32.8252 35.1522C34.5467 37.1642 38.268 38.813 42.568 40.7233C54.3591 45.9579 72.1717 53.8703 64.976 79.9609C64.7993 80.588 64.1528 80.9608 63.5209 80.7865C62.8938 80.6098 62.5234 79.9609 62.6953 79.3314C69.3511 55.2044 53.9718 48.3718 41.6092 42.883C37.8322 41.2075 34.4813 39.7209 32.2659 37.8881C31.6703 39.6289 30.7478 43.7231 30.7478 52.466C30.7478 67.7727 41.6819 78.3314 57.9546 78.7309C58.6107 78.7455 59.1216 79.2902 59.1095 79.9415C59.0901 80.5831 58.5696 81.0964 57.928 81.0964Z" fill="white"/>
</g>
</svg>
